<?xml version="1.0" encoding="UTF-8" standalone="no"?>
<!-- Created with Inkscape (http://www.inkscape.org/) -->

<svg
   width="166.91136mm"
   height="166.91136mm"
   viewBox="0 0 166.91136 166.91136"
   version="1.1"
   id="svg1"
   xml:space="preserve"
   sodipodi:docname="discman.svg"
   inkscape:version="1.3.2 (091e20ef0f, 2023-11-25)"
   xmlns:inkscape="http://www.inkscape.org/namespaces/inkscape"
   xmlns:sodipodi="http://sodipodi.sourceforge.net/DTD/sodipodi-0.dtd"
   xmlns="http://www.w3.org/2000/svg"
   xmlns:svg="http://www.w3.org/2000/svg"><sodipodi:namedview
     id="namedview1"
     pagecolor="#ffffff"
     bordercolor="#000000"
     borderopacity="0.25"
     inkscape:showpageshadow="2"
     inkscape:pageopacity="0.0"
     inkscape:pagecheckerboard="0"
     inkscape:deskcolor="#d1d1d1"
     inkscape:document-units="mm"
     inkscape:zoom="0.53589645"
     inkscape:cx="356.41214"
     inkscape:cy="399.33088"
     inkscape:window-width="1920"
     inkscape:window-height="1008"
     inkscape:window-x="0"
     inkscape:window-y="35"
     inkscape:window-maximized="1"
     inkscape:current-layer="layer1" /><defs
     id="defs1" /><g
     inkscape:label="Layer 1"
     inkscape:groupmode="layer"
     id="layer1"
     transform="translate(-20.298346,-40.600342)"><path
       style="fill:#2da5e9;stroke-width:0.665473;fill-opacity:1"
       d="m 103.65008,184.60156 c -2.56027,-0.25236 -2.5366,-0.24247 -18.839809,-7.87623 -4.055968,-1.89915 -9.03151,-4.25537 -13.70691,-6.49104 -1.29261,-0.6181 -2.373466,-1.12381 -2.401902,-1.12381 -0.02844,0 -1.308216,-0.60515 -2.843955,-1.34478 -1.535739,-0.73962 -4.297677,-2.03744 -6.13764,-2.88404 -1.839963,-0.84659 -5.167744,-2.38609 -7.395068,-3.42111 -2.227324,-1.03501 -5.158939,-2.39442 -6.514702,-3.02091 -2.792945,-1.29061 -4.302862,-2.39205 -5.567016,-4.06097 -0.906298,-1.19648 -1.663346,-2.99529 -1.917306,-4.55568 -0.09239,-0.56764 -0.175489,-5.1956 -0.184674,-10.28435 l -0.0167,-9.25227 0.455603,-1.55076 c 0.882573,-3.00405 1.378325,-3.68042 8.053114,-10.98715 0.903101,-0.9886 2.711645,-2.97895 4.018987,-4.423 3.69577,-4.08225 7.228308,-7.98692 9.660819,-10.67855 1.22326,-1.35356 2.818357,-3.100309 3.544658,-3.881658 2.527733,-2.719308 5.046845,-5.466535 6.777305,-7.391013 0.957849,-1.065242 2.380094,-2.610283 3.160544,-3.433425 1.637696,-1.727278 4.847615,-5.202313 6.342965,-6.866848 1.630738,-1.815241 6.034383,-6.498752 10.910172,-11.603547 2.959699,-3.098715 5.131816,-4.174083 8.819401,-4.366298 2.457874,-0.128117 4.259654,0.212092 6.687324,1.262692 0.9684,0.419085 2.79075,1.131161 4.04968,1.582391 1.25892,0.45123 2.92281,1.06051 3.69753,1.353956 0.77472,0.293446 2.99324,1.111928 4.93005,1.818847 1.9368,0.70692 4.39302,1.61819 5.45827,2.025044 3.02309,1.15463 6.93079,2.550596 12.50118,4.465862 12.97541,4.461327 16.91234,5.87262 18.45187,6.614534 0.60073,0.2895 1.44879,0.614219 1.88457,0.721599 2.51174,0.618916 4.63476,1.693594 6.18983,3.133321 1.92325,1.780586 2.93866,3.59329 3.52069,6.285113 0.44516,2.058775 0.59472,8.99027 0.36474,16.90301 -0.15465,5.32052 -0.18868,5.71034 -0.61095,6.9989 -0.26988,0.82351 -0.37144,1.36457 -0.25616,1.36457 0.10506,0 0.0616,0.099 -0.0966,0.22009 -0.15822,0.12105 -0.7478,0.86484 -1.31018,1.65286 -0.95167,1.33351 -5.20587,6.572 -8.68717,10.69711 -0.82615,0.97894 -2.16787,2.61183 -2.9816,3.62865 -0.81372,1.01682 -2.1245,2.60148 -2.91284,3.52146 -0.78834,0.91999 -2.2598,2.70273 -3.26992,3.96165 -1.76552,2.20038 -3.58402,4.35804 -9.4939,11.26461 -1.50102,1.75416 -4.3534,5.19947 -6.33863,7.65624 -4.68073,5.79254 -13.19947,16.05181 -14.2415,17.15132 -1.95229,2.05994 -4.56764,3.81174 -6.84937,4.58781 -2.21648,0.75387 -3.982,0.91388 -6.90475,0.6258 z m 5.45827,-2.07938 c 0.62946,-0.18291 1.84834,-0.63502 2.70862,-1.00468 1.32793,-0.57061 1.80248,-0.89892 3.14237,-2.174 0.86802,-0.82604 2.25755,-2.33732 3.08785,-3.35842 0.83029,-1.02109 2.07385,-2.49038 2.76346,-3.26511 1.5535,-1.74523 4.6952,-5.54808 6.6406,-8.03806 2.10062,-2.68867 8.29137,-10.23183 11.63457,-14.17624 3.44648,-4.06625 6.28933,-7.46194 10.16261,-12.13891 1.59536,-1.92637 4.25566,-5.12676 5.9118,-7.11198 5.62191,-6.73903 9.2401,-11.34228 9.75683,-12.41316 0.61363,-1.27171 0.92527,-2.92675 0.8525,-4.5274 l -0.0538,-1.18204 -1.05643,1.50781 c -0.58104,0.82929 -1.57145,2.12276 -2.20092,2.87437 -3.32618,3.97167 -7.24044,8.67471 -8.014,9.62895 -0.48272,0.59548 -1.56667,1.90283 -2.40877,2.90521 -0.8421,1.00238 -2.18906,2.621 -2.99325,3.59693 -3.23137,3.92148 -5.71293,6.87749 -9.87701,11.76538 -2.40085,2.81816 -5.13438,6.03312 -6.07452,7.14433 -0.94013,1.11121 -2.18864,2.57702 -2.77445,3.25735 -0.58583,0.68033 -1.76269,2.10852 -2.61525,3.17377 -5.57066,6.96024 -10.57939,12.98853 -11.96138,14.39615 -1.82989,1.86383 -4.2878,3.33443 -6.75311,4.04047 -1.1458,0.32815 -1.81525,0.39429 -4.0161,0.39678 -2.97211,0.003 -3.92264,-0.1916 -4.69376,-0.96273 -1.024608,-1.0246 -0.526935,-1.37493 1.20601,-0.84895 1.5848,0.48101 4.50241,0.51611 6.48099,0.078 1.79348,-0.39716 4.27471,-1.59769 5.64181,-2.72975 1.12866,-0.93462 3.08252,-3.1886 6.50405,-7.50309 1.15196,-1.4526 3.4463,-4.25667 5.09851,-6.23128 1.65222,-1.9746 3.47943,-4.19895 4.06047,-4.943 0.58104,-0.74405 1.76953,-2.17124 2.6411,-3.17155 0.87155,-1.0003 1.81856,-2.10373 2.10446,-2.45206 0.28588,-0.34833 1.04313,-1.22758 1.68276,-1.95388 1.19839,-1.36078 5.7464,-6.78059 7.30538,-8.70574 0.4842,-0.59792 1.40739,-1.6767 2.05153,-2.39728 0.64414,-0.72057 2.28984,-2.69671 3.65711,-4.39141 2.40775,-2.98436 5.61085,-6.85883 8.36987,-10.1242 0.73641,-0.87156 2.10758,-2.49583 3.04704,-3.60949 0.93946,-1.11367 1.84274,-2.14369 2.00731,-2.28895 0.58052,-0.51244 3.28734,-4.39695 3.46171,-4.96784 0.0972,-0.31815 0.2156,-3.39123 0.26316,-6.82905 l 0.0865,-6.250595 -0.46754,0.970045 c -0.54749,1.135908 -1.00944,1.81103 -2.22927,3.25797 -0.49089,0.58228 -1.53432,1.88962 -2.31873,2.9052 -0.78441,1.01558 -2.09119,2.52623 -2.90396,3.357 -1.49279,1.52583 -2.61156,2.83893 -2.61156,3.06517 0,0.2405 -2.48589,3.4257 -4.00704,5.13427 -0.84949,0.95415 -1.89756,2.17059 -2.32905,2.70322 -0.4315,0.53261 -1.34329,1.60225 -2.02619,2.37698 -0.68291,0.77472 -1.75216,2.04245 -2.37612,2.81716 -0.62395,0.77473 -1.55215,1.88399 -2.06266,2.46503 -0.51052,0.58104 -2.55803,3.03726 -4.55004,5.45826 -1.99201,2.421 -4.42941,5.34346 -5.41646,6.49435 -0.98705,1.15089 -2.34926,2.78314 -3.02715,3.62721 -1.44123,1.79459 -4.78597,5.81381 -6.43346,7.7308 -1.04812,1.21957 -1.9105,2.28198 -6.01815,7.41412 -4.75269,5.93805 -5.47043,6.67258 -7.53267,7.70889 -1.85674,0.93303 -3.57796,1.30537 -6.01358,1.30086 -2.03236,-0.004 -2.54196,-0.1581 -3.3183,-1.00495 l -0.44018,-0.48016 2.12267,0.11989 c 1.65227,0.0933 2.43235,0.0559 3.52021,-0.16878 3.73391,-0.77126 5.45421,-2.06265 9.37228,-7.03556 1.22078,-1.54945 2.81843,-3.5599 3.55034,-4.46768 0.73192,-0.90778 1.56846,-1.94819 1.85898,-2.31204 1.42802,-1.78843 2.90452,-3.55884 3.964,-4.75307 1.19426,-1.34614 4.45511,-5.30605 5.71016,-6.93431 0.38194,-0.49551 1.37495,-1.69326 2.20668,-2.66167 0.83173,-0.9684 1.78376,-2.11727 2.11562,-2.55306 0.33185,-0.43578 1.31976,-1.62427 2.19535,-2.64109 0.87558,-1.01683 2.05911,-2.42644 2.63005,-3.13248 0.57094,-0.70605 1.79895,-2.1612 2.72892,-3.23368 0.92997,-1.07247 1.92855,-2.2492 2.21908,-2.61496 0.29052,-0.36576 1.32054,-1.59534 2.28894,-2.73241 0.96841,-1.13707 2.03805,-2.40907 2.37699,-2.82667 0.33894,-0.4176 1.40813,-1.73413 2.37598,-2.92561 0.96785,-1.19148 2.90961,-3.51329 4.31502,-5.15957 1.40541,-1.64629 2.91129,-3.46273 3.34639,-4.03654 0.43511,-0.57382 1.7507,-2.18206 2.92354,-3.57388 2.29847,-2.727611 2.99298,-3.902262 3.24969,-5.49632 0.5093,-3.162437 -1.69675,-6.509224 -5.51492,-8.366654 -0.9043,-0.439915 -1.79899,-0.79527 -1.9882,-0.789678 -0.21327,0.0063 -0.97981,0.752377 -2.01672,1.962883 -4.83152,5.640351 -4.68857,5.514551 -6.2506,5.500653 -0.77307,-0.0069 -1.62317,-0.208744 -3.16931,-0.75259 -2.41625,-0.849902 -5.36964,-1.843748 -7.92329,-2.666267 -0.9684,-0.311918 -2.19651,-0.798876 -2.72913,-1.082129 -0.94316,-0.50158 -2.7269,-1.913606 -2.02484,-1.602886 0.19368,0.08572 0.64535,0.171341 1.0037,0.190268 0.35836,0.01893 2.97304,0.833123 5.81041,1.809323 2.83737,0.976199 6.04817,2.04672 7.13512,2.378934 2.29725,0.70213 2.38755,0.683885 3.76391,-0.76048 0.93449,-0.980658 4.03188,-4.95228 4.03188,-5.169871 0,-0.206612 -0.8424,-0.779784 -1.6727,-1.138107 -0.38735,-0.16717 -2.24933,-0.844607 -4.13771,-1.505417 -1.88838,-0.660809 -4.54269,-1.605012 -5.89845,-2.098228 -1.35576,-0.493216 -3.89121,-1.378118 -5.63433,-1.966449 -1.74313,-0.588331 -3.64472,-1.271904 -4.22576,-1.519052 -0.58104,-0.247147 -1.84877,-0.71161 -2.81717,-1.03214 -0.96839,-0.32053 -2.63229,-0.897828 -3.69753,-1.282885 -1.06524,-0.385056 -2.72913,-0.986215 -3.69754,-1.335906 -2.80385,-1.012478 -4.99117,-1.82689 -6.60273,-2.458417 -0.82315,-0.322567 -2.44742,-0.919287 -3.6095,-1.326044 -1.16208,-0.406757 -2.73146,-0.969544 -3.48749,-1.250638 -1.92605,-0.7161 -2.5752,-0.793786 -3.39243,-0.405986 -0.76971,0.365248 -5.96626,5.479248 -6.1473,6.049631 -0.06562,0.206761 -0.0302,0.483333 0.0788,0.614605 0.17833,0.21487 4.51971,1.689732 9.81893,3.335704 1.08713,0.33767 2.2555,0.74629 2.59638,0.908047 0.40904,0.194102 0.82133,0.256289 1.21256,0.182894 0.66731,-0.125187 1.26943,-0.680299 1.07651,-0.992454 -0.0863,-0.139665 -0.021,-0.173684 0.20285,-0.105612 0.1816,0.05523 0.96403,0.228241 1.73876,0.384468 1.27438,0.256987 4.08828,1.106171 7.65917,2.311399 1.44206,0.486716 6.18752,2.513289 7.29536,3.11552 0.96505,0.524612 1.57627,1.106048 1.32558,1.260983 -0.11006,0.06802 -0.16101,0.273199 -0.11322,0.455949 0.0478,0.182751 0.007,0.332275 -0.0915,0.332275 -0.0981,0 -0.13282,0.11885 -0.0771,0.26411 0.0558,0.14526 0.0444,0.263692 -0.0252,0.263182 -0.13506,-9.98e-4 -0.17443,-0.02616 -2.70105,-1.72668 -4.84522,-3.261048 -11.39752,-5.237722 -17.13204,-5.168331 -2.2115,0.02676 -2.66814,-0.02406 -4.66594,-0.519347 -1.21799,-0.301955 -2.80877,-0.7718 -3.53507,-1.044099 -0.7263,-0.272298 -2.38319,-0.852516 -3.68197,-1.289374 -1.298791,-0.436858 -2.517298,-0.950152 -2.707796,-1.140655 -0.568281,-0.568277 -0.284404,-1.368161 1.048326,-2.953883 1.32747,-1.579466 4.74856,-4.981416 5.7417,-5.70958 l 0.66438,-0.487112 -0.75241,-0.109905 c -0.41383,-0.06045 -1.26062,-0.197997 -1.88175,-0.305665 -1.34449,-0.233054 -4.629628,-0.08333 -5.93339,0.270415 -1.457984,0.395594 -3.267438,1.452959 -4.495158,2.626769 -1.447895,1.384319 -15.761898,16.673537 -18.581372,19.847323 -1.161394,1.307343 -4.12027,4.555891 -6.575279,7.218995 -2.45501,2.663102 -6.127312,6.743591 -8.160672,9.067761 -5.402865,6.17557 -8.566991,9.66604 -15.013097,16.56154 -1.368673,1.46409 -2.771848,3.09067 -3.118166,3.6146 -0.803757,1.21599 -1.173338,2.65781 -1.167602,4.55509 0.0082,2.72378 1.022266,4.8544 3.56044,7.48099 0.84708,0.87659 1.540368,1.62368 1.540639,1.66022 2.71e-4,0.0365 -0.401808,0.0277 -0.893509,-0.0195 -0.794942,-0.0764 -1.001128,-0.19104 -1.860795,-1.03482 -0.657353,-0.6452 -1.183639,-1.39976 -1.644294,-2.3575 -0.614411,-1.27742 -0.688375,-1.3654 -0.794263,-0.94481 -0.06422,0.25508 -0.09067,2.39437 -0.05878,4.75397 l 0.05798,4.2902 0.76039,1.58465 c 0.711495,1.48276 1.326384,2.37699 1.634465,2.37699 0.07291,0 0.08829,-1.01022 0.03419,-2.24493 -0.111583,-2.54651 0.113069,-4.03868 0.710018,-4.71607 0.615128,-0.69801 2.424945,-1.70031 2.86897,-1.58887 0.339541,0.0852 2.739524,1.17319 7.109407,3.22287 4.995573,2.34315 7.279961,3.40169 9.595981,4.4466 1.452602,0.65536 4.621917,2.12225 7.042921,3.25975 2.421004,1.1375 5.828017,2.7219 7.57114,3.52088 4.566925,2.09331 7.967834,3.67964 8.979725,4.18852 1.673284,0.84151 5.464607,2.63243 7.218994,3.41006 5.590769,2.47811 7.342797,4.07473 7.822497,7.12861 0.17265,1.09916 0.0155,3.87829 -0.26229,4.63906 -0.14316,0.39204 -1.444446,2.21036 -1.73802,2.42858 -0.313617,0.23312 -1.535758,-0.005 -2.832971,-0.55179 -1.958354,-0.82558 -4.60079,-2.01744 -6.598713,-2.97633 -1.793973,-0.861 -7.192688,-3.40776 -9.155798,-4.31909 -0.53262,-0.24726 -2.038045,-0.95983 -3.345387,-1.58348 -3.584844,-1.71013 -7.451813,-3.51771 -9.419907,-4.40327 -4.496285,-2.02314 -5.610411,-2.54486 -12.677258,-5.93651 -1.452603,-0.69716 -3.314575,-1.56766 -4.137717,-1.93445 -3.524403,-1.57045 -6.404379,-3.02016 -7.073581,-3.5607 -0.395404,-0.31937 -1.241803,-0.93722 -1.880886,-1.37301 -0.913194,-0.62269 -1.257042,-0.98802 -1.606033,-1.70637 -0.244236,-0.50274 -0.503489,-0.91871 -0.576119,-0.92439 -0.07263,-0.006 -0.131596,0.36603 -0.131035,0.82602 0.0024,1.9472 0.61727,4.07613 1.610331,5.57538 0.858838,1.29661 3.679551,3.01975 7.368374,4.50125 0.990936,0.39798 8.509649,3.91786 12.149039,5.68757 1.501022,0.72989 4.630721,2.1984 6.954885,3.26336 2.324164,1.06496 6.110178,2.85485 8.413365,3.97755 2.303188,1.1227 4.22654,2.04128 4.274117,2.04128 0.04758,0 1.768248,0.80274 3.823711,1.78386 5.983286,2.85598 6.830798,3.25291 11.256661,5.27203 4.694262,2.14157 6.254792,2.73679 7.798892,2.97464 1.49189,0.22981 4.19792,0.0755 5.54631,-0.31636 z m 13.16243,-24.42844 c -0.68024,-0.36905 -1.18947,-1.45858 -1.18947,-2.54496 0,-1.23653 0.70948,-2.63343 2.03238,-4.00159 0.95472,-0.98738 1.13564,-1.10019 1.76077,-1.09786 0.90531,0.003 1.47192,0.30236 1.96796,1.03843 0.87057,1.29184 0.3349,3.47644 -1.29374,5.27614 -1.43346,1.58403 -2.22072,1.90342 -3.2779,1.32984 z m 2.40024,-2.44254 c 1.04899,-1.37531 1.25362,-2.58731 0.57084,-3.38108 -0.4085,-0.47492 -0.42719,-0.47876 -0.88097,-0.18144 -0.78464,0.51411 -1.87099,2.5787 -1.87099,3.55577 0,0.24014 0.15981,0.59643 0.35512,0.79175 0.32545,0.32544 0.39663,0.33367 0.85156,0.0984 0.27303,-0.14119 0.71153,-0.53872 0.97444,-0.88341 z m -16.31086,-2.33257 c -0.33144,-0.0866 -0.59085,-0.79636 -0.40247,-1.10116 0.20009,-0.32374 1.12234,-0.21585 1.32054,0.15449 0.23572,0.44046 0.23291,0.464 -0.0944,0.79133 -0.28579,0.28579 -0.3083,0.29003 -0.82365,0.15534 z m -5.58858,-0.49267 c -0.30804,-0.37117 -0.0889,-0.79457 0.41123,-0.79457 0.51364,0 0.86569,0.37884 0.71559,0.77001 -0.13754,0.3584 -0.8371,0.37365 -1.12682,0.0246 z m 1.55004,-2.02933 c -3.05993,-0.48395 -4.654772,-1.22267 -6.439318,-2.98265 -1.489994,-1.46949 -1.883521,-2.15789 -2.16825,-3.79291 -0.264173,-1.51699 -0.02635,-2.72078 0.851146,-4.30789 0.503437,-0.91058 0.652543,-1.40601 0.747213,-2.48278 0.160512,-1.82564 0.659198,-2.79651 2.225235,-4.33219 2.519444,-2.47061 5.711764,-3.37036 9.277504,-2.61485 1.73649,0.36793 2.87855,0.95145 4.13027,2.11031 1.43603,1.32952 2.31243,2.88242 2.50555,4.43961 0.0921,0.74273 0.27737,1.33402 0.50888,1.62428 2.31836,2.90647 2.04015,5.96209 -0.80944,8.89046 -2.32859,2.39295 -4.64578,3.42123 -7.97886,3.54069 -1.01683,0.0365 -2.29929,-0.005 -2.84993,-0.0921 z m 1.3854,-3.45536 c -0.0604,-1.12696 -0.14193,-2.08114 -0.18119,-2.1204 -0.0393,-0.0393 -0.34648,-0.11603 -0.68271,-0.17059 l -0.61133,-0.0992 -0.11325,0.94309 c -0.19161,1.59571 -0.13985,3.28122 0.10378,3.37953 0.12105,0.0488 0.52934,0.0951 0.9073,0.10271 l 0.68721,0.0139 z m 2.93318,1.82714 c 0.26949,-0.19706 0.28987,-0.44554 0.18208,-2.22039 l -0.12138,-1.9985 -0.69118,0.0927 c -0.38016,0.051 -0.71593,0.11918 -0.74619,0.15153 -0.0303,0.0323 -0.0837,0.98981 -0.11877,2.12768 l -0.0637,2.06886 h 0.62788 c 0.34533,0 0.76443,-0.0999 0.93133,-0.22189 z m -5.87048,-2.31839 c 0,-1.96395 -0.0111,-2.02079 -0.46393,-2.37699 -0.78499,-0.61747 -0.94447,-0.49349 -0.94618,0.73553 -6.7e-4,0.60525 -0.0498,1.5027 -0.10895,1.99431 -0.10437,0.86852 -0.0906,0.90462 0.48573,1.27357 1.00333,0.64229 1.03333,0.59508 1.03333,-1.62642 z m 8.47503,1.47125 c 0.33311,-0.17828 0.34576,-0.30183 0.22988,-2.24493 -0.0674,-1.13095 -0.14656,-2.0838 -0.17582,-2.11745 -0.0293,-0.0337 -0.29639,0.0825 -0.59362,0.25806 -0.53292,0.31481 -0.5404,0.33912 -0.5404,1.75588 0,2.42015 0.18683,2.82643 1.07996,2.34844 z m -11.19876,-2.18548 c 0.0679,-0.72473 0.071,-1.65571 0.007,-2.06885 -0.113844,-0.73309 -0.534397,-1.5202 -0.715492,-1.33911 -0.04984,0.0498 -0.110089,1.00231 -0.133873,2.11657 -0.03221,1.50983 0.0183,2.10022 0.198417,2.31752 0.413326,0.49872 0.51664,0.33413 0.644108,-1.02613 z m 13.74309,-0.0198 c 0.10656,-0.56803 -0.1864,-3.38268 -0.37135,-3.56763 -0.0506,-0.0506 -0.20609,0.0221 -0.34552,0.16161 -0.20563,0.20573 -0.23299,0.66149 -0.14486,2.41336 0.1045,2.07728 0.12093,2.14862 0.43033,1.86862 0.17692,-0.16012 0.37105,-0.5543 0.4314,-0.87596 z m -16.088944,-2.05193 c -0.07179,-1.52208 -0.274781,-1.96771 -0.495585,-1.08797 -0.137167,0.54653 0.02875,1.88944 0.294852,2.38668 0.106003,0.19807 0.210881,0.33353 0.233068,0.30103 0.02216,-0.0325 0.0077,-0.75239 -0.03234,-1.59974 z m 17.931404,0.36466 c 0.23165,-0.86031 0.0845,-2.13712 -0.28123,-2.44068 -0.22025,-0.18279 -0.25548,0.0216 -0.25548,1.48222 0,1.80853 0.20786,2.17972 0.53671,0.95846 z m -6.82971,-1.19016 c 2.27808,-0.58264 3.60033,-1.46014 4.49147,-2.98077 0.41314,-0.70497 0.47441,-1.00143 0.47747,-2.31025 0.003,-1.3507 -0.0557,-1.62205 -0.58631,-2.70187 -0.4763,-0.96935 -0.793,-1.34995 -1.64549,-1.97751 -2.4664,-1.81566 -6.33092,-2.15377 -9.21126,-0.80589 -1.44976,0.67842 -2.29267,1.46061 -2.951468,2.73887 -0.485569,0.94214 -0.551823,1.24196 -0.548063,2.48027 0.0033,1.01042 0.09861,1.60767 0.337974,2.11288 0.4274,0.90208 1.920947,2.4061 2.870307,2.89043 1.78279,0.90951 4.50377,1.13226 6.76537,0.55384 z m 20.08055,6.59219 c -0.20715,-0.1451 -0.51018,-0.61346 -0.67338,-1.0408 -0.24709,-0.647 -0.26438,-0.92783 -0.10332,-1.6788 0.36748,-1.71351 1.38884,-3.29012 2.65011,-4.0908 1.74605,-1.10843 3.34942,-0.15539 3.35395,1.99356 5.4e-4,0.25612 -0.1583,0.98136 -0.35298,1.61166 -0.37995,1.23012 -1.53128,2.72296 -2.47736,3.2122 -0.64379,0.33292 -1.91701,0.32919 -2.39702,-0.007 z m 2.27225,-1.80505 c 0.84506,-0.89896 1.19401,-1.66406 1.19471,-2.61953 10e-4,-1.6848 -0.96666,-1.69927 -1.9295,-0.0289 -0.78826,1.36751 -0.97659,2.17733 -0.62955,2.70697 0.36507,0.55718 0.80317,0.53837 1.36434,-0.0586 z m -53.124682,-1.42883 c -1.736998,-0.78909 -2.661748,-2.98145 -1.961974,-4.65134 0.670217,-1.59936 1.986689,-2.43302 4.035295,-2.55535 2.210348,-0.13199 3.369123,0.51354 4.20214,2.34092 1.16179,2.54859 -1.12646,5.20212 -4.475806,5.19028 -0.674742,-0.003 -1.364281,-0.12672 -1.799655,-0.32451 z m 3.713458,-1.63369 c 1.046997,-0.49215 1.37337,-0.99249 1.224021,-1.87648 -0.253594,-1.50101 -1.222636,-2.32401 -2.736414,-2.32401 -0.830519,0 -1.966075,0.52515 -2.363992,1.09326 -0.365227,0.52143 -0.35748,1.9637 0.01359,2.53003 0.159135,0.24286 0.495875,0.55384 0.748311,0.69105 0.698232,0.3795 2.180158,0.32533 3.114483,-0.11385 z m 54.392154,-2.22703 c -0.69049,-0.14222 -1.48103,-0.90951 -1.67349,-1.62428 -0.25057,-0.93053 -0.0519,-2.38706 0.44419,-3.25685 0.22171,-0.38872 0.84177,-1.12163 1.3779,-1.62868 0.84243,-0.79673 1.07074,-0.92192 1.68134,-0.92192 1.56559,0 2.1841,0.70255 2.17305,2.4683 -0.008,1.23485 -0.45605,2.40141 -1.39777,3.63714 -0.70739,0.92823 -1.81075,1.48994 -2.60522,1.32629 z m 1.4306,-2.35345 c 0.59354,-0.65409 0.78919,-1.15694 0.81027,-2.08248 0.0194,-0.85193 -0.23613,-1.41114 -0.64483,-1.41114 -0.28333,0 -1.05084,0.83991 -1.39987,1.5319 -0.36047,0.71471 -0.36502,1.79583 -0.01,2.30316 0.30895,0.44108 0.60866,0.35883 1.24411,-0.34144 z m -71.247711,0.82474 c -1.840725,-0.59182 -2.91704,-2.52183 -2.447117,-4.38806 0.14864,-0.5903 0.426811,-1.00987 1.065819,-1.60759 1.161439,-1.08639 1.885595,-1.36891 3.525538,-1.37545 1.097892,-0.005 1.505926,0.076 2.200912,0.43356 2.200103,1.1319 2.672157,4.09418 0.91379,5.73431 -1.184764,1.10509 -3.743405,1.6905 -5.258942,1.20323 z m 3.229062,-1.69877 c 0.211524,-0.10868 0.602479,-0.40081 0.868789,-0.6492 0.895393,-0.83512 0.490739,-2.6502 -0.73178,-3.28238 -0.651547,-0.33693 -1.949723,-0.35246 -2.71552,-0.0325 -1.839509,0.76861 -2.088119,3.17557 -0.403716,3.90866 0.671478,0.29224 2.45669,0.32542 2.982227,0.0554 z m 24.418556,0.0727 c -0.937031,-0.34454 -1.185836,-1.32811 -0.423789,-1.67532 0.36568,-0.16662 0.546243,-0.1571 0.906989,0.0478 0.678051,0.38511 0.855765,0.7625 0.61151,1.29858 -0.19901,0.43678 -0.530522,0.53639 -1.09471,0.32895 z m -8.147031,-1.64735 c -1.551909,-0.25198 -2.547994,-1.15308 -2.958069,-2.67599 -0.433238,-1.60891 0.423746,-3.19682 2.20564,-4.08683 1.363472,-0.68102 3.292839,-0.74694 4.409599,-0.15067 1.342307,0.71671 2.02484,1.85046 2.02484,3.36344 0,2.29596 -2.76523,4.02364 -5.68201,3.55005 z m 2.751302,-1.77491 c 0.860625,-0.44293 1.169978,-0.89098 1.169978,-1.69452 0,-1.46772 -0.933765,-2.32944 -2.524189,-2.32944 -1.031078,0 -1.515841,0.1935 -2.2009,0.87856 -0.468332,0.46833 -0.556478,0.68821 -0.553187,1.37991 0.0046,0.96397 0.34294,1.4804 1.228596,1.87522 0.670903,0.29909 2.198449,0.24088 2.879702,-0.10973 z m 29.612532,1.37297 c -0.43087,-0.31506 -0.20171,-0.64297 0.44934,-0.64297 0.57863,0 0.89723,0.46401 0.49394,0.71937 -0.34256,0.21691 -0.56702,0.19873 -0.94328,-0.0764 z m -68.23506,-2.8502 c -1.399281,-0.62947 -2.28867,-1.98743 -2.414172,-3.68604 -0.07118,-0.96343 -0.02424,-1.15052 0.507593,-2.02282 1.330968,-2.18302 4.002017,-3.16661 6.53178,-2.40526 1.138567,0.34266 1.746426,0.82943 2.295452,1.83816 0.961178,1.76601 0.801632,3.30742 -0.491173,4.74533 -1.090028,1.21237 -2.199468,1.67094 -4.228567,1.74782 -1.168548,0.0443 -1.746477,-0.0128 -2.200913,-0.21719 z m 4.033483,-1.59241 c 0.393804,-0.15757 0.962968,-0.56776 1.26481,-0.91154 0.522101,-0.59464 0.545432,-0.68471 0.479521,-1.85117 -0.06295,-1.11398 -0.12036,-1.27176 -0.627702,-1.72507 -1.688694,-1.50885 -5.007841,-0.85422 -5.768571,1.13772 -0.83148,2.1772 0.561178,3.94449 2.937472,3.72765 0.549155,-0.0501 1.320667,-0.22002 1.71447,-0.37759 z m 88.597427,1.6328 c -0.32987,-0.11558 -0.75905,-0.42501 -0.95373,-0.68761 -0.72296,-0.97519 -0.3161,-3.68374 0.80365,-5.35009 0.79271,-1.17967 1.55312,-1.65556 2.64536,-1.65556 0.7817,0 0.94796,0.0729 1.55862,0.68358 0.66237,0.66237 0.68358,0.72139 0.68358,1.90223 0,0.94399 -0.0981,1.41495 -0.43527,2.08957 -0.53758,1.07563 -1.81111,2.42491 -2.73233,2.89488 -0.79279,0.40446 -0.7714,0.40278 -1.56988,0.123 z m 1.93433,-2.27047 c 0.87847,-0.9052 1.19316,-1.49127 1.32766,-2.47259 0.13062,-0.95293 -0.33637,-1.66088 -0.96415,-1.46163 -0.77476,0.24589 -2.2831,3.11473 -2.04307,3.88589 0.0444,0.14293 0.11801,0.37873 0.16339,0.52399 0.14896,0.47681 0.78568,0.27705 1.51617,-0.47566 z m -71.235563,0.01 c -1.455983,-0.53796 -2.226066,-1.65586 -2.226066,-3.23151 0,-1.58851 0.685292,-2.5892 2.381632,-3.47777 0.57165,-0.29944 1.041034,-0.38137 2.22142,-0.38775 1.804395,-0.01 2.635835,0.34624 3.428097,1.46779 0.42673,0.60408 0.535237,0.95868 0.590016,1.92814 0.0634,1.12204 0.0344,1.23147 -0.522911,1.97323 -0.860963,1.1459 -2.255588,1.79798 -3.996123,1.86846 -0.741315,0.03 -1.585544,-0.0333 -1.876065,-0.14059 z m 3.135531,-1.48651 c 0.93049,-0.31705 1.706478,-1.12068 1.706478,-1.76726 0,-0.60692 -0.417175,-1.34962 -1.063624,-1.89357 -1.068558,-0.89914 -3.499513,-0.4489 -4.126902,0.76434 -0.429493,0.83054 -0.348894,1.88542 0.181624,2.37709 0.805164,0.7462 2.058353,0.9433 3.302424,0.5194 z m 24.002962,-1.3363 c -1.416941,-0.18804 -4.383912,-0.91599 -5.918186,-1.45204 -1.65253,-0.57735 -5.640999,-2.65291 -7.560001,-3.93414 -2.244393,-1.49848 -5.673417,-4.98466 -6.967377,-7.08353 -2.211527,-3.58718 -2.874154,-5.55827 -3.031643,-9.01806 -0.113563,-2.49478 0.0729,-4.09789 0.761438,-6.54647 0.52643,-1.872096 1.13566,-3.121832 2.669567,-5.476187 3.850304,-5.909738 8.171135,-9.283545 15.630341,-12.204542 3.862165,-1.51241 9.717591,-2.474841 15.397181,-2.530768 2.34092,-0.02305 3.205,0.05351 6.07452,0.538231 7.14088,1.206243 11.52134,3.377959 16.32079,8.091413 2.62807,2.580984 3.76522,4.103391 5.22904,7.000604 1.47164,2.912668 1.7952,4.226819 1.90888,7.752879 0.1055,3.27246 -0.047,4.41805 -0.93034,6.9853 -1.8397,5.3472 -5.63592,9.66787 -11.73288,13.35376 -2.12284,1.28337 -3.59388,1.89789 -7.36207,3.07547 -4.58211,1.43193 -6.24982,1.62935 -13.55762,1.60492 -3.24414,-0.0108 -6.36338,-0.0814 -6.93164,-0.15684 z m 12.06312,-1.37925 c 1.00287,-0.098 2.42227,-0.29543 3.15421,-0.4387 2.24461,-0.43935 7.89563,-2.28198 9.89533,-3.22657 3.02877,-1.43069 7.0689,-4.35827 8.58695,-6.22232 2.92264,-3.58877 4.58074,-6.99493 5.12004,-10.51788 0.16932,-1.10609 0.17054,-1.83253 0.005,-3.35319 -0.56622,-5.220595 -2.75553,-9.338443 -7.38277,-13.886191 -2.53908,-2.495449 -5.07664,-4.123591 -8.55632,-5.489882 -4.91029,-1.928014 -11.20482,-2.595564 -17.53919,-1.860074 -4.92411,0.571745 -8.790415,1.600064 -12.23707,3.254691 -5.401282,2.592978 -8.206095,4.931728 -11.05412,9.217308 -1.696475,2.552779 -2.433898,4.240543 -3.132924,7.170438 -0.494342,2.07199 -0.568212,2.69329 -0.575692,4.84202 -0.0122,3.50278 0.438428,4.98203 2.571889,8.44267 3.0184,4.89609 8.289956,8.61048 15.360159,10.82292 3.123171,0.9773 6.177918,1.39432 10.325638,1.40959 1.99917,0.007 4.45539,-0.0668 5.45826,-0.16483 z m -6.8007,-16.90275 c -4.12247,-0.73775 -7.221169,-3.34114 -7.817699,-6.56804 -0.698547,-3.77881 3.147979,-7.941683 8.593019,-9.299716 1.98072,-0.494008 5.15167,-0.409138 6.88038,0.184151 2.15534,0.739708 3.66572,1.576804 4.72818,2.620503 2.12122,2.083762 2.75054,4.552942 1.79938,7.060072 -0.57666,1.52002 -2.70867,3.71406 -4.50272,4.63373 -2.207,1.13136 -3.38818,1.40936 -6.25059,1.47113 -1.40419,0.0303 -2.94766,-0.0155 -3.42995,-0.10183 z m 6.51122,-1.65879 c 2.56224,-0.67791 5.03459,-2.4721 5.94089,-4.31131 0.58007,-1.17716 0.561,-3.12175 -0.0425,-4.32862 -0.60279,-1.205592 -1.84988,-2.415231 -3.18463,-3.089012 -1.28278,-0.647545 -3.80161,-1.219097 -5.38742,-1.222466 -1.88642,-0.004 -5.01489,0.801174 -6.50429,1.674023 -1.73692,1.017899 -3.379556,3.263125 -3.677482,5.026535 -0.154975,0.91731 0.288037,2.3324 1.055172,3.37041 1.08455,1.46756 2.80352,2.37954 5.74411,3.04751 1.39801,0.31757 4.55336,0.23052 6.05609,-0.16707 z m -51.447172,15.84142 c -2.777588,-0.51393 -4.652468,-1.8265 -5.669139,-3.96885 -0.416037,-0.87668 -0.459563,-1.16851 -0.459563,-3.08128 0,-1.92681 0.0418,-2.20206 0.474673,-3.12576 0.868862,-1.85402 2.987638,-3.71902 4.855154,-4.27361 2.694601,-0.80021 5.297873,-0.60579 7.606051,0.56804 2.97152,1.51118 4.361969,4.86785 3.444486,8.31531 -0.458587,1.72314 -2.272845,3.81238 -4.136003,4.7629 -1.655023,0.84433 -4.133968,1.16992 -6.115659,0.80325 z m 4.259607,-1.87996 c 0.999205,-0.3716 3.069363,-1.8638 3.502252,-2.52446 0.346169,-0.52833 0.811465,-2.83881 0.811507,-4.02964 6.2e-5,-1.77139 -1.710372,-3.9865 -3.579443,-4.63559 -2.498447,-0.86766 -6.632998,0.0116 -8.108953,1.7244 -0.89046,1.03337 -1.156584,1.57852 -1.351163,2.76777 -0.34903,2.13327 0.835889,4.07737 2.865535,4.70149 1.47989,0.45508 3.094935,0.61031 4.420696,0.4249 1.337637,-0.18708 3.767503,-1.25763 4.564865,-2.0112 0.26631,-0.25169 0.482,-0.39498 0.47931,-0.31843 -0.0203,0.57771 -2.66292,2.2139 -4.220862,2.61337 -2.095982,0.53743 -4.968128,0.0127 -6.685995,-1.22144 l -0.885145,-0.63591 v 0.47738 c 0,0.35034 0.25806,0.72142 0.969698,1.39437 1.779187,1.68247 4.721324,2.20138 7.217698,1.27299 z m 89.586375,-2.79526 c -0.57313,-0.2308 -0.97602,-1.16617 -1.07039,-2.48505 -0.16486,-2.30409 1.34746,-5.62435 3.84483,-8.44124 1.56852,-1.76922 3.07984,-2.33904 4.39708,-1.65787 0.87739,0.45372 1.11316,1.15775 0.99555,2.97292 -0.0884,1.36521 -0.19053,1.75117 -0.74699,2.82417 -0.81904,1.57932 -0.911,1.66992 -1.06645,1.05057 -0.11121,-0.44309 0.13043,-3.12217 0.40723,-4.515 0.0757,-0.38075 -0.0188,-0.58852 -0.45151,-0.99271 -0.84839,-0.79251 -2.05045,-0.97852 -1.35461,-0.20961 0.24845,0.27453 0.32934,0.77833 0.40454,2.51943 0.13176,3.05095 -0.30175,5.23893 -1.03798,5.23893 -0.0818,0 -0.14879,-1.54036 -0.14879,-3.42302 0,-3.21985 -0.0996,-3.93009 -0.49591,-3.53525 -0.0662,0.066 -0.15996,1.89241 -0.20838,4.05882 -0.0896,4.01061 -0.17563,4.48101 -0.77704,4.25023 -0.23233,-0.0892 -0.27949,-0.67001 -0.31996,-3.941 -0.0435,-3.51472 -0.0678,-3.77738 -0.28972,-3.13214 -0.15665,0.45544 -0.27231,1.87533 -0.32735,4.01856 -0.0891,3.46823 -0.18477,3.83141 -0.86161,3.26969 -0.24255,-0.20131 -0.27207,-0.61278 -0.2099,-2.92659 0.0398,-1.48079 0.0109,-2.58253 -0.0642,-2.44831 -0.33377,0.59641 -0.67165,2.40707 -0.67165,3.59931 0,1.76031 0.32931,2.43067 1.43374,2.91862 0.91311,0.40343 0.93688,0.65633 0.0919,0.9776 -0.57873,0.22004 -0.94269,0.22225 -1.47236,0.009 z m -82.420203,-5.84355 c -0.366691,-0.3667 -0.231128,-0.79422 0.324865,-1.02451 0.667652,-0.27655 1.400651,-0.003 1.400651,0.52153 0,0.61311 -1.25079,0.9777 -1.725516,0.50298 z m 74.645323,-25.5535 c -0.38546,-0.412814 -0.39027,-0.959603 -0.007,-0.722326 0.10361,0.06403 0.12674,-0.07056 0.0587,-0.341612 -0.0951,-0.37899 -0.041,-0.465163 0.35465,-0.564458 1.00389,-0.251962 2.56066,0.340907 2.56066,0.975186 0,0.531855 -0.65544,0.942494 -1.6314,1.02208 -0.81001,0.06605 -0.97188,0.02137 -1.33627,-0.36887 z m -4.4274,-0.944007 c -0.49242,-0.08257 -7.81282,-2.291024 -8.36346,-2.523133 l -0.35215,-0.148439 0.35215,-0.01088 c 1.02299,-0.0316 3.99738,0.596607 6.25058,1.320165 1.40419,0.450916 2.87,0.901007 3.25736,1.000203 1.0721,0.274546 1.14934,0.486886 0.16727,0.459868 -0.47936,-0.01319 -1.06964,-0.05719 -1.31175,-0.09779 z m 3.99323,-2.060332 c -0.14799,-0.385664 -1.83313,-1.104405 -4.83624,-2.062737 -5.44684,-1.738163 -13.56452,-4.540692 -19.31735,-6.669078 -2.32417,-0.859875 -5.21617,-1.918417 -6.42667,-2.352316 -2.89807,-1.038799 -4.60402,-1.731062 -6.36788,-2.584047 -0.7968,-0.385325 -1.65101,-0.701805 -1.89824,-0.703288 -0.24722,-0.0015 -0.56138,-0.07352 -0.69814,-0.160094 -0.21204,-0.134224 -0.20886,-0.197189 0.0216,-0.427657 0.20255,-0.202551 0.55157,-0.253808 1.39312,-0.204596 1.09256,0.06389 3.10369,0.707801 7.72561,2.473532 0.91997,0.351465 2.58387,0.945537 3.69753,1.32016 1.11366,0.374622 2.97563,1.030592 4.13771,1.457711 6.79566,2.49772 9.8978,3.59067 16.55087,5.831237 7.10479,2.392691 7.39719,2.508558 7.44918,2.951781 0.0379,0.323547 -0.093,0.597725 -0.43838,0.918007 -0.55124,0.511146 -0.85305,0.575408 -0.99274,0.211385 z M 105.39037,74.734423 c -0.18757,-0.109604 -0.25542,-0.318713 -0.19907,-0.613504 0.11575,-0.605521 0.25903,-0.659227 0.90242,-0.338262 0.60738,0.302997 0.69165,0.508352 0.27434,0.668489 -0.1514,0.0581 -0.22595,0.185423 -0.16568,0.282947 0.13753,0.222542 -0.43134,0.222773 -0.81201,3.3e-4 z m -6.423633,99.249217 c 0.3159,-0.42489 0.378561,-0.79925 0.431566,-2.57818 0.08414,-2.82398 -0.189234,-3.76573 -1.462823,-5.03931 -0.978824,-0.97882 -2.511255,-1.78997 -9.955895,-5.26981 -1.597862,-0.7469 -4.054081,-1.89963 -5.458263,-2.56165 -3.812642,-1.79751 -12.403522,-5.76716 -16.991048,-7.85119 -2.227324,-1.01183 -5.357022,-2.4607 -6.954885,-3.21972 -1.597862,-0.75901 -4.410629,-2.09602 -6.250593,-2.97113 -6.077557,-2.89056 -6.306132,-2.96209 -7.304465,-2.28613 -0.98881,0.66953 -1.086955,1.00951 -1.006387,3.48624 0.07314,2.24836 0.307061,3.1997 0.966518,3.93075 0.362559,0.40191 2.129895,1.30348 5.72578,2.9209 5.864024,2.63761 8.644869,3.92646 12.182936,5.64646 3.331977,1.61981 4.885982,2.33832 10.476346,4.84381 0.919981,0.41232 3.970447,1.85407 6.778812,3.20388 2.808364,1.34982 5.779596,2.76384 6.602738,3.14226 0.823141,0.37844 2.451836,1.17406 3.619321,1.76807 1.167485,0.59401 2.55406,1.24213 3.081278,1.44028 0.527219,0.19815 1.711288,0.72771 2.631271,1.17681 0.924981,0.45155 1.86168,0.79379 2.095461,0.76564 0.23253,-0.028 0.589077,-0.2746 0.792332,-0.54798 z m -6.321217,-3.62015 c -0.38736,-0.1876 -1.151212,-0.54787 -1.697448,-0.80058 -1.32248,-0.61184 -1.850403,-1.04992 -2.279963,-1.89193 -0.38815,-0.76083 -0.338278,-1.539 0.123176,-1.92197 0.538994,-0.44732 1.839014,-0.19307 3.728566,0.72921 2.028791,0.99025 2.500871,1.50668 2.501996,2.73702 0.0013,1.25074 -1.083044,1.77462 -2.376327,1.14825 z m 0.792329,-1.57787 c 0,-0.24353 -0.558014,-0.66225 -1.534785,-1.15169 -1.547708,-0.77552 -2.245279,-0.51728 -0.93857,0.34746 1.049805,0.69472 2.473355,1.15761 2.473355,0.80423 z"
       id="path1" /></g></svg>
