<?xml version="1.0" encoding="UTF-8" standalone="no"?>
<!-- Created with Inkscape (http://www.inkscape.org/) -->

<svg
   width="135.19124mm"
   height="135.26289mm"
   viewBox="0 0 135.19124 135.26289"
   version="1.1"
   id="svg1"
   xml:space="preserve"
   inkscape:version="1.3.2 (091e20ef0f, 2023-11-25)"
   sodipodi:docname="disc.svg"
   xmlns:inkscape="http://www.inkscape.org/namespaces/inkscape"
   xmlns:sodipodi="http://sodipodi.sourceforge.net/DTD/sodipodi-0.dtd"
   xmlns="http://www.w3.org/2000/svg"
   xmlns:svg="http://www.w3.org/2000/svg"><sodipodi:namedview
     id="namedview1"
     pagecolor="#ffffff"
     bordercolor="#000000"
     borderopacity="0.25"
     inkscape:showpageshadow="2"
     inkscape:pageopacity="0.0"
     inkscape:pagecheckerboard="0"
     inkscape:deskcolor="#d1d1d1"
     inkscape:document-units="mm"
     inkscape:zoom="1.4182379"
     inkscape:cx="312.35944"
     inkscape:cy="262.29732"
     inkscape:window-width="1920"
     inkscape:window-height="1008"
     inkscape:window-x="0"
     inkscape:window-y="35"
     inkscape:window-maximized="1"
     inkscape:current-layer="layer1" /><defs
     id="defs1" /><g
     inkscape:label="Layer 1"
     inkscape:groupmode="layer"
     id="layer1"
     transform="translate(-0.34917135,-0.39488402)"><path
       style="fill:#2073c2;fill-opacity:1;stroke-width:0.915299"
       d="m 63.585668,129.84848 c -0.466185,-0.0543 -1.882896,-0.21513 -3.148249,-0.35749 -12.440785,-1.39963 -24.758748,-7.0256 -34.02528,-15.54035 C 15.25819,103.7016 8.7175547,91.339002 6.518106,76.348502 5.9267296,72.317929 5.9267296,63.66916 6.518106,59.638586 8.7175547,44.648087 15.25819,32.285492 26.412139,22.036448 35.492652,13.692625 46.72795,8.4540046 59.589815,6.5668752 c 4.03057,-0.5913764 12.679348,-0.5913764 16.709922,0 12.861862,1.8871294 24.097153,7.1257498 33.177703,15.4695728 11.15395,10.249044 17.69458,22.611639 19.89403,37.602138 0.59138,4.030574 0.59138,12.679343 0,16.709916 -2.19945,14.9905 -8.74008,27.353098 -19.89403,37.602138 -8.93695,8.21188 -20.005848,13.44424 -32.451185,15.3399 -2.994602,0.45614 -11.339144,0.80254 -13.440587,0.55794 z m 10.904129,-4.2234 c 21.419989,-2.58618 39.451953,-16.44602 47.411083,-36.441415 2.73029,-6.859176 3.91925,-13.28754 3.91925,-21.190121 0,-7.902581 -1.18896,-14.330944 -3.91925,-21.190121 -7.95913,-19.99539 -25.991094,-33.855233 -47.411083,-36.441416 -2.645717,-0.319437 -10.44432,-0.319437 -13.09004,0 -26.959161,3.254967 -48.104653,24.45285 -51.087383,51.213956 -0.3127222,2.805748 -0.3127222,10.029415 0,12.835163 1.627798,14.604637 8.982424,28.364904 20.216703,37.824804 8.540159,7.19131 18.752089,11.72157 29.908342,13.26809 2.801268,0.38832 11.2369,0.46099 14.052378,0.12106 z M 64.191101,119.8247 c -10.557034,-0.82071 -20.357876,-4.62675 -28.557293,-11.08988 -2.203606,-1.73698 -6.693329,-6.2267 -8.430306,-8.43031 -6.888604,-8.739182 -10.870361,-19.609199 -11.140289,-30.41248 -0.06103,-2.44286 -0.03293,-2.615439 0.522598,-3.208791 1.134265,-1.21149 3.006768,-0.564556 3.264095,1.127721 0.0659,0.433404 0.1839,1.968186 0.262213,3.410614 0.608964,11.216421 5.714206,22.436768 13.946875,30.652586 8.312262,8.29524 19.429605,13.34337 30.737532,13.9572 1.398549,0.0759 2.897424,0.19177 3.330836,0.25745 1.663776,0.25216 2.339523,2.12728 1.164444,3.23121 -0.709165,0.66622 -1.727188,0.76695 -5.100705,0.50468 z m -2.300645,-10.30119 c -4.932693,-0.74971 -5.995903,-1.30325 -5.727225,-2.98173 0.08012,-0.50052 0.383083,-1.08687 0.691924,-1.33916 0.603769,-0.4932 0.944781,-0.47913 4.550955,0.18786 1.132158,0.2094 3.2527,0.45327 4.712309,0.54194 2.322744,0.14109 2.723078,0.23044 3.20879,0.71615 0.695463,0.69547 0.717119,1.75852 0.053,2.60278 -0.486408,0.61837 -0.578093,0.63727 -2.966612,0.61156 -1.355585,-0.0146 -3.391006,-0.16732 -4.523164,-0.3394 z M 48.425819,105.13908 C 35.330299,98.277735 26.771175,84.90057 26.120811,70.278277 l -0.140733,-3.164152 0.672492,-0.528979 c 0.895765,-0.704615 1.931932,-0.67928 2.67665,0.06544 0.494978,0.494976 0.594425,0.830286 0.594425,2.004276 0,3.230172 0.8279,7.894261 2.059657,11.603344 2.017237,6.074345 5.902004,11.930802 10.70969,16.145333 1.965999,1.723433 5.706322,4.314851 7.573169,5.246931 1.625467,0.81156 2.179556,1.41126 2.179556,2.35896 0,0.97821 -0.905936,2.00525 -1.768792,2.00525 -0.318969,0 -1.331967,-0.39402 -2.251106,-0.8756 z m 14.917674,-5.53872 c -6.926798,-1.032823 -13.316962,-4.265108 -18.150852,-9.181096 -1.345935,-1.368793 -1.562015,-1.71085 -1.562015,-2.472689 0,-0.672672 0.165844,-1.026801 0.693378,-1.48056 1.048821,-0.902165 1.782053,-0.620161 4.151413,1.596629 4.998283,4.676436 10.679821,7.218166 17.410891,7.789056 2.646275,0.22444 2.954786,0.301243 3.45096,0.859118 0.725549,0.815768 0.705311,1.900269 -0.04952,2.655116 -0.521455,0.521455 -0.796429,0.591164 -2.240094,0.567888 -0.90512,-0.01455 -2.571989,-0.164653 -3.704145,-0.333462 z m 0.160444,-9.949169 C 54.590611,87.660498 48.05943,81.012023 46.251344,72.088747 c -0.585946,-2.891759 -0.376914,-7.344761 0.479935,-10.22398 2.176567,-7.313806 7.686763,-12.831621 15.084718,-15.10558 1.952108,-0.600034 2.471677,-0.65561 6.128782,-0.65561 3.657104,0 4.176664,0.05556 6.128777,0.65561 7.388347,2.271003 12.834577,7.717232 15.10558,15.10558 0.600033,1.952104 0.65561,2.471673 0.65561,6.128777 0,3.657104 -0.05556,4.176674 -0.65561,6.128777 -2.273511,7.396494 -7.78069,12.897211 -15.10558,15.08786 -2.722987,0.81436 -7.925921,1.031451 -10.569619,0.44101 z m 8.921037,-4.085272 c 0.799166,-0.20953 2.488323,-0.888673 3.753678,-1.509218 1.940122,-0.951463 2.645415,-1.473036 4.500835,-3.328448 1.854176,-1.854176 2.3778,-2.562004 3.32962,-4.500836 1.565426,-3.188764 1.963691,-4.858727 1.963691,-8.233873 0,-3.375146 -0.398265,-5.045109 -1.963691,-8.233873 -0.95182,-1.938832 -1.475444,-2.64666 -3.32962,-4.500836 -1.854185,-1.854176 -2.562004,-2.377809 -4.500835,-3.329619 -3.188764,-1.565427 -4.858727,-1.963701 -8.233873,-1.963701 -3.375147,0 -5.04511,0.398274 -8.233878,1.963701 -1.938832,0.95181 -2.646654,1.475443 -4.50083,3.329619 -1.854177,1.854176 -2.37781,2.562004 -3.329621,4.500836 -1.56543,3.188764 -1.963698,4.858727 -1.963698,8.233873 0,3.375146 0.398268,5.045109 1.963698,8.233873 0.955848,1.947061 1.46758,2.636802 3.329621,4.487894 2.851675,2.8349 5.463259,4.257503 9.344285,5.090105 1.932178,0.414511 5.828275,0.295953 7.870618,-0.239497 z M 66.40661,73.07273 c -3.30634,-0.991049 -4.776619,-5.023975 -2.891494,-7.931275 2.086342,-3.217606 6.772983,-3.217606 8.859325,0 2.647337,4.082809 -1.30096,9.330117 -5.967831,7.931275 z m 2.458419,-4.158926 c 0.159839,-0.159839 0.290608,-0.573957 0.290608,-0.92026 0,-0.800319 -0.410539,-1.210867 -1.210858,-1.210867 -0.346313,0 -0.760422,0.130778 -0.92026,0.290607 -0.15983,0.159839 -0.290608,0.573957 -0.290608,0.92026 0,0.800319 0.410539,1.210867 1.210868,1.210867 0.346303,0 0.760421,-0.130778 0.92025,-0.290607 z M 40.008504,82.974387 c -1.0773,-0.626055 -3.034241,-6.204133 -3.652336,-10.410637 -0.563013,-3.831633 -0.513586,-5.183355 0.216222,-5.91316 0.754845,-0.754847 1.839348,-0.775084 2.655113,-0.04952 0.558242,0.496494 0.634311,0.802955 0.856613,3.45096 0.277738,3.308366 0.891743,5.890195 2.088111,8.780307 0.455812,1.101132 0.82875,2.278178 0.82875,2.615658 0,1.321243 -1.78168,2.230044 -2.992473,1.526408 z M 96.664109,69.386034 c -0.55433,-0.494673 -0.634602,-0.815696 -0.871142,-3.483728 -0.340473,-3.840173 -1.1634,-6.858124 -2.765896,-10.143397 -2.819862,-5.781019 -7.065632,-10.027282 -12.84471,-12.846211 -3.30616,-1.612692 -6.399806,-2.456772 -10.179112,-2.777309 -2.646275,-0.224441 -2.954786,-0.301244 -3.45097,-0.859118 -0.725539,-0.81577 -0.705311,-1.900271 0.04952,-2.655118 0.506499,-0.506489 0.819943,-0.593781 2.119018,-0.590074 1.775167,0.0055 5.235601,0.503807 7.386919,1.064675 10.885522,2.837967 19.899046,11.859015 22.741453,22.760463 0.554822,2.127914 1.052992,5.593959 1.058029,7.361273 0.004,1.299074 -0.0836,1.612518 -0.590082,2.119008 -0.754985,0.754994 -1.839843,0.775249 -2.653044,0.04952 z m 10.010591,0.09486 c -0.50301,-0.407308 -0.58613,-0.791816 -0.87561,-4.050628 C 104.92619,55.603885 101.42026,47.944957 94.713829,41.213693 87.870991,34.34551 79.806448,30.745749 69.778763,30.083485 67.46302,29.930538 67.062284,29.838459 66.569972,29.346138 c -0.70316,-0.70316 -0.727772,-1.762298 -0.06068,-2.610396 0.478893,-0.60882 0.606797,-0.638091 2.787597,-0.638091 3.462869,0 8.679112,0.938886 12.330632,2.219426 12.190894,4.275196 21.718509,13.802798 25.993729,25.993701 1.28053,3.651521 2.21942,8.867763 2.21942,12.330632 0,2.1808 -0.0293,2.308704 -0.63809,2.787597 -0.79151,0.622605 -1.79761,0.643254 -2.52791,0.0519 z m 10.13799,0.119876 c -0.62605,-0.475635 -0.91766,-1.47559 -0.91766,-3.146632 0,-0.829334 -0.16906,-2.811085 -0.37567,-4.403888 -1.14645,-8.838126 -4.32883,-16.4931 -9.84696,-23.686113 -0.90412,-1.178539 -1.64386,-2.357215 -1.64386,-2.619284 0,-1.067147 0.93375,-2.118981 1.89278,-2.132152 0.91181,-0.01254 1.36831,0.362184 3.01007,2.470731 6.64662,8.536352 10.62101,19.487024 10.89278,30.012979 0.0632,2.446063 0.0355,2.616263 -0.5204,3.208791 -0.64977,0.692515 -1.79047,0.827851 -2.49108,0.295568 z M 99.669401,31.735288 c -0.19979,-0.07496 -1.049176,-0.671335 -1.887526,-1.325316 -4.056495,-3.16439 -9.261571,-6.038062 -13.862468,-7.653335 -4.285163,-1.504424 -10.643891,-2.71331 -14.27198,-2.71331 -2.611,0 -3.616804,-0.57507 -3.632327,-2.076799 -0.0055,-0.494907 0.202308,-0.941854 0.618156,-1.33195 0.589251,-0.552759 0.769876,-0.583226 3.087706,-0.520817 10.774651,0.290113 21.438771,4.146687 30.133919,10.897633 1.100979,0.854807 2.109019,1.754582 2.240119,1.999507 0.83071,1.5522 -0.76689,3.346607 -2.425599,2.724387 z"
       id="path1" /></g></svg>
