<?xml version="1.0" encoding="UTF-8" standalone="no"?>
<!-- Created with Inkscape (http://www.inkscape.org/) -->

<svg
   width="210mm"
   height="297mm"
   viewBox="0 0 210 297"
   version="1.1"
   id="svg1"
   xml:space="preserve"
   inkscape:version="1.3.2 (091e20ef0f, 2023-11-25)"
   xmlns:inkscape="http://www.inkscape.org/namespaces/inkscape"
   xmlns:sodipodi="http://sodipodi.sourceforge.net/DTD/sodipodi-0.dtd"
   xmlns="http://www.w3.org/2000/svg"
   xmlns:svg="http://www.w3.org/2000/svg"><sodipodi:namedview
     id="namedview1"
     pagecolor="#ffffff"
     bordercolor="#000000"
     borderopacity="0.25"
     inkscape:showpageshadow="2"
     inkscape:pageopacity="0.0"
     inkscape:pagecheckerboard="0"
     inkscape:deskcolor="#d1d1d1"
     inkscape:document-units="mm"
     inkscape:zoom="0.70911897"
     inkscape:cx="396.26637"
     inkscape:cy="561.25984"
     inkscape:window-width="1920"
     inkscape:window-height="1008"
     inkscape:window-x="0"
     inkscape:window-y="35"
     inkscape:window-maximized="1"
     inkscape:current-layer="layer1" /><defs
     id="defs1" /><g
     inkscape:label="Layer 1"
     inkscape:groupmode="layer"
     id="layer1"><path
       style="fill:#2073c2;fill-opacity:1"
       d="m 100.08298,216.07895 c -0.509325,-0.0593 -2.057137,-0.23504 -3.439585,-0.39057 -13.592047,-1.52915 -27.049906,-7.67575 -37.173956,-16.97845 -12.186128,-11.19748 -19.332027,-24.7041 -21.735011,-41.08181 -0.646102,-4.40356 -0.646102,-13.85268 0,-18.25624 2.402984,-16.37771 9.548883,-29.88433 21.735011,-41.081814 9.920817,-9.115954 22.195822,-14.839353 36.247915,-16.901116 4.403556,-0.646102 13.852686,-0.646102 18.256246,0 14.05209,2.061763 26.3271,7.785162 36.24792,16.901116 12.18612,11.197484 19.33202,24.704104 21.73501,41.081814 0.6461,4.40356 0.6461,13.85268 0,18.25624 -2.40299,16.37771 -9.54889,29.88433 -21.73501,41.08181 -9.76394,8.97181 -21.85715,14.68836 -35.45417,16.75945 -3.27172,0.49835 -12.38846,0.8768 -14.68437,0.60957 z m 11.91319,-4.61423 c 23.40218,-2.82551 43.10278,-17.96792 51.79844,-39.81368 2.98295,-7.49392 4.28194,-14.51716 4.28194,-23.15104 0,-8.63388 -1.29899,-15.65712 -4.28194,-23.15104 -8.69566,-21.84575 -28.39626,-36.988172 -51.79844,-39.813679 -2.89055,-0.348997 -11.41083,-0.348997 -14.301383,0 -29.453943,3.556179 -52.556225,26.715699 -55.814972,55.953259 -0.341661,3.06539 -0.341661,10.95753 0,14.02292 1.778432,15.95614 9.813649,30.98977 22.08754,41.32509 9.33046,7.85678 20.487395,12.80627 32.67604,14.4959 3.060495,0.42426 12.276755,0.50366 15.352775,0.13227 z m -11.25173,-6.33714 c -11.533975,-0.89666 -22.24178,-5.05491 -31.199965,-12.11614 -2.407526,-1.89771 -7.312725,-6.80291 -9.210441,-9.21044 -7.52607,-9.5479 -11.876297,-21.42382 -12.171203,-33.22683 -0.06668,-2.66892 -0.03598,-2.85747 0.570958,-3.50573 1.239229,-1.3236 3.285013,-0.6168 3.566152,1.23208 0.072,0.47351 0.200918,2.15032 0.286478,3.72623 0.665318,12.25438 6.242995,24.51305 15.237509,33.48915 9.081473,9.06288 21.227608,14.57816 33.581962,15.24879 1.52797,0.0829 3.16555,0.20952 3.63907,0.28128 1.81774,0.27549 2.55602,2.32413 1.2722,3.53022 -0.77479,0.72787 -1.88702,0.83792 -5.57272,0.55139 z m -2.513545,-11.25446 c -5.389161,-0.81909 -6.55076,-1.42385 -6.257219,-3.25766 0.08753,-0.54683 0.418533,-1.18745 0.755954,-1.46308 0.659642,-0.53884 1.032211,-0.52347 4.972098,0.20524 1.236927,0.22878 3.553702,0.49522 5.148382,0.59209 2.53769,0.15415 2.97507,0.25177 3.50573,0.78243 0.75982,0.75982 0.78348,1.92125 0.0579,2.84363 -0.53142,0.6756 -0.63159,0.69625 -3.24114,0.66816 -1.48103,-0.016 -3.704808,-0.18281 -4.941735,-0.37081 z M 83.520249,189.08296 C 69.212879,181.58667 59.8617,166.97159 59.151152,150.99616 l -0.153757,-3.45696 0.734724,-0.57793 c 0.978659,-0.76982 2.110712,-0.74214 2.924346,0.0715 0.540782,0.54078 0.649432,0.90712 0.649432,2.18975 0,3.52909 0.904513,8.62479 2.250256,12.67711 2.203911,6.63646 6.448172,13.03487 11.700758,17.63941 2.147931,1.88292 6.234381,4.71414 8.273985,5.73247 1.775886,0.88666 2.38125,1.54186 2.38125,2.57726 0,1.06873 -0.989771,2.19081 -1.932475,2.19081 -0.348486,0 -1.455226,-0.43048 -2.459422,-0.95662 z m 16.298146,-6.05127 c -7.567799,-1.1284 -14.549305,-4.6598 -19.83052,-10.03071 -1.470486,-1.49546 -1.706562,-1.86917 -1.706562,-2.70151 0,-0.73492 0.181191,-1.12182 0.757542,-1.61757 1.145879,-0.98565 1.946963,-0.67755 4.535582,1.74438 5.460821,5.10919 11.668125,7.88613 19.022083,8.50985 2.89116,0.24521 3.22822,0.32912 3.77031,0.93862 0.79269,0.89126 0.77058,2.07612 -0.0541,2.90082 -0.56971,0.56971 -0.87013,0.64587 -2.44739,0.62044 -0.98888,-0.0159 -2.81,-0.17989 -4.046925,-0.36432 z m 0.175291,-10.86986 c -9.738159,-2.17491 -16.873731,-9.43863 -18.849136,-19.18766 -0.640169,-3.15936 -0.411793,-8.02444 0.524348,-11.1701 2.377985,-7.99062 8.398091,-14.01905 16.480647,-16.50344 2.132755,-0.65556 2.700405,-0.71628 6.695935,-0.71628 3.99553,0 4.56317,0.0607 6.69593,0.71628 8.07206,2.48116 14.02228,8.43138 16.50344,16.50344 0.65556,2.13275 0.71628,2.7004 0.71628,6.69593 0,3.99553 -0.0607,4.56318 -0.71628,6.69593 -2.4839,8.08096 -8.50071,14.09071 -16.50344,16.48408 -2.97497,0.88972 -8.65938,1.1269 -11.547724,0.48182 z m 9.746584,-4.46332 c 0.87312,-0.22892 2.71859,-0.97091 4.10104,-1.64888 2.11966,-1.03951 2.89022,-1.60935 4.91734,-3.63646 2.02576,-2.02576 2.59784,-2.79909 3.63774,-4.91734 1.71029,-3.48385 2.14541,-5.30835 2.14541,-8.99583 0,-3.68748 -0.43512,-5.51198 -2.14541,-8.99583 -1.0399,-2.11825 -1.61198,-2.89158 -3.63774,-4.91734 -2.02577,-2.02576 -2.79909,-2.59785 -4.91734,-3.63774 -3.48385,-1.71029 -5.30835,-2.14542 -8.99583,-2.14542 -3.68748,0 -5.51198,0.43513 -8.995835,2.14542 -2.11825,1.03989 -2.891573,1.61198 -4.917334,3.63774 -2.025761,2.02576 -2.59785,2.79909 -3.637741,4.91734 -1.710294,3.48385 -2.145418,5.30835 -2.145418,8.99583 0,3.68748 0.435124,5.51198 2.145418,8.99583 1.044301,2.12724 1.603389,2.88081 3.637741,4.9032 3.115568,3.09724 5.968826,4.65149 10.208999,5.56114 2.11098,0.45287 6.36762,0.32334 8.59896,-0.26166 z m -6.5753,-13.6493 c -3.612306,-1.08276 -5.218644,-5.48889 -3.15907,-8.66523 2.27941,-3.51536 7.39975,-3.51536 9.67916,0 2.89232,4.46063 -1.42135,10.19352 -6.52009,8.66523 z m 2.68592,-4.54379 c 0.17463,-0.17463 0.3175,-0.62707 0.3175,-1.00542 0,-0.87438 -0.44853,-1.32292 -1.32291,-1.32292 -0.37836,0 -0.83079,0.14288 -1.00542,0.3175 -0.17462,0.17463 -0.3175,0.62707 -0.3175,1.00542 0,0.87438 0.44853,1.32292 1.32292,1.32292 0.37835,0 0.83079,-0.14288 1.00541,-0.3175 z m -31.526888,15.36174 c -1.176993,-0.68399 -3.315028,-6.77826 -3.990321,-11.37403 -0.615113,-4.18621 -0.561112,-5.66302 0.236231,-6.46036 0.824698,-0.8247 2.00956,-0.84681 2.900816,-0.0541 0.609901,0.54244 0.693009,0.87726 0.935883,3.77031 0.30344,3.61452 0.974264,6.43527 2.281343,9.59283 0.497993,1.20303 0.905442,2.489 0.905442,2.85771 0,1.44351 -1.946555,2.43641 -3.269394,1.66766 z m 61.898478,-14.84581 c -0.60563,-0.54045 -0.69333,-0.89118 -0.95176,-3.80611 -0.37198,-4.19554 -1.27106,-7.49277 -3.02185,-11.08206 -3.08081,-6.31599 -7.71948,-10.9552 -14.03335,-14.03499 -3.61211,-1.76193 -6.99204,-2.68412 -11.12108,-3.03432 -2.89116,-0.24521 -3.22822,-0.32912 -3.77032,-0.93862 -0.79268,-0.89126 -0.77058,-2.07612 0.0541,-2.90082 0.55337,-0.55336 0.89582,-0.64873 2.31511,-0.64468 1.93944,0.006 5.7201,0.55043 8.0705,1.1632 11.89286,3.10059 21.74049,12.95644 24.84594,24.8667 0.60616,2.32483 1.15044,6.11162 1.15594,8.04248 0.004,1.41929 -0.0913,1.76174 -0.64469,2.3151 -0.82485,0.82486 -2.0101,0.84699 -2.89856,0.0541 z m 10.93693,0.10364 c -0.54956,-0.445 -0.64037,-0.86509 -0.95664,-4.42547 -0.95367,-10.73571 -4.78401,-19.10339 -12.11105,-26.45756 -7.47607,-7.50376 -16.2869,-11.43664 -27.24254,-12.16019 -2.53004,-0.1671 -2.96786,-0.2677 -3.50573,-0.80558 -0.76823,-0.76823 -0.79512,-1.92538 -0.0663,-2.85196 0.52321,-0.66516 0.66295,-0.69714 3.04556,-0.69714 3.78332,0 9.48227,1.02577 13.4717,2.42481 13.31903,4.67082 23.72831,15.0801 28.39914,28.39914 1.39904,3.98943 2.42481,9.68838 2.42481,13.4717 0,2.38261 -0.032,2.52235 -0.69714,3.04556 -0.86476,0.68022 -1.96396,0.70278 -2.76184,0.0567 z m 11.07615,0.13097 c -0.68398,-0.51965 -1.00258,-1.61214 -1.00258,-3.43782 0,-0.90608 -0.1847,-3.07122 -0.41043,-4.81142 -1.25254,-9.656 -4.72942,-18.01936 -10.75819,-25.87801 -0.98778,-1.2876 -1.79597,-2.57535 -1.79597,-2.86167 0,-1.1659 1.02015,-2.31507 2.06792,-2.32946 0.99619,-0.0137 1.49494,0.3957 3.28863,2.69937 7.26169,9.3263 11.60387,21.29034 11.90079,32.79036 0.069,2.67242 0.0388,2.85837 -0.56856,3.50573 -0.7099,0.7566 -1.95616,0.90446 -2.72161,0.32292 z m -18.72967,-41.36953 c -0.21828,-0.0819 -1.14627,-0.73346 -2.0622,-1.44796 -4.43189,-3.45722 -10.11864,-6.59682 -15.1453,-8.361569 -4.68171,-1.643642 -11.62887,-2.964398 -15.5927,-2.964398 -2.85262,0 -3.9515,-0.628286 -3.96846,-2.268984 -0.006,-0.540706 0.22103,-1.029013 0.67536,-1.455208 0.64378,-0.603911 0.84112,-0.637197 3.37344,-0.569013 11.77173,0.31696 23.4227,4.530418 32.9225,11.906092 1.20286,0.93391 2.30418,1.91695 2.4474,2.18454 0.90758,1.69584 -0.83785,3.6563 -2.65004,2.9765 z"
       id="path1" /></g></svg>
