<?xml version="1.0" encoding="UTF-8" standalone="no"?>
<!-- Created with Inkscape (http://www.inkscape.org/) -->

<svg
   width="135.19124mm"
   height="135.26289mm"
   viewBox="0 0 135.19124 135.26289"
   version="1.1"
   id="svg1"
   xml:space="preserve"
   inkscape:version="1.3.2 (091e20ef0f, 2023-11-25)"
   sodipodi:docname="phonophone.svg"
   xmlns:inkscape="http://www.inkscape.org/namespaces/inkscape"
   xmlns:sodipodi="http://sodipodi.sourceforge.net/DTD/sodipodi-0.dtd"
   xmlns="http://www.w3.org/2000/svg"
   xmlns:svg="http://www.w3.org/2000/svg"><sodipodi:namedview
     id="namedview1"
     pagecolor="#ffffff"
     bordercolor="#000000"
     borderopacity="0.25"
     inkscape:showpageshadow="2"
     inkscape:pageopacity="0.0"
     inkscape:pagecheckerboard="0"
     inkscape:deskcolor="#d1d1d1"
     inkscape:document-units="mm"
     inkscape:zoom="1.3931483"
     inkscape:cx="309.01233"
     inkscape:cy="258.40752"
     inkscape:window-width="1920"
     inkscape:window-height="1008"
     inkscape:window-x="0"
     inkscape:window-y="35"
     inkscape:window-maximized="1"
     inkscape:current-layer="layer1" /><defs
     id="defs1" /><g
     inkscape:label="Layer 1"
     inkscape:groupmode="layer"
     id="layer1"
     transform="translate(-0.34917135,-0.39488402)"><path
       style="fill:#2da5e9;stroke-width:0.567831;fill-opacity:1"
       d="m 64.385751,128.18275 c -0.989527,-0.14336 -2.816322,-0.67394 -3.603227,-1.04652 -1.038695,-0.4918 -2.211558,-1.74165 -2.540614,-2.70739 -0.132714,-0.38949 -0.241298,-1.12512 -0.241298,-1.63473 v -0.92656 l -1.314588,-0.79131 c -1.226641,-0.73836 -2.440805,-1.511 -5.596387,-3.56127 -0.702365,-0.45635 -2.223532,-1.42285 -3.380369,-2.14777 -1.156837,-0.72492 -2.948432,-1.86495 -3.981322,-2.53341 -1.03289,-0.66845 -2.40474,-1.53957 -3.048555,-1.93582 -0.643814,-0.39624 -1.710397,-1.07676 -2.370183,-1.51226 l -1.199612,-0.79181 -0.853715,0.24818 c -1.659279,0.48237 -4.107241,0.21955 -5.738204,-0.61608 -1.585783,-0.81248 -2.615946,-2.4989 -2.547716,-4.17071 0.03415,-0.83677 0.01332,-0.89376 -0.423889,-1.15965 -0.575666,-0.35008 -1.137914,-1.07975 -1.572884,-2.04123 -0.261163,-0.57729 -0.337303,-1.027647 -0.341511,-2.019951 -0.0048,-1.122414 0.04704,-1.376964 0.427805,-2.102422 0.635973,-1.211684 2.231983,-2.746184 3.183972,-3.061262 l 0.764725,-0.253093 0.09382,-4.730015 c 0.05161,-2.601504 0.06136,-4.813804 0.02167,-4.916218 -0.03968,-0.102415 -0.324615,-0.351217 -0.633189,-0.552895 -1.574081,-1.028785 -2.268521,-2.138881 -2.396488,-3.830905 -0.200561,-2.651867 1.184671,-4.633994 4.259424,-6.094807 0.700246,-0.332687 3.213216,-1.376843 5.58438,-2.320347 2.371163,-0.943505 5.933783,-2.399936 7.916933,-3.236513 6.112025,-2.578314 13.526291,-5.555219 16.676484,-6.695784 1.652624,-0.598352 4.058683,-1.492281 5.346798,-1.98651 1.288115,-0.494228 2.694295,-0.974146 3.124846,-1.066483 0.990317,-0.212385 2.931669,-0.216221 3.903901,-0.0077 0.626235,0.134304 0.826986,0.118727 1.243102,-0.09646 0.367956,-0.190277 0.905073,-0.260819 2.077521,-0.272848 1.823487,-0.01871 2.324825,0.168176 3.490639,1.301216 l 0.67716,0.658126 1.78663,-0.117205 c 3.058423,-0.200636 5.465281,-0.59224 5.750231,-0.935584 0.104633,-0.126076 0.08625,-0.298773 -0.05886,-0.553049 -0.504424,-0.883892 -0.554212,-1.139442 -0.474506,-2.43552 l 0.08085,-1.314589 h -0.563924 c -0.78916,0 -2.028076,-0.39369 -2.526887,-0.802969 l -0.42028,-0.344843 -7.211453,0.019 c -8.063154,0.02125 -8.212071,0.03622 -13.596592,1.366427 -3.717724,0.918442 -3.672862,0.901402 -3.87974,1.473515 -0.239287,0.661736 -1.270421,2.250403 -1.996078,3.075356 -1.801765,2.048308 -4.685176,3.577442 -7.270059,3.855467 -0.964251,0.103713 -2.733628,-0.18781 -3.464663,-0.570837 -0.357741,-0.187439 -0.469761,-0.181701 -0.949404,0.04864 -1.205398,0.578866 -3.761706,0.607362 -5.391301,0.06009 -1.073222,-0.360418 -2.33654,-1.057551 -3.218729,-1.776176 -1.169362,-0.952556 -2.675835,-3.104512 -2.675835,-3.822359 0,-0.19655 -0.317129,-0.473509 -0.99771,-0.871333 -2.609999,-1.525639 -4.432276,-5.045132 -4.219282,-8.149002 0.07438,-1.08391 0.04722,-1.219367 -0.486197,-2.425066 -1.321376,-2.98673 -1.627274,-5.115383 -1.133454,-7.887367 0.254634,-1.429348 1.17847,-3.401016 1.985793,-4.23812 l 0.549411,-0.569676 0.09986,-1.727744 c 0.148794,-2.574411 0.938432,-4.705135 2.744168,-7.404741 1.141853,-1.707087 2.464969,-3.047926 3.584235,-3.632242 0.836197,-0.436539 0.85472,-0.460565 1.157704,-1.501624 0.430532,-1.479314 1.682787,-3.504076 2.965899,-4.795538 2.444352,-2.460259 5.967021,-4.1028027 8.543124,-3.9834727 0.677109,0.03137 0.901401,-0.0344 1.524192,-0.4469207 1.188032,-0.7869184 2.561642,-1.1302454 4.097785,-1.0242194 1.471481,0.101563 3.29716,0.5716687 4.073295,1.0488604 0.772376,0.4748797 1.734599,1.3980074 2.365238,2.2691394 0.683322,0.943902 0.673223,0.936931 1.522715,1.05126 0.884488,0.119039 2.124423,0.828544 2.97195,1.700587 0.895801,0.921711 1.795921,2.818713 2.016187,4.249108 0.130043,0.844487 0.395175,1.578472 1.05826,2.929653 0.48661,0.991575 1.020079,2.343721 1.185488,3.004772 0.406077,1.622871 0.611684,2.10632 1.446298,3.400717 3.457399,5.362056 7.149959,8.719583 13.875928,12.616943 1.858834,1.077102 1.889468,1.08835 3.004768,1.103325 1.49967,0.02013 2.612545,0.551288 4.527157,2.160721 3.325192,2.795176 4.735452,4.951625 5.229475,7.996426 0.08626,0.531702 0.157362,1.27961 0.157989,1.662017 5.66e-4,0.382407 0.1097,0.955141 0.242401,1.272741 0.419437,1.003842 0.146855,2.147446 -0.981203,4.11664 -0.165674,0.289209 -0.545608,1.055727 -0.844312,1.703373 -0.740905,1.606475 -2.078116,2.953977 -3.824348,3.853772 -1.003715,0.517195 -1.429759,0.655814 -1.990657,0.647691 -0.392502,-0.0057 -0.713639,0.0086 -0.713639,0.03177 0,0.172142 1.779083,1.105576 3.530608,1.852412 2.703462,1.152729 4.074066,1.783318 8.713864,4.009051 1.15684,0.554944 2.73013,1.303499 3.49622,1.663457 2.63406,1.237675 3.6636,2.141186 4.50954,3.957521 0.54657,1.173568 0.56291,2.935273 0.0368,3.965281 -0.45101,0.882941 -1.26372,1.699385 -2.19767,2.207765 -0.3837,0.20886 -0.68953,0.428585 -0.67963,0.488275 0.01,0.05969 0.0203,2.356473 0.0231,5.103963 l 0.005,4.99543 1.19522,0.578165 c 1.44619,0.699563 2.51199,1.780531 3.02262,3.065625 0.49525,1.246434 0.48172,3.124875 -0.03,4.164322 -0.40813,0.82902 -1.36414,1.84403 -1.85225,1.96656 -0.27802,0.0698 -0.31977,0.19585 -0.33513,1.01185 -0.02,1.06642 -0.4854,2.43107 -1.0631,3.11761 -0.55,0.65364 -1.57603,1.31908 -2.55116,1.65458 -0.64297,0.22121 -1.24922,0.29074 -2.51397,0.28831 -1.43411,-0.003 -1.84472,-0.0634 -2.94272,-0.4349 -1.23162,-0.41668 -1.28916,-0.42261 -1.652635,-0.17043 -0.207119,0.1437 -1.356886,0.77007 -2.555034,1.39192 -1.198155,0.62186 -3.293984,1.70967 -4.657398,2.41736 -1.363418,0.70768 -3.391636,1.7668 -4.507158,2.35359 -1.11552,0.58678 -3.752209,1.93987 -5.859305,3.00686 -2.107096,1.06699 -4.980411,2.53506 -6.385141,3.26237 l -2.554056,1.32238 -0.09504,0.7512 c -0.249047,1.96845 -1.267981,3.40403 -3.070573,4.32616 -1.355529,0.69341 -4.130316,1.13591 -5.698463,0.90871 z m 3.811809,-2.24189 c 0.646184,-0.21356 1.4996,-0.63491 1.901904,-0.93899 0.693293,-0.52404 1.398128,-1.45249 1.230165,-1.62045 -0.04298,-0.043 -0.418622,0.0944 -0.834762,0.30526 -1.91384,0.96983 -2.710001,1.18415 -4.45649,1.19964 -2.035815,0.018 -3.092904,-0.20728 -4.777854,-1.01854 -0.718745,-0.34607 -1.30681,-0.57412 -1.30681,-0.50681 0,0.64549 1.078928,1.90027 1.932232,2.24716 1.949947,0.7927 4.511365,0.92773 6.311615,0.33273 z m -0.555581,-2.94796 c 0.77246,-0.17407 4.120062,-1.81183 7.861429,-3.84605 1.650194,-0.89724 7.172244,-3.71074 16.300887,-8.30537 1.941834,-0.97737 4.409505,-2.25953 5.483707,-2.84926 1.074203,-0.58973 2.933408,-1.54128 4.131568,-2.11457 3.05339,-1.46098 8.10689,-4.03098 8.60461,-4.37596 1.14253,-0.79189 1.44979,-2.902571 0.65745,-4.516202 -0.39273,-0.799784 -1.65326,-2.057235 -2.06228,-2.057235 -0.0743,0 -0.17942,0.287334 -0.23375,0.638515 -0.16378,1.05884 -0.81791,1.53148 -4.89384,3.536058 -2.00734,0.987224 -4.352894,2.091284 -5.212354,2.453484 -1.382678,0.58268 -1.621791,0.74012 -2.076151,1.36698 -0.542366,0.74829 -1.61735,1.60508 -2.370737,1.88954 -0.247898,0.0936 -1.025383,0.30918 -1.727744,0.47908 -1.350473,0.32665 -3.825375,1.38841 -4.209677,1.80598 -0.125599,0.13647 -0.303103,0.22321 -0.394456,0.19276 -0.182489,-0.0608 -7.409006,3.51475 -13.4245,6.64226 -6.258275,3.25374 -7.681744,3.74538 -9.822506,3.39251 -1.343391,-0.22144 -2.656269,-0.94443 -8.73196,-4.80864 -0.743681,-0.47299 -1.960614,-1.22039 -2.704295,-1.6609 -1.962344,-1.16236 -4.047196,-2.4568 -8.037765,-4.99047 -4.368876,-2.77386 -8.796559,-5.54359 -9.990866,-6.249767 -1.922021,-1.136474 -3.829908,-2.460925 -4.107586,-2.851484 -0.159791,-0.224754 -0.376471,-0.695968 -0.481511,-1.047154 -0.105039,-0.351181 -0.230984,-0.638259 -0.279879,-0.637952 -0.196626,0.0011 -1.022105,0.590583 -1.539445,1.099076 -1.129465,1.110139 -1.352688,3.164847 -0.493809,4.545371 0.359395,0.57768 0.691236,0.84851 1.77611,1.44956 0.733777,0.40652 2.32255,1.36263 3.530607,2.12468 1.208057,0.76204 2.681427,1.68686 3.274156,2.05515 3.384288,2.10279 7.70987,4.85056 9.213655,5.85283 0.95026,0.63336 2.325654,1.50345 3.056433,1.93356 0.730779,0.4301 1.91704,1.1776 2.636134,1.66113 0.719095,0.48352 2.318425,1.50588 3.554066,2.27191 1.23564,0.76602 3.170307,2.01965 4.299258,2.78585 2.012106,1.36557 2.271062,1.48529 4.632979,2.14181 0.750644,0.20865 2.842167,0.20474 3.782062,-0.007 z m 0.391929,-7.56735 c 0.720344,-0.29658 1.816773,-0.83013 2.436507,-1.18568 0.619734,-0.35555 2.78317,-1.46822 4.807635,-2.47261 5.508876,-2.73309 11.126553,-5.57439 11.705735,-5.92051 l 0.512961,-0.30655 -0.934224,-0.26344 c -3.17284,-0.89472 -4.999388,-3.71554 -4.528991,-6.994338 0.272207,-1.89737 0.406704,-2.403443 0.862285,-3.244583 l 0.453652,-0.837573 -0.382133,0.145285 c -0.210172,0.07991 -2.516394,1.184053 -5.124936,2.453654 -9.24195,4.498155 -10.200548,4.859865 -13.231289,4.992485 -1.668161,0.073 -1.98709,0.0454 -2.854533,-0.24674 -0.991218,-0.33385 -2.891929,-1.30022 -6.108304,-3.105621 -0.978572,-0.549277 -2.962351,-1.639141 -4.408398,-2.421908 -1.446046,-0.78276 -2.878589,-1.582908 -3.183428,-1.778106 -0.607883,-0.389236 -1.912523,-1.126786 -5.229933,-2.956621 -1.198152,-0.660888 -3.395392,-1.928615 -4.882754,-2.81718 -1.487363,-0.888563 -3.414172,-2.020001 -4.2818,-2.514305 l -1.577505,-0.898734 -0.110339,0.468291 c -0.166643,0.707252 -0.324933,8.117841 -0.201322,9.425164 l 0.108213,1.144469 1.453872,0.976529 c 0.799628,0.537087 2.09614,1.347991 2.881137,1.802001 0.784997,0.454007 2.779413,1.690231 4.432039,2.747151 10.048092,6.4262 21.905235,13.69322 23.211862,14.22613 1.021071,0.41645 2.511884,0.26762 4.173991,-0.41666 z m 2.305711,-4.12134 c -0.278515,-0.0658 -0.650356,-0.26351 -0.826312,-0.4394 -0.306768,-0.30668 -0.31992,-0.454 -0.31992,-3.58346 0,-4.97179 0.130606,-5.18823 4.381639,-7.26103 1.507099,-0.734854 2.772311,-1.336101 2.811585,-1.336101 0.03927,0 0.566495,-0.22692 1.171606,-0.504257 1.397512,-0.640537 2.923745,-1.244304 3.504017,-1.38618 0.247898,-0.06061 0.613359,-0.215588 0.812139,-0.344394 0.30764,-0.199343 0.3518,-0.201393 0.296721,-0.0138 -0.0356,0.12122 -1.224221,0.79506 -2.641402,1.497434 -1.417181,0.702357 -2.675031,1.363094 -2.79522,1.468284 -0.12019,0.105197 -0.851992,0.446307 -1.626228,0.758034 -2.289264,0.92171 -3.984323,2.39851 -4.416786,3.84807 -0.241989,0.81112 -0.290055,3.75695 -0.09061,5.55323 0.09451,0.85122 0.185119,1.09608 0.508534,1.37426 0.586052,0.50411 0.3271,0.62834 -0.769761,0.36931 z m 4.16666,-2.15348 c -1.281953,-0.47662 -1.700599,-0.7937 -2.134977,-1.61701 -0.379319,-0.71895 -0.418682,-0.91828 -0.344493,-1.74446 0.144304,-1.60698 0.829114,-2.50839 2.450543,-3.22563 0.837034,-0.37026 1.660555,-0.30206 2.832808,0.23462 1.861832,0.85238 2.355334,3.00788 1.130756,4.93886 -0.729896,1.15093 -2.719006,1.86557 -3.934637,1.41362 z m 0.117979,-1.63995 c -0.425579,-1.02628 -0.439565,-1.28386 -0.107008,-1.97083 0.394838,-0.81564 1.324259,-1.69495 1.55142,-1.46779 0.103544,0.10354 0.02497,0.30468 -0.243846,0.62414 -0.484743,0.57609 -0.609101,1.02969 -0.501743,1.83011 0.119559,0.89138 0.3783,1.10087 1.022914,0.82821 0.280258,-0.11854 0.640745,-0.36272 0.801082,-0.54262 0.551724,-0.61904 0.240416,-2.46413 -0.480875,-2.85013 -0.480054,-0.25689 -1.636834,-0.35805 -1.982008,-0.17332 -0.427795,0.22895 -1.209007,1.46701 -1.209007,1.91603 0,0.68575 0.71349,1.99399 1.087475,1.99399 0.07671,0 0.104428,-0.0845 0.06159,-0.18779 z M 49.66237,103.97165 c -0.578419,-0.32127 -1.727744,-0.98791 -2.554056,-1.48141 -0.826313,-0.4935 -2.17846,-1.25065 -3.004772,-1.68257 -1.899685,-0.992967 -2.819921,-1.663604 -3.320306,-2.419738 -1.070136,-1.617084 0.05227,-3.760158 1.969319,-3.760158 0.607656,0 1.21976,0.286028 3.15385,1.473732 0.743681,0.456683 2.332455,1.398589 3.530607,2.093126 2.508906,1.454341 2.910607,1.787511 3.397903,2.818288 0.590775,1.24967 0.388215,2.41656 -0.533406,3.07281 -0.813099,0.57898 -1.440153,0.55188 -2.639139,-0.11408 z m 2.049292,-1.27035 c 0.201351,-0.37623 0.08301,-1.16451 -0.251464,-1.67498 -0.139274,-0.21256 -0.735975,-0.68215 -1.326003,-1.043547 -0.590029,-0.36138 -1.917871,-1.179974 -2.950762,-1.819081 -2.072313,-1.282254 -3.621055,-2.103485 -4.226121,-2.240911 -0.575499,-0.130715 -1.182637,0.386596 -1.181906,1.007037 0.0012,0.999594 0.893833,1.885511 2.92909,2.906975 0.578419,0.290297 1.119278,0.583287 1.201909,0.651097 0.08263,0.0678 0.62349,0.37348 1.201909,0.67927 0.578419,0.3058 1.517068,0.82701 2.085889,1.15825 1.555017,0.90551 2.183771,0.9994 2.517459,0.37589 z M 50.4483,101.82719 c 0.05313,-0.20315 0.121227,-0.27125 0.158734,-0.15873 0.03613,0.10839 -0.0057,0.2685 -0.09304,0.3558 -0.111487,0.11149 -0.131039,0.0528 -0.06569,-0.19707 z m -16.039498,5.42654 c 0.268406,-0.16975 0.391586,-0.0739 -1.422916,-1.1076 -0.826312,-0.47076 -1.866976,-1.09712 -2.312586,-1.39191 l -0.810199,-0.53599 0.08485,0.63261 c 0.148499,1.10714 1.412443,2.13586 2.941566,2.39413 0.98557,0.16647 1.267339,0.16809 1.519287,0.009 z m 72.379638,-0.53231 c 1.03964,-0.52012 1.78969,-1.31301 1.88182,-1.98933 0.0539,-0.39569 -0.16297,-0.36612 -1.31623,0.17943 -0.57842,0.27363 -1.78283,0.84302 -2.67645,1.26533 -0.91322,0.43157 -1.58374,0.83422 -1.53109,0.91942 0.0515,0.0834 0.65528,0.15159 1.34167,0.15159 1.12617,0 1.35069,-0.0514 2.30028,-0.52644 z m -18.589872,-3.0191 c 0,-0.0495 -0.232754,-0.47207 -0.517226,-0.939 -1.207021,-1.98117 -1.294109,-4.620208 -0.226667,-6.868919 0.518447,-1.092172 1.462943,-2.206296 2.090885,-2.466396 0.537974,-0.22284 0.59315,-0.531258 0.117835,-0.658639 -2.404967,-0.644505 -5.359756,2.056462 -5.823009,5.322806 -0.181944,1.282864 -0.0017,2.637768 0.448286,3.365498 0.381031,0.61652 1.317617,1.47767 1.985381,1.82548 0.725262,0.37775 1.924515,0.63895 1.924515,0.41917 z m 5.361664,-0.75392 c 2.3387,-1.33692 3.223921,-5.359595 1.59755,-7.259645 -0.616191,-0.719873 -1.076997,-0.981144 -1.972506,-1.118377 -2.720103,-0.416834 -4.869468,4.046311 -3.445989,7.155602 0.770251,1.68245 2.210281,2.14316 3.820945,1.22242 z M 88.29276,99.848563 c -0.01568,-2.606485 0.797178,-4.474761 2.578173,-5.92575 0.766998,-0.624876 0.779661,-0.647186 0.36745,-0.647186 -0.23481,0 -0.735535,0.195715 -1.112722,0.434919 -1.642967,1.041935 -2.524372,3.199862 -2.331037,5.70702 0.07963,1.032554 0.294802,1.970954 0.451948,1.970954 0.0305,0 0.05127,-0.69298 0.04616,-1.539957 z m 12.46539,-0.910094 c 1.80983,-0.851737 3.86527,-1.848941 4.56765,-2.216017 1.26509,-0.661166 1.27798,-0.673731 1.37857,-1.343482 0.13358,-0.889292 0.15023,-7.214133 0.0258,-9.807822 l -0.098,-2.042923 -0.76589,0.389052 c -0.42124,0.213979 -1.55486,0.679581 -2.51914,1.034672 -0.96428,0.35509 -2.51926,1.012629 -3.455501,1.461197 -0.936241,0.448569 -2.378334,1.100972 -3.204645,1.449786 -0.826319,0.348813 -1.97564,0.858788 -2.554061,1.133271 -4.344248,2.061556 -4.656077,2.22797 -4.281798,2.285105 1.030523,0.157306 2.18586,0.604916 3.728486,1.444517 1.942167,1.057063 2.759287,1.767595 3.49292,3.037321 0.498237,0.86232 0.515878,0.946796 0.515878,2.470356 0,0.867624 -0.05529,1.729621 -0.122799,1.915538 -0.06752,0.18592 -0.09475,0.33804 -0.06048,0.33804 0.03426,0 1.543106,-0.696877 3.35293,-1.548611 z m -0.58748,-2.807396 c -1.256709,-0.2241 -1.915527,-0.81766 -2.290223,-2.06339 -0.680565,-2.262659 0.940247,-4.548019 3.225553,-4.548019 1.00787,0 2.24796,0.485308 3.04306,1.190895 0.64173,0.569477 0.65078,0.591089 0.64229,1.533785 -0.0101,1.117729 -0.43881,2.14476 -1.22247,2.928412 -0.93416,0.934155 -1.94117,1.218139 -3.39821,0.958317 z m 0.34746,-1.584498 c 0,-0.04469 -0.1456,-0.278141 -0.32355,-0.518845 -0.320483,-0.433464 -0.320957,-0.444503 -0.0499,-1.158261 0.29352,-0.772892 1.09755,-1.697179 1.47636,-1.697179 0.39731,0 0.43518,0.294341 0.0564,0.438355 -0.70173,0.2668 -0.88571,1.533319 -0.38299,2.636649 0.33722,0.740116 1.16399,0.325429 1.53767,-0.771268 0.31669,-0.929437 0.3029,-1.281935 -0.0686,-1.754257 -0.33618,-0.427378 -1.4871,-1.000194 -2.00961,-1.000194 -0.38638,0 -1.202124,0.79921 -1.428436,1.399487 -0.326568,0.866198 -0.06201,1.985563 0.55418,2.344438 0.285586,0.166345 0.638516,0.211154 0.638516,0.08107 z m -6.610494,-3.812758 c 0,-0.233514 0.755631,-0.701941 2.644493,-1.639351 0.983145,-0.48792 2.294594,-1.150152 2.914337,-1.471629 1.745164,-0.90527 2.300004,-1.107945 3.033044,-1.107945 0.8678,0 1.54401,0.452078 2.01905,1.349823 0.35459,0.670115 0.48356,1.654949 0.21673,1.654949 -0.0769,0 -0.16279,0.152116 -0.19091,0.338035 -0.0398,0.263463 -0.11502,0.172309 -0.34079,-0.413153 -0.61702,-1.600029 -1.24918,-2.041116 -2.50868,-1.750391 -0.78148,0.180383 -2.848133,1.030676 -2.979641,1.225925 -0.08302,0.123265 -2.135635,0.976794 -3.079889,1.280697 -0.330529,0.106377 -0.854482,0.301785 -1.164347,0.434238 -0.309872,0.132457 -0.563397,0.176918 -0.563397,0.0988 z m -28.493381,9.448303 c 1.86458,-0.213627 2.473828,-0.450487 7.466236,-2.902752 2.434179,-1.195664 5.473695,-2.647545 6.754477,-3.226403 2.715373,-1.227224 7.618718,-3.537047 11.042539,-5.201825 5.393338,-2.62242 6.371245,-3.08934 7.737284,-3.694319 1.825009,-0.808241 4.911039,-2.098894 6.835889,-2.858936 0.82632,-0.326278 2.04325,-0.883339 2.70431,-1.237913 0.98033,-0.525832 1.26885,-0.765627 1.56501,-1.300744 0.48259,-0.87198 0.46239,-1.875109 -0.0593,-2.941291 -0.58417,-1.193986 -1.42395,-1.93397 -3.14418,-2.770512 -2.87726,-1.399212 -7.681786,-3.641503 -9.554397,-4.459077 -1.032887,-0.450956 -2.554059,-1.147489 -3.380366,-1.547851 -0.826314,-0.400361 -2.347481,-1.11175 -3.380371,-1.580863 -1.032891,-0.469113 -2.160449,-1.01632 -2.505691,-1.216016 -0.775197,-0.448394 -1.086578,-0.450596 -3.785183,-0.02676 l -2.159314,0.339138 -0.436423,0.634315 c -0.908303,1.320176 -2.145765,1.920413 -3.958789,1.920232 -0.995207,-9.8e-5 -1.352694,-0.07074 -2.078685,-0.410752 -2.192824,-1.026995 -3.130136,-2.559653 -3.122091,-5.105128 0.0032,-1.029569 0.07845,-1.258626 1.037432,-3.160278 0.110362,-0.218847 -1.711453,-0.106853 -2.897869,0.178143 -0.66105,0.158794 -2.182215,0.670108 -3.380369,1.136254 -1.198152,0.466146 -2.820729,1.074701 -3.605726,1.352344 -2.618983,0.926301 -7.704573,2.896024 -10.66694,4.131461 -3.694927,1.540946 -14.70493,5.991781 -16.922685,6.841058 -2.298218,0.880089 -4.147421,1.76394 -5.000098,2.389863 -1.117001,0.819954 -1.49322,1.477555 -1.690999,2.955731 -0.285863,2.136516 0.07203,2.595427 3.870358,4.962823 1.397608,0.871091 3.014357,1.84255 3.592776,2.158798 0.578418,0.316247 1.862958,1.095693 2.854533,1.732103 0.991575,0.636411 2.343722,1.448289 3.004771,1.804172 2.254102,1.213528 5.557026,3.088205 6.46026,3.666722 0.495788,0.317549 1.949346,1.11752 3.23013,1.77772 1.280784,0.6602 2.700538,1.417806 3.155011,1.683568 1.484997,0.868393 5.767014,3.148461 6.45963,3.439588 0.686384,0.28851 1.993088,0.657027 2.404446,0.678097 0.123947,0.006 0.823399,-0.057 1.554338,-0.14071 z M 58.733512,89.508489 c -1.422339,-0.150844 -4.549727,-0.8794 -6.441967,-1.500714 -3.382888,-1.110768 -6.795359,-3.236081 -7.934169,-4.941463 -0.825752,-1.236573 -1.00749,-2.080079 -0.992164,-4.604961 0.01181,-1.946237 0.04667,-2.203625 0.427217,-3.15501 0.227894,-0.569742 0.705193,-1.443751 1.060664,-1.942242 1.18071,-1.655759 3.939569,-3.667765 6.280641,-4.580402 1.364671,-0.531999 4.74369,-1.395198 6.190804,-1.581492 0.330525,-0.04255 1.006599,-0.143775 1.502386,-0.224945 0.49661,-0.08131 2.588185,-0.121065 4.657397,-0.08854 3.520405,0.05534 3.897273,0.0889 6.009126,0.535099 2.617217,0.552973 4.196158,1.057368 6.465717,2.065485 1.388286,0.616662 1.807299,0.891021 2.810719,1.840385 2.559782,2.421875 3.371564,4.417046 3.233507,7.947232 -0.08524,2.179842 -0.353673,3.084251 -1.234407,4.15907 -1.358166,1.657464 -4.390024,3.558198 -7.143558,4.478446 -1.596618,0.533596 -5.670115,1.414734 -7.393329,1.59925 -1.663535,0.178124 -5.797055,0.175261 -7.498584,-0.0051 z M 66.86863,88.01226 c 1.394095,-0.170014 4.1966,-0.838347 6.080722,-1.450107 2.263967,-0.735093 5.202436,-2.424906 6.207696,-3.569836 0.57913,-0.659591 1.260663,-1.9756 1.579722,-3.050364 0.128784,-0.433813 0.209183,-0.788752 0.178668,-0.788752 -0.0305,0 -0.364348,0.464597 -0.741848,1.032436 -1.021977,1.537273 -3.446825,3.234783 -5.851524,4.096345 -0.672361,0.240896 -1.35769,0.500626 -1.522953,0.577177 -0.471272,0.218299 -2.334002,0.719299 -3.079891,0.828368 -0.37184,0.05438 -1.216933,0.212069 -1.877982,0.350434 -0.959881,0.200914 -2.018753,0.24989 -5.258351,0.243215 -4.137836,-0.0085 -5.871647,-0.18007 -7.727366,-0.764545 -0.377298,-0.118834 -1.226854,-0.3786 -1.887904,-0.57726 -3.49788,-1.051186 -6.959404,-3.197124 -8.374701,-5.191812 l -0.261817,-0.369 0.145807,0.414176 c 0.257332,0.730968 0.564993,1.227642 1.040488,1.679713 0.527227,0.501255 0.610793,0.774589 0.163651,0.535286 -0.573977,-0.307183 -0.297129,0.120974 0.638514,0.987487 1.67321,1.549585 4.07844,2.911192 6.347581,3.593381 1.492722,0.448768 4.915889,1.249579 6.057278,1.417032 1.246447,0.182864 6.66296,0.187271 8.14421,0.0067 z M 56.630201,84.148634 c 0.0784,-0.144604 0.452621,-0.585239 0.831599,-0.979189 0.753899,-0.783681 0.821951,-0.953799 0.426133,-1.065262 -1.990396,-0.560501 -2.989094,-0.939088 -3.853208,-1.460679 -0.976824,-0.589624 -1.080186,-0.619139 -1.802863,-0.514805 -0.421646,0.06087 -0.916268,0.110222 -1.099161,0.109662 -0.291884,-9.17e-4 -0.305658,0.02586 -0.112679,0.218835 0.276429,0.27643 0.281874,0.404576 0.01281,0.301324 -0.113879,-0.0437 -0.282897,-0.0037 -0.375597,0.08909 -0.0927,0.0927 -0.168546,0.123623 -0.168546,0.06872 0,-0.0549 -0.309838,0.03299 -0.688529,0.19531 -0.796147,0.341268 -0.944675,0.36586 -0.693666,0.114852 0.212014,-0.212014 0.235608,-0.420669 0.04757,-0.420669 -0.07299,0 -0.168762,0.137839 -0.212818,0.306309 -0.168981,0.646187 1.385221,1.524883 4.544855,2.569517 2.38592,0.78883 2.926109,0.869062 3.144107,0.466983 z m 13.840214,-0.112679 c 0,-0.123947 -0.02657,-0.225357 -0.05905,-0.225357 -0.03248,0 -0.09796,0.10141 -0.145524,0.225357 -0.04756,0.123947 -0.02099,0.225358 0.05905,0.225358 0.08004,0 0.145524,-0.101411 0.145524,-0.225358 z M 58.76961,81.750103 c 0.03152,0.01775 0.05185,0.01554 0.04516,-0.005 -0.0067,-0.02046 0.285578,-0.347927 0.649475,-0.727711 0.363898,-0.379784 0.621336,-0.730811 0.572088,-0.78006 -0.04925,-0.04924 -0.645748,-0.248947 -1.32555,-0.443772 -0.679803,-0.194826 -1.592353,-0.58927 -2.027886,-0.876541 -0.668736,-0.441087 -0.841094,-0.495974 -1.108337,-0.35295 -0.245298,0.131279 -0.349128,0.123646 -0.46176,-0.03395 -0.113554,-0.158886 -0.128392,-0.149947 -0.0679,0.04091 0.09312,0.2938 -0.523149,0.621344 -0.898234,0.47741 -0.16099,-0.06178 -0.215336,-0.03764 -0.150708,0.06692 0.06093,0.09859 -0.08259,0.203886 -0.361363,0.265114 -0.452419,0.09937 -0.456525,0.108105 -0.189464,0.403203 0.374011,0.413279 0.882102,0.665131 2.977979,1.47614 1.17546,0.45485 1.887485,0.655918 2.046027,0.577777 0.13374,-0.06592 0.268955,-0.105326 0.300477,-0.08758 z M 47.907829,80.167312 c -0.346539,-0.516445 -0.752705,-1.059938 -0.902592,-1.207762 -0.149885,-0.147823 -0.272519,-0.359772 -0.272519,-0.470996 0,-0.111225 -0.162302,-0.308571 -0.360671,-0.438547 -0.283468,-0.185735 -0.371906,-0.394418 -0.413156,-0.974907 -0.04184,-0.588862 -0.0094,-0.72202 0.159959,-0.65686 0.152901,0.05883 0.175173,0.02194 0.07946,-0.1316 -0.266749,-0.42793 -0.214058,-0.707277 0.150675,-0.798818 0.198474,-0.04982 0.502896,-0.276495 0.676494,-0.503735 2.56958,-3.363587 3.530649,-4.110096 6.317732,-4.90729 2.191684,-0.626892 4.663602,-1.117192 6.460259,-1.28138 3.43747,-0.314134 8.49843,-0.113679 8.985503,0.355897 0.285586,0.275326 0.07466,0.943489 -0.329883,1.045024 -0.182962,0.04592 -0.799319,0.556354 -1.369682,1.134295 -0.570363,0.577942 -1.069901,1.017926 -1.110085,0.977743 -0.04018,-0.04018 0.07536,-0.177021 0.256769,-0.304084 0.181407,-0.127062 0.425208,-0.415462 0.54178,-0.640888 0.203316,-0.393168 0.196249,-0.411166 -0.173465,-0.441764 -0.211978,-0.01755 -0.487754,-0.116331 -0.612836,-0.219528 -0.181843,-0.150026 -0.240089,-0.149993 -0.290629,1.68e-4 -0.03476,0.103289 -0.192788,0.187799 -0.351164,0.187799 -0.159567,0 -0.287958,0.103524 -0.287958,0.232187 0,0.127703 -0.17242,0.404607 -0.383156,0.615343 -0.293233,0.293233 -0.478348,0.361666 -0.788753,0.291585 -0.326468,-0.07371 -0.354977,-0.06078 -0.14613,0.06627 0.142706,0.08681 0.649762,0.183536 1.12679,0.214946 0.477028,0.03141 1.036342,0.120869 1.24292,0.198797 0.206578,0.07793 0.641348,0.190311 0.966156,0.249738 0.449917,0.08232 0.539366,0.143339 0.375597,0.256226 -0.161429,0.111275 -0.135089,0.125865 0.105763,0.05858 0.176401,-0.04928 0.669057,0.04771 1.094792,0.215516 0.976838,0.385033 1.071294,0.382466 2.17842,-0.05922 0.50227,-0.200379 1.38647,-0.465296 1.964889,-0.588705 0.578418,-0.123411 0.960573,-0.229893 0.849233,-0.236629 -0.251835,-0.01523 -4.394963,-2.000306 -4.32369,-2.07158 0.06872,-0.06872 2.131662,0.746615 3.57346,1.412339 l 1.150674,0.531302 0.858143,-0.39287 c 0.471979,-0.21608 1.00209,-0.394156 1.178025,-0.395726 0.452967,-0.0041 -0.838646,-0.794949 -2.365384,-1.448419 -1.267826,-0.542653 -4.227329,-1.313373 -4.557188,-1.186794 -0.106896,0.04102 -0.194357,-0.01759 -0.194357,-0.130244 0,-0.485403 -9.297957,-0.503912 -11.943968,-0.02377 -1.460237,0.264969 -3.872322,0.858227 -5.004917,1.23097 -2.247096,0.739531 -4.903106,2.540318 -5.737132,3.8898 -0.366849,0.593576 -1.050959,2.279356 -0.961353,2.368963 0.0331,0.0331 0.06754,0.460135 0.07651,0.94896 0.01181,0.642951 0.12223,1.086101 0.399229,1.602211 0.469439,0.87467 2.00047,2.366454 2.428711,2.366454 0.283051,0 0.252886,-0.08928 -0.317281,-0.938991 z m 18.393466,-0.21218 c -0.10329,-0.04168 -0.272308,-0.04168 -0.375598,0 -0.103288,0.04168 -0.01878,0.07578 0.187799,0.07578 0.206578,0 0.291087,-0.0341 0.187799,-0.07578 z m 12.592182,-0.219107 c 0.09378,-0.175234 0.113066,-0.28707 0.04288,-0.248523 -0.07022,0.03855 -0.250265,0.113834 -0.40011,0.167307 -0.14984,0.05347 -0.230358,0.165309 -0.17893,0.248524 0.148647,0.240516 0.351868,0.177105 0.536192,-0.167308 z m -11.91924,0.0776 c -0.04992,-0.04993 -0.179503,-0.05526 -0.287957,-0.01186 -0.11985,0.04796 -0.08425,0.08356 0.09077,0.09077 0.158376,0.0065 0.24711,-0.02899 0.197187,-0.07891 z m 1.176324,-0.443354 c 0.286967,-0.229907 0.286825,-0.231434 -0.0088,-0.09542 -0.165261,0.07602 -0.401887,0.175827 -0.525834,0.221786 -0.194671,0.07218 -0.193467,0.08517 0.0088,0.09542 0.128811,0.0065 0.365437,-0.09328 0.525834,-0.221786 z m -2.238713,-0.793997 c 1.345065,-0.353819 2.053991,-0.785274 2.364113,-1.438808 0.328666,-0.692613 0.304936,-0.975952 -0.136093,-1.624985 -0.502065,-0.738855 -1.444497,-1.268148 -3.039207,-1.706898 -2.748847,-0.756283 -5.951317,-0.274974 -7.451499,1.119907 -1.673751,1.556267 -0.814856,2.972793 2.229432,3.676875 0.578418,0.133776 1.254492,0.273121 1.502386,0.309656 0.896947,0.132191 3.479485,-0.05918 4.530868,-0.335747 z m -4.210129,-1.837795 c -0.567734,-0.446578 -0.545666,-1.214549 0.05207,-1.81229 0.379252,-0.379252 0.54551,-0.440828 1.084325,-0.401598 0.531628,0.0387 0.692848,0.130371 0.979334,0.556826 0.453091,0.674461 0.432579,1.000487 -0.09622,1.529285 -0.547433,0.547432 -1.416137,0.602396 -2.019517,0.127777 z m 1.331885,-1.115885 c 0,-0.375126 -0.06025,-0.450715 -0.359222,-0.450715 -0.48092,0 -0.744502,0.416931 -0.471524,0.745849 0.111924,0.13486 0.34463,0.225037 0.517123,0.200392 0.238354,-0.03405 0.313623,-0.152982 0.313623,-0.495526 z m 6.225288,2.88378 0.365981,-0.479962 -0.47866,0.441264 c -0.49798,0.459074 -0.55481,0.540904 -0.365983,0.526974 0.06198,-0.0046 0.277372,-0.224296 0.478662,-0.488276 z m 10.283161,0.113188 c 0.05133,-0.1337 0.02612,-0.194006 -0.05904,-0.141371 -0.08169,0.05048 -0.148517,0.155406 -0.148517,0.233161 0,0.216108 0.107684,0.168487 0.20756,-0.09179 z m 0.218893,-0.480471 c -0.01334,-0.06198 0.05428,-0.303001 0.150238,-0.535616 0.280207,-0.679144 0.183454,-2.206239 -0.139778,-2.206239 -0.07095,0 -0.05811,0.185921 0.02856,0.413157 0.167663,0.439705 0.0335,1.861106 -0.147937,1.567511 -0.05895,-0.09538 -0.107184,0.06222 -0.107184,0.350223 0,0.288003 0.05405,0.523642 0.120192,0.523642 0.06611,0 0.109274,-0.05071 0.09593,-0.112678 z M 55.60803,77.737894 c -0.219792,-0.233958 -0.380113,-0.649186 -0.449559,-1.16435 l -0.107939,-0.800711 -0.06491,0.774624 c -0.0357,0.426043 -0.0142,0.743188 0.04777,0.704767 0.06198,-0.03842 0.112679,0.01331 0.112679,0.114977 0,0.231506 0.445374,0.73433 0.650429,0.73433 0.08423,0 -5.68e-4,-0.163637 -0.188478,-0.363637 z m 14.605493,-0.838479 c 0.04325,-0.165376 0.01733,-0.262798 -0.05759,-0.216491 -0.07492,0.04631 -0.136227,0.181614 -0.136227,0.300684 0,0.310956 0.102086,0.266612 0.193823,-0.08419 z M 46.432241,75.998191 c 0,-0.08263 -0.02981,-0.150239 -0.06625,-0.150239 -0.03644,0 -0.108037,0.0676 -0.159105,0.150239 -0.05107,0.08263 -0.02125,0.150238 0.06625,0.150238 0.08751,0 0.159106,-0.0676 0.159105,-0.150238 z m 3.608257,-0.468103 c 0.0067,0.245471 0.577934,-0.857294 0.613567,-1.184521 0.05594,-0.513688 -0.142721,-1.051671 -0.388345,-1.051671 -0.111492,0 -0.237601,-0.08451 -0.280242,-0.187798 -0.04697,-0.113774 -0.11803,-0.05455 -0.180281,0.150238 -0.109841,0.361355 -0.362118,0.461786 -0.377391,0.150239 -0.005,-0.103289 -0.244004,0.284668 -0.530979,0.862127 -0.457541,0.920678 -0.493286,1.070754 -0.290369,1.21913 0.145846,0.106645 0.453259,0.128636 0.831455,0.05948 0.330029,-0.06035 0.601193,-0.0681 0.602585,-0.01722 z m 1.800332,-0.433329 c 0,-0.243244 -0.100159,-0.300477 -0.525835,-0.300477 -0.28921,0 -0.525836,0.0676 -0.525836,0.150239 0,0.08263 0.101412,0.150238 0.225359,0.150238 0.123946,0 0.225357,0.0676 0.225357,0.150239 0,0.08263 0.135215,0.150238 0.300477,0.150238 0.200319,0 0.300478,-0.100159 0.300478,-0.300477 z m 1.201909,0 c 0,-0.200318 -0.10016,-0.300477 -0.300478,-0.300477 -0.200318,0 -0.300477,0.100159 -0.300477,0.300477 0,0.200318 0.100159,0.300477 0.300477,0.300477 0.200318,0 0.300478,-0.100159 0.300478,-0.300477 z M 79.207431,74.157768 C 78.964348,73.806585 78.57284,73.350236 78.337417,73.143657 l -0.428042,-0.375596 0.2994,0.362426 c 0.164671,0.199336 0.451522,0.530343 0.637441,0.735572 0.185919,0.20523 0.338036,0.45905 0.338036,0.564045 0,0.157678 0.147562,0.282052 0.420377,0.354317 0.02464,0.0065 -0.154115,-0.27547 -0.397198,-0.626653 z M 69.118268,73.681014 c -0.371841,-0.106456 -0.811289,-0.244179 -0.976552,-0.306053 -0.165261,-0.06187 -0.09765,0.02485 0.15024,0.192715 0.247893,0.167866 0.68734,0.305589 0.97655,0.306052 0.522648,8.41e-4 0.521738,-3.3e-4 -0.150238,-0.192714 z m -11.868849,-0.32257 c 0,-0.04132 -0.135214,-0.0028 -0.300477,0.08569 -0.165263,0.08845 -0.300478,0.194613 -0.300478,0.235929 0,0.04131 0.135215,0.0028 0.300478,-0.08569 0.165263,-0.08845 0.300477,-0.194613 0.300477,-0.235929 z m 1.005056,-0.461719 c -0.0744,-0.0744 -0.854817,0.209092 -0.854817,0.310518 0,0.03906 0.206273,-9.18e-4 0.458384,-0.08877 0.252112,-0.08789 0.430507,-0.187672 0.396433,-0.221746 z m 2.66539,-0.821565 c -0.11415,-0.184698 -0.261512,-0.167234 -0.585033,0.06933 -0.250503,0.183172 -0.23167,0.19605 0.19511,0.133412 0.259806,-0.03813 0.435272,-0.129365 0.389923,-0.202742 z m 1.850822,-0.09262 c -0.309866,-0.03242 -0.816922,-0.03242 -1.126789,0 -0.309867,0.03241 -0.05634,0.05893 0.563394,0.05893 0.619734,0 0.873262,-0.02652 0.563395,-0.05893 z m -7.566303,-1.929135 c 0.06012,-0.156662 0.191476,-0.203655 0.39167,-0.140115 0.173041,0.05492 0.301218,0.02736 0.301218,-0.06476 0,-0.0882 -0.169018,-0.160363 -0.375597,-0.160363 -0.206579,0 -0.375597,0.06549 -0.375597,0.145523 0,0.08004 -0.102177,0.106315 -0.227061,0.05839 -0.162475,-0.06235 -0.200638,-0.01827 -0.134165,0.154954 0.117948,0.307366 0.302951,0.310174 0.419532,0.0063 z m 3.847898,-0.365238 c 0,-0.165263 -0.08451,-0.305229 -0.187798,-0.311037 -0.10329,-0.0058 -0.05258,-0.06866 0.112679,-0.139679 0.226083,-0.09715 0.123791,-0.131734 -0.413157,-0.139679 -0.538874,-0.008 -0.713633,0.04463 -0.713633,0.214799 0,0.125198 -0.133545,0.225357 -0.300477,0.225357 -0.166932,0 -0.300477,0.100159 -0.300477,0.225358 0,0.175279 0.200318,0.225358 0.901432,0.225358 0.801272,0 0.901431,-0.03339 0.901431,-0.300477 z m 1.161219,-0.691724 c -0.04992,-0.04992 -0.179504,-0.05526 -0.287957,-0.01186 -0.11985,0.04796 -0.08425,0.08356 0.09077,0.09077 0.158378,0.0065 0.247112,-0.02899 0.197189,-0.07891 z m 30.76448,10.140017 c -2.400329,-0.09784 -2.80061,-0.193174 -4.165221,-0.992032 -1.228355,-0.719094 -1.667623,-1.353364 -1.741566,-2.514693 -0.123191,-1.934643 1.11372,-3.119354 3.916125,-3.750851 0.407487,-0.09182 0.41316,-0.109207 0.41316,-1.265959 0,-1.022314 0.04338,-1.213504 0.338035,-1.489516 1.041039,-0.975199 2.90705,-0.805323 3.652595,0.332521 0.20066,0.306244 0.230472,0.574671 0.148664,1.338561 l -0.102323,0.955499 0.609135,0.0974 c 2.390208,0.382209 4.067729,1.892343 4.067729,3.661832 0,0.958937 -0.241247,1.47583 -0.999578,2.141652 -1.380935,1.212473 -3.031895,1.612137 -6.136755,1.485581 z m 3.283812,-1.640769 c 1.098627,-0.411048 2.004265,-1.091647 2.312389,-1.737778 0.242339,-0.508197 0.240428,-0.557708 -0.04198,-1.085101 -0.222129,-0.414867 -0.539291,-0.672962 -1.272435,-1.035465 -1.313044,-0.649239 -1.771721,-0.749655 -1.899789,-0.415911 -0.06325,0.1648 -0.0088,0.310789 0.148834,0.398998 0.281838,0.157722 0.3387,1.069457 0.105037,1.684042 -0.3277,0.861922 -1.750765,1.207307 -3.217528,0.780909 -0.667747,-0.19412 -0.922186,-0.355803 -1.151317,-0.73159 -0.398896,-0.654218 -0.372458,-1.183805 0.08034,-1.609186 0.483394,-0.454129 0.474195,-0.601155 -0.03754,-0.600116 -0.795638,0.0016 -1.577014,0.32762 -2.231746,0.931133 -0.840821,0.775037 -0.890552,1.349438 -0.186293,2.151543 0.931719,1.061172 2.483812,1.542027 5.041578,1.561938 1.19622,0.0093 1.71415,-0.05534 2.350456,-0.293416 z m -2.177035,-2.683862 c 0.168827,-0.106954 0.17237,-0.229984 0.01993,-0.691871 -0.119591,-0.362368 -0.165812,-1.181993 -0.13022,-2.30899 l 0.05519,-1.747205 h -0.450713 -0.450716 l -0.127052,2.028224 c -0.06988,1.115522 -0.141588,2.043594 -0.159362,2.062384 -0.01777,0.01879 -0.163421,0.05417 -0.323663,0.07863 -0.451931,0.06897 -0.478313,0.266834 -0.066,0.495014 0.423306,0.234264 1.322279,0.280419 1.63261,0.08382 z M 78.576633,66.236084 c 1.099094,-0.560717 1.811301,-2.003541 1.80623,-3.659143 -0.004,-1.363838 -0.352924,-2.174634 -1.198975,-2.787512 -1.215629,-0.880598 -2.321414,-0.975396 -3.683914,-0.315821 -0.781297,0.378219 -1.464227,1.28818 -1.744718,2.324725 -0.360856,1.333535 0.116508,3.022908 1.118656,3.958881 0.837953,0.78262 2.648367,1.016759 3.702721,0.47887 z m 4.18823,-2.564684 c 0.358029,-0.08257 1.181929,-0.179472 1.830886,-0.215348 1.586286,-0.0877 5.492855,-0.888789 6.494583,-1.331802 1.037211,-0.458704 2.06611,-1.4221 2.06611,-1.934572 0,-0.463652 -0.198486,-0.638136 -0.963524,-0.847015 -0.523251,-0.142863 -0.70155,-0.110656 -1.620641,0.292735 -1.116798,0.490167 -2.81045,0.900667 -5.191502,1.258296 -0.829447,0.124581 -1.684822,0.293706 -1.900831,0.375834 -0.216014,0.08213 -0.699971,0.107214 -1.075466,0.05575 l -0.682715,-0.09358 0.120954,0.434711 c 0.06652,0.239092 0.120948,0.823485 0.120948,1.298653 0,0.475168 0.03378,0.862257 0.07512,0.860199 0.04134,-0.0021 0.368051,-0.0713 0.726074,-0.153861 z m -0.4256,-1.044444 c 0,-0.08263 0.25353,-0.143499 0.563396,-0.135263 0.502808,0.01337 0.523,0.02791 0.187798,0.135263 -0.537037,0.171989 -0.751194,0.171989 -0.751194,0 z m 11.186655,0.04225 c 0.657684,-0.477706 1.383475,-1.138986 1.612877,-1.469511 0.410896,-0.592023 0.938894,-2.011587 0.799899,-2.150581 -0.122844,-0.122847 -1.436329,0.441458 -1.350557,0.580236 0.162399,0.262773 -0.67983,1.613672 -1.720102,2.758964 -1.598638,1.76003 -1.460013,1.819218 0.657883,0.280892 z m -40.55841,-2.162599 c 2.114465,-0.765103 4.226521,-2.63272 5.295063,-4.682239 0.729916,-1.400019 0.630569,-2.229396 -0.306964,-2.562631 -0.456047,-0.162097 -1.191721,-2.079924 -1.608741,-4.193818 -0.09373,-0.47513 -0.227648,-0.863872 -0.297594,-0.863872 -0.207331,0 -2.414552,1.333559 -3.307011,1.998032 -3.558515,2.649457 -5.667511,6.4695 -5.421397,9.819824 0.007,0.0959 0.364119,0.349425 0.793499,0.563395 0.670777,0.334262 0.97638,0.389035 2.170607,0.389035 1.178621,0 1.586419,-0.0711 2.682538,-0.467726 z m -7.5418,0.178648 c 0.346746,-0.131833 0.368982,-0.217138 0.440563,-1.690185 0.0866,-1.78204 0.396604,-2.826196 1.419603,-4.781476 0.893307,-1.707394 1.8793,-2.916146 3.52275,-4.318624 1.58883,-1.355867 2.85959,-2.200374 4.023549,-2.673923 0.456024,-0.185531 0.853225,-0.409603 0.88267,-0.497937 0.113838,-0.341514 -0.800055,-0.332357 -3.835569,0.03844 -6.504868,0.794579 -10.280734,2.260224 -12.737787,4.944316 -2.46891,2.697041 -2.701254,4.910105 -0.736075,7.011041 1.368554,1.463094 2.94044,2.099101 5.200074,2.104022 0.800276,0.0018 1.619375,-0.05931 1.820222,-0.135671 z m 50.34677,-2.943943 c 0.481972,-0.125536 1.077131,-0.37125 1.32259,-0.546032 0.429309,-0.305696 1.115548,-1.583315 0.943077,-1.75579 -0.04603,-0.04605 -0.402684,0.0066 -0.792528,0.117015 -0.389845,0.110407 -1.044679,0.292866 -1.455185,0.405466 -1.016183,0.278735 -3.842329,0.264872 -4.9525,-0.02429 -0.483594,-0.125959 -0.897463,-0.210468 -0.919716,-0.187798 -0.06845,0.06974 0.311892,1.446767 0.433078,1.567949 0.20597,0.205975 2.559311,0.62913 3.562334,0.640547 0.540404,0.0061 1.376878,-0.09153 1.85885,-0.217065 z m -59.69498,-3.713473 c 0.650328,-1.970513 3.420939,-4.955409 5.204758,-5.607306 0.39487,-0.144304 1.732056,-0.651474 2.971524,-1.127044 2.986412,-1.14585 6.775208,-1.924955 9.507757,-1.955115 0.55492,-0.0061 1.313178,-0.05683 1.685019,-0.112679 0.651609,-0.09787 0.685152,-0.128725 0.926946,-0.852736 0.387375,-1.159925 0.355548,-1.537172 -0.138194,-1.638022 -0.895424,-0.182896 -2.430441,-0.374835 -3.718404,-0.46495 -0.743681,-0.05204 -2.231044,-0.190753 -3.30525,-0.308268 -6.291487,-0.68827 -11.929835,-0.468344 -14.331397,0.559004 -1.033249,0.442006 -2.016235,1.361009 -2.572908,2.405438 -0.63856,1.19806 -0.758674,2.619519 -0.379874,4.495487 0.437425,2.166297 1.314082,3.657288 2.786155,4.7386 0.900852,0.661722 1.108432,0.64157 1.363868,-0.132409 z m 59.425104,0.321255 c 1.107695,-0.213943 1.439494,-0.627039 1.583091,-1.970977 0.139408,-1.304697 -0.01583,-2.083539 -0.698626,-3.505373 -0.52071,-1.084291 -2.025926,-2.73411 -2.325537,-2.548942 -0.08951,0.05532 -0.110204,0.718 -0.05344,1.710366 0.08205,1.433949 0.05344,1.739557 -0.249096,2.660273 -0.187986,0.572117 -0.344123,1.124722 -0.346979,1.228011 -0.0028,0.10329 -0.03123,0.161753 -0.06307,0.129919 -0.03186,-0.03183 -0.408486,0.312841 -0.83701,0.765941 -0.428526,0.4531 -1.016072,0.945376 -1.305666,1.093947 l -0.526537,0.270128 0.599833,0.155848 c 0.32991,0.08572 0.768854,0.187486 0.975432,0.226156 0.48901,0.09154 2.270386,-0.02656 3.247593,-0.215297 z m -6.571401,-1.418618 c 2.081929,-0.434337 2.916703,-1.078387 3.853913,-2.973396 0.83105,-1.680358 0.984971,-2.633115 0.592515,-3.667547 -0.391315,-1.03143 -0.903873,-1.747888 -1.686867,-2.35791 -0.754494,-0.587822 -1.025258,-0.678251 -0.806405,-0.26932 0.218064,0.407454 0.619459,2.496439 0.619459,3.22384 0,0.987165 -0.557299,2.805355 -1.123335,3.664858 -0.563475,0.855628 -1.478166,1.658191 -2.44483,2.145143 -1.063814,0.535889 -0.775367,0.603783 0.99555,0.234332 z M 61.005384,52.239381 c 1.039723,-0.590136 3.368952,-2.941613 4.036171,-4.074724 1.402734,-2.382208 2.147302,-5.217727 2.159439,-8.223739 0.0071,-1.76879 -0.182611,-2.659098 -0.69327,-3.252775 -0.31836,-0.370115 -0.437576,-0.402897 -1.459681,-0.401372 -1.197694,0.0018 -2.473443,0.312398 -3.248425,0.790907 -1.117579,0.690044 -2.445758,3.283003 -3.224709,6.295491 -0.807087,3.1213 -0.755331,6.804529 0.119927,8.534446 0.377966,0.747037 0.444501,0.803492 0.945407,0.802181 0.324628,-8.41e-4 0.867312,-0.187854 1.365141,-0.470415 z m 5.06471,-0.04583 c 3.733691,-0.703556 5.930312,-0.881061 11.085938,-0.895834 2.644197,-0.0076 6.058372,0.04518 7.587052,0.117245 l 2.779413,0.131023 0.719561,-0.841497 c 0.709522,-0.829749 1.298919,-1.897139 1.305358,-2.36398 0.0034,-0.228746 -0.846192,-0.587176 -1.391395,-0.587176 -0.276387,0 -2.994718,-1.069257 -2.916693,-1.147284 0.02958,-0.02956 0.35255,0.04206 0.717744,0.15915 0.625295,0.200492 3.113258,0.903694 3.584342,1.013083 0.49771,0.115576 0.401826,-2.61651 -0.126467,-3.603644 -0.08383,-0.156645 -1.152396,-0.821781 -2.374584,-1.478082 -4.862177,-2.610935 -8.573599,-5.251544 -11.419234,-8.124571 -1.106598,-1.11725 -3.117923,-3.543387 -4.110709,-4.958491 l -0.552322,-0.787273 -0.0936,0.468016 c -0.05148,0.257409 -0.0936,0.686137 -0.0936,0.95273 0,1.36386 -1.156913,4.828952 -1.987247,5.952038 -0.280089,0.378842 -0.286788,0.474014 -0.106264,1.509727 0.24354,1.397247 0.212378,4.346315 -0.0625,5.914776 -0.471293,2.689206 -2.200628,6.051876 -4.122318,8.015792 -0.625485,0.639229 -0.820716,0.921668 -0.637084,0.921668 0.145622,0 1.1422,-0.165338 2.214616,-0.367418 z M 33.511721,41.758882 c 2.738713,-1.498052 4.319145,-1.737439 10.684214,-1.618332 4.042668,0.07565 5.165669,0.173187 10.553088,0.916583 l 2.382358,0.328736 0.723646,-1.51529 c 0.398006,-0.833409 0.971598,-1.875748 1.27465,-2.316308 0.303052,-0.440559 0.494123,-0.856005 0.424602,-0.923213 C 59.387751,36.470069 56.10934,34.847015 54.765166,34.260095 51.988555,33.047716 48.069885,30.94639 46.391115,29.769638 41.77889,26.536654 40.39061,25.146565 39.16436,22.53347 c -0.398449,-0.849081 -0.654217,-1.222139 -0.837894,-1.222139 -0.80471,0 -3.030253,2.423493 -4.023043,4.380872 -1.01462,2.000418 -1.402548,3.599458 -1.408841,5.807249 l -0.0053,1.853767 -0.507278,0.299302 c -0.514635,0.303642 -1.419966,1.524707 -1.793771,2.419348 -0.327161,0.783005 -0.569048,2.348728 -0.551305,3.568572 0.0186,1.279415 0.39271,3.315684 0.729323,3.969765 l 0.226005,0.439155 0.846569,-0.919247 c 0.465613,-0.505586 1.218409,-1.12264 1.672881,-1.371232 z m 33.890019,-6.66316 c 0.970873,-1.14638 1.551854,-3.073122 1.868716,-6.197342 0.338944,-3.341931 -0.414444,-6.294879 -2.052918,-8.046541 -0.885211,-0.946361 -1.296392,-1.084185 -2.260655,-0.75775 -0.935334,0.316641 -1.817689,1.00593 -2.530213,1.976583 -0.461561,0.628771 -0.606229,1.027375 -0.911166,2.510548 -0.498995,2.427033 -0.607759,4.58756 -0.308904,6.136126 0.268366,1.390581 0.730602,2.816304 1.248373,3.850492 l 0.356259,0.711584 1.463333,-0.002 c 0.804834,-0.0011 1.666157,0.06161 1.91405,0.139374 0.698852,0.219233 0.77193,0.199893 1.213125,-0.321057 z m -7.006287,-0.607573 c -0.236935,-0.437454 -0.528246,-1.213121 -0.647357,-1.723706 -0.250602,-1.074237 -0.59757,-1.536168 -2.203976,-2.934229 -2.146627,-1.868219 -4.906327,-5.343196 -6.07,-7.643258 -0.943339,-1.864565 -1.797348,-4.484079 -2.033439,-6.237203 -0.171229,-1.271482 -0.0356,-3.154041 0.288688,-4.006978 0.0871,-0.229082 0.158359,-0.455836 0.158359,-0.503898 0,-0.183406 -2.220505,0.113161 -3.113361,0.415816 -2.466319,0.836018 -5.16684,3.413139 -6.38175,6.090135 -0.241057,0.531156 -0.336148,1.031396 -0.34007,1.788998 -0.01136,2.193995 1.025339,4.023441 3.404087,6.007122 2.720133,2.26837 6.285655,4.49611 10.187059,6.364879 4.395273,2.105333 6.691535,3.153609 6.934084,3.165506 0.206388,0.01012 0.17551,-0.122515 -0.182324,-0.783184 z m -1.144556,-6.829237 c -0.04993,-1.142572 -0.172263,-2.030296 -0.346767,-2.516497 -0.148287,-0.413156 -0.45487,-1.657719 -0.681297,-2.765696 -0.33384,-1.633584 -0.393526,-2.232236 -0.315654,-3.165991 0.188748,-2.263248 0.881052,-4.10559 2.10953,-5.61383 0.873691,-1.072658 0.848374,-1.286507 -0.273727,-2.312043 -1.211448,-1.107196 -2.283133,-1.4667757 -4.371545,-1.4667757 -1.450345,0 -1.739365,0.04433 -2.361283,0.3621827 -0.853718,0.43632 -1.32671,0.91558 -1.792522,1.816277 -0.479362,0.926896 -0.581884,3.435329 -0.204714,5.008752 0.650119,2.712071 2.009193,5.451321 3.812043,7.683278 0.725151,0.897748 4.340923,4.735647 4.461561,4.735647 0.02284,0 0.0068,-0.794387 -0.03563,-1.765304 z m 1.151232,-4.286795 c 0.0012,-0.147351 0.179649,-0.620603 0.396409,-1.05167 1.03532,-2.058926 2.276969,-3.105053 4.404348,-3.710797 l 1.224926,-0.348782 -0.09819,-0.46543 c -0.273564,-1.29671 -1.638853,-3.118399 -2.769383,-3.695151 -0.728386,-0.371595 -1.899017,-0.39773 -2.390656,-0.05337 -0.386149,0.27047 -0.984531,1.500727 -1.514235,3.113235 -0.293989,0.894947 -0.329764,1.254197 -0.26931,2.704295 0.07507,1.800554 0.644769,4.357816 0.886029,3.977163 0.07027,-0.110868 0.128797,-0.322138 0.130062,-0.469489 z"
       id="path1" /></g></svg>
