<?xml version="1.0" encoding="UTF-8" standalone="no"?>
<!-- Created with Inkscape (http://www.inkscape.org/) -->

<svg
   class='stroke-white'
   width="166.911mm"
   height="166.911mm"
   viewBox="0 0 166.911 166.911"
   version="1.1"
   id="svg1"
   xml:space="preserve"
   inkscape:version="1.3.2 (091e20ef0f, 2023-11-25)"
   sodipodi:docname="record-player.svg"
   xmlns:inkscape="http://www.inkscape.org/namespaces/inkscape"
   xmlns:sodipodi="http://sodipodi.sourceforge.net/DTD/sodipodi-0.dtd"
   xmlns="http://www.w3.org/2000/svg"
   xmlns:svg="http://www.w3.org/2000/svg"><sodipodi:namedview
     id="namedview1"
     pagecolor="#ffffff"
     bordercolor="#000000"
     borderopacity="0.25"
     inkscape:showpageshadow="2"
     inkscape:pageopacity="0.0"
     inkscape:pagecheckerboard="0"
     inkscape:deskcolor="#d1d1d1"
     inkscape:document-units="mm"
     inkscape:zoom="1.0144899"
     inkscape:cx="483.49421"
     inkscape:cy="311.48658"
     inkscape:window-width="1920"
     inkscape:window-height="1008"
     inkscape:window-x="0"
     inkscape:window-y="35"
     inkscape:window-maximized="1"
     inkscape:current-layer="layer1" /><defs
     id="defs1" /><g
     inkscape:label="Layer 1"
     inkscape:groupmode="layer"
     id="layer1"><path
       style="stroke-width:0.788271;fill-opacity:1"
       d="m 107.89303,140.06248 c -1.46399,-0.21352 -3.2044,-0.73995 -4.22859,-1.27903 -1.85436,-0.97603 -3.34178,-2.86547 -3.686429,-4.68279 -0.08456,-0.44593 -0.20547,-0.85603 -0.268681,-0.91135 -0.06322,-0.0553 -2.33086,-0.53744 -5.039242,-1.07142 -2.708373,-0.53397 -6.40162,-1.27647 -8.207201,-1.65 -1.805591,-0.37353 -3.599451,-0.72779 -3.986358,-0.78726 -0.386916,-0.0594 -1.266256,-0.23966 -1.9541,-0.40044 -0.687838,-0.1608 -2.27066,-0.46786 -3.517373,-0.68237 -1.246714,-0.21452 -3.65407,-0.67403 -5.34968,-1.02115 -1.695611,-0.34711 -4.298468,-0.84024 -5.784126,-1.09584 -3.969177,-0.68287 -9.31431,-1.68794 -19.180879,-3.60665 -2.185405,-0.42499 -4.049613,-0.77244 -4.142685,-0.77212 -0.09307,3.2e-4 -0.29884,0.31577 -0.45726,0.70101 -0.172371,0.41915 -0.627649,1.01081 -1.133742,1.47333 -1.59293,1.45586 -3.547917,2.08844 -6.47277,2.09443 -4.028766,0.008 -6.788656,-1.09253 -8.499111,-3.38985 -0.669109,-0.89868 -1.009144,-1.93976 -1.142178,-3.49701 l -0.09674,-1.13238 -0.856785,-0.39224 c -1.898794,-0.8693 -3.771934,-2.58093 -4.599316,-4.20272 -0.379201,-0.7433 -0.864825,-2.11231 -1.060244,-2.98893 -0.07667,-0.34391 -0.155386,-9.45392 -0.174927,-20.244449 -0.03232,-17.848419 -0.01204,-19.715478 0.224782,-20.686676 0.433894,-1.779411 1.188317,-3.367715 2.27427,-4.788053 3.160769,-4.134032 3.643235,-4.776378 9.222346,-12.278415 2.046135,-2.751368 4.434286,-6.022526 5.307003,-7.26924 0.872715,-1.246713 1.92152,-2.717399 2.330679,-3.268189 1.442392,-1.941689 3.123203,-4.178816 4.591707,-6.111474 0.816637,-1.074754 2.158174,-2.903788 2.981194,-4.064521 1.950394,-2.750707 3.614566,-4.361857 5.520911,-5.345007 3.115911,-1.606956 6.787554,-1.993033 10.904687,-1.146639 0.622901,0.128056 2.293282,0.413523 3.711956,0.634372 1.418674,0.220849 3.036666,0.502954 3.595538,0.626899 0.558871,0.123944 1.68443,0.325851 2.501243,0.44868 2.302598,0.346255 5.80694,0.991714 8.12904,1.497274 2.215309,0.482309 4.08936,0.794896 6.565769,1.095151 0.816807,0.09904 2.434804,0.390734 3.595533,0.64822 1.978426,0.438873 3.72488,0.764796 9.457832,1.765016 1.289697,0.225013 3.364957,0.587154 4.611677,0.804757 1.24671,0.217603 3.83913,0.680757 5.76091,1.029229 l 3.49414,0.633586 0.64855,-0.621852 c 1.13326,-1.086649 4.6243,-3.610656 5.79273,-4.188122 1.64206,-0.811553 2.83026,-0.977096 4.56571,-0.636111 1.14483,0.224943 1.52952,0.380581 2.20941,0.893898 2.22724,1.681582 3.13386,4.076686 2.53174,6.688358 -0.0868,0.376763 -0.12315,0.719793 -0.0807,0.762288 0.0425,0.0425 1.2936,0.278335 2.78024,0.52409 3.0906,0.510905 8.15944,1.583071 9.65956,2.043202 4.10148,1.258047 7.15207,4.429429 8.08648,8.406687 0.25786,1.097512 0.27705,2.614466 0.27705,21.892646 0,19.312018 -0.0187,20.782167 -0.27612,21.729551 -0.37129,1.366399 -1.52772,3.739663 -2.35018,4.823133 -0.36859,0.485559 -0.7342,0.987239 -0.81247,1.114852 -0.0783,0.127605 -0.12287,1.043442 -0.0991,2.035169 0.057,2.37861 -0.23297,3.21364 -1.59921,4.60568 -0.74064,0.75465 -1.29867,1.14067 -2.4448,1.69122 -0.81681,0.39237 -1.88261,0.79267 -2.36842,0.88958 -0.786,0.15679 -0.93063,0.24853 -1.31294,0.83274 -0.23632,0.3611 -1.45681,2.0166 -2.71224,3.67889 -1.25542,1.66229 -2.79356,3.70237 -3.41806,4.53351 -0.62452,0.83113 -1.43866,1.89806 -1.80922,2.37095 -0.37056,0.4729 -1.78791,2.3371 -3.14969,4.14269 -4.35569,5.77522 -5.89754,7.58244 -7.68094,9.00285 l -0.95647,0.76178 -0.16162,1.26608 c -0.42657,3.34142 -2.59489,5.4115 -6.289,6.00404 -1.61483,0.25902 -2.54612,0.27459 -3.97312,0.0665 z m 3.83586,-1.92777 c 2.39628,-0.50794 4.20178,-1.99427 4.20178,-3.45904 0,-0.20935 -0.0703,-0.38064 -0.15632,-0.38064 -0.086,0 -0.15633,0.0618 -0.15633,0.13736 0,0.36664 -3.14904,1.08962 -5.32288,1.22206 -1.25559,0.0764 -1.59339,0.0449 -2.11137,-0.19774 -0.33915,-0.15882 -0.68698,-0.37804 -0.77295,-0.48715 -0.21716,-0.27556 -3.37245,-0.9952 -4.22252,-0.96304 -0.61192,0.0232 -0.67457,0.0571 -0.50726,0.2747 0.14239,0.18523 0.10901,0.17881 -0.13139,-0.0253 -0.4222,-0.35839 -0.53215,-0.34508 -0.53215,0.0644 0,0.99495 1.70857,2.65735 3.25854,3.17051 1.25893,0.41679 3.50443,0.84502 4.47969,0.8543 0.51587,0.005 1.4038,-0.0899 1.97316,-0.21048 z m 2.32585,-5.81422 c 0.81681,-0.20901 2.06915,-0.65776 2.78297,-0.99722 2.16033,-1.02734 3.34502,-2.32598 9.12571,-10.00343 1.84504,-2.45045 4.9286,-6.5306 6.85237,-9.06702 1.92377,-2.53641 4.44534,-5.87792 5.6035,-7.42557 1.15816,-1.54764 2.75482,-3.6229 3.54815,-4.61168 2.23528,-2.78596 4.13599,-5.455266 4.62933,-6.501285 0.89861,-1.905341 0.88652,-1.657248 0.92541,-18.99363 0.0196,-8.764242 -0.003,-15.974178 -0.0514,-16.022089 -0.0479,-0.04792 -0.16432,0.146223 -0.25871,0.43142 -0.20256,0.612108 -1.69183,2.830184 -4.39306,6.542902 -1.07475,1.477196 -2.37618,3.300948 -2.89206,4.052777 -0.51589,0.75183 -1.1887,1.67629 -1.49512,2.054353 -0.65482,0.80786 -3.26197,4.422547 -4.60166,6.379966 -0.87642,1.280514 -2.32497,3.252075 -5.04491,6.866416 -0.6252,0.830775 -1.46937,1.960619 -1.87593,2.51077 -3.71015,5.020382 -6.16952,8.145427 -7.05036,8.958718 -1.39677,1.289651 -2.92015,2.217115 -4.6318,2.819945 -2.66132,0.937287 -3.72532,1.109717 -6.2369,1.010727 -2.47231,-0.0974 -6.88895,-0.690397 -9.525401,-1.278842 C 96.810471,98.455269 92.500915,97.588053 90.058425,97.154851 88.854703,96.941356 87.271887,96.630477 86.541057,96.464018 85.81022,96.297559 84.755008,96.085152 84.19614,95.992009 83.058791,95.802454 77.763818,94.769527 74.894638,94.177496 71.003148,93.374523 65.449947,92.270445 63.717205,91.955223 61.371582,91.528509 57.5719,90.758746 51.67997,89.516652 49.057573,88.963822 45.223635,88.185838 43.160109,87.787808 41.096546,87.38977 38.388168,86.860683 37.141454,86.612046 35.894741,86.36341 34.030532,86.012496 32.998769,85.832226 30.155553,85.335465 25.464619,84.306677 24.324527,83.929844 22.72045,83.399653 21.894242,82.917263 20.804354,81.874569 l -1.015278,-0.971315 v 14.175914 c 0,15.534652 -7.89e-4,15.519082 0.923526,17.557692 0.685663,1.51218 2.05573,2.81322 3.95573,3.75644 1.263,0.62698 1.760922,0.77606 3.64598,1.09163 2.45026,0.41017 6.301029,1.15873 8.94753,1.73929 0.969005,0.21258 2.79804,0.55974 4.064521,0.77148 2.648067,0.44272 6.181061,1.11506 9.884586,1.88106 1.418675,0.29344 3.247709,0.64368 4.064522,0.77835 0.816812,0.13465 2.051128,0.38021 2.742925,0.54565 0.691798,0.16543 2.207911,0.44043 3.369141,0.61107 1.16123,0.17065 2.70564,0.44717 3.43202,0.61449 0.726379,0.16732 2.024165,0.41945 2.883968,0.56029 0.859802,0.14084 2.794358,0.49663 4.299012,0.79065 4.726972,0.92368 5.035675,0.98432 7.03475,1.38208 1.074751,0.21385 2.97413,0.579 4.220844,0.81145 6.595266,1.22968 13.036489,2.52198 20.244449,4.06163 3.57919,0.76454 4.32787,0.8462 6.87842,0.75035 1.5886,-0.0597 2.59573,-0.18644 3.67371,-0.46228 z m -23.857625,-7.24861 c -1.20205,-0.17617 -2.228174,-0.56334 -3.215571,-1.21326 -3.383905,-2.22736 -4.661905,-3.50754 -5.804535,-5.81443 l -0.65458,-1.32154 0.02507,-3.21196 c 0.02097,-2.69012 0.07812,-3.41941 0.351789,-4.48882 0.457284,-1.78702 0.781571,-2.46647 1.791409,-3.75352 1.184653,-1.50983 2.643191,-2.4769 4.792869,-3.17786 1.460051,-0.47609 1.808104,-0.5314 3.221262,-0.51189 2.111959,0.0292 4.585348,0.61542 6.075709,1.44009 2.790738,1.54423 5.526073,5.46887 6.240573,8.95396 0.52301,2.55103 0.23673,4.82537 -0.91286,7.25215 -0.54384,1.14805 -0.92995,1.71258 -1.69376,2.47639 -1.722769,1.72277 -3.985609,3.00732 -5.95586,3.38097 -0.881729,0.16721 -3.086673,0.1619 -4.261488,-0.0102 z m 4.495589,-1.71574 c 1.379576,-0.42853 3.329654,-1.61171 4.366278,-2.64919 0.963678,-0.96447 1.859348,-2.61228 2.258518,-4.15512 0.13522,-0.52265 0.24729,-1.63115 0.25308,-2.50348 0.008,-1.30121 -0.0603,-1.77626 -0.4085,-2.81389 -0.66632,-1.9857 -1.275941,-2.95981 -2.948857,-4.71201 -1.362761,-1.42734 -1.720415,-1.70734 -2.975927,-2.32977 -1.701341,-0.84347 -3.527331,-1.23324 -5.133251,-1.0957 -1.316193,0.11271 -3.268046,0.72171 -4.188306,1.30679 -0.947541,0.60241 -2.232162,2.03778 -2.724643,3.04438 -0.455226,0.93045 -0.745515,1.8365 -0.586411,1.8303 0.05849,-0.003 0.985678,-0.70906 2.060431,-1.57064 1.169407,-0.93747 2.482951,-1.83035 3.271096,-2.22354 1.285268,-0.64119 1.354943,-0.65702 2.892064,-0.65702 2.695098,0 4.362032,0.7205 6.348136,2.74382 1.72825,1.76065 2.672157,4.07999 2.692897,6.61692 0.02396,2.9293 -1.925218,6.25968 -4.396493,7.51197 -1.180081,0.59799 -3.252146,1.32184 -4.109438,1.43555 -0.869384,0.11533 -0.994452,0.32373 -0.249748,0.41615 1.347439,0.16721 2.638327,0.0967 3.579074,-0.19552 z m -3.25221,-2.01965 c 2.146833,-1.05237 3.424415,-3.87844 2.924628,-6.46939 -0.323554,-1.67733 -1.734685,-3.89749 -3.046061,-4.79243 -0.349432,-0.23846 -1.215222,-0.62942 -1.92398,-0.86881 -1.602516,-0.54123 -2.81267,-0.4998 -4.074234,0.13948 -2.963261,1.5016 -3.916406,4.77076 -2.379325,8.16073 0.808505,1.7831 2.972538,3.70662 4.629957,4.11536 1.101908,0.27174 3.021845,0.13035 3.869015,-0.28494 z m 4.433883,-1.61901 c 1.453194,-1.52553 2.447319,-3.88133 2.457346,-5.82322 0.01049,-2.03377 -0.962516,-4.27117 -2.539491,-5.83947 -1.281335,-1.2743 -2.285001,-1.82967 -3.741214,-2.07015 -1.178023,-0.19454 -1.103997,-0.20764 -3.16382,0.55966 -1.226754,0.45697 -1.401302,0.86236 -0.371307,0.86236 0.76024,0 2.797156,0.70545 3.695927,1.28001 2.588776,1.65494 4.347504,5.51841 3.902367,8.57247 -0.0957,0.65661 -0.350378,1.59267 -0.565955,2.08012 -0.215576,0.48745 -0.33928,0.88627 -0.274894,0.88627 0.0644,0 0.33485,-0.22862 0.601041,-0.50805 z m 4.466913,5.00248 c -0.33791,-0.43672 -0.34043,-0.74494 -0.009,-1.05409 0.38599,-0.3596 0.87708,-0.40347 1.27332,-0.11373 0.22135,0.16186 0.24341,0.27946 0.11553,0.61581 -0.24651,0.64838 -1.05538,0.97187 -1.38026,0.55201 z m -32.481406,-5.22285 c -1.587223,-0.35544 -4.111429,-0.81303 -10.161302,-1.84202 -3.910174,-0.66506 -4.044801,-0.70158 -4.861533,-1.31887 -2.073792,-1.56737 -2.531523,-4.41768 -0.990567,-6.1683 1.181818,-1.34261 2.279083,-1.60192 4.83597,-1.14283 0.730831,0.13121 2.265227,0.38814 3.409767,0.57093 1.14454,0.1828 2.586663,0.46401 3.204718,0.6249 1.153459,0.30029 2.992209,0.64032 5.541864,1.02482 1.918079,0.28927 2.850801,0.70876 3.716326,1.67143 2.302435,2.56087 0.872288,7.04385 -2.226853,6.98038 -0.411832,-0.008 -1.522606,-0.18864 -2.46839,-0.40044 z m 3.017507,-1.72621 c 0.785905,-0.58676 1.048528,-1.10223 1.026626,-2.01504 -0.06301,-2.62642 -3.578025,-3.76551 -4.90478,-1.58945 -0.774281,1.26992 -0.09197,2.98681 1.485958,3.73911 0.758701,0.36172 1.806381,0.30276 2.392196,-0.13462 z m -5.086593,-0.45272 c 0.166262,-0.16626 -0.06708,-0.53185 -0.339454,-0.53185 -0.276025,0 -0.639851,0.28444 -0.639851,0.50024 0,0.14435 0.839482,0.17144 0.979305,0.0316 z m -2.652365,-0.74306 c 0.278018,-0.11616 0.740513,-0.47889 1.027768,-0.80605 0.49563,-0.56449 0.519065,-0.64531 0.459304,-1.58385 -0.05317,-0.83501 -0.134871,-1.06463 -0.524723,-1.47466 -0.718831,-0.75604 -1.253997,-0.97104 -2.218106,-0.89109 -0.707488,0.0587 -0.933617,0.15831 -1.386044,0.61074 -0.909716,0.90971 -0.917557,2.34204 -0.01843,3.36609 0.814099,0.9272 1.690805,1.18387 2.660231,0.77882 z m -4.501885,-0.72676 c -0.05313,-0.086 -0.162811,-0.15633 -0.243717,-0.15633 -0.08091,0 -0.147102,0.0703 -0.147102,0.15633 0,0.086 0.109673,0.15633 0.243718,0.15633 0.134045,0 0.20024,-0.0703 0.147101,-0.15633 z m -2.590265,-0.54153 c 1.081638,-0.55934 1.584215,-1.69913 1.267629,-2.87484 -0.527384,-1.95856 -2.814992,-2.6657 -4.142178,-1.28041 -0.909812,0.94964 -0.635724,2.92127 0.520563,3.74463 0.931534,0.66331 1.6298,0.78511 2.353986,0.41062 z m 10.11028,-2.85534 c -0.15891,-0.15891 -0.290027,0.0804 -0.159644,0.2913 0.09849,0.15936 0.135313,0.15948 0.188265,6.3e-4 0.03621,-0.10862 0.02332,-0.23998 -0.02862,-0.29193 z m -6.972868,-1.14586 c 0,-0.32615 -0.229982,-0.40734 -0.395445,-0.13962 -0.141805,0.22945 0.04712,0.65833 0.238013,0.54035 0.08659,-0.0535 0.157432,-0.23385 0.157432,-0.40073 z m 45.808785,4.15973 c -0.003,-0.33632 0.042,-0.41446 0.16778,-0.28864 0.12364,0.12365 0.12499,0.2543 0.005,0.46116 -0.14709,0.25304 -0.16836,0.23176 -0.17253,-0.17252 z m 20.55139,-0.75038 c -0.11985,-0.33792 -0.18082,-15.272575 -0.07,-17.130963 0.0884,-1.482091 0.15738,-1.823405 0.42166,-2.087704 0.38508,-0.385071 0.90307,-0.270196 1.03717,0.230017 0.0511,0.190605 0.0939,4.34104 0.0951,9.22319 0.003,9.90278 -0.003,9.96087 -0.93276,9.96087 -0.26503,0 -0.51306,-0.0879 -0.55118,-0.19541 z M 34.640242,113.9012 c -2.500953,-0.53867 -4.479216,-1.59137 -6.178751,-3.28793 -2.665629,-2.66097 -3.982552,-5.74962 -3.982552,-9.34049 0,-1.974399 0.253148,-3.023864 1.184883,-4.912151 2.006915,-4.067277 6.33834,-6.33693 10.869544,-5.695608 2.554791,0.361588 4.276974,1.147794 6.041076,2.757863 1.962348,1.790991 3.142467,3.647188 3.890508,6.119317 0.35518,1.173789 0.418236,1.676559 0.427562,3.409119 0.01266,2.35102 -0.304698,3.75464 -1.270829,5.62076 -0.729716,1.40947 -2.840766,3.56076 -4.182297,4.26201 -2.020587,1.05623 -4.814089,1.49465 -6.799144,1.06711 z m 4.293547,-1.88801 c 1.397046,-0.3639 2.395916,-0.96933 3.601003,-2.18266 1.344539,-1.35374 2.023949,-2.6681 2.455096,-4.74954 0.659261,-3.1827 -0.148213,-6.304721 -2.34168,-9.053887 -2.000246,-2.506993 -4.401815,-3.685301 -7.538982,-3.698946 -2.04626,-0.0089 -3.451445,0.408371 -5.109222,1.517154 -1.284799,0.859333 -1.957422,1.612754 -2.756269,3.087381 -0.804645,1.485332 -1.04519,2.472515 -1.04519,4.289408 0,3.07821 1.053381,5.62718 3.245602,7.8537 1.491722,1.51506 3.003979,2.42104 4.88344,2.92561 1.140422,0.30617 3.453243,0.31209 4.606202,0.0117 z m -5.175517,-4.13035 c -0.509516,-0.1215 -1.343051,-0.58413 -2.186257,-1.21341 l -0.488819,-0.36481 -0.08601,0.32889 c -0.06199,0.23705 -0.186983,0.31453 -0.44755,0.27745 -0.432318,-0.0615 -0.582114,-0.58642 -0.224468,-0.78657 0.343176,-0.19205 0.321331,-0.35296 -0.22417,-1.65129 -1.002957,-2.38711 -0.456598,-4.691573 1.501734,-6.334085 0.643918,-0.540068 2.815179,-1.617682 3.71059,-1.841599 2.160344,-0.540217 4.814764,0.845099 5.919634,3.089401 0.459156,0.932683 0.520886,1.217073 0.573664,2.642843 0.05582,1.5082 0.03478,1.64247 -0.375793,2.39682 -1.310936,2.40861 -5.033663,4.08565 -7.672557,3.45636 z m 2.768154,-2.15023 c 1.166278,-0.98136 1.424701,-2.84233 0.628432,-4.52548 -0.510306,-1.07869 -1.236245,-1.627195 -2.538342,-1.917925 -1.212174,-0.270653 -2.380276,0.296666 -2.980605,1.447595 -0.764483,1.46566 -0.212664,3.6016 1.190871,4.60955 0.935271,0.67166 1.271773,0.78819 2.309531,0.79978 0.744414,0.008 0.967731,-0.0581 1.390113,-0.41352 z m 3.447604,-1.687 c 0.357514,-0.77855 0.380484,-2.23147 0.05273,-3.33515 -0.272646,-0.918102 -1.236212,-2.188795 -2.24078,-2.955002 -0.574758,-0.438381 -0.793481,-0.509814 -1.555528,-0.507978 -1.000197,0.0023 -1.590207,0.12439 -1.590207,0.328757 0,0.07599 0.193456,0.138783 0.429901,0.139618 0.596509,0.0023 1.865739,0.631752 2.651005,1.315089 0.381876,0.332312 0.865425,0.994136 1.152706,1.577686 0.472823,0.96044 0.490943,1.0664 0.406612,2.37744 -0.04855,0.75471 -0.137825,1.58324 -0.198398,1.84118 l -0.110132,0.46899 0.357475,-0.31265 c 0.196611,-0.17196 0.48669,-0.59406 0.644618,-0.93798 z m 2.979066,-0.37052 c -0.124495,-0.079 -0.186806,-0.3428 -0.156327,-0.662 0.04482,-0.46937 0.102943,-0.53076 0.502624,-0.53076 0.630625,0 0.852493,0.40061 0.510742,0.92219 -0.276728,0.42234 -0.504333,0.49419 -0.857039,0.27057 z m -15.079615,-1.52403 c -0.164066,-0.16406 -0.135954,-0.81634 0.05018,-1.16412 0.215849,-0.40332 0.873241,-0.39249 1.092931,0.018 0.09431,0.17622 0.149542,0.51037 0.122746,0.74257 -0.04144,0.35913 -0.131246,0.42912 -0.601453,0.46869 -0.304005,0.0256 -0.602982,-0.004 -0.664394,-0.0651 z m 101.141019,7.94682 c -0.24265,-0.2681 -0.2649,-1.05511 -0.26436,-9.34746 5.6e-4,-8.750927 0.011,-9.071753 0.31035,-9.562775 0.30841,-0.505826 0.8187,-0.673957 1.02625,-0.33813 0.0577,0.09346 0.1329,4.331907 0.16697,9.418755 0.0657,9.81406 0.0553,9.97327 -0.65689,10.07642 -0.17455,0.0253 -0.43661,-0.0858 -0.58232,-0.24681 z m -49.130437,-3.31652 c 0.03137,-0.35578 0.137821,-0.56484 0.304249,-0.5977 0.150015,-0.0297 0.255952,0.0513 0.255952,0.19541 0,0.13527 -0.0726,0.24595 -0.16136,0.24595 -0.08875,0 -0.225666,0.15828 -0.304257,0.35174 -0.119935,0.29526 -0.135125,0.26388 -0.09458,-0.1954 z m -17.969235,0.0199 c -0.792271,-0.20522 -1.86921,-0.92096 -2.6874,-1.78608 -1.746168,-1.84631 -1.949757,-4.54849 -0.482294,-6.401316 0.603075,-0.761447 2.569068,-2.08039 3.457625,-2.319653 2.159033,-0.581366 4.485414,1.069179 5.193393,3.684662 0.66191,2.445307 -0.412047,5.192477 -2.510713,6.422367 -0.70643,0.41401 -2.160649,0.60982 -2.970611,0.40002 z m 2.124288,-2.16214 c 0.97159,-0.81754 1.106488,-1.82858 0.43378,-3.2511 -0.604477,-1.27825 -1.982846,-2.423092 -2.917345,-2.423092 -0.689218,0 -1.509837,0.538121 -1.823995,1.196082 -0.264455,0.55387 -0.312557,2.01934 -0.08585,2.61562 0.23716,0.62377 1.278982,1.6828 1.961072,1.99344 0.939157,0.42772 1.825081,0.38003 2.432342,-0.13095 z m 2.490127,-2.8212 c -10e-4,-0.0645 -0.09857,-0.4805 -0.216778,-0.92447 -0.351169,-1.318921 -0.890758,-2.226599 -1.712697,-2.881037 -0.624234,-0.497021 -0.892564,-0.610761 -1.440911,-0.610761 -0.915586,0 -0.982453,0.219794 -0.184682,0.607064 0.365673,0.177511 0.930609,0.542354 1.255414,0.81076 0.675884,0.558514 1.766629,2.095224 1.919497,2.704304 0.09196,0.36641 0.384888,0.59306 0.380157,0.29414 z m 65.667147,3.6547 c -0.0775,-0.20391 -0.14765,-4.40717 -0.15583,-9.340596 -0.0132,-7.934005 0.0136,-9.01046 0.23185,-9.321575 0.30481,-0.434535 0.94087,-0.461564 1.16147,-0.04934 0.10622,0.198478 0.16183,3.421411 0.16183,9.37967 0,8.868861 -0.008,9.084471 -0.31266,9.389951 -0.42584,0.42583 -0.91256,0.39982 -1.08666,-0.0581 z M 70.910642,103.97 c -0.480532,-0.51441 -0.54629,-0.71963 -0.374242,-1.16799 0.145849,-0.38007 0.935077,-0.73202 1.387117,-0.61857 0.471887,0.11844 1.173346,0.90962 1.173346,1.32344 0,0.35363 -0.52827,0.73038 -1.217344,0.8682 -0.424258,0.0849 -0.566938,0.0253 -0.968877,-0.40508 z m 64.659778,-2.32466 c -0.24043,-0.26569 -0.25875,-1.07364 -0.21963,-9.686822 0.0394,-8.674709 0.0636,-9.417773 0.3138,-9.667986 0.21479,-0.214725 0.36096,-0.239453 0.70348,-0.119006 l 0.43235,0.152034 0.0403,9.440555 c 0.0352,8.258855 0.0103,9.486295 -0.19901,9.805835 -0.28807,0.43965 -0.71448,0.46965 -1.07129,0.0754 z m -82.069859,-0.56249 c -0.75515,-0.69986 -0.338793,-1.701023 0.707406,-1.701023 0.534666,0 1.223863,0.630903 1.223863,1.120333 0,0.93371 -1.170584,1.28566 -1.931269,0.58069 z m 85.615479,-3.491345 c -0.4774,-0.303547 -0.51782,-1.094608 -0.51554,-10.087735 0.003,-9.952079 -0.008,-9.83804 0.88095,-9.925112 l 0.4853,-0.04753 0.0999,1.298171 c 0.0549,0.714001 0.11632,5.064824 0.13644,9.668508 0.0341,7.786165 0.0173,8.399858 -0.24059,8.793433 -0.28185,0.430239 -0.51304,0.512266 -0.84642,0.300284 z m 2.92687,-4.400404 c -0.10627,-0.198566 -0.16183,-3.448105 -0.16183,-9.465593 0,-7.907871 0.0327,-9.226396 0.2385,-9.624426 0.26482,-0.512109 0.49143,-0.56962 0.94316,-0.23939 0.29372,0.214725 0.30482,0.523483 0.34613,9.636944 0.0391,8.630181 0.0208,9.439288 -0.21964,9.704982 -0.34158,0.377448 -0.94113,0.370898 -1.14632,-0.01253 z M 37.688633,123.90685 c 0.601861,-0.24304 1.375684,-0.62824 1.719605,-0.85603 0.529349,-0.3506 0.62531,-0.49721 0.62531,-0.95533 v -0.54117 l -0.937965,0.0201 c -0.515883,0.011 -1.99318,0.0459 -3.282883,0.0776 -2.841126,0.0696 -3.953404,-0.17241 -5.074152,-1.10421 -0.742113,-0.61699 -1.281668,-0.84462 -2.585907,-1.09095 -0.4299,-0.0812 -0.904747,-0.1952 -1.055212,-0.25334 -0.237568,-0.0917 -0.273459,-0.006 -0.272701,0.65359 0.0014,1.24318 0.246333,1.82773 1.100488,2.62669 0.879373,0.82255 1.651456,1.20856 3.313549,1.65666 0.922129,0.2486 1.530124,0.29677 3.245149,0.25711 1.88938,-0.0437 2.22504,-0.0951 3.204719,-0.49069 z M 141.72475,104.41992 c 1.28051,-0.76767 1.97683,-1.77585 2.12065,-3.07046 l 0.0825,-0.74307 -0.35902,0.45597 c -0.19748,0.25077 -0.90424,1.13906 -1.57059,1.97397 -0.66634,0.83491 -1.21154,1.56184 -1.21154,1.61539 0,0.19011 0.3984,0.0916 0.93797,-0.2318 z m -29.91273,-6.00181 c 1.99626,-0.381948 4.01635,-1.13131 5.25139,-1.948022 1.95964,-1.29587 2.93569,-2.458302 9.12811,-10.871159 1.20246,-1.633621 2.84475,-3.884741 3.64954,-5.002486 0.80477,-1.117745 2.00135,-2.770907 2.65905,-3.673706 4.08961,-5.613593 10.3324,-14.409278 12.59333,-17.743193 1.83489,-2.705709 2.17831,-3.335451 2.33644,-4.284489 0.1298,-0.77912 -0.0551,-5.79865 -0.21361,-5.79865 -0.0567,0 -0.23085,0.369325 -0.38712,0.820721 -0.28478,0.822652 -1.59549,3.122258 -2.40553,4.220463 -1.76007,2.38621 -4.81244,6.626633 -5.57839,7.749651 -1.73994,2.551026 -6.54712,9.256635 -9.15379,12.768745 -0.82957,1.117745 -3.03558,4.107515 -4.90222,6.643935 -4.74003,6.440757 -5.56314,7.482781 -6.7744,8.575979 -2.43043,2.193561 -6.44373,3.508296 -9.89917,3.242925 -1.85664,-0.14259 -6.04174,-0.861787 -12.351269,-2.122532 -5.555954,-1.11017 -11.017837,-2.173547 -16.883393,-3.287051 -1.848574,-0.35093 -4.029347,-0.775209 -4.846158,-0.942843 -0.816814,-0.167626 -2.610673,-0.512352 -3.986357,-0.76605 -1.375685,-0.253697 -3.169546,-0.60789 -3.986358,-0.787104 C 65.245304,85.034031 63.979048,84.78716 63.248216,84.664639 62.517384,84.54211 58.788968,83.80164 54.962847,83.019139 42.055926,80.379471 36.461269,79.251905 30.888377,78.16707 27.836078,77.572903 24.951831,76.932087 24.478939,76.743035 23.340452,76.287896 21.648877,75.16956 21.026156,74.460321 20.75086,74.14677 20.377489,73.570095 20.196445,73.178821 l -0.329173,-0.711423 -0.05189,0.625311 c -0.02853,0.343923 -0.02853,1.610179 0,2.8139 0.04876,2.056906 0.07766,2.232438 0.480335,2.91743 0.678168,1.153634 1.205083,1.69539 2.420858,2.489061 0.923139,0.602625 1.447656,0.81478 2.816255,1.139099 2.086397,0.494418 7.248852,1.52588 15.360512,3.069023 1.848576,0.351671 3.888652,0.746548 4.533505,0.877495 3.408489,0.692149 7.905624,1.631824 9.145172,1.910872 0.773821,0.174199 3.30633,0.678315 5.627797,1.120251 2.321468,0.441944 4.818803,0.931492 5.549635,1.087892 0.730832,0.156401 1.997086,0.405778 2.813899,0.554179 0.816812,0.148392 2.575499,0.500946 3.908193,0.783446 2.391412,0.50694 6.802077,1.373352 13.209689,2.594865 5.748135,1.095791 10.421613,2.01825 12.193559,2.406773 1.980852,0.434337 7.456109,1.410153 9.067019,1.615955 1.72268,0.220077 3.54031,0.199606 4.8702,-0.05486 z m 0.0217,-7.36161 c 2.27327,-0.46862 4.78329,-1.910123 6.14328,-3.52808 1.20043,-1.428111 2.72564,-3.445344 4.25087,-5.622146 0.806,-1.150309 2.15708,-3.041158 3.00241,-4.201895 0.84532,-1.160737 2.1061,-2.893696 2.80171,-3.85102 4.14741,-5.707775 9.12398,-12.683225 10.26896,-14.393568 0.44853,-0.670015 1.40295,-2.027212 2.12092,-3.015982 4.5364,-6.247428 5.0969,-7.222592 5.18798,-9.0261 0.0793,-1.569511 -0.21591,-2.295616 -1.36609,-3.360472 -1.64234,-1.520512 -3.2435,-2.16233 -7.28695,-2.920924 -3.80299,-0.713481 -7.86912,-1.413163 -8.77265,-1.50956 l -0.95629,-0.102023 -0.25582,0.750824 c -0.30086,0.88298 -0.473,0.711412 1.87473,1.868549 1.51454,0.746482 1.88904,1.014372 2.90586,2.078664 1.33093,1.39306 1.89687,2.425033 2.24465,4.092977 0.27102,1.29986 0.2034,2.212524 -0.26475,3.573248 -0.45185,1.313329 -0.9551,2.059171 -2.14992,3.186296 -3.188,3.007402 -9.27381,4.226218 -14.55759,2.915473 -2.94326,-0.730136 -4.93627,-1.762506 -6.55797,-3.39702 -0.70279,-0.708339 -0.983,-1.151585 -1.39954,-2.213792 -0.30357,-0.774142 -0.54974,-1.719641 -0.59015,-2.266751 -0.1333,-1.804318 0.0622,-1.811229 -2.48006,0.0877 -1.25128,0.934658 -2.65476,1.930265 -3.11885,2.212459 l -0.8438,0.513081 0.0894,2.657571 c 0.1815,5.396384 -0.62213,8.116258 -3.467536,11.735636 -3.291676,4.187059 -10.278823,8.36149 -16.874815,10.08179 -4.682099,1.221134 -7.983108,1.61609 -12.592959,1.506708 -7.819272,-0.185535 -14.179532,-1.852902 -20.088122,-5.26617 -1.82127,-1.052113 -4.596346,-2.998654 -5.667077,-3.975093 -1.606958,-1.465451 -3.427655,-3.908327 -4.491191,-6.025954 -0.925503,-1.842788 -1.088764,-2.95868 -0.950044,-6.493643 0.191174,-4.871689 0.669422,-7.191712 2.049384,-9.94174 2.494395,-4.970905 6.813534,-9.246028 11.872828,-11.751835 5.79591,-2.870643 9.719871,-3.936113 15.948984,-4.330617 6.274736,-0.397393 14.15303,0.98042 19.494874,3.409404 2.386664,1.085237 6.384003,3.723608 8.22754,5.430441 2.025533,1.875334 4.471924,5.189163 5.040424,6.827639 0.11187,0.322426 0.27454,0.58623 0.36149,0.58623 0.087,0 0.44214,-0.272259 0.78932,-0.605018 0.34718,-0.33276 2.00301,-1.674932 3.67963,-2.982607 7.76956,-6.059869 7.03474,-5.38215 7.03474,-6.48805 0,-0.476996 -0.0659,-0.867267 -0.14637,-0.867267 -0.16226,0 -7.14041,-1.183341 -10.56208,-1.791101 -1.20376,-0.213806 -3.067972,-0.569638 -4.142723,-0.790738 C 95.798483,33.473113 94.296102,33.222252 85.524955,31.829052 83.547372,31.514942 80.838991,31.041248 79.5063,30.7764 74.005059,29.68313 72.406421,29.375287 69.509195,28.851305 67.836907,28.54886 65.445093,28.097102 64.194052,27.847398 59.010591,26.812795 56.152336,26.682805 53.500374,27.361063 c -2.990123,0.764744 -4.913019,2.371021 -8.062797,6.735192 -2.356505,3.265055 -5.289533,7.25681 -7.11627,9.68501 -0.87322,1.160733 -2.069205,2.813899 -2.657743,3.673701 -1.266151,1.849734 -9.407522,12.716178 -12.122343,16.17992 -2.302135,2.937208 -2.831276,3.901792 -2.936093,5.352266 -0.09449,1.307623 0.146672,2.212471 0.899706,3.375699 0.69967,1.080799 1.930109,2.042805 3.286762,2.569741 0.579423,0.22505 3.636376,0.909522 7.112911,1.592638 3.353231,0.658884 7.081646,1.401546 8.285371,1.650372 1.203723,0.248817 3.982449,0.805139 6.174945,1.236285 2.192496,0.431136 4.619484,0.927203 5.393306,1.102373 0.773822,0.175177 2.778725,0.593111 4.455341,0.928757 9.731411,1.948133 11.847174,2.369069 13.75684,2.736955 1.160732,0.223601 2.567682,0.50797 3.126554,0.631926 0.558872,0.123948 2.739643,0.547336 4.846159,0.940864 6.157652,1.150324 11.220205,2.113639 12.842695,2.443743 0.829916,0.168855 2.060997,0.399677 2.735734,0.512952 0.674745,0.113266 3.196534,0.601797 5.603974,1.085622 2.407454,0.483825 5.080664,1.015443 5.940474,1.181382 2.00604,0.387159 5.10039,0.423759 6.76776,0.08004 z m -7.39308,-4.524747 c -1.12565,-0.304847 -1.79776,-1.10458 -1.79776,-2.139092 0,-2.342457 2.5537,-3.491788 5.02218,-2.260304 1.00294,0.500347 1.40388,1.006591 1.50455,1.899718 0.0987,0.875682 -0.30294,1.70738 -1.10516,2.2885 -0.55342,0.400891 -0.74523,0.449268 -1.73225,0.436837 -0.61045,-0.0079 -1.46166,-0.109239 -1.89156,-0.225659 z m 2.76251,-1.582367 c 0.74699,-0.676005 -0.0129,-1.617209 -1.30559,-1.617209 -0.6123,0 -0.84748,0.07984 -1.16213,0.394474 -0.21696,0.216956 -0.37183,0.51594 -0.34417,0.664395 0.12728,0.682997 2.21588,1.097723 2.81189,0.55834 z m -10.747377,0.193315 c -0.586009,-0.255171 -1.410036,-1.224334 -1.644168,-1.933746 -0.550016,-1.666579 1.156126,-3.345761 3.158513,-3.10861 0.975234,0.115497 2.088782,0.742496 2.405122,1.354218 0.29602,0.572426 0.30312,1.607119 0.0148,2.158948 -0.73044,1.39818 -2.582213,2.117934 -3.934295,1.52919 z m 1.974001,-1.580049 c 0.689407,-0.356504 0.682234,-1.027457 -0.0179,-1.676503 -0.577761,-0.535591 -0.927737,-0.541314 -1.541115,-0.02514 -0.589059,0.495657 -0.622529,1.031224 -0.09726,1.556481 0.43973,0.439737 0.992969,0.488239 1.656305,0.145207 z m -9.738479,0.309341 c -1.447446,-0.460887 -2.34628,-1.926937 -1.984574,-3.236933 0.229544,-0.831341 1.524122,-1.945634 2.415766,-2.079348 1.955709,-0.293276 3.879209,1.083408 3.856073,2.759863 -0.02586,1.875659 -2.253565,3.203983 -4.287265,2.556418 z m 1.871044,-1.629845 c 0.589391,-0.359365 0.793781,-0.963361 0.507205,-1.498834 -0.227416,-0.424926 -0.567484,-0.568958 -1.343371,-0.568958 -1.098133,0 -1.756071,0.893252 -1.2391,1.682256 0.470977,0.718801 1.281675,0.869408 2.075266,0.385536 z m 18.859181,-1.8805 c -2.11541,-0.309758 -3.95223,-1.229632 -4.88712,-2.447447 -0.88017,-1.146532 -0.9339,-1.479144 -0.89357,-5.532142 0.0359,-3.605291 0.0433,-3.679633 0.44163,-4.451256 0.46132,-0.893576 1.6632,-2.085685 2.56834,-2.547447 2.11775,-1.080396 5.37464,-1.160729 7.44902,-0.183746 1.35959,0.640336 2.39187,1.622514 3.00132,2.855662 0.55709,1.127203 0.57072,1.198676 0.63463,3.329175 0.137,4.567274 0.0753,5.028477 -0.85412,6.379265 -0.84231,1.224256 -2.92612,2.286877 -5.06908,2.58493 -0.67079,0.0933 -1.30246,0.160863 -1.40372,0.150134 -0.10125,-0.01072 -0.54555,-0.07244 -0.98733,-0.137128 z m 3.08987,-1.832973 c 0.20981,-0.209815 0.33901,-1.836924 0.22091,-2.782172 l -0.11152,-0.892544 -0.55922,0.09075 c -0.30755,0.0499 -0.62064,0.152192 -0.69575,0.227298 -0.18377,0.183778 -0.35241,2.696558 -0.21713,3.23553 0.0988,0.393552 0.15509,0.421835 0.67274,0.337837 0.31072,-0.05045 0.62121,-0.147943 0.68997,-0.216703 z m -2.52112,-1.531643 c 0,-1.622285 -0.006,-1.647439 -0.401,-1.797762 -0.22055,-0.08386 -0.60747,-0.15246 -0.85981,-0.15246 h -0.4588 v 1.646478 c 0,1.561352 0.0182,1.653784 0.35173,1.787862 0.19346,0.07773 0.58038,0.145837 0.85981,0.151284 l 0.50807,0.0099 z m 5.13598,0.136214 0.83161,-0.727465 -0.0656,-1.304816 c -0.0361,-0.71765 -0.10593,-1.345059 -0.15512,-1.394247 -0.0724,-0.07237 -1.21941,0.549867 -1.52592,0.8277 -0.10385,0.09414 -0.10124,3.325613 0.003,3.325992 0.0444,1.65e-4 0.45507,-0.327062 0.91244,-0.727164 z m -8.26253,-1.06933 v -1.484133 l -0.64879,-0.469959 c -0.35681,-0.258482 -0.70856,-0.469967 -0.78164,-0.469967 -0.18385,0 -0.16763,2.389462 0.0195,2.881816 0.1349,0.354816 0.97907,1.024224 1.2936,1.025793 0.0645,3.23e-4 0.11725,-0.667272 0.11725,-1.48355 z m 5.87101,-2.738225 c 1.9626,-0.663551 3.31098,-2.203588 3.13029,-3.575235 -0.16348,-1.240896 -1.01126,-2.265167 -2.51313,-3.036309 -0.86849,-0.445933 -1.06106,-0.482454 -2.57998,-0.489303 -0.90281,-0.0039 -1.93391,0.08078 -2.29135,0.188553 -2.43398,0.733913 -3.93006,3.409825 -2.82401,5.051091 0.45555,0.675991 1.85313,1.653967 2.76556,1.935229 1.09139,0.336443 3.20591,0.300143 4.31262,-0.07402 z M 29.246935,72.46441 c -0.515881,-0.21251 -0.954367,-0.38671 -0.974414,-0.387104 -0.141578,-0.0032 -0.832875,-1.681579 -1.06247,-2.580129 -0.595786,-2.33169 -0.257464,-4.068291 0.984159,-5.051667 0.858087,-0.679623 1.748984,-0.966956 2.998103,-0.966956 2.065769,0 3.637513,0.816168 4.365242,2.266752 0.341353,0.680421 0.393384,0.994199 0.401803,2.423082 0.01141,1.935419 -0.162872,2.347819 -1.427949,3.379082 -1.61404,1.315727 -3.51548,1.645657 -5.284474,0.91694 z m 3.93174,-1.730278 c 0.86951,-0.537577 1.328642,-1.19792 1.03622,-1.490345 -0.144147,-0.144143 -0.395531,-0.09237 -1.111551,0.22897 -1.021658,0.45849 -2.069319,0.535141 -3.250188,0.237798 -0.871864,-0.219542 -1.134413,-0.04422 -0.908325,0.606534 0.112977,0.325186 0.340654,0.498093 0.929345,0.705778 1.140815,0.402468 2.358607,0.296059 3.304499,-0.288735 z m -0.220278,-3.005867 c 0.858078,-0.591605 1.057964,-1.093592 0.670762,-1.684543 -0.537268,-0.819967 -2.356266,-1.257607 -3.473162,-0.835614 -0.546781,0.20659 -1.286496,0.890801 -1.468072,1.357922 -0.385934,0.992844 0.795028,1.801555 2.513107,1.720946 0.848027,-0.03981 1.138757,-0.132217 1.757365,-0.558711 z m 89.285763,-0.737538 c -0.35952,-0.548708 -0.23346,-2.953107 0.193,-3.681139 0.39586,-0.675776 0.76128,-0.896098 1.11449,-0.671969 0.2983,0.189272 0.36508,1.424264 0.14268,2.638706 -0.17915,0.978323 0.0577,1.136285 0.71615,0.477771 0.64853,-0.648519 0.72275,-0.662085 1.2696,-0.231933 0.82816,0.651435 0.33838,1.864584 -0.75279,1.864584 -0.3266,0 -0.59333,-0.0964 -0.67614,-0.244364 -0.12402,-0.221615 -0.15565,-0.221615 -0.33956,0 -0.11973,0.144261 -0.44966,0.244364 -0.80538,0.244364 -0.47235,0 -0.65864,-0.08558 -0.86205,-0.39602 z m -46.149035,9.876958 c 6.222961,-1.014316 11.914924,-3.174036 15.917394,-6.039592 3.958161,-2.833826 5.71729,-4.669331 7.085688,-7.393296 0.787663,-1.567941 1.102923,-2.606851 1.267573,-4.177087 0.12167,-1.160319 0.0585,-1.121395 -0.760952,0.468982 -2.345601,4.552249 -8.685594,9.443478 -15.096042,11.646428 -9.462333,3.251729 -18.96629,3.457318 -27.737912,0.600024 -6.962639,-2.268037 -11.91378,-5.466162 -15.086122,-9.744709 -0.530218,-0.715104 -1.062886,-1.536774 -1.183708,-1.825943 -0.12082,-0.289162 -0.335789,-0.682627 -0.477704,-0.87435 -0.24671,-0.333305 -0.254232,-0.303516 -0.171462,0.678906 0.367989,4.36777 4.98676,9.480843 11.593595,12.834337 4.219156,2.141559 8.41363,3.338265 13.877481,3.95932 2.51546,0.28593 8.667999,0.209949 10.772171,-0.13302 z M 74.382906,65.74481 c 3.637294,-0.626101 6.530347,-1.43284 6.530347,-1.821017 0,-0.204177 -0.862652,-0.157662 -1.928442,0.103989 -0.529993,0.130112 -2.194706,0.458182 -3.699359,0.729041 -3.440902,0.619415 -5.896853,0.65882 -9.067009,0.145475 -3.757069,-0.608372 -5.817969,-1.202523 -7.521395,-2.168384 -1.144248,-0.648795 -1.30795,-0.74877 -1.896499,-1.158238 -2.990101,-2.080255 -4.477171,-5.008004 -4.508422,-8.876199 -0.02233,-2.763628 0.643399,-4.405188 3.084349,-7.60544 0.222815,-0.292125 0.336176,-0.531136 0.251915,-0.531136 -0.08426,0 -0.118123,-0.183514 -0.07525,-0.407811 0.06895,-0.360668 0.04385,-0.389259 -0.217087,-0.247323 -0.913196,0.496728 -3.01893,3.590512 -3.496737,5.137472 -0.798039,2.583749 -0.76658,5.257585 0.09223,7.839625 0.615273,1.84982 0.992913,2.502871 2.093322,3.619946 2.292371,2.327102 4.712278,3.644595 8.487255,4.620813 2.911763,0.75298 4.51013,0.972206 7.238112,0.992741 1.868364,0.01403 2.832427,-0.06369 4.632659,-0.373554 z M 48.29715,64.854671 c 0.285302,-0.455763 -0.07711,-1.067106 -1.03233,-1.741441 -0.771657,-0.544751 -0.956043,-0.613014 -1.312593,-0.485961 -0.696243,0.248092 -0.794732,0.586954 -0.359554,1.237073 0.7456,1.113858 2.276277,1.674367 2.704477,0.990329 z m 37.462259,-0.404943 c 0,-0.689737 -0.05825,-0.803705 -0.742559,-1.453201 -0.990313,-0.939919 -2.692804,-2.231502 -2.800057,-2.124241 -0.04722,0.04722 -0.03626,0.512905 0.02428,1.034874 0.108537,0.935173 0.122655,0.957559 0.967476,1.533786 0.471537,0.321615 1.185616,0.846051 1.586837,1.165412 0.40123,0.319352 0.782272,0.583154 0.846753,0.586221 0.06448,0.0032 0.117248,-0.331216 0.117248,-0.742851 z m 7.82713,-4.643902 c 0.284479,-0.654777 0.49274,-1.955069 0.313132,-1.955069 -0.05723,0 -0.382177,0.287915 -0.722048,0.639807 -0.339878,0.351892 -1.497305,1.339139 -2.572057,2.193884 -1.074753,0.854746 -2.217895,1.766713 -2.540322,2.026598 -0.546769,0.440707 -0.586229,0.529356 -0.586229,1.317052 v 0.844538 l 2.917706,-2.22026 c 2.389659,-1.818439 2.966957,-2.333614 3.189818,-2.84655 z m -41.740605,3.10031 c 0.111419,-0.111423 -0.266117,-0.61341 -1.213661,-1.613725 -1.571282,-1.658807 -1.928471,-2.146628 -2.557531,-3.492916 -1.667607,-3.568945 -1.372423,-8.429854 0.717792,-11.820079 0.675601,-1.095794 0.914019,-1.694222 0.516689,-1.296893 -0.138654,0.138654 -0.225837,0.122414 -0.36507,-0.068 -0.16366,-0.223818 -0.219977,-0.210902 -0.534935,0.122685 -1.244065,1.31765 -2.332745,4.688569 -2.471935,7.653941 -0.192356,4.098087 1.389645,7.76524 4.385539,10.165896 0.731286,0.585993 1.182739,0.689461 1.523112,0.349086 z m 36.452071,-2.342758 c 0.968233,-0.65756 2.252847,-1.564725 2.854707,-2.015916 0.982864,-0.736805 2.007357,-1.305764 2.774817,-1.541007 0.170621,-0.05226 0.273577,-0.239739 0.273577,-0.498081 0,-0.554536 -1.641842,-2.161428 -2.886767,-2.825311 l -0.926336,-0.493994 -0.7901,0.670667 c -0.670685,0.5693 -2.882825,2.147683 -6.45102,4.602868 -0.448125,0.308332 -0.817446,0.637798 -0.820725,0.732138 -0.0032,0.09434 0.422553,0.396147 0.946295,0.670686 0.523736,0.27453 1.419913,0.812888 1.991505,1.196343 0.571591,0.383446 1.091991,0.697177 1.156448,0.697177 0.06448,0 0.909373,-0.538002 1.877599,-1.19557 z m -44.96885,-0.266325 c 0.09542,-0.248675 -0.451659,-1.912007 -0.958859,-2.915278 -0.195601,-0.386907 -0.643106,-0.981554 -0.994455,-1.32143 L 40.737023,55.44239 v 0.481055 c 0,0.72117 0.391195,1.695717 1.29135,3.217017 0.773542,1.307316 1.123528,1.61851 1.300782,1.156591 z M 74.03483,59.266389 c 2.064243,-0.592914 3.962501,-1.620481 5.105964,-2.763943 1.413796,-1.413797 1.98709,-2.649127 2.058578,-4.435814 0.04335,-1.083592 -0.01151,-1.501135 -0.297187,-2.262803 -0.679056,-1.810352 -2.837708,-3.539084 -5.553185,-4.447207 -1.722286,-0.575976 -3.084246,-0.786525 -5.114255,-0.790624 -2.778024,-0.0056 -4.803422,0.452201 -6.986529,1.579201 -2.194282,1.132768 -3.476547,2.63292 -4.001292,4.681204 -0.490323,1.913912 0.02052,3.559936 1.660129,5.349286 1.576935,1.720945 3.279949,2.615829 6.171192,3.242781 1.912989,0.414819 5.235835,0.34218 6.956585,-0.152081 z m -5.227923,-5.31641 c -1.518713,-1.001127 -1.596622,-3.495654 -0.138609,-4.438098 0.800638,-0.517523 1.455583,-0.632016 2.251421,-0.393577 1.85468,0.555675 2.567713,2.892688 1.298334,4.255369 -0.83362,0.894892 -2.50061,1.176526 -3.411146,0.576306 z m 1.910256,-1.814048 c 0.342786,-0.240096 0.451579,-0.765968 0.2278,-1.101109 -0.240112,-0.359599 -0.806235,-0.548939 -1.1274,-0.377057 -0.392362,0.209986 -0.676288,0.732039 -0.534181,0.982196 0.431192,0.759046 0.850905,0.904232 1.433781,0.49597 z M 58.00106,59.10525 c 0.709872,-0.269896 0.532585,-0.822308 -0.525096,-1.636174 -1.027909,-0.790959 -1.326233,-0.865065 -1.579248,-0.3923 -0.242429,0.45298 0.06308,1.289589 0.651837,1.784993 0.508261,0.427677 0.827352,0.48116 1.452507,0.243481 z m 65.58967,-2.419488 c 4.11675,-0.624218 6.99004,-2.35835 8.17149,-4.931786 0.6377,-1.389028 0.66031,-2.978653 0.061,-4.287761 -0.73008,-1.594727 -2.94649,-3.599489 -4.75418,-4.300215 l -0.82071,-0.318141 v 1.259585 c 0,1.075055 0.0597,1.361391 0.40725,1.954505 0.36333,0.619989 0.40126,0.826497 0.35173,1.9152 -0.0462,1.016224 -0.12791,1.329673 -0.48842,1.874446 -0.86134,1.301541 -2.50058,2.090816 -4.91408,2.366082 -1.73859,0.19829 -3.13493,-0.01901 -4.53842,-0.706271 -1.26823,-0.621027 -1.82575,-1.227378 -2.16501,-2.354634 -0.29066,-0.965812 -0.27649,-1.659637 0.0566,-2.772319 l 0.2737,-0.914183 -0.39307,-0.84262 c -0.21618,-0.46344 -0.45081,-0.843467 -0.5214,-0.844503 -0.17652,-0.0026 -1.67524,1.274041 -2.93415,2.499359 -1.01543,0.988325 -1.04945,1.047134 -1.24339,2.149109 -0.25629,1.45625 -0.0434,2.487659 0.77257,3.741723 0.8691,1.33583 1.95111,2.255833 3.62078,3.078644 1.60617,0.791516 3.27741,1.265066 5.22768,1.481271 1.84242,0.204252 2.19892,0.19983 3.83002,-0.04749 z M 96.103094,55.359614 c 0.02869,-0.08043 2.09218,-1.664849 4.585606,-3.520941 2.49344,-1.85609 5.08224,-3.812778 5.75289,-4.348193 2.59219,-2.069461 3.46592,-2.759449 5.98362,-4.725348 4.63211,-3.616886 5.77136,-4.55718 5.81928,-4.803062 0.0541,-0.277596 -0.69721,-0.590244 -1.41841,-0.590244 -0.52242,0 -1.87022,0.899462 -3.63115,2.423266 -2.64241,2.2866 -9.45042,7.694814 -11.41192,9.065511 -0.60187,0.420581 -1.797778,1.301876 -2.657585,1.958432 -0.859799,0.656556 -2.161224,1.600546 -2.892061,2.097754 -0.73083,0.497207 -1.35403,0.927346 -1.38489,0.955864 -0.08397,0.0776 0.949985,1.633189 1.085536,1.633189 0.06433,0 0.140422,-0.0658 0.169084,-0.146228 z m -7.15013,-3.069656 c 0.333092,-0.333094 0.312652,-1.318313 -0.05739,-2.765076 -0.385717,-1.508131 -0.779884,-2.282328 -1.824106,-3.582742 -1.454998,-1.811972 -3.449033,-3.269367 -6.395605,-4.674412 -2.362682,-1.126621 -3.064886,-1.328404 -5.950384,-1.709892 -2.967076,-0.392275 -5.042639,-0.3906 -8.144491,0.0066 -2.494361,0.319386 -3.458941,0.578462 -6.051918,1.625471 -2.45707,0.992133 -3.103584,1.582292 -2.555105,2.332381 0.180998,0.24753 0.383729,0.17545 2.462162,-0.875401 1.245708,-0.629827 2.455173,-1.271359 2.6877,-1.425629 0.623503,-0.413661 4.395509,-1.033995 6.924627,-1.138807 1.824916,-0.07562 2.526282,-0.03385 4.220849,0.251438 2.83602,0.477453 3.671532,0.708675 5.54963,1.535827 2.780783,1.224706 5.050752,2.978217 6.76923,5.229102 1.057395,1.384993 1.515176,2.501347 1.619487,3.949289 0.114962,1.59577 0.218635,1.768532 0.745295,1.241878 z M 79.545382,41.397774 c -0.279434,-0.08964 -0.508064,-0.219495 -0.508064,-0.288566 0,-0.140693 0.933904,0.138741 1.164639,0.348474 0.187246,0.170201 0.01048,0.15407 -0.656575,-0.05991 z m 14.682494,10.879121 c 0.732989,-0.663341 -0.184046,-4.197579 -1.678324,-6.468253 -1.035221,-1.573105 -1.846059,-2.410297 -3.64774,-3.766276 -3.05559,-2.299695 -7.5253,-4.234952 -11.5841,-5.015591 -3.873271,-0.744955 -9.479561,-0.787475 -12.310809,-0.09337 -1.313418,0.321996 -0.568749,0.67952 1.21154,0.581673 0.644852,-0.03544 2.931145,-0.06014 5.080651,-0.05488 3.895862,0.0095 3.916086,0.01132 6.409437,0.568693 2.873482,0.642345 4.934796,1.371314 7.269237,2.570716 0.90279,0.463842 1.711794,0.895786 1.79777,0.959875 1.299465,0.968613 2.833551,2.369238 3.777143,3.448536 1.801908,2.061073 2.985513,4.775975 3.078954,7.062391 0.02152,0.526432 0.181492,0.581833 0.596241,0.206486 z m -9.56276,-12.247498 c -0.140896,-0.09105 -0.160177,-0.152495 -0.04832,-0.153934 0.102396,-0.0013 0.229655,0.06796 0.282792,0.153934 0.119951,0.194085 0.06582,0.194085 -0.234487,0 z m 38.376644,10.073494 c 1.54262,-0.530589 1.86608,-0.80664 1.93029,-1.647425 0.0572,-0.747872 -0.22476,-2.272355 -0.44538,-2.408703 -0.0754,-0.04661 -0.82687,0.213785 -1.6699,0.578656 -1.47136,0.636818 -1.59543,0.663133 -3.09606,0.656674 -1.10491,-0.0047 -1.74078,-0.08353 -2.1686,-0.268665 -0.33293,-0.144067 -0.625,-0.261939 -0.64905,-0.261939 -0.14849,0 -0.22554,1.86928 -0.0915,2.221641 0.35959,0.945798 2.50862,1.750471 4.23799,1.586858 0.4729,-0.04474 1.35142,-0.250433 1.95228,-0.457097 z m -2.4039,-5.383662 c 0.15667,-0.567943 0.15421,-2.430688 -0.005,-3.528355 -0.0896,-0.619179 -0.31576,-1.238891 -0.65073,-1.783293 l -0.51338,-0.834346 -0.32318,0.997768 c -0.27108,0.836861 -0.43664,1.080932 -1.02666,1.513463 -0.38692,0.283633 -0.96413,0.726378 -1.2827,0.983878 l -0.57922,0.468182 0.29921,0.505123 c 0.67171,1.133918 1.17685,1.57502 2.12466,1.855288 1.26063,0.372774 1.81878,0.322082 1.95664,-0.177708 z m 2.9423,-0.747008 c 0.35547,-0.355474 0.48216,-0.703244 0.69762,-1.915015 0.17666,-0.993557 0.4541,-1.866374 0.84333,-2.65312 0.50606,-1.022906 0.57923,-1.31204 0.57362,-2.266752 -0.006,-0.92543 -0.0945,-1.281542 -0.57694,-2.307726 -0.31377,-0.667387 -0.71537,-1.416895 -0.89245,-1.665573 -0.17707,-0.248678 -0.32203,-0.476457 -0.32214,-0.506173 -1e-4,-0.02972 0.38681,-0.04115 0.85981,-0.02541 0.47299,0.01575 0.85998,-0.02385 0.85998,-0.088 0,-0.161791 -0.79316,-0.88613 -1.17245,-1.070713 -0.62789,-0.305565 -2.29203,-0.552489 -3.18053,-0.471922 -1.15846,0.105044 -1.49402,0.284732 -3.32802,1.78209 -0.82647,0.674777 -1.82099,1.473082 -2.21002,1.774013 -1.04072,0.805041 -1.42529,1.548867 -0.55725,1.077815 0.20759,-0.112641 0.90478,-0.198679 1.61576,-0.199392 1.02125,-10e-4 1.4083,0.07293 2.11042,0.40326 1.3434,0.632034 2.40125,1.67709 3.07258,3.035438 0.56905,1.151404 0.58165,1.21642 0.64983,3.35285 0.0769,2.411199 0.15241,2.548755 0.95685,1.744324 z M 56.981517,40.754302 c 1.168208,-0.633066 2.570107,-1.312345 3.115331,-1.50951 1.069558,-0.386775 1.238932,-0.575334 0.969317,-1.079112 -0.118907,-0.222181 -0.327758,-0.324871 -0.660722,-0.324871 -0.537992,0 -3.442809,1.278767 -4.870927,2.144295 -1.013373,0.614167 -1.606374,1.380808 -1.327746,1.716536 0.285034,0.343445 0.576418,0.243961 2.774747,-0.947338 z m -5.464046,-0.877933 c 0.319007,-0.170728 0.680684,-1.047831 0.531566,-1.289108 -0.117757,-0.190534 -1.095947,-0.04855 -1.399152,0.203091 -0.272957,0.226534 -0.290704,1.028353 -0.02513,1.135512 0.317819,0.128243 0.58867,0.113226 0.892718,-0.04949 z m 2.272918,-1.454384 c 0.25794,-0.09413 0.74989,-0.345438 1.093222,-0.558449 0.343331,-0.213012 1.152328,-0.569337 1.797768,-0.791834 1.111975,-0.383319 1.176104,-0.431214 1.222597,-0.913085 0.03542,-0.367072 -0.02565,-0.537217 -0.219515,-0.61161 -0.953008,-0.365704 -5.222858,1.892268 -5.222858,2.76194 0,0.47389 0.275744,0.497347 1.328786,0.113038 z"
       id="path1" /></g></svg>
