<?xml version="1.0" encoding="UTF-8" standalone="no"?>
<!-- Created with Inkscape (http://www.inkscape.org/) -->

<svg
   width="166.91136mm"
   height="166.91136mm"
   viewBox="0 0 166.91136 166.91136"
   version="1.1"
   id="svg1"
   xml:space="preserve"
   sodipodi:docname="cassete.svg"
   inkscape:version="1.3.2 (091e20ef0f, 2023-11-25)"
   xmlns:inkscape="http://www.inkscape.org/namespaces/inkscape"
   xmlns:sodipodi="http://sodipodi.sourceforge.net/DTD/sodipodi-0.dtd"
   xmlns="http://www.w3.org/2000/svg"
   xmlns:svg="http://www.w3.org/2000/svg"><sodipodi:namedview
     id="namedview1"
     pagecolor="#ffffff"
     bordercolor="#000000"
     borderopacity="0.25"
     inkscape:showpageshadow="2"
     inkscape:pageopacity="0.0"
     inkscape:pagecheckerboard="0"
     inkscape:deskcolor="#d1d1d1"
     inkscape:document-units="mm"
     inkscape:zoom="1.6386783"
     inkscape:cx="283.46016"
     inkscape:cy="344.79007"
     inkscape:window-width="1920"
     inkscape:window-height="1008"
     inkscape:window-x="0"
     inkscape:window-y="35"
     inkscape:window-maximized="1"
     inkscape:current-layer="layer1" /><defs
     id="defs1" /><g
     inkscape:label="Layer 1"
     inkscape:groupmode="layer"
     id="layer1"
     transform="translate(-20.298346,-40.600342)"><path
       style="fill-opacity:1"
       d="m 67.570964,180.98918 c -1.57089,-0.30958 -3.65832,-1.8916 -4.77896,-3.62187 -0.33573,-0.51838 -1.0877,-1.91203 -1.67104,-3.09699 -1.57952,-3.20852 -5.31599,-11.01698 -6.29581,-13.15694 -0.47206,-1.03097 -1.55396,-3.3348 -2.40423,-5.11963 -0.85028,-1.78483 -1.68782,-3.5761 -1.86122,-3.98061 -0.17339,-0.40451 -1.00243,-2.17159 -1.84231,-3.92684 -0.83988,-1.75524 -2.15213,-4.54833 -2.91612,-6.20684 -0.76399,-1.65852 -2.09712,-4.51916 -2.96253,-6.35698 -1.37865,-2.92779 -3.48925,-7.59221 -5.46379,-12.07497 -0.33881,-0.76918 -0.94507,-2.0537 -1.34726,-2.8545 -1.47475,-2.93642 -1.56491,-4.14328 -0.68213,-9.13116 0.63315,-3.57741 0.9645,-4.48349 2.0478,-5.59975 1.09598,-1.12934 2.4805,-1.89231 5.7477,-3.16743 1.71722,-0.67019 3.70901,-1.4509 4.42621,-1.73492 0.71719,-0.28402 2.14751,-0.83314 3.17849,-1.220273 5.50199,-2.066 16.64435,-6.30148 20.78242,-7.89991 10.4609,-4.040773 12.02914,-4.64481 15.24044,-5.870125 1.83782,-0.701245 4.80848,-1.836388 6.60147,-2.52254 3.11332,-1.191419 7.413256,-2.826019 11.817466,-4.492333 4.18082,-1.581805 8.17116,-3.097054 11.57295,-4.394595 1.92747,-0.735191 4.34801,-1.655083 5.37898,-2.044204 1.03097,-0.389121 2.60799,-1.002 3.50449,-1.361953 1.97475,-0.792882 8.03792,-3.145178 9.61696,-3.731038 1.48044,-0.549276 3.55485,-0.598499 5.13448,-0.121834 0.86283,0.260365 1.22742,0.487285 1.96416,1.222495 1.00357,1.001493 0.95825,0.914883 5.37682,10.275251 0.78291,1.658518 2.31831,4.849231 3.412,7.090472 3.71235,7.607484 4.05212,8.310244 6.73797,13.936444 1.4765,3.092923 4.55293,9.401003 6.83651,14.017953 4.30341,8.70066 6.6572,13.50017 7.51426,15.32194 0.43649,0.92783 0.49763,1.23168 0.49197,2.44499 -0.009,2.00012 -1.03701,7.75629 -1.70152,9.53042 -0.50981,1.36111 -1.6963,2.51368 -3.44603,3.34748 -2.00385,0.95492 -10.67124,4.10287 -11.9166,4.32806 -0.34259,0.0619 -0.83148,0.28814 -1.08642,0.50266 -0.75058,0.63157 -2.63646,1.40104 -12.30863,5.02213 -0.80684,0.30207 -2.64059,1.0018 -4.07498,1.55496 -1.43439,0.55316 -3.48819,1.33412 -4.56398,1.73548 -1.0758,0.40136 -2.68949,1.01644 -3.58599,1.36686 -3.05794,1.19524 -8.95923,3.46422 -12.30645,4.73168 -1.83782,0.69591 -4.47841,1.70277 -5.86798,2.23747 -3.38294,1.30174 -5.86734,2.24428 -9.29097,3.52484 -1.56887,0.58682 -4.392836,1.66004 -6.275476,2.38495 -1.88264,0.72491 -4.19316,1.60087 -5.13448,1.9466 -0.94132,0.34572 -2.38721,0.89131 -3.21309,1.21242 -0.82588,0.3211 -1.72603,0.58383 -2.00032,0.58383 -0.2743,0 -0.99223,0.22529 -1.59539,0.50065 -2.2393,1.02229 -11.24857,4.43597 -12.59854,4.77368 -1.12816,0.28222 -3.02215,0.32493 -4.1913,0.0945 z m 5.91321,-0.93767 c 4.03783,-1.48512 9.94943,-3.81413 10.85891,-4.27811 0.33145,-0.16909 0.9211,-0.34979 1.31033,-0.40156 0.38924,-0.0518 1.36786,-0.34452 2.1747,-0.65058 0.80685,-0.30606 2.56724,-0.97115 3.91199,-1.47797 2.57458,-0.97035 5.6419,-2.13772 7.82397,-2.97768 0.717186,-0.27607 2.991036,-1.12298 5.052976,-1.88203 2.06195,-0.75904 5.72944,-2.14278 8.14998,-3.07498 2.42054,-0.93219 5.3912,-2.06751 6.60147,-2.52292 1.21027,-0.45541 3.26406,-1.24564 4.56398,-1.75606 2.26758,-0.89039 3.21417,-1.25073 8.47597,-3.22648 1.29992,-0.48811 2.95029,-1.12378 3.66749,-1.41261 0.71719,-0.28884 3.35778,-1.28988 5.86798,-2.22454 2.51019,-0.93467 5.04075,-1.88906 5.62347,-2.12087 0.58273,-0.23181 1.793,-0.6999 2.68949,-1.04019 2.37188,-0.90031 3.13525,-1.24918 3.97611,-1.81711 0.42043,-0.28395 1.36061,-0.67068 2.13637,-0.87874 1.36078,-0.36497 6.91462,-2.36503 10.25351,-3.69251 3.5659,-1.41774 4.36193,-2.65542 5.21994,-8.11609 0.17608,-1.12062 0.40596,-2.55073 0.51084,-3.17803 0.37326,-2.23247 0.21781,-2.89364 -1.49469,-6.35744 -0.84213,-1.70334 -1.7474,-3.57376 -2.01171,-4.15648 -0.48273,-1.06427 -4.2075,-8.60426 -6.8041,-13.77345 -0.76556,-1.52404 -2.21379,-4.49471 -3.21829,-6.60147 -1.0045,-2.10677 -2.11068,-4.417293 -2.45818,-5.134493 -0.3475,-0.71719 -0.99319,-2.07416 -1.43486,-3.01549 -0.7983,-1.70137 -1.90863,-3.994848 -5.40549,-11.165453 -1.00554,-2.061942 -2.67301,-5.546054 -3.7055,-7.74247 -2.53464,-5.391951 -2.73639,-5.777348 -3.4212,-6.535349 -0.99315,-1.099298 -2.38,-1.610751 -4.3677,-1.610751 -1.48849,0 -2.16289,0.192373 -5.86798,1.673847 -3.15416,1.26119 -7.01057,2.761215 -9.94296,3.867513 -0.8965,0.33822 -3.20701,1.2166 -5.13448,1.951956 -1.92747,0.735356 -5.70498,2.169693 -8.39447,3.187415 -2.68949,1.017722 -6.06358,2.300128 -7.49798,2.849791 -1.434386,0.549663 -2.974736,1.133287 -3.422976,1.296942 -0.44825,0.163655 -1.9886,0.750527 -3.42299,1.304158 -1.4344,0.553632 -3.96496,1.521573 -5.62348,2.150981 -1.65852,0.629408 -3.63896,1.386257 -4.40098,1.681888 -0.76202,0.29563 -3.32927,1.283396 -5.70498,2.195034 -7.4014,2.840158 -8.8081,3.383928 -11.40996,4.410648 -1.38957,0.54833 -3.88346,1.49813 -5.54198,2.11065 -1.65851,0.61252 -4.48248,1.67417 -6.27547,2.35921 -1.793,0.68505 -3.92014,1.49087 -4.72698,1.790733 -3.7013,1.37553 -9.87957,3.84119 -10.82496,4.32008 -1.32734,0.67236 -2.6673,1.93557 -3.19303,3.01012 -0.58627,1.1983 -1.40699,5.69844 -1.50594,8.25733 -0.0921,2.38275 -0.27464,1.81036 2.43894,7.64963 0.93738,2.01711 2.05627,4.47433 2.48642,5.46048 0.82336,1.8876 2.60488,5.73491 4.11355,8.88346 0.494,1.03097 1.72703,3.67156 2.74006,5.86798 1.75166,3.79789 3.29018,7.07732 6.2323,13.28445 2.93732,6.19703 5.69106,12.0445 6.83172,14.50694 2.52289,5.44637 3.63261,7.13235 5.57039,8.46302 1.28322,0.88118 2.1669,1.09166 4.26297,1.01536 1.69553,-0.0617 2.04568,-0.1312 3.66749,-0.72771 z m -5.34663,-0.20053 c -2.31004,-0.57434 -3.6281,-1.88536 -5.40048,-5.37165 -1.06402,-2.09294 -5.14533,-10.68004 -5.14533,-10.82581 0,-0.031 -0.46932,-1.03696 -1.04294,-2.23549 -0.57362,-1.19853 -2.4535,-5.1498 -4.17752,-8.78062 -1.72402,-3.63081 -4.22536,-8.89819 -5.55854,-11.7053 -1.33317,-2.8071 -2.42395,-5.13613 -2.42395,-5.17561 0,-0.0395 -0.52521,-1.15352 -1.16713,-2.47564 -1.22713,-2.52746 -2.24963,-4.78801 -3.15472,-6.97451 -0.2984,-0.72086 -1.17706,-2.66463 -1.95258,-4.31948 -2.09702,-4.47474 -2.08437,-4.42557 -1.94401,-7.55851 0.14465,-3.22868 0.19607,-3.44826 0.79709,-3.40386 0.44809,0.0331 0.45147,0.0261 0.35091,-0.73349 -0.0558,-0.42181 -0.14528,-1.03377 -0.19874,-1.35991 -0.22577,-1.37743 1.66344,-3.4699 3.79698,-4.2055 0.60979,-0.21025 3.40538,-1.28873 6.21241,-2.39662 2.80704,-1.1079 5.13608,-2.01437 5.17564,-2.01437 0.0396,0 1.44705,-0.540623 3.12776,-1.201383 1.68071,-0.66076 3.34923,-1.29357 3.70783,-1.40624 0.3586,-0.11268 1.0921,-0.38889 1.63,-0.6138 1.03292,-0.4319 4.29563,-1.68273 12.06195,-4.6242 2.59984,-0.984689 5.82723,-2.22375 7.17197,-2.753475 1.34475,-0.529725 3.65526,-1.411629 5.13448,-1.959787 1.47922,-0.548157 3.86309,-1.458532 5.29748,-2.023056 1.4344,-0.564523 2.79137,-1.08055 3.01549,-1.146726 0.35096,-0.103625 2.33929,-0.870528 7.828286,-3.019383 0.67475,-0.264154 1.73832,-0.660307 2.36349,-0.880341 0.62517,-0.220034 2.89708,-1.06992 5.04867,-1.888635 2.15159,-0.818716 4.75551,-1.808487 5.78648,-2.199491 2.43171,-0.922249 8.04537,-3.074377 8.88347,-3.40569 1.33136,-0.526309 10.31767,-3.90581 11.65445,-4.382916 2.83682,-1.012483 5.00558,-0.768251 6.59244,0.742397 0.79252,0.754452 1.04625,1.179931 2.20936,3.704828 0.72271,1.568869 1.38498,2.979591 1.47172,3.134937 0.0867,0.155347 0.66208,1.365618 1.27855,2.68949 0.61646,1.323873 2.07443,4.350809 3.23993,6.726525 1.16551,2.375716 2.48727,5.089655 2.93726,6.030973 0.45,0.94133 1.62947,3.37664 2.62105,5.41182 0.99158,2.03518 2.39893,4.969173 3.12744,6.519983 1.72531,3.67272 2.94777,6.16615 8.41488,17.1636 l 4.53773,9.12796 -0.004,1.3855 c -0.008,2.97783 -1.14398,3.89083 -7.92447,6.36725 -6.62997,2.42144 -7.23085,2.62225 -7.44407,2.48772 -0.11725,-0.074 -0.37744,-0.53982 -0.5782,-1.0352 -0.20076,-0.49537 -0.91709,-1.70564 -1.59185,-2.68949 -0.67475,-0.98384 -1.73132,-2.52229 -2.34793,-3.41879 -1.48742,-2.16258 -4.47152,-5.9801 -5.51593,-7.05644 -1.06857,-1.10124 -2.09666,-1.45731 -3.4041,-1.17897 -0.47067,0.1002 -1.03914,0.29385 -1.26326,0.43032 -0.26973,0.16424 -0.29728,0.21023 -0.0815,0.13602 0.1793,-0.0617 0.84358,-0.14882 1.47619,-0.19367 0.94543,-0.067 1.26462,-0.0225 1.79299,0.25041 0.88159,0.45527 1.80902,1.4673 2.97893,3.25066 0.54349,0.82847 1.75387,2.62553 2.68975,3.99348 1.81241,2.64917 3.51226,5.32127 4.02711,6.33044 0.6318,1.23843 0.53862,3.4137 -0.32763,7.6482 -0.39967,1.95375 -0.62358,2.16286 -3.31995,3.10056 -1.09033,0.37918 -3.59611,1.30688 -5.56841,2.06157 -3.4927,1.33646 -4.17866,1.60267 -7.74247,3.00473 -1.89967,0.74737 -6.69364,2.52872 -8.73935,3.24739 -0.72759,0.25561 -2.01121,0.75021 -2.85249,1.09913 -1.52613,0.63295 -2.18273,0.88943 -6.33809,2.4758 -1.21027,0.46203 -2.71394,1.0535 -3.34149,1.31435 -0.62754,0.26086 -2.16789,0.84444 -3.42298,1.29685 -1.2551,0.4524 -2.79544,1.03869 -3.42299,1.30286 -1.43884,0.60568 -3.035,1.20823 -4.80849,1.8152 -0.76202,0.2608 -1.89894,0.68709 -2.52649,0.94731 -2.624106,1.08814 -5.906636,2.33529 -7.579466,2.87972 -0.40342,0.13129 -1.72372,0.6299 -2.93399,1.108 -4.10765,1.6227 -4.50314,1.75795 -4.98079,1.70342 -0.31798,-0.0363 -0.54271,-0.1917 -0.67331,-0.46557 -0.21652,-0.45404 -0.45485,-2.66611 -0.70208,-6.5164 -0.10663,-1.66057 -0.33542,-3.33654 -0.66756,-4.88998 -0.27793,-1.29992 -0.61103,-2.98697 -0.74023,-3.74899 -0.2675,-1.57774 -0.45483,-2.38188 -1.19614,-5.13448 -0.28972,-1.07579 -0.58585,-2.02934 -0.65806,-2.11899 -0.0722,-0.0897 -0.18435,-0.51943 -0.24922,-0.95507 -0.11621,-0.78053 -0.10777,-0.80135 0.57928,-1.42938 0.78148,-0.71434 0.77183,-0.99147 -0.0184,-0.52828 -0.36754,0.21543 -0.61628,0.55881 -0.84876,1.17168 l -0.32887,0.86695 0.34018,1.65954 c 0.18709,0.91275 0.5326,2.6131 0.7678,3.77854 0.2352,1.16545 0.67852,3.14589 0.98517,4.40099 0.80464,3.29336 1.3742,7.00251 1.14591,7.46249 -0.12293,0.24768 -0.69423,0.56673 -1.81481,1.01347 -0.89947,0.3586 -1.88789,0.77869 -2.19649,0.93354 l -0.56108,0.28154 0.47845,0.004 c 0.26315,0.002 1.34942,-0.29587 2.41393,-0.66201 1.06451,-0.36615 2.04114,-0.62517 2.17028,-0.57561 0.19205,0.0737 0.23482,0.60988 0.23482,2.94395 0,2.78169 -0.009,2.85975 -0.36675,3.08734 -0.52391,0.33354 -5.19273,2.18601 -10.22821,4.05829 -2.76713,1.02886 -4.83094,1.39796 -6.08013,1.08738 z m 4.09829,-7.0096 c 1.71155,-0.51204 4.43973,-1.53408 5.73082,-2.1469 0.51356,-0.24376 0.64741,-0.36758 0.44641,-0.41295 -0.23916,-0.054 -2.92732,0.81991 -6.13471,1.99432 -1.8232,0.66758 -3.63736,0.58911 -5.5077,-0.23823 -0.38663,-0.17102 -0.70295,-0.24672 -0.70295,-0.16821 0,0.24293 0.85718,0.75858 1.71149,1.02958 1.74476,0.55345 2.44435,0.54441 4.45664,-0.0576 z m 20.54378,-2.44927 c 1.10962,-0.44152 2.08712,-0.80276 2.17222,-0.80276 0.0851,0 0.75424,-0.25075 1.48698,-0.55723 1.31248,-0.54895 5.327576,-2.13014 9.156236,-3.60581 1.0758,-0.41465 2.79402,-1.04017 3.81828,-1.39005 1.02425,-0.34989 2.45457,-0.88872 3.17849,-1.1974 0.72391,-0.30868 2.52647,-0.99903 4.00569,-1.5341 1.47922,-0.53507 3.82641,-1.42788 5.21598,-1.98403 3.26443,-1.30653 5.00634,-1.975 7.41647,-2.84613 1.0758,-0.38884 2.72617,-1.01641 3.66749,-1.39459 2.86687,-1.15178 7.96238,-3.08817 9.91373,-3.7674 1.01489,-0.35327 2.46481,-0.89877 3.22205,-1.21223 0.75724,-0.31346 2.10784,-0.81519 3.00134,-1.11496 2.4086,-0.8081 2.30286,-0.69097 2.90677,-3.21967 0.60483,-2.53254 0.62487,-2.83858 0.20075,-3.06556 -0.50557,-0.27058 -0.84296,-0.20423 -2.1343,0.41973 -0.66985,0.32365 -1.98807,0.86823 -2.92939,1.21018 -1.80674,0.65632 -5.04855,1.89572 -9.37247,3.58326 -1.43439,0.55982 -3.63488,1.39988 -4.88998,1.86681 -1.2551,0.46693 -2.79544,1.07419 -3.42299,1.34947 -0.62754,0.27527 -1.69112,0.66448 -2.36349,0.8649 -1.11749,0.3331 -9.84419,3.72944 -16.74548,6.51716 -1.54498,0.62408 -2.88728,1.13469 -2.98291,1.13469 -0.0956,0 -1.80222,0.63227 -3.79245,1.40504 -3.803546,1.47688 -7.654696,2.89801 -10.991776,4.05613 -1.09683,0.38065 -2.39358,0.88748 -2.88168,1.12628 -1.03313,0.50546 -1.00894,0.43686 -1.16376,3.30117 l -0.10719,1.98315 0.38394,0.0619 c 0.5337,0.086 1.67531,-0.25041 4.03145,-1.18791 z m -3.16349,0.004 c -0.17724,-0.28678 0.10643,-3.22855 0.32914,-3.41339 0.11247,-0.0933 0.70903,-0.34879 1.32567,-0.56766 1.99997,-0.70985 4.98332,-1.81637 7.22884,-2.68116 1.20763,-0.46508 3.334766,-1.23808 4.726976,-1.71778 1.39221,-0.4797 2.95931,-1.03836 3.48242,-1.24147 0.80272,-0.31168 0.9738,-0.33315 1.09652,-0.13762 0.08,0.12743 0.10761,0.35332 0.0614,0.50198 -0.0462,0.14866 -0.14699,0.8318 -0.22396,1.51808 -0.077,0.68629 -0.16761,1.27547 -0.20144,1.3093 -0.0338,0.0338 -1.08664,0.4268 -2.33957,0.87326 -2.46565,0.87858 -6.462176,2.41242 -7.901536,3.03254 -0.49308,0.21243 -1.3366,0.52936 -1.87449,0.70427 -0.5379,0.17492 -1.98731,0.69439 -3.2209,1.15437 -2.52474,0.94144 -2.34765,0.89411 -2.48907,0.66528 z m 3.26497,-1.25034 c 5.10267,-1.88286 10.590576,-4.09734 11.315006,-4.56583 0.0374,-0.0242 0.12561,-0.42904 0.19597,-0.89962 0.0704,-0.47059 0.17764,-1.02445 0.23841,-1.23079 0.10176,-0.34546 0.0733,-0.36625 -0.35897,-0.26241 -0.55979,0.13447 -6.203186,2.08665 -10.086416,3.48913 -1.52404,0.55043 -3.02771,1.07684 -3.34149,1.1698 -0.93141,0.27597 -0.97799,0.36958 -0.97799,1.96553 0,1.32952 0.0263,1.45397 0.28524,1.35043 0.15689,-0.0627 1.3855,-0.52004 2.73024,-1.01624 z m 16.058166,-6.1548 c -0.1496,-0.18024 -0.16494,-0.62248 -0.0607,-1.74941 l 0.13949,-1.50819 2.44499,-0.94799 c 6.46957,-2.50844 7.67246,-2.98212 10.02446,-3.94745 1.38957,-0.57032 3.92014,-1.51341 5.62348,-2.09575 1.70335,-0.58234 3.52084,-1.2476 4.03888,-1.47836 1.49402,-0.66551 1.46855,-0.68907 1.39529,1.29016 -0.0457,1.23446 -0.13013,1.77105 -0.30374,1.93035 -0.13225,0.12135 -1.19399,0.55807 -2.35944,0.97049 -2.36431,0.83668 -4.93549,1.82054 -7.74247,2.96267 -1.03097,0.41949 -2.57131,1.00903 -3.42299,1.31009 -2.40957,0.85178 -4.04836,1.47539 -5.37898,2.0469 -1.16603,0.50082 -3.84798,1.45772 -4.0856,1.45772 -0.0619,0 -0.20255,-0.10855 -0.31266,-0.24123 z m 2.08711,-0.63741 c 0.88345,-0.30395 1.81989,-0.66191 2.08097,-0.79547 0.26107,-0.13356 1.83165,-0.73478 3.49017,-1.33604 1.65852,-0.60126 4.11574,-1.53276 5.46048,-2.07 2.94073,-1.17486 7.99082,-3.08642 9.14842,-3.46285 0.76992,-0.25037 0.8433,-0.31913 0.93545,-0.87657 0.11306,-0.68389 0.13945,-2.64238 0.0356,-2.64238 -0.0374,0 -0.42248,0.15506 -0.85575,0.34457 -0.43327,0.18952 -1.70463,0.65895 -2.82525,1.04319 -2.49546,0.85565 -5.19061,1.8789 -9.77997,3.71312 -2.81692,1.12583 -8.42319,3.2825 -9.41321,3.62116 -0.25071,0.0858 -0.29294,3.01391 -0.0435,3.01391 0.0881,0 0.8831,-0.24868 1.76655,-0.55264 z m 22.96539,-8.86057 c -0.14663,-0.27193 0.20439,-3.20118 0.40525,-3.38173 0.11656,-0.10477 1.20215,-0.56536 2.41242,-1.02353 1.21028,-0.45817 3.26407,-1.23457 4.56399,-1.72534 1.29992,-0.49077 3.24369,-1.23631 4.31948,-1.65676 4.392,-1.7165 5.32837,-2.05679 5.41667,-1.9685 0.0995,0.0995 -0.19465,2.08376 -0.4527,3.05324 -0.18777,0.70541 -7.1e-4,0.61593 -5.86047,2.80332 -2.28606,0.85336 -4.88998,1.85572 -5.78647,2.22746 -1.48964,0.61769 -4.6853,1.79409 -4.87359,1.79409 -0.0433,0 -0.10832,-0.055 -0.14458,-0.12225 z m 8.53029,-3.44593 c 4.30257,-1.46161 7.42542,-2.66159 7.66877,-2.94676 0.27347,-0.32049 0.75642,-2.7105 0.58279,-2.88413 -0.0556,-0.0556 -0.7814,0.16274 -1.6129,0.4852 -4.65099,1.80366 -9.4691,3.72543 -10.39528,4.14629 l -1.0595,0.48145 0.55896,0.12494 c 0.30743,0.0687 0.79286,0.37295 1.07874,0.67607 0.31333,0.33222 0.67703,0.55113 0.91567,0.55113 0.21774,0 1.23598,-0.28538 2.26275,-0.63419 z m -76.813546,21.17953 c -0.10943,-0.17523 -0.2218,-0.29575 -0.24972,-0.26783 -0.0966,0.0966 0.1554,0.58641 0.30174,0.58641 0.0808,0 0.0574,-0.14336 -0.052,-0.31858 z m 4.4203,-1.38573 c 0.59155,-0.30591 1.04878,-1.25154 0.9102,-1.88248 -0.14365,-0.65403 -1.05311,-1.40895 -1.86203,-1.54561 -2.00508,-0.33876 -2.62698,2.05878 -0.84765,3.26786 0.6704,0.45555 1.14643,0.49793 1.79948,0.16023 z m -1.43292,-0.8302 c -0.99664,-0.83862 -0.36386,-1.89514 0.7806,-1.30332 0.84025,0.43451 0.8641,0.97784 0.0662,1.50765 -0.30109,0.19991 -0.39259,0.17783 -0.84676,-0.20433 z m 0.10961,-0.39206 c -0.10943,-0.17523 -0.23053,-0.28702 -0.26911,-0.24844 -0.0699,0.0699 0.28537,0.56702 0.40515,0.56702 0.0346,0 -0.0266,-0.14336 -0.13604,-0.31858 z m 0.95591,-0.24237 c -0.15349,-0.39999 -0.88613,-0.68217 -1.13088,-0.43557 -0.15746,0.15865 -0.14209,0.17905 0.0732,0.0971 0.43504,-0.16556 0.9957,0.21796 0.89296,0.61083 -0.0627,0.23964 -0.0376,0.28536 0.0878,0.16 0.0965,-0.0965 0.13117,-0.29111 0.077,-0.43239 z m 1.60378,-0.90604 c 0.0554,-0.0896 0.0231,-0.163 -0.0719,-0.163 -0.0949,0 -0.17262,0.0734 -0.17262,0.163 0,0.0897 0.0324,0.163 0.0719,0.163 0.0395,0 0.11721,-0.0734 0.17262,-0.163 z m 3.26848,-0.16711 c 0.91038,-0.44071 1.22044,-0.81463 1.4685,-1.77092 0.62585,-2.41272 -1.77685,-4.34907 -4.09173,-3.29757 -1.2546,0.56989 -2.03103,1.97894 -1.70906,3.10159 0.52938,1.84582 2.62087,2.79538 4.33229,1.9669 z m -2.14078,-0.47981 c -0.18661,-0.0755 -0.53502,-0.36987 -0.77425,-0.65417 -0.35198,-0.41831 -0.43495,-0.68232 -0.43495,-1.38402 0,-0.78853 0.0522,-0.91295 0.57617,-1.37299 0.65337,-0.57367 1.48752,-0.66958 2.42325,-0.2786 0.72863,0.30444 1.07556,0.84343 1.07556,1.67097 0,1.3801 -1.62132,2.52225 -2.86578,2.01881 z m 1.64681,-0.42517 c 0.58641,-0.27827 1.05597,-1.06838 1.05597,-1.77682 0,-0.99144 -1.56582,-1.82076 -2.61623,-1.38566 -0.54363,0.22518 -1.17849,0.9317 -1.03941,1.15674 0.14418,0.23329 0.91762,0.16453 1.21919,-0.10839 0.25168,-0.22776 0.30375,-0.2272 0.53676,0.006 0.14193,0.14193 0.31569,0.27377 0.38613,0.29298 0.0704,0.0192 0.10973,0.0899 0.0873,0.15718 -0.0224,0.0672 0.0754,0.12225 0.21733,0.12225 0.14194,0 0.22678,0.0917 0.18853,0.20375 -0.0774,0.22672 -0.8222,0.25657 -1.87286,0.0751 -0.61968,-0.10705 -0.69275,-0.0861 -0.69275,0.19916 0,0.47723 0.6779,1.19439 1.00894,1.06736 0.15187,-0.0583 0.23488,-0.20852 0.18583,-0.33634 -0.0487,-0.12705 -0.007,-0.23101 0.0918,-0.23101 0.0992,0 0.18044,0.11003 0.18044,0.2445 0,0.13448 0.12836,0.25318 0.28525,0.26379 0.15688,0.0106 0.0652,0.0753 -0.20375,0.14371 l -0.489,0.12443 0.46436,0.0193 c 0.2554,0.0106 0.70817,-0.0964 1.00615,-0.23781 z m -1.89881,-0.35416 c -0.20275,-0.25852 -0.19698,-0.26429 0.0615,-0.0615 0.27152,0.21294 0.35786,0.34679 0.22371,0.34679 -0.0339,0 -0.16221,-0.12836 -0.28525,-0.28525 z m 1.12396,-1.34474 c -0.18023,-0.2886 -0.45117,-0.44343 -0.45117,-0.25783 0,0.0375 -0.0445,0.18419 -0.0989,0.326 -0.0747,0.1946 0.006,0.25783 0.32738,0.25783 0.38552,0 0.40683,-0.0312 0.22273,-0.326 z m 2.40132,2.28199 c 0.16226,-0.1793 0.25835,-0.326 0.21352,-0.326 -0.0448,0 -0.21426,0.1467 -0.37652,0.326 -0.16226,0.1793 -0.25835,0.326 -0.21352,0.326 0.0448,0 0.21426,-0.1467 0.37652,-0.326 z m -5.29748,-0.652 c -0.096,-0.1793 -0.2017,-0.326 -0.23497,-0.326 -0.0333,0 -0.0221,0.1467 0.0248,0.326 0.0469,0.1793 0.15262,0.326 0.23497,0.326 0.0827,0 0.0716,-0.1459 -0.0247,-0.326 z m 22.77577,-5.47746 c -0.0542,-0.0542 -0.19475,-0.0599 -0.31242,-0.0129 -0.13003,0.052 -0.0914,0.0907 0.0985,0.0985 0.17183,0.007 0.2681,-0.0314 0.21394,-0.0856 z m 0.74974,-0.61285 c 0.61222,-0.25581 1.3678,-1.08775 1.51288,-1.66579 0.30917,-1.23183 -0.59251,-2.54395 -1.95821,-2.84958 -1.94925,-0.43622 -3.42006,0.81519 -3.12522,2.65902 0.26459,1.65463 1.95274,2.53231 3.57055,1.85635 z m -1.68359,-0.5453 c -0.47704,-0.1754 -0.81857,-0.59628 -0.98479,-1.21356 -0.21298,-0.79096 -0.002,-1.22345 0.74817,-1.53709 0.91961,-0.38424 1.61088,-0.29836 2.18007,0.27084 0.83617,0.83616 0.62206,1.75648 -0.53036,2.27973 -0.69686,0.3164 -0.98557,0.35728 -1.41309,0.20008 z m -8.20502,-0.57711 c -0.0452,-0.11206 -0.0822,-0.0204 -0.0822,0.20375 0,0.22412 0.037,0.31581 0.0822,0.20375 0.0452,-0.11206 0.0452,-0.29544 0,-0.4075 z m -0.15993,-1.0595 c -0.0489,-0.42583 -0.0519,-0.64588 -0.007,-0.48899 0.0453,0.15688 0.15041,0.28524 0.23349,0.28524 0.27085,0 0.1594,-1.94142 -0.24189,-4.21361 -0.74619,-4.22512 -0.77523,-4.05939 0.80043,-4.5677 1.26668,-0.40863 10.29125,-3.8509 14.58845,-5.56452 1.837816,-0.73287 3.953446,-1.54682 4.701406,-1.80877 0.74798,-0.26195 1.99493,-0.74068 2.771,-1.06385 0.77608,-0.32317 2.32793,-0.93762 3.44855,-1.36543 1.12062,-0.42782 3.72453,-1.45246 5.78647,-2.27699 2.06195,-0.82452 4.81256,-1.899 6.11248,-2.38772 1.29992,-0.48872 2.87694,-1.09943 3.50449,-1.35713 0.62755,-0.2577 2.49796,-0.94536 4.15648,-1.52813 1.65852,-0.58277 4.23508,-1.54254 5.72568,-2.13281 1.4906,-0.59027 2.78403,-1.07322 2.87429,-1.07322 0.0902,0 0.85111,-0.28578 1.69079,-0.63506 2.74619,-1.14232 3.27396,-1.19226 4.21667,-0.39902 0.68814,0.57903 2.65103,3.05959 3.9227,4.95721 0.56662,0.84554 1.40865,2.01412 1.87116,2.59684 0.46251,0.58272 1.26076,1.664 1.77387,2.40284 0.71688,1.03226 1.05269,1.37574 1.45009,1.48321 0.28444,0.0769 0.54279,0.11915 0.57412,0.0939 0.13269,-0.10716 -2.89181,-4.74146 -5.57604,-8.54388 -2.90997,-4.12221 -3.44967,-4.68293 -4.77778,-4.96389 -0.64717,-0.13691 -1.42374,0.0937 -4.53608,1.34714 -3.60038,1.44996 -5.34066,2.12265 -7.25348,2.80377 -0.94132,0.33518 -3.21516,1.17587 -5.05298,1.86819 -1.83781,0.69233 -4.07498,1.53519 -4.97148,1.87304 -0.89649,0.33785 -2.73024,1.05475 -4.07498,1.59312 -1.34475,0.53836 -2.62837,1.0338 -2.85249,1.10098 -0.22413,0.0672 -2.51222,0.95676 -5.08465,1.97687 -2.57244,1.02011 -4.72865,1.85474 -4.79158,1.85474 -0.0629,0 -1.47901,0.54338 -3.14682,1.2075 -1.66781,0.66412 -4.682756,1.84036 -6.699876,2.61385 -6.57914,2.52288 -8.2109,3.15826 -9.61696,3.74475 -0.76202,0.31785 -1.51868,0.57925 -1.68146,0.58089 -0.47074,0.005 -0.83058,0.25981 -1.47363,1.04456 l -0.60029,0.73259 0.83927,3.14715 c 0.46159,1.73093 0.87484,3.31133 0.91833,3.512 0.0435,0.20067 0.15536,0.3177 0.24861,0.26006 0.10211,-0.0631 0.12026,-0.025 0.0456,0.0957 -0.13094,0.21188 0.0344,1.96885 0.18529,1.96885 0.0486,0 0.0482,-0.34841 -7.1e-4,-0.77425 z m 18.351756,-4.38565 c -0.11036,-0.0446 -0.33041,-0.0474 -0.489,-0.006 -0.15859,0.0413 -0.0683,0.0779 0.20065,0.0812 0.26895,0.003 0.3987,-0.0305 0.28835,-0.0751 z m -1.67385,-0.43832 c 0,-0.0309 -0.16503,-0.19596 -0.36675,-0.36674 l -0.366736,-0.31052 0.310506,0.36675 c 0.2918,0.34466 0.42298,0.44096 0.42298,0.31051 z m 2.72688,-0.26386 c 0.76775,-0.34852 1.34656,-1.14096 1.34751,-1.84488 0.002,-1.75869 -1.78996,-2.84795 -3.46614,-2.10649 -1.252426,0.55401 -1.744126,1.83449 -1.16946,3.04552 0.55703,1.17386 1.88921,1.54086 3.28809,0.90585 z m -1.54188,-0.29556 c -0.51143,-0.0818 -1.022,-0.79721 -1.022,-1.43198 0,-0.7278 0.6189,-1.21235 1.5485,-1.21235 1.19295,0 1.84253,0.83707 1.44781,1.86569 -0.17513,0.45639 -1.27564,0.89041 -1.97431,0.77864 z m -34.181196,-0.60622 c 1.75637,-0.53287 1.62592,-0.88485 -0.17912,-0.48327 -1.03052,0.22927 -1.36835,0.24458 -1.89775,0.086 -1.32258,-0.39625 -1.87022,-1.1685 -3.93774,-5.55278 -0.40162,-0.85167 -1.03056,-2.18027 -1.39763,-2.95243 -0.36707,-0.77216 -0.6674,-1.45496 -0.6674,-1.51733 0,-0.0624 -0.54558,-1.22767 -1.2124,-2.58955 -0.66682,-1.36189 -2.10761,-4.41992 -3.20177,-6.79564 -1.09415,-2.37571 -2.9411,-6.3366 -4.10433,-8.80196 -1.16322,-2.46537 -2.58708,-5.50938 -3.16413,-6.76448 l -1.04918,-2.28199 0.054,-1.55352 c 0.0465,-1.33738 0.11533,-1.65816 0.49473,-2.30556 0.55389,-0.94513 1.17998,-1.47385 2.58044,-2.17911 1.17745,-0.59296 9.03862,-3.7474 12.69963,-5.09598 1.21027,-0.44581 3.79788,-1.44161 5.75024,-2.21287 1.95236,-0.77127 5.1064,-1.982663 7.00897,-2.691983 1.90257,-0.70931 4.55947,-1.72638 5.90421,-2.26015 4.70406,-1.86718 8.32961,-3.26833 10.35046,-4.0001 1.12062,-0.405779 2.88102,-1.084385 3.91199,-1.508008 1.03097,-0.423624 3.08476,-1.227255 4.563986,-1.785848 3.04237,-1.148886 7.02097,-2.668212 12.38795,-4.730658 2.01712,-0.775147 4.14426,-1.57693 4.72698,-1.78174 0.58272,-0.204811 2.45314,-0.905375 4.15648,-1.556809 8.45053,-3.231857 11.01112,-4.156962 11.92818,-4.309485 1.31542,-0.218776 3.94999,0.713417 4.96238,1.755842 0.56674,0.583551 4.13264,7.282137 6.17674,11.603067 0.55134,1.165446 2.27335,4.686229 3.82669,7.823969 1.55334,3.137743 3.39,6.878583 4.08147,8.312973 0.69146,1.4344 1.84165,3.80972 2.55597,5.27849 1.53115,3.14835 1.75814,3.74823 1.75733,4.64422 -8.4e-4,0.92302 -0.48449,1.64244 -1.41976,2.11183 -0.78456,0.39375 -5.71152,2.3514 -9.50059,3.77491 -3.92566,1.47482 -4.49007,1.69204 -5.46048,2.10152 -0.5379,0.22698 -0.90465,0.41496 -0.815,0.41775 0.33217,0.0103 6.46462,-2.0792 9.29097,-3.16574 0.62755,-0.24125 1.87449,-0.69718 2.77099,-1.01318 2.00378,-0.70629 4.20264,-1.71553 4.90525,-2.25144 0.71949,-0.54878 1.11567,-1.63293 0.99799,-2.731 -0.11548,-1.07762 -0.46787,-1.82927 -8.3097,-17.724833 -1.65852,-3.36186 -4.44462,-9.013467 -6.19133,-12.559124 -3.08915,-6.270702 -3.2018,-6.469805 -4.12767,-7.295019 -1.45735,-1.298912 -3.49807,-1.935778 -5.69347,-1.776814 -0.87744,0.06353 -1.74342,0.314789 -3.74899,1.08772 -1.43439,0.552806 -2.97474,1.136885 -3.42298,1.297953 -0.44825,0.161068 -1.36512,0.518701 -2.0375,0.79474 -0.67237,0.276039 -3.23961,1.241989 -5.70497,2.146557 -2.46537,0.904568 -4.99593,1.870519 -5.62348,2.146557 -0.62755,0.276038 -1.98452,0.8167 -3.01549,1.201472 -1.03097,0.384772 -2.75469,1.042455 -3.83049,1.461518 -1.07579,0.419063 -3.38631,1.302306 -5.13448,1.962761 -1.748166,0.660455 -3.985326,1.522963 -4.971476,1.916684 -0.98615,0.393721 -3.00326,1.17694 -4.48248,1.740487 -2.63192,1.002698 -6.93632,2.648868 -8.55747,3.272718 -0.44825,0.17249 -1.76854,0.6896 -2.93399,1.14912 -1.16545,0.45953 -3.18256,1.22243 -4.48248,1.69533 -1.29992,0.4729 -3.57376,1.33943 -5.05298,1.92561 -4.57204,1.811823 -6.50456,2.556033 -9.20947,3.546573 -1.43439,0.52528 -3.41484,1.2764 -4.40098,1.66916 -0.98615,0.39276 -2.52649,0.99092 -3.42299,1.32924 -2.73291,1.03135 -3.85452,1.62401 -4.92445,2.60213 -1.36702,1.2497 -2.05824,2.63357 -2.14178,4.288 -0.0857,1.69628 0.10127,2.19165 3.5228,9.33554 0.99735,2.0824 2.95936,6.2569 4.51995,9.61696 0.56211,1.21027 1.33361,2.86064 1.71444,3.66749 0.38083,0.80685 1.00323,2.12714 1.38312,2.93399 0.37989,0.80685 1.3155,2.75061 2.07913,4.31948 0.76364,1.56887 1.93757,3.98941 2.60874,5.37898 1.23006,2.54665 2.04913,3.66959 2.79085,3.8262 0.19039,0.0402 0.49286,0.10412 0.67215,0.14203 0.69288,0.14652 1.5216,0.097 2.29316,-0.13713 z m -4.00465,-0.30135 c 0,-0.0309 -0.16504,-0.19597 -0.36675,-0.36675 l -0.36675,-0.31051 0.31051,0.36675 c 0.29181,0.34465 0.42299,0.44095 0.42299,0.31051 z m 4.78913,-0.77774 c 2.62298,-0.89644 6.16467,-2.2188 7.92482,-2.95889 0.94132,-0.39579 2.37164,-0.94725 3.17849,-1.22547 0.80684,-0.27821 2.20049,-0.83049 3.09698,-1.22728 0.8965,-0.3968 2.14345,-0.90679 2.77099,-1.13331 0.62755,-0.22653 1.91117,-0.72222 2.85249,-1.10155 0.94132,-0.37932 2.99512,-1.15171 4.56398,-1.71642 1.56887,-0.56472 4.79626,-1.77101 7.17198,-2.68066 2.375706,-0.90964 5.456406,-2.07969 6.845976,-2.6001 1.38957,-0.52041 3.73676,-1.39953 5.21598,-1.95359 1.47922,-0.55407 3.34964,-1.2688 4.15648,-1.58831 0.80685,-0.3195 2.16382,-0.82038 3.01549,-1.11305 0.85167,-0.29268 2.42869,-0.91314 3.50449,-1.3788 1.07579,-0.46567 3.49634,-1.43054 5.37898,-2.14417 1.88264,-0.71364 4.52323,-1.73018 5.86798,-2.25899 1.34474,-0.5288 3.72861,-1.44258 5.29748,-2.03062 1.56886,-0.58803 3.21923,-1.22101 3.66748,-1.40661 0.44825,-0.1856 2.02527,-0.7656 3.50449,-1.28888 3.13331,-1.10842 8.62345,-3.30171 9.18391,-3.66894 0.21273,-0.13938 0.51679,-0.54175 0.6757,-0.89414 0.24865,-0.55142 0.2621,-0.74971 0.0965,-1.42266 -0.19446,-0.79017 -2.04612,-4.68175 -7.39098,-15.533393 -1.61169,-3.27221 -3.87041,-7.89324 -5.01938,-10.268957 -2.21163,-4.572991 -4.53293,-9.09048 -5.24483,-10.206984 -0.87271,-1.368712 -2.51136,-2.239699 -4.60736,-2.448946 -0.96736,-0.09657 -2.30007,0.319755 -7.90547,2.469621 -3.95079,1.515261 -5.70883,2.178816 -8.63897,3.260695 -3.16536,1.168725 -17.30363,6.581222 -23.308916,8.923259 -1.47922,0.576892 -4.37653,1.695002 -6.43848,2.484692 -2.06194,0.7897 -5.21598,2.02029 -7.00897,2.73464 -1.79299,0.71436 -3.73676,1.46664 -4.31948,1.67174 -1.48443,0.52246 -8.31396,3.140303 -10.75796,4.123663 -1.12062,0.45088 -3.13774,1.22275 -4.48248,1.71526 -3.87546,1.41936 -10.63249,4.15255 -11.54999,4.67192 -1.77696,1.00586 -2.51069,2.07963 -2.66307,3.89725 -0.11402,1.36005 -0.0361,1.60518 1.66262,5.22809 2.08015,4.43648 5.82541,12.46798 7.449,15.97394 0.80956,1.74816 1.94016,4.14545 2.51244,5.3273 0.57227,1.18184 1.0405,2.18366 1.0405,2.22626 0,0.0426 0.53974,1.20277 1.19942,2.57817 0.65968,1.37539 1.58062,3.30716 2.04653,4.29282 1.55286,3.28519 2.41867,3.70917 5.45517,2.6714 z m 8.08782,-15.23046 c -2.48175,-0.57092 -3.49433,-0.99655 -4.91175,-2.06461 -2.50533,-1.88782 -4.14339,-4.18888 -4.7851,-6.72185 -0.57375,-2.26473 -0.18641,-5.63753 0.90329,-7.86563 0.8897,-1.81916 3.58875,-4.37329 5.77807,-5.46783 0.82722,-0.41357 4.23228,-1.7501 7.14081,-2.80286 0.87935,-0.31829 2.30967,-0.8817 3.17848,-1.25202 0.86882,-0.37032 2.31316,-0.92398 3.20966,-1.23034 0.89649,-0.30636 2.47351,-0.8795 3.50448,-1.27364 1.03097,-0.39414 3.45152,-1.30245 5.37898,-2.01846 1.92747,-0.71601 4.641406,-1.73948 6.030976,-2.27436 20.26303,-7.799833 20.41657,-7.850373 23.10415,-7.604953 1.60332,0.14641 4.11515,0.78658 5.32286,1.3566 3.9149,1.84776 6.44588,5.852493 6.46964,10.236803 0.007,1.25105 -0.0742,1.73817 -0.50163,3.01709 -0.64673,1.93513 -1.49246,3.50682 -2.69069,5.0003 -1.62793,2.02906 -2.80435,2.7031 -7.68285,4.40198 -1.78148,0.62037 -4.70605,1.69326 -6.49904,2.3842 -1.79299,0.69094 -4.58028,1.75817 -6.19398,2.37162 -4.13654,1.57252 -11.46812,4.37679 -14.262446,5.45528 -1.29992,0.50171 -3.31704,1.27556 -4.48248,1.71966 -1.16545,0.44409 -3.25591,1.24053 -4.64548,1.76986 -1.38957,0.52933 -3.45926,1.33947 -4.5993,1.80032 -3.90008,1.57654 -5.62473,1.78563 -8.76665,1.06284 z m 6.10542,-0.39706 c 0.62366,-0.19874 1.54053,-0.54985 2.03749,-0.78025 0.73805,-0.34216 0.83568,-0.4308 0.533,-0.48387 -0.20381,-0.0357 -0.71981,0.051 -1.14668,0.1928 -1.25998,0.4185 -3.43239,0.74342 -4.97207,0.74366 -1.41482,2.2e-4 -3.40764,-0.4382 -4.98697,-1.09714 -0.95694,-0.39925 -2.9058,-1.82482 -3.72953,-2.72812 -1.11561,-1.22336 -2.25743,-3.34333 -2.57885,-4.78808 -0.71795,-3.22704 0.45794,-7.22943 2.82103,-9.60195 0.8637,-0.86714 3.12888,-2.2517 4.69638,-2.8706 0.8059,-0.31819 2.4555,-0.94415 3.66577,-1.39102 1.21027,-0.44687 3.66748,-1.37142 5.46048,-2.05456 1.79299,-0.68315 5.1304,-1.93898 7.41647,-2.79074 2.28606,-0.85177 4.59658,-1.71953 5.13448,-1.92837 0.5379,-0.20884 1.16137,-0.43472 1.38549,-0.50195 0.22413,-0.0672 2.167886,-0.81513 4.319486,-1.66199 2.1516,-0.84686 4.97556,-1.9272 6.27548,-2.40075 1.29992,-0.47354 4.05054,-1.500623 6.11248,-2.282403 6.89258,-2.61328 7.60469,-2.80066 10.10319,-2.65851 1.44499,0.0822 3.7002,0.77608 5.37544,1.65389 3.52729,1.84826 5.75616,6.291503 5.16154,10.289473 -0.21224,1.42703 -1.03846,3.64359 -1.71792,4.60883 -1.84028,2.61425 -3.12741,3.50916 -7.56755,5.2615 -2.50093,0.98702 -2.60888,1.36346 -0.18651,0.65043 2.65908,-0.78271 5.35696,-2.10825 6.34048,-3.11527 1.05203,-1.07715 1.95199,-2.30837 2.06452,-2.82441 0.0607,-0.27855 0.28208,-0.71114 0.49187,-0.96131 0.20979,-0.25018 0.62206,-1.20372 0.91615,-2.11899 0.46747,-1.45489 0.53241,-1.86909 0.51642,-3.29413 -0.0318,-2.83253 -1.02549,-5.15551 -3.1286,-7.313593 -1.9815,-2.03329 -3.51997,-2.8205 -6.63308,-3.39403 -3.45498,-0.63651 -4.66015,-0.39418 -11.89895,2.3926 -1.79299,0.69026 -4.03016,1.53461 -4.97148,1.87633 -0.94132,0.341723 -3.10514,1.168263 -4.80848,1.836773 -4.80077,1.88413 -10.435886,4.0235 -12.143466,4.61025 -0.85167,0.29264 -2.02526,0.73042 -2.60799,0.97284 -0.58272,0.24242 -2.04971,0.79118 -3.25998,1.21948 -1.21027,0.4283 -2.82397,1.04002 -3.58599,1.35937 -0.76202,0.31935 -3.18183,1.24983 -5.37734,2.06772 -4.64887,1.73185 -5.98027,2.45984 -7.88221,4.30988 -1.65953,1.61424 -2.29617,2.5296 -2.8099,4.04002 -1.29788,3.81594 -0.65472,7.84104 1.70623,10.678 0.89366,1.07384 2.96053,2.80352 3.9583,3.31255 0.55231,0.28177 3.3696,1.09053 4.69994,1.34922 0.96876,0.18838 3.68839,-0.0289 4.80143,-0.38358 z m 7.91252,-3.26143 c 0,-0.0897 -0.11435,-0.163 -0.25412,-0.163 -0.13976,0 -0.20878,0.0733 -0.15338,0.163 0.0554,0.0897 0.16976,0.163 0.25412,0.163 0.0844,0 0.15338,-0.0734 0.15338,-0.163 z m -11.1247,-0.27536 c -0.15689,-0.041 -0.41361,-0.041 -0.5705,0 -0.15689,0.041 -0.0285,0.0746 0.28525,0.0746 0.31377,0 0.44213,-0.0335 0.28525,-0.0746 z m 1.22249,0.004 c -0.11206,-0.0452 -0.29544,-0.0452 -0.4075,0 -0.11206,0.0452 -0.0204,0.0822 0.20375,0.0822 0.22413,0 0.31581,-0.037 0.20375,-0.0822 z m -9.33171,-0.26905 c 0,-0.0281 -0.23839,-0.26644 -0.52975,-0.52975 l -0.52975,-0.47874 0.47875,0.52975 c 0.44625,0.4938 0.58075,0.60467 0.58075,0.47874 z m 11.65445,-0.75675 c 1.34862,-0.65214 2.78654,-2.01125 3.39202,-3.20611 1.8688,-3.68791 0.8374,-8.10548 -2.3776,-10.18344 -2.12064,-1.37064 -5.14072,-1.62956 -7.40589,-0.63494 -0.92572,0.40648 -2.88494,1.99 -3.49592,2.82556 -1.62671,2.2246 -1.95503,5.29594 -0.80885,7.56651 0.85608,1.69588 3.0981,3.4309 5.23576,4.05177 0.45524,0.13223 1.41369,0.19775 2.52649,0.17272 1.66233,-0.0374 1.87615,-0.0805 2.93399,-0.59207 z m -4.48248,-0.20616 c -2.05074,-0.29249 -4.81822,-2.22976 -5.52183,-3.86536 -0.19111,-0.44424 -0.43068,-1.52691 -0.53239,-2.40595 -0.1585,-1.36981 -0.14662,-1.74627 0.0831,-2.63394 0.33414,-1.29105 0.65551,-1.7459 1.938,-2.74295 2.11614,-1.64515 2.9426,-1.9182 5.48844,-1.81331 2.12321,0.0875 3.0591,0.46509 4.5317,1.82846 3.19186,2.95511 2.77785,8.0296 -0.85168,10.43874 -1.51099,1.00295 -3.39883,1.44199 -5.13537,1.19431 z m 2.47772,-0.3105 c 2.04494,-0.43423 3.90262,-1.85076 4.78559,-3.64915 0.44221,-0.90065 0.47916,-1.11448 0.47916,-2.77255 0,-1.70106 -0.0284,-1.85442 -0.53473,-2.88262 -1.65193,-3.35486 -5.81303,-4.64911 -9.29495,-2.89104 -2.511,1.26784 -3.57207,2.66277 -3.74168,4.91897 -0.0893,1.18802 0.16951,2.84224 0.56752,3.62724 0.76233,1.50355 2.52511,2.92068 4.35483,3.50093 1.1431,0.3625 2.16448,0.40724 3.38426,0.14822 z m -2.79987,-1.22846 c -1.5926,-0.55727 -3.2026,-1.91704 -3.90877,-3.30126 -0.4227,-0.82855 -0.44441,-2.39485 -0.0486,-3.50749 0.57683,-1.6216 2.42168,-3.09716 4.40374,-3.52223 0.88838,-0.19053 2.64821,0.0862 3.6891,0.58017 0.73682,0.34965 2.32115,2.02041 2.65794,2.80295 0.34747,0.80737 0.35506,2.57764 0.0138,3.22564 -0.14174,0.26916 -0.41192,0.62894 -0.6004,0.79951 -0.18848,0.17057 -0.34269,0.4202 -0.34269,0.55473 0,0.78992 -1.60446,1.93508 -3.34718,2.389 -1.18179,0.30782 -1.58687,0.30444 -2.51695,-0.021 z m 2.88098,-0.46005 c 1.44742,-0.4609 2.23001,-0.89451 2.48948,-1.37934 0.25866,-0.4833 -0.006,-0.41229 -0.74024,0.19829 -0.79275,0.65962 -1.43745,0.87639 -3.00408,1.01009 l -1.22249,0.10433 -1.10025,-0.847 c -0.64976,-0.50021 -1.10024,-0.96928 -1.10024,-1.14564 0,-0.24277 -0.0887,-0.2809 -0.47387,-0.20386 -0.38356,0.0767 -0.52484,0.017 -0.74127,-0.31332 -0.14707,-0.22445 -0.28224,-0.61662 -0.30038,-0.87148 -0.0294,-0.41318 0.0286,-0.47239 0.53567,-0.5465 0.74549,-0.10897 0.86397,-0.57084 0.18145,-0.70735 -0.65207,-0.13041 -0.91542,-0.6269 -0.63525,-1.19759 0.48751,-0.99301 1.21811,-0.90069 1.52488,0.19269 l 0.1733,0.61769 0.35673,-0.45351 c 0.4616,-0.58682 0.45184,-0.66093 -0.13247,-1.00609 -0.98074,-0.57934 -0.75634,-1.23248 0.62308,-1.81355 1.82914,-0.7705 2.49922,-0.58966 2.57169,0.69406 0.0476,0.84383 0.37779,1.31654 1.33092,1.90562 0.61665,0.3811 1.24003,0.30644 1.5002,-0.1797 0.28478,-0.53211 0.0426,-0.84664 -0.56432,-0.73279 -0.71919,0.13492 -1.49163,-0.28593 -1.831,-0.99758 -0.20402,-0.42785 -0.22356,-0.61052 -0.0806,-0.7535 0.28708,-0.28708 1.46589,0.12417 1.97592,0.68933 0.23308,0.25827 0.73149,0.7917 1.10759,1.1854 1.14018,1.19354 1.16354,1.99797 0.0698,2.402 -0.73972,0.27325 -1.0874,0.66339 -0.93805,1.05259 0.063,0.16407 0.34378,0.21716 1.00673,0.19033 0.78997,-0.032 0.95089,-0.0941 1.14304,-0.44119 0.123,-0.22219 0.22552,-0.84408 0.22782,-1.38198 0.008,-1.83206 -1.03264,-3.27689 -3.08355,-4.2819 -0.78269,-0.38355 -1.09742,-0.44152 -2.36956,-0.43645 -1.29003,0.005 -1.59549,0.0662 -2.53214,0.50579 -0.58582,0.27497 -1.29074,0.72555 -1.56649,1.00129 -1.16134,1.16135 -1.6602,3.27952 -1.11104,4.7175 0.43351,1.13511 1.72632,2.4257 3.08608,3.08078 1.36657,0.65836 1.93303,0.68065 3.62292,0.14254 z m -5.03298,-5.5135 c 0.0839,-0.43546 -0.28309,-0.81587 -0.56297,-0.58359 -0.12258,0.10173 -0.22174,0.26767 -0.22037,0.36876 10e-4,0.10108 0.0747,0.0738 0.163,-0.0607 0.14267,-0.21733 0.17827,-0.21733 0.32046,0 0.11542,0.17642 0.0814,0.30531 -0.12225,0.46289 -0.26229,0.20298 -0.25933,0.21435 0.0419,0.16113 0.17827,-0.0315 0.34936,-0.18831 0.38021,-0.34848 z m 6.22314,-1.79787 c 0,-0.22684 -0.65828,-0.59666 -1.06205,-0.59666 -0.3364,0 -0.10558,0.48719 0.31047,0.6553 0.50889,0.20562 0.75158,0.18669 0.75158,-0.0586 z m 12.0178,9.24782 c -0.0542,-0.0542 -0.19475,-0.0599 -0.31241,-0.0129 -0.13003,0.052 -0.0914,0.0907 0.0985,0.0985 0.17183,0.007 0.2681,-0.0314 0.21393,-0.0856 z m 1.02215,-0.3216 0.40749,-0.24552 -0.40749,0.10802 c -0.22413,0.0594 -0.51753,0.17026 -0.652,0.24634 -0.21733,0.12296 -0.21733,0.13823 0,0.13751 0.13447,-4.5e-4 0.42787,-0.11131 0.652,-0.24635 z m 2.45596,-5.25893 c 1.29388,-0.43397 3.196036,-1.12762 4.227006,-1.54146 1.03097,-0.41384 2.57131,-1.00621 3.423,-1.31638 2.41199,-0.87843 4.5258,-1.69677 5.94947,-2.30326 0.7172,-0.30554 1.81745,-0.75069 2.44499,-0.98924 1.18655,-0.45104 1.96591,-1.0213 1.58823,-1.16211 -0.11262,-0.042 -0.15355,-0.16176 -0.091,-0.26616 0.0726,-0.12118 0.0211,-0.1148 -0.14242,0.0176 -0.14092,0.11411 -0.87016,0.41728 -1.62053,0.67371 -0.75037,0.25643 -2.46456,0.90925 -3.8093,1.45071 -2.27413,0.91569 -4.98368,1.94726 -9.779966,3.7234 -3.65452,1.35332 -5.27231,2.03847 -5.36138,2.27059 -0.16031,0.41775 0.73171,0.26098 3.17186,-0.55744 z m -29.7209,-1.12258 c -0.0353,-0.33819 -0.0647,-0.10144 -0.0655,0.52611 -7.3e-4,0.62755 0.0281,0.90425 0.0641,0.61489 0.036,-0.28937 0.0366,-0.80281 10e-4,-1.141 z m 28.22122,0.5316 c 0.95326,-0.40041 2.43003,-0.97993 3.2817,-1.28783 0.851666,-0.3079 2.318656,-0.85145 3.259986,-1.2079 0.94132,-0.35645 2.32727,-0.88028 3.07987,-1.16407 1.60363,-0.6047 1.91033,-0.75671 2.47708,-1.22767 0.23236,-0.19308 0.85583,-0.44573 1.38549,-0.56143 0.52967,-0.1157 1.36646,-0.34453 1.85953,-0.50852 0.49307,-0.16398 1.43223,-0.45484 2.08701,-0.64636 0.65478,-0.19151 1.22669,-0.44249 1.27091,-0.55772 0.12139,-0.31633 -0.37398,-1.4576 -2.42582,-5.58881 -1.02837,-2.07054 -1.99988,-4.10532 -2.15891,-4.52173 -0.35417,-0.92737 -1.10642,-1.61483 -1.60349,-1.46537 -0.1915,0.0576 -1.44843,0.52637 -2.79318,1.04176 -1.34475,0.5154 -3.47189,1.32575 -4.72699,1.80079 -1.255086,0.47503 -3.602276,1.39193 -5.215976,2.03753 -1.61369,0.64561 -3.44743,1.34209 -4.07498,1.54773 -1.56575,0.51307 -2.41602,0.88847 -2.73514,1.20759 -0.39356,0.39356 -0.22712,0.99712 0.94745,3.43555 0.56139,1.16545 1.61903,3.36594 2.35033,4.88998 1.33878,2.79008 1.72716,3.50449 1.90515,3.50449 0.0532,0 0.87672,-0.32761 1.82998,-0.72801 z m -1.54947,-0.54945 c -0.16426,-0.11166 -1.57968,-3.03546 -3.327,-6.87251 -1.36934,-3.00703 -1.39171,-3.0671 -1.20842,-3.24456 0.0864,-0.0837 1.33818,-0.5542 2.7817,-1.04561 2.43833,-0.83006 5.38239,-1.93461 7.318376,-2.74571 0.44825,-0.18779 1.65852,-0.65452 2.68949,-1.03718 1.03098,-0.38266 2.7004,-1.03328 3.70982,-1.44582 1.00943,-0.41254 1.94294,-0.75008 2.07449,-0.75008 0.13154,0 0.34872,0.1672 0.48262,0.37156 0.6151,0.93877 4.62605,9.45468 4.54841,9.65702 -0.0481,0.12539 -0.24574,0.27436 -0.43917,0.33106 -0.19343,0.0567 -0.86514,0.32393 -1.49269,0.59385 -0.62755,0.26991 -1.50774,0.64152 -1.95599,0.8258 -0.44825,0.18428 -1.1084,0.46311 -1.467,0.61961 -0.35859,0.15651 -1.49248,0.55483 -2.51974,0.88516 -1.02726,0.33032 -2.60429,0.89542 -3.5045,1.25576 -2.760036,1.10481 -7.522336,2.71589 -7.690396,2.60165 z m 13.646016,-5.44867 c -0.22656,-0.11559 -0.6778,-0.73364 -1.0595,-1.45115 -0.80573,-1.51458 -1.1394,-1.9066 -0.46235,-0.54319 0.26712,0.5379 0.61424,1.25306 0.77139,1.58925 0.22483,0.48096 0.37731,0.61073 0.71541,0.60884 l 0.42967,-0.002 z m 2.02576,-0.53476 c 0.47596,-0.2105 0.91344,-0.46047 0.97217,-0.55551 0.0587,-0.095 -0.048,-0.39025 -0.23729,-0.65602 -0.5399,-0.75822 -1.91293,-3.74047 -2.17793,-4.73053 -0.13198,-0.49307 -0.24663,-0.77586 -0.25478,-0.62842 -0.0309,0.55899 0.66031,2.40486 1.53733,4.10556 0.72467,1.40527 0.87137,1.81282 0.71873,1.99675 -0.10549,0.1271 -0.24675,0.23109 -0.31393,0.23109 -0.0672,0 -0.51663,0.18453 -0.99879,0.41006 -1.07318,0.502 -0.44727,0.35849 0.75449,-0.17298 z m -4.13773,-2.9551 c -0.19215,-0.33043 -0.23855,-0.22467 -0.0813,0.18523 0.0559,0.14567 0.13597,0.23052 0.17794,0.18855 0.042,-0.042 -0.002,-0.21017 -0.0967,-0.37378 z m -0.48661,-3.76736 c -0.1176,-0.0392 -0.29131,0.006 -0.38603,0.10095 -0.12095,0.12095 -0.0573,0.14217 0.21381,0.0713 0.22041,-0.0576 0.2943,-0.13152 0.17222,-0.17221 z m 1.40056,-0.29608 c -0.0542,-0.0542 -0.19475,-0.06 -0.31241,-0.0129 -0.13003,0.052 -0.0914,0.0907 0.0985,0.0985 0.17182,0.007 0.2681,-0.0315 0.21393,-0.0856 z m 1.43635,-0.21667 c -0.0591,-0.0956 -0.23148,-0.16534 -0.38308,-0.15494 -0.24849,0.017 -0.24754,0.0262 0.01,0.0935 0.15689,0.041 0.28525,0.15473 0.28525,0.25275 0,0.098 0.044,0.1342 0.0978,0.0804 0.0538,-0.0538 0.0495,-0.17606 -0.01,-0.27167 z m 9.52876,10.91011 c 0.2107,-0.13617 0.2064,-0.15835 -0.0311,-0.1605 -0.1516,-0.001 -0.32097,0.0709 -0.37637,0.1605 -0.1275,0.20629 0.0883,0.20629 0.4075,0 z m 3.42298,-1.30399 c 0,-0.20423 -0.17298,-0.20423 -0.48899,0 -0.19772,0.12777 -0.17432,0.15848 0.12224,0.1605 0.20172,10e-4 0.36675,-0.0709 0.36675,-0.1605 z M 90.781384,118.7887 c -0.1379,-0.25446 -0.25366,-0.41109 -0.25725,-0.34807 -0.011,0.19375 0.36818,0.95054 0.44021,0.87851 0.0373,-0.0373 -0.0451,-0.27597 -0.18296,-0.53044 z m -17.62321,0.10784 c 0.16226,-0.1793 0.25835,-0.326 0.21352,-0.326 -0.0448,0 -0.21426,0.1467 -0.37652,0.326 -0.16226,0.1793 -0.25835,0.326 -0.21352,0.326 0.0448,0 0.21426,-0.1467 0.37652,-0.326 z m -3.1577,-0.44825 c 0.20275,-0.25852 0.19699,-0.26429 -0.0615,-0.0615 -0.15688,0.12304 -0.28525,0.2514 -0.28525,0.28525 0,0.13416 0.13386,0.0478 0.34679,-0.22371 z m 3.91199,-0.32599 c 0.20275,-0.25853 0.19698,-0.2643 -0.0615,-0.0615 -0.27152,0.21294 -0.35786,0.3468 -0.22371,0.3468 0.0338,0 0.16221,-0.12837 0.28525,-0.28525 z m -2.71028,-1.01875 c 0.35016,-0.3586 0.59998,-0.652 0.55516,-0.652 -0.0448,0 -0.368,0.2934 -0.71816,0.652 -0.35016,0.3586 -0.59999,0.652 -0.55516,0.652 0.0448,0 0.368,-0.2934 0.71816,-0.652 z m 55.220306,-2.84167 c 2.67304,-0.94337 4.39194,-2.77946 5.07698,-5.4231 1.00995,-3.89752 -1.18289,-7.53587 -5.27383,-8.75034 -1.09471,-0.324983 -3.21816,-0.338143 -4.38642,-0.0272 -1.53273,0.40797 -3.73883,1.96856 -4.51022,3.19053 -1.19953,1.90017 -1.38533,4.88154 -0.43129,6.92029 1.58963,3.39695 6.05505,5.31434 9.52478,4.0898 z m -3.91226,-0.50618 c -2.26884,-0.61109 -4.28359,-2.21614 -4.93731,-3.93332 -0.54767,-1.43861 -0.73956,-3.57225 -0.4201,-4.67114 0.25806,-0.88773 1.33627,-2.45548 2.07109,-3.01146 0.47641,-0.36046 2.11299,-1.08178 2.99708,-1.32096 1.59914,-0.43262 3.92922,-0.0725 5.50477,0.85086 2.15657,1.26384 3.45861,4.02678 3.06103,6.49552 -0.45123,2.80188 -2.64804,5.05518 -5.51758,5.65946 -1.1001,0.23167 -1.69831,0.21672 -2.75898,-0.069 z m 4.4567,-0.81291 c 1.42063,-0.72108 2.50817,-1.81156 3.13018,-3.13867 0.38273,-0.81657 0.43685,-1.13439 0.43685,-2.56546 0,-1.51656 -0.0383,-1.71113 -0.53473,-2.71961 -1.24741,-2.53385 -4.28023,-4.05966 -7.1305,-3.58736 -1.54837,0.25657 -3.37605,1.22307 -4.2522,2.24861 -0.8627,1.00981 -1.14727,1.65722 -1.28691,2.9278 -0.3677,3.34567 1.4963,6.18188 4.7769,7.26839 0.70834,0.2346 1.25454,0.29197 2.29586,0.24114 1.18145,-0.0577 1.52857,-0.14901 2.56455,-0.67484 z m -4.31572,-0.57702 c -0.8499,-0.16903 -2.1084,-0.94508 -2.78821,-1.71933 -1.23202,-1.40319 -1.63249,-3.27914 -1.00356,-4.70096 0.19034,-0.43028 0.34606,-0.90629 0.34606,-1.05781 0,-0.28247 1.69576,-1.90188 2.33384,-2.22877 1.30007,-0.66601 3.6236,-0.59844 5.09709,0.14823 0.98911,0.50122 2.09888,1.66999 2.54647,2.68186 0.41308,0.93383 0.343,2.52531 -0.16142,3.66562 -1.02194,2.31029 -3.81661,3.71903 -6.37027,3.21116 z m 3.47272,-0.65181 c 0.90674,-0.33926 2.14602,-1.48327 2.61351,-2.41262 0.37353,-0.74255 0.55158,-2.9916 0.23141,-2.92304 -0.16533,0.0354 -0.22788,-0.13018 -0.22788,-0.60321 0,-2.0311 -3.6068,-3.86222 -6.1452,-3.11982 -1.17631,0.34404 -2.87055,1.66201 -3.17587,2.47054 -0.11792,0.31228 -0.3212,0.84285 -0.45174,1.17903 -0.30562,0.78708 -0.30765,1.26264 -0.01,2.25241 0.40064,1.33046 1.95489,2.8722 3.4577,3.42988 0.78403,0.29094 2.54712,0.16104 3.70767,-0.27317 z m -3.8586,-0.10579 c -0.57858,-0.0879 -1.15234,-0.80917 -1.03034,-1.29523 0.0909,-0.36211 0.044,-0.42961 -0.68953,-0.99267 -0.25921,-0.19896 -0.37805,-0.4692 -0.39306,-0.8938 -0.0154,-0.43576 -0.10669,-0.63565 -0.32139,-0.70379 -0.79971,-0.25382 -0.73061,-1.07374 0.21323,-2.53033 0.55931,-0.86317 1.52552,-1.44745 2.92847,-1.77088 1.06278,-0.24501 1.27463,-0.21267 1.47405,0.22501 0.14871,0.32639 0.1199,0.50191 -0.16036,0.97691 l -0.34164,0.57904 0.92644,0.59264 c 1.33187,0.85198 1.67947,0.94474 2.40473,0.64171 0.80622,-0.33686 1.17354,-0.32057 1.3778,0.0611 0.31403,0.58677 0.18936,1.23137 -0.36683,1.89662 -0.29457,0.35233 -0.66239,0.84136 -0.81738,1.08674 -0.155,0.24539 -0.5558,0.58599 -0.89068,0.7569 -0.33487,0.17092 -0.75556,0.47538 -0.93486,0.6766 -0.63124,0.70838 -1.75807,0.93965 -3.37865,0.69344 z m -1.92133,-4.73283 c -0.004,-0.41394 -0.25819,-0.75235 -0.46828,-0.62251 -0.19893,0.12294 -0.24469,0.62696 -0.0725,0.79909 0.21234,0.21234 0.54329,0.10429 0.54083,-0.17658 z m 1.04325,-0.27951 c 0.14478,-0.22097 0.26324,-0.47671 0.26324,-0.56832 0,-0.15684 -1.13503,-0.72021 -1.23985,-0.61539 -0.0814,0.0814 0.49599,1.58547 0.60857,1.58547 0.0576,0 0.22325,-0.18079 0.36804,-0.40176 z m 1.00666,-2.38528 c 0.11603,-0.18775 0.066,-0.18487 -0.55609,0.032 -0.28233,0.0984 -0.51333,0.24131 -0.51333,0.31752 0,0.16674 0.94029,-0.14057 1.06942,-0.34951 z m 3.7776,1.68269 c -0.66648,-0.14236 -1.09241,-1.99264 -0.4587,-1.99264 0.5806,0 2.20811,1.44488 1.93506,1.71793 -0.1587,0.1587 -1.15316,0.34374 -1.47636,0.27471 z m 1.02096,-0.51154 c 0,-0.0819 -0.31173,-0.37869 -0.69275,-0.65955 -0.74537,-0.54943 -0.93038,-0.43845 -0.62185,0.37304 0.13619,0.35821 0.2674,0.4354 0.74007,0.4354 0.31599,0 0.57453,-0.067 0.57453,-0.14889 z m 5.00294,1.33374 c -0.0413,-0.15859 -0.0779,-0.0683 -0.0812,0.20065 -0.003,0.26895 0.0305,0.39871 0.0751,0.28835 0.0447,-0.11036 0.0474,-0.3304 0.006,-0.489 z m -59.190636,43.23767 c 0.38867,-0.29398 0.17479,-0.29589 -0.5801,-0.005 -0.51855,0.1997 -0.53252,0.22083 -0.1534,0.2321 0.2294,0.007 0.55947,-0.0953 0.7335,-0.22691 z m 1.3759,-0.49418 c 0.52315,-0.29907 0.0798,-0.30364 -0.5705,-0.006 -0.37858,0.17335 -0.41539,0.22559 -0.163,0.23137 0.1793,0.004 0.50937,-0.0974 0.7335,-0.22548 z m 2.86378,-1.24049 c 0.0959,-0.0748 0.67544,-0.25226 1.28795,-0.39431 1.27179,-0.29495 2.61197,-0.92063 2.17454,-1.01522 -0.25372,-0.0549 -4.53328,1.54382 -4.53328,1.69346 0,0.10162 0.8736,-0.13002 1.07079,-0.28393 z m 7.10796,-1.83962 c 0.1503,-0.003 0.23052,-0.0744 0.17826,-0.15899 -0.0542,-0.0876 0.0562,-0.11419 0.25669,-0.0618 0.19344,0.0506 0.31426,0.0314 0.26849,-0.0427 -0.0458,-0.0741 0.17909,-0.22123 0.49969,-0.32704 0.32061,-0.10581 0.5495,-0.2258 0.50864,-0.26666 -0.0868,-0.0868 -2.71855,0.90657 -2.71855,1.0261 0,0.0444 0.16504,0.0257 0.36675,-0.0415 0.20171,-0.0672 0.48972,-0.12452 0.64003,-0.12741 z m 2.95082,-1.13584 c 0.14902,-0.0219 0.31729,-0.0861 0.37393,-0.14275 0.0566,-0.0566 0.283,-0.0345 0.50303,0.0491 0.29199,0.11101 0.36864,0.10126 0.28375,-0.0361 -0.0795,-0.1287 -0.005,-0.15911 0.23541,-0.0962 0.22537,0.0589 0.3132,0.0297 0.2445,-0.0815 -0.0687,-0.11116 0.0191,-0.14044 0.24449,-0.0815 0.22538,0.0589 0.31321,0.0297 0.2445,-0.0815 -0.0687,-0.11116 0.0191,-0.14044 0.2445,-0.0815 0.22761,0.0595 0.31344,0.03 0.24325,-0.0835 -0.0693,-0.11207 -0.007,-0.1367 0.17124,-0.0682 0.15417,0.0592 0.23827,0.0403 0.18737,-0.0421 -0.11974,-0.19375 0.50361,-0.39267 0.75113,-0.2397 0.12614,0.078 0.14538,0.0456 0.0575,-0.0966 -0.0985,-0.15931 -0.0425,-0.19042 0.21931,-0.12195 0.19332,0.0505 0.35149,0.0176 0.35149,-0.0733 0,-0.0909 0.11002,-0.12296 0.2445,-0.0714 0.13447,0.0516 0.2445,0.0251 0.2445,-0.0589 0,-0.084 0.12836,-0.10671 0.28525,-0.0504 0.15688,0.0563 0.22793,0.0395 0.15788,-0.0374 -0.0701,-0.0769 0.04,-0.23265 0.2445,-0.34619 0.34906,-0.19379 0.35187,-0.20783 0.0459,-0.22895 -0.1793,-0.0124 0.0774,-0.15258 0.5705,-0.31158 0.61019,-0.19676 1.0166,-0.24364 1.27256,-0.14677 0.27106,0.10258 0.34359,0.0898 0.25976,-0.0459 -0.0795,-0.12868 -0.005,-0.15912 0.23518,-0.0963 0.19332,0.0506 0.35149,0.0176 0.35149,-0.0733 0,-0.0908 0.11003,-0.12295 0.2445,-0.0713 0.13448,0.0516 0.2445,0.0251 0.2445,-0.0589 0,-0.084 0.12206,-0.10593 0.27124,-0.0487 0.17367,0.0666 0.2316,0.04 0.16106,-0.0742 -0.13241,-0.21425 1.62412,-0.91304 1.88688,-0.75065 0.11021,0.0681 0.12859,0.0319 0.0491,-0.0968 -0.0945,-0.15297 -0.0331,-0.17583 0.23972,-0.0892 0.26644,0.0846 0.33335,0.0623 0.2445,-0.0815 -0.0888,-0.14376 -0.0164,-0.16792 0.26484,-0.0883 0.25736,0.0729 0.31481,0.0594 0.17136,-0.0403 -0.17609,-0.12239 -0.16899,-0.19678 0.0386,-0.40435 0.36566,-0.36566 1.829116,-0.81676 2.385036,-0.73516 0.4038,0.0593 0.44426,0.0337 0.27398,-0.17284 -0.17391,-0.21097 -0.15047,-0.21609 0.18091,-0.0395 0.20939,0.11159 0.42332,0.16028 0.47541,0.10819 0.0521,-0.0521 0.009,-0.0947 -0.0955,-0.0947 -0.10459,0 -0.19016,-0.0777 -0.19016,-0.17262 0,-0.0949 0.0734,-0.12728 0.163,-0.0719 0.0897,0.0554 0.163,0.031 0.163,-0.0542 0,-0.21871 0.82669,-0.44673 2.119,-0.58447 0.31377,-0.0334 0.62984,-0.0685 0.70236,-0.0778 0.0725,-0.009 0.0817,-0.0982 0.0203,-0.19746 -0.076,-0.12294 0.005,-0.14335 0.25529,-0.064 0.26644,0.0846 0.33335,0.0623 0.2445,-0.0815 -0.0888,-0.14376 -0.0219,-0.16607 0.2445,-0.0815 0.27485,0.0872 0.33457,0.0642 0.23817,-0.0917 -0.0913,-0.1477 -0.0504,-0.17815 0.14064,-0.10483 0.1481,0.0568 0.26147,0.051 0.25193,-0.013 -0.0568,-0.3811 0.1089,-0.51199 0.87701,-0.69275 0.47066,-0.11076 1.12656,-0.33745 1.45756,-0.50376 0.33181,-0.16671 0.72774,-0.25405 0.88249,-0.19467 0.18933,0.0727 0.24269,0.0463 0.16396,-0.0811 -0.0717,-0.11608 -0.0341,-0.15712 0.0978,-0.10653 0.11795,0.0453 0.82922,-0.14206 1.58059,-0.41628 1.65523,-0.60408 2.00666,-0.78396 1.89251,-0.96866 -0.0908,-0.14692 0.82078,-0.42125 1.1786,-0.3547 0.11206,0.0208 0.20375,-0.0364 0.20375,-0.12713 0,-0.0908 0.12205,-0.11819 0.27124,-0.0609 0.17156,0.0658 0.23138,0.0396 0.16277,-0.0714 -0.0702,-0.11357 0.0156,-0.14304 0.24325,-0.0835 0.26202,0.0685 0.31801,0.0374 0.21954,-0.12188 -0.0879,-0.14226 -0.0687,-0.17462 0.0575,-0.0967 0.21639,0.13374 0.91508,-0.0448 0.76452,-0.19537 -0.19619,-0.19619 1.28292,-0.63993 1.60161,-0.48049 0.22952,0.11483 0.2736,0.10187 0.17827,-0.0524 -0.0919,-0.14868 -0.0301,-0.17969 0.22505,-0.11296 0.21573,0.0564 0.31222,0.0281 0.24957,-0.0733 -0.0641,-0.10372 0.0284,-0.12383 0.24837,-0.054 0.24187,0.0768 0.33661,0.0467 0.30566,-0.0971 -0.0606,-0.28162 2.60531,-1.30499 3.10656,-1.19251 0.27028,0.0606 0.34512,0.0283 0.25851,-0.11187 -0.0846,-0.13683 -0.0362,-0.16436 0.1578,-0.0899 0.18709,0.0718 0.24148,0.0455 0.16425,-0.0795 -0.0785,-0.12706 -0.003,-0.15739 0.23626,-0.0948 0.22761,0.0595 0.31344,0.03 0.24325,-0.0835 -0.0693,-0.11207 -0.007,-0.1367 0.17124,-0.0682 0.15384,0.059 0.24197,0.0463 0.19586,-0.0283 -0.0981,-0.15867 1.03392,-0.53863 1.2348,-0.41448 0.0749,0.0463 0.13611,-0.001 0.13611,-0.10594 0,-0.1048 0.11347,-0.14652 0.25296,-0.093 0.164,0.0629 0.21236,0.0314 0.13751,-0.0897 -0.0785,-0.12706 -0.003,-0.15739 0.23626,-0.0948 0.19344,0.0506 0.31587,0.034 0.27206,-0.0369 -0.0438,-0.0709 0.14441,-0.22169 0.41827,-0.33512 0.31291,-0.12961 0.42752,-0.24977 0.30844,-0.32336 -0.11668,-0.0721 -0.0196,-0.15975 0.25274,-0.2281 0.24322,-0.0611 0.40878,-0.14443 0.36791,-0.1853 -0.0409,-0.0409 -0.31331,0.009 -0.60544,0.11086 -0.40282,0.14042 -0.47812,0.22277 -0.31168,0.34087 0.15645,0.11101 0.10972,0.13148 -0.16274,0.0713 -0.49269,-0.10883 -3.00079,0.83511 -2.85325,1.07384 0.0636,0.10289 0.0301,0.1259 -0.0823,0.0565 -0.24752,-0.15297 -0.87087,0.0459 -0.75112,0.2397 0.0508,0.0822 -0.0101,0.1101 -0.13524,0.0621 -0.12517,-0.048 -0.81934,0.17286 -1.54262,0.49087 -0.72327,0.318 -1.36048,0.57819 -1.41601,0.57819 -0.0555,0 -1.07054,0.36904 -2.25559,0.82008 -1.18504,0.45104 -2.75801,1.04766 -3.49549,1.32582 -0.73748,0.27816 -1.30584,0.56243 -1.26302,0.63172 0.0428,0.0693 -0.0804,0.0846 -0.27386,0.034 -0.23922,-0.0626 -0.31478,-0.0322 -0.23626,0.0948 0.0722,0.1168 0.0298,0.15395 -0.11302,0.0991 -0.12566,-0.0482 -0.77128,0.12794 -1.43471,0.39146 -1.28613,0.51088 -3.33382,1.2811 -5.85171,2.20106 -1.41209,0.51593 -4.30434,1.61491 -10.024466,3.80905 -1.16545,0.44705 -2.61463,0.97669 -3.22041,1.17699 -0.6763,0.22362 -1.05978,0.43153 -0.99356,0.53868 0.0644,0.10412 0.0309,0.12692 -0.0831,0.0565 -0.1712,-0.1058 -2.93233,0.85566 -4.17895,1.45517 -0.4408,0.21198 -0.44789,0.22652 -0.0719,0.14745 0.2294,-0.0482 0.53901,-0.1056 0.68803,-0.12747 z m 27.969896,-3.57134 c 0.0823,-0.0823 0.53636,-0.19761 1.00895,-0.25618 1.14618,-0.14206 1.28354,-0.514 0.18982,-0.514 -1.14978,0 -1.67416,0.50274 -1.64952,1.58146 l 0.0179,0.78203 0.1416,-0.72181 c 0.0779,-0.39699 0.20896,-0.78917 0.29129,-0.8715 z m 17.78859,-0.0373 c 0.64277,-0.33239 1.00186,-0.91157 1.08745,-1.75394 0.17663,-1.73847 -1.67675,-2.87805 -3.42387,-2.10522 -0.95906,0.42424 -1.4124,1.13336 -1.41323,2.21058 -5.3e-4,0.69852 0.069,0.86143 0.56941,1.33334 0.31351,0.29568 0.73527,0.57304 0.93725,0.61637 0.58091,0.12461 1.71384,-0.0275 2.24299,-0.30113 z m -2.24594,-0.34774 c -0.28895,-0.12351 -0.68932,-0.94319 -0.68932,-1.41124 0,-0.21468 0.14101,-0.51794 0.31335,-0.67391 0.35737,-0.32342 1.42345,-0.5093 2.03733,-0.35522 0.48203,0.12098 0.97145,0.95069 0.82779,1.40332 -0.19137,0.60295 -1.86928,1.30201 -2.48915,1.03705 z m 12.14688,0.48054 c -0.15689,-0.041 -0.41361,-0.041 -0.5705,0 -0.15688,0.041 -0.0285,0.0745 0.28525,0.0745 0.31378,0 0.44214,-0.0335 0.28525,-0.0745 z m -9.06642,-0.33589 c 0.20275,-0.25853 0.19698,-0.26429 -0.0615,-0.0615 -0.15689,0.12303 -0.28525,0.2514 -0.28525,0.28524 0,0.13416 0.13385,0.0478 0.34679,-0.2237 z m 10.4007,-0.34397 c 0.76013,-0.36278 1.4854,-1.31472 1.58607,-2.08178 0.15747,-1.19989 -1.12287,-2.34198 -2.62548,-2.34198 -0.86846,0 -1.88232,0.45644 -2.242,1.00935 -0.39024,0.5999 -0.65961,1.58207 -0.55175,2.0118 0.15035,0.59903 1.04111,1.52447 1.61895,1.68197 0.64138,0.17481 1.48579,0.0683 2.21421,-0.27936 z m -2.30005,-0.51799 c -0.15016,-0.0876 -0.35608,-0.41097 -0.45759,-0.71856 -0.34754,-1.05306 0.56214,-2.04622 1.87423,-2.04622 0.60407,0 1.20848,0.23568 1.42113,0.55415 0.20311,0.30419 0.13737,1.14828 -0.1178,1.51259 -0.2494,0.35606 -1.50921,0.8711 -2.10923,0.86229 -0.18575,-0.003 -0.46058,-0.0766 -0.61074,-0.16425 z m 22.31078,-7.15916 c 1.08229,-0.65992 1.29857,-2.15487 0.55496,-3.83594 -0.66237,-1.4974 -2.97045,-1.7079 -4.20368,-0.38338 -1.18524,1.27298 -0.79652,3.7717 0.68189,4.38321 0.65454,0.27073 2.41336,0.17357 2.96683,-0.16389 z m -2.39144,-0.53234 c -0.55307,-0.29193 -1.14589,-1.21718 -1.14589,-1.78845 0,-1.07961 0.8807,-1.92929 1.98865,-1.91861 0.64345,0.006 0.95193,0.2192 1.4131,0.97569 0.76359,1.2526 0.1552,2.70416 -1.20126,2.86606 -0.37334,0.0446 -0.82406,-0.013 -1.0546,-0.13469 z m 2.03255,-0.64493 c 0.33572,-0.39897 0.41444,-0.62864 0.34111,-0.99525 -0.35221,-1.76109 -1.64342,-2.38325 -2.77317,-1.33623 -0.6259,0.58007 -0.599,1.71861 0.0561,2.37369 0.38507,0.38506 0.61679,0.47646 1.20801,0.47646 0.62202,0 0.79688,-0.0777 1.16797,-0.51867 z m -1.67069,-0.90324 c -0.62968,-0.0781 -0.70695,-0.46034 -0.14485,-0.71645 0.45527,-0.20743 1.40809,0.19455 1.40809,0.59405 0,0.24135 -0.17115,0.25793 -1.26324,0.1224 z m 0.77424,-0.37108 c -0.32206,-0.20814 -0.86213,-0.20814 -0.73349,0 0.0554,0.0897 0.29812,0.16187 0.53937,0.1605 0.34307,-0.002 0.38536,-0.0369 0.19412,-0.1605 z m 5.90616,1.48036 c 0.45702,-0.40835 0.53232,-0.58316 0.53232,-1.23586 0,-0.6527 -0.0753,-0.82752 -0.53232,-1.23587 -0.74855,-0.66883 -1.6122,-0.65793 -2.396,0.0303 -0.49152,0.43156 -0.57617,0.60868 -0.57617,1.20561 0,0.59692 0.0847,0.77405 0.57617,1.20561 0.7838,0.68818 1.64745,0.69908 2.396,0.0302 z m -1.83382,-0.79773 c -0.46843,-0.37932 -0.32254,-0.91639 0.34232,-1.2602 0.45526,-0.23543 0.50013,-0.22745 0.88495,0.15738 0.46873,0.46873 0.50962,0.78165 0.14923,1.14204 -0.34088,0.34088 -0.92775,0.32415 -1.3765,-0.0392 z m 1.22932,-0.37651 c 0.002,-0.12354 -0.10772,-0.32175 -0.2445,-0.44046 -0.17276,-0.14995 -0.17879,-0.17958 -0.0197,-0.0971 0.15051,0.0781 0.18909,0.0543 0.11263,-0.0694 -0.064,-0.1035 -0.22633,-0.18818 -0.3608,-0.18818 -0.13448,0 -0.20243,0.0681 -0.15102,0.15126 0.0514,0.0832 -0.0581,0.19939 -0.24346,0.25821 -0.28645,0.0909 -0.30512,0.14622 -0.12461,0.36902 0.17736,0.21893 0.17463,0.23936 -0.0166,0.12411 -0.14611,-0.0881 -0.19106,-0.0767 -0.12424,0.0314 0.15464,0.25022 1.16735,0.13023 1.17235,-0.1389 z m -49.13915,1.09486 c 0.87842,-0.26664 3.44693,-1.42204 3.3583,-1.51067 -0.0338,-0.0338 -0.4203,0.0942 -0.85883,0.28462 -0.43852,0.19036 -1.34744,0.52696 -2.01981,0.748 -1.70048,0.55901 -2.11834,0.97546 -0.47966,0.47805 z m 4.87579,-1.98078 c 1.29282,-0.45169 3.15005,-1.35565 2.81133,-1.36836 -0.43547,-0.0163 -4.49877,1.74634 -4.09814,1.77779 0.0516,0.004 0.63068,-0.18019 1.28681,-0.40943 z m 41.73579,0.006 c 0.17226,-0.20756 0.16217,-0.23141 -0.0615,-0.14556 -0.14716,0.0565 -0.26755,0.16817 -0.26755,0.24823 0,0.20961 0.0943,0.18017 0.32909,-0.10267 z m -37.16695,-1.05624 c 0.13447,-0.0869 0.17115,-0.158 0.0815,-0.158 -0.0897,0 -0.27303,0.0711 -0.4075,0.158 -0.13448,0.0869 -0.17115,0.15801 -0.0815,0.15801 0.0897,0 0.27302,-0.0711 0.4075,-0.15801 z m 0.97799,-0.326 c 0.21733,-0.14045 0.21733,-0.158 0,-0.158 -0.13447,0 -0.35452,0.0711 -0.489,0.158 -0.21733,0.14046 -0.21733,0.15801 0,0.15801 0.13448,0 0.35453,-0.0711 0.489,-0.15801 z m 2.05775,-0.70909 c 0.34746,-0.12105 0.73364,-0.18489 0.85818,-0.14185 0.15248,0.0527 0.18368,0.009 0.0955,-0.13361 -0.094,-0.15217 -0.0545,-0.18252 0.14031,-0.10776 0.14918,0.0572 0.27124,0.0353 0.27124,-0.0487 0,-0.084 0.12206,-0.10593 0.27124,-0.0487 0.19821,0.0761 0.2349,0.0453 0.13626,-0.11431 -0.1018,-0.16471 -0.0595,-0.18944 0.17204,-0.10059 0.16886,0.0648 0.25194,0.0627 0.18463,-0.005 -0.0673,-0.0673 0.0449,-0.22296 0.24946,-0.34588 0.20453,-0.12291 0.26184,-0.18852 0.12736,-0.14581 -0.48315,0.15348 -3.34296,1.28318 -3.4094,1.34681 -0.13798,0.13213 0.28948,0.0588 0.90317,-0.15506 z m -1.35896,-0.35243 c 1.20994,-0.38641 3.25155,-1.34445 2.3982,-1.12537 -0.54661,0.14033 -3.44133,1.21019 -3.74899,1.38559 -0.43556,0.24832 0.0534,0.15413 1.35079,-0.26022 z m 4.7334,-1.07424 c 0.29339,-0.13367 0.48847,-0.1295 0.76084,0.0163 0.28584,0.15297 0.33958,0.15282 0.24471,-7e-4 -0.0876,-0.14181 -0.0135,-0.16744 0.26557,-0.0918 0.34377,0.0931 0.33681,0.0762 -0.0621,-0.15127 -0.41554,-0.23697 -0.50114,-0.23233 -1.14099,0.0618 -0.38046,0.1749 -0.64019,0.32417 -0.57717,0.33173 0.063,0.008 0.29213,-0.0672 0.50913,-0.16604 z m 3.10986,-1.1383 c 0.43977,-0.16492 0.87286,-0.25456 0.96243,-0.1992 0.0993,0.0614 0.1108,0.0164 0.0294,-0.11524 -0.0926,-0.14977 -0.0628,-0.18723 0.0971,-0.12232 0.12676,0.0515 0.37718,0.14419 0.55648,0.20608 0.27237,0.094 0.28578,0.0808 0.0815,-0.08 -0.20376,-0.16043 -0.18335,-0.17911 0.12248,-0.11207 0.23606,0.0517 0.32828,0.0178 0.25851,-0.0951 -0.0686,-0.11101 -0.009,-0.13725 0.16277,-0.0714 0.14938,0.0573 0.27124,0.0253 0.27124,-0.0712 0,-0.0964 0.11383,-0.13164 0.25296,-0.0782 0.13914,0.0534 0.21291,0.0322 0.16394,-0.047 -0.1178,-0.19061 0.37515,-0.37366 0.61656,-0.22895 0.10397,0.0623 0.079,-0.0228 -0.0555,-0.18916 -0.22953,-0.28395 -0.22205,-0.2905 0.12225,-0.10705 0.2508,0.13364 0.36674,0.13974 0.36674,0.0193 0,-0.11096 0.22614,-0.14259 0.61125,-0.0855 0.45479,0.0674 0.5278,0.0514 0.28525,-0.0627 -0.26776,-0.12591 -0.21098,-0.15534 0.31785,-0.16475 0.73943,-0.0132 0.62125,-0.24252 -0.21599,-0.41921 -0.422,-0.0891 -0.52054,-0.0682 -0.42307,0.0895 0.0848,0.13723 0.0613,0.16493 -0.0709,0.0833 -0.2603,-0.16087 -2.80338,0.89064 -2.67121,1.10449 0.0597,0.0966 -0.006,0.12269 -0.16023,0.0635 -0.14383,-0.0552 -0.9077,0.15958 -1.69748,0.47728 -2.05499,0.82664 -2.04352,0.9778 0.0156,0.20559 z m 5.75775,-1.3884 c -0.0542,-0.0542 -0.19475,-0.06 -0.31241,-0.0129 -0.13003,0.052 -0.0914,0.0907 0.0985,0.0985 0.17182,0.007 0.2681,-0.0314 0.21393,-0.0856 z m 19.76458,-8.88007 c 0.001,0.12701 0.0414,0.19202 0.0889,0.14448 0.13101,-0.13101 -1.35131,-2.8848 -1.48737,-2.76317 -0.0651,0.0582 -0.0705,0.022 -0.012,-0.0804 0.0585,-0.10239 -0.50851,-1.45936 -1.26005,-3.01549 -0.75154,-1.55613 -1.93171,-4.0396 -2.62259,-5.51882 -0.69089,-1.47922 -1.71847,-3.64304 -2.28352,-4.808483 -0.56505,-1.16545 -1.90773,-3.95274 -2.98374,-6.19398 -1.07602,-2.241243 -2.98242,-6.165453 -4.23645,-8.720468 -1.25403,-2.555015 -3.28347,-6.772624 -4.50986,-9.372464 -2.3826,-5.050886 -2.76832,-5.636816 -4.15788,-6.315997 -0.58505,-0.285961 -1.02622,-0.361151 -2.12393,-0.36199 -1.18609,-9.07e-4 -1.62009,0.08405 -3.01549,0.590252 -2.33537,0.8472 -10.07129,3.765184 -12.46945,4.703471 -3.89692,1.524679 -14.92524,5.722125 -19.07094,7.258515 -4.136046,1.532818 -4.729536,1.758723 -6.886826,2.621409 -1.23274,0.492964 -2.73641,1.07021 -3.34149,1.282768 -0.60507,0.212557 -1.65026,0.60386 -2.32263,0.86956 -0.67237,0.2657 -2.79951,1.082142 -4.72698,1.814315 -1.92747,0.732173 -5.08151,1.938585 -7.00897,2.680915 -1.92747,0.742329 -4.71476,1.809524 -6.19398,2.371544 -2.67176,1.01511 -3.43935,1.31008 -10.38304,3.99004 -1.99022,0.76814 -3.66639,1.39661 -3.72484,1.39661 -0.0585,0 -1.58413,0.58014 -3.3904,1.28921 -7.86677,3.088143 -13.77757,5.372483 -14.55648,5.625633 -1.37353,0.4464 -2.59334,1.43024 -3.15652,2.5459 -0.50857,1.00746 -0.60382,1.5309 -0.31147,1.71159 0.0958,0.0592 0.13474,0.21021 0.0866,0.33562 -0.0481,0.1254 -0.0115,0.22801 0.0814,0.22801 0.0947,0 0.12342,0.1432 0.0654,0.326 -0.062,0.19526 -0.0293,0.326 0.0815,0.326 0.11079,0 0.14347,0.13073 0.0815,0.32599 -0.0634,0.19968 -0.0293,0.326 0.088,0.326 0.10528,0 0.1492,0.11003 0.0976,0.2445 -0.0516,0.13448 -0.0251,0.2445 0.0589,0.2445 0.084,0 0.10593,0.12206 0.0487,0.27124 -0.0653,0.17009 -0.0393,0.23123 0.0695,0.16394 0.20727,-0.12811 0.41764,0.33513 0.26462,0.58271 -0.0681,0.11018 -0.0284,0.12479 0.10867,0.04 0.15806,-0.0977 0.18714,-0.0585 0.10855,0.14628 -0.0723,0.1885 -0.0458,0.24165 0.0815,0.163 0.12726,-0.0786 0.15384,-0.0255 0.0815,0.163 -0.059,0.15384 -0.0431,0.24003 0.0353,0.19153 0.0785,-0.0485 0.42604,0.35747 0.77238,0.90214 0.34635,0.54467 0.65033,0.89005 0.67553,0.7675 0.0252,-0.12255 -0.2217,-0.91741 -0.54865,-1.76636 -1.19365,-3.09937 -1.22369,-3.2067 -1.02146,-3.65054 0.10256,-0.22509 0.2491,-0.37055 0.32564,-0.32325 0.12696,0.0785 0.15484,-0.007 0.20436,-0.62598 0.009,-0.11206 0.0757,-0.2771 0.14821,-0.36675 0.0726,-0.0897 0.27579,-0.40565 0.45162,-0.70222 0.32897,-0.55486 1.39702,-1.16209 2.05559,-1.16869 0.19642,-0.002 0.39545,-0.0656 0.44228,-0.14136 0.0954,-0.15439 1.67424,-0.79295 7.26906,-2.94 2.10677,-0.80848 4.85738,-1.87004 6.11248,-2.35901 1.25509,-0.48897 3.85901,-1.486493 5.78647,-2.216713 1.92747,-0.73023 4.31134,-1.65203 5.29748,-2.04846 0.98615,-0.39643 3.37002,-1.31389 5.29748,-2.0388 3.7564,-1.41275 5.31022,-2.00687 9.77997,-3.739447 4.39633,-1.704119 6.56623,-2.540549 10.92096,-4.209701 1.38956,-0.532617 3.70008,-1.42565 5.13448,-1.984518 2.890806,-1.126317 4.334436,-1.67428 9.127966,-3.464719 1.79299,-0.669706 3.95681,-1.490517 4.80848,-1.824026 0.85167,-0.333509 2.09862,-0.817697 2.77099,-1.075975 0.67237,-0.258277 2.39609,-0.921672 3.83048,-1.47421 1.4344,-0.552538 3.19479,-1.210078 3.91199,-1.461201 1.82453,-0.638848 6.20498,-2.313971 10.41943,-3.984481 2.95431,-1.17102 3.6368,-1.387576 3.93903,-1.249869 0.28011,0.127627 0.38639,0.112326 0.45461,-0.06545 0.0498,-0.129668 0.19961,-0.189582 0.3397,-0.135822 0.13787,0.0529 0.25067,0.02845 0.25067,-0.05433 0,-0.08849 0.41226,-0.101912 1.00042,-0.03256 1.45554,0.171622 2.23911,0.765058 2.67941,2.029249 0.18609,0.534297 0.50254,1.338197 0.70323,1.786445 0.20068,0.448248 0.62913,1.401795 0.95209,2.118992 0.32297,0.717197 3.31039,6.731874 6.63871,13.365949 3.32832,6.634074 6.75071,13.492277 7.60531,15.240447 2.10457,4.3051 4.79346,9.52547 5.40003,10.48393 0.3588,0.56696 0.53501,0.72567 0.6334,0.5705 0.11014,-0.17371 0.13679,-0.17065 0.13881,0.0159 z M 43.571474,111.10486 c 0.99585,-0.72891 1.27195,-2.29841 0.58276,-3.31264 -1.07961,-1.5888 -3.4302,-1.46091 -4.14718,0.22564 -0.47256,1.11162 -0.53149,1.5431 -0.28901,2.11609 0.42474,1.00368 1.32772,1.46551 2.63094,1.34563 0.44697,-0.0411 0.9971,-0.20974 1.22249,-0.37472 z m -2.11668,-0.46517 c -0.46146,-0.18422 -0.96869,-0.75653 -1.14561,-1.2926 -0.26798,-0.81197 0.0969,-1.39432 1.04985,-1.6757 1.30928,-0.38658 2.21475,0.24502 2.21475,1.5449 0,0.90394 -0.39157,1.36916 -1.22416,1.45441 -0.35768,0.0366 -0.76035,0.0227 -0.89483,-0.031 z m 0.37436,-0.61042 c -0.25314,-0.33824 -0.30764,-0.35482 -0.40184,-0.12225 -0.0727,0.17946 -0.11008,0.10621 -0.11227,-0.21994 -0.009,-1.32322 -0.53207,-2.09422 -0.7721,-1.13783 -0.19887,0.79236 0.54015,1.87133 1.28173,1.87133 0.28654,0 0.2867,-0.0142 0.005,-0.39131 z m 1.22257,0.18664 c 0.73398,-0.88438 0.14353,-2.40332 -0.93422,-2.40332 -0.4204,0 -0.41966,0.064 0.007,0.64163 0.18926,0.25599 0.38218,0.80314 0.4287,1.21589 0.0871,0.77292 0.20366,0.90062 0.49813,0.5458 z m -0.74565,-0.37495 c 0.15291,-0.1529 -0.23572,-1.19583 -0.55241,-1.48243 -0.28283,-0.25595 -0.29887,-0.24681 -0.29887,0.17038 0,0.7562 0.55371,1.60962 0.85128,1.31205 z M 140.29089,74.088353 c 1.08197,-0.713329 1.42594,-2.144095 0.72859,-3.030629 -0.41325,-0.525365 -1.4836,-1.052299 -2.14792,-1.05742 -1.24856,-0.0096 -2.23965,1.046876 -2.28218,2.432807 -0.0198,0.644411 0.0534,0.880511 0.38305,1.235452 0.53877,0.580145 0.88356,0.706664 1.956,0.717738 0.61706,0.0064 1.04174,-0.0865 1.36246,-0.297948 z m -2.516,-0.819103 c -0.6512,-0.651205 -0.67284,-1.627397 -0.047,-2.1197 0.79307,-0.623829 2.23742,-0.320188 2.63578,0.554113 0.30332,0.665712 0.23423,1.049627 -0.28173,1.565587 -0.37367,0.373676 -0.62252,0.47646 -1.15353,0.47646 -0.53102,0 -0.77986,-0.102784 -1.15354,-0.47646 z m 2.16201,-0.129281 c 0.24794,-0.21747 0.27864,-0.539239 0.14906,-1.562318 -0.0332,-0.262485 -1.19231,-0.621195 -1.66894,-0.516509 -0.71807,0.157716 -1.03261,0.734789 -0.79422,1.457127 0.10491,0.31787 0.32674,0.650733 0.49297,0.739694 0.37723,0.201889 0.65151,0.209502 0.33515,0.0093 -0.14806,-0.0937 -0.23729,-0.4437 -0.24478,-0.960111 -0.006,-0.446962 0.0434,-0.77858 0.11075,-0.736928 0.0674,0.04165 0.12254,-0.0038 0.12254,-0.101075 0,-0.111711 0.17323,-0.08722 0.47054,0.06652 0.35729,0.184764 0.487,0.384298 0.53892,0.829077 0.0376,0.322164 -0.002,0.629308 -0.0882,0.682542 -0.0923,0.05708 -0.1025,0.0093 -0.0247,-0.116579 0.0879,-0.142246 0.0682,-0.174053 -0.059,-0.09542 -0.10496,0.06487 -0.14357,0.194429 -0.0858,0.287907 0.0578,0.09348 0.004,0.239914 -0.11959,0.325414 -0.15496,0.107237 -0.0982,0.120883 0.18287,0.044 0.22412,-0.0613 0.53123,-0.219989 0.68247,-0.35264 z m -0.35648,0.0552 c 0,-0.03385 0.12837,-0.162209 0.28525,-0.285248 0.25853,-0.202751 0.26429,-0.196985 0.0615,0.06154 -0.21293,0.271516 -0.34679,0.357862 -0.34679,0.223707 z m 0.0129,-0.848538 c 0.008,-0.189885 0.0465,-0.228509 0.0985,-0.09848 0.0471,0.117665 0.0413,0.258252 -0.0129,0.312416 -0.0542,0.05416 -0.0927,-0.04211 -0.0856,-0.213936 z m -0.43181,0.147643 c 0.14009,-0.365067 -0.3232,-0.842605 -0.57408,-0.59173 -0.22538,0.22538 -0.0382,0.865169 0.25307,0.865169 0.11884,0 0.2633,-0.123048 0.32101,-0.273439 z m 15.80102,75.011766 c -0.0509,-0.13276 0.0572,-0.92279 0.24039,-1.75561 0.18316,-0.83283 0.41453,-2.17017 0.51415,-2.97188 0.0996,-0.80171 0.25187,-1.54288 0.33832,-1.64706 0.0865,-0.10417 0.50421,-0.28444 0.92835,-0.40061 0.42413,-0.11616 1.57799,-0.53455 2.56414,-0.92975 0.98614,-0.39521 2.81989,-1.07734 4.07498,-1.51587 5.53705,-1.93461 5.32593,-1.84356 6.4611,-2.78662 0.76352,-0.63431 1.11837,-0.77691 1.11837,-0.44944 0,0.0983 -0.19103,1.14291 -0.42451,2.32136 -0.65443,3.30309 -1.15068,4.41523 -2.33498,5.23295 -0.7999,0.55231 -3.91773,1.86828 -6.35278,2.68138 -1.11199,0.37131 -3.09642,1.07728 -4.40985,1.56882 -1.31342,0.49155 -2.44137,0.89372 -2.50654,0.89372 -0.0652,0 -0.16019,-0.10862 -0.21114,-0.24139 z"
       id="path16303" /></g></svg>
