<?xml version="1.0" encoding="UTF-8" standalone="no"?>
<!-- Created with Inkscape (http://www.inkscape.org/) -->

<svg
    class="fill-sky-900"
   width="166.91136mm"
   height="166.91136mm"
   viewBox="0 0 166.91136 166.91136"
   version="1.1"
   id="svg1"
   xml:space="preserve"
   sodipodi:docname="headset.svg"
   inkscape:version="1.3.2 (091e20ef0f, 2023-11-25)"
   xmlns:inkscape="http://www.inkscape.org/namespaces/inkscape"
   xmlns:sodipodi="http://sodipodi.sourceforge.net/DTD/sodipodi-0.dtd"
   xmlns="http://www.w3.org/2000/svg"
   xmlns:svg="http://www.w3.org/2000/svg"><sodipodi:namedview
     id="namedview1"
     pagecolor="#ffffff"
     bordercolor="#000000"
     borderopacity="0.25"
     inkscape:showpageshadow="2"
     inkscape:pageopacity="0.0"
     inkscape:pagecheckerboard="0"
     inkscape:deskcolor="#d1d1d1"
     inkscape:document-units="mm"
     inkscape:zoom="0.52641607"
     inkscape:cx="355.23232"
     inkscape:cy="397.02436"
     inkscape:window-width="1920"
     inkscape:window-height="1008"
     inkscape:window-x="0"
     inkscape:window-y="35"
     inkscape:window-maximized="1"
     inkscape:current-layer="layer1" /><defs
     id="defs1" /><g
     inkscape:label="Layer 1"
     inkscape:groupmode="layer"
     id="layer1"
     transform="translate(-20.298346,-40.600342)"><path
       style="fill-opacity:1;stroke-width:0.621456"
       d="m 54.939342,190.37653 c -1.597852,-0.75786 -2.979159,-2.58884 -2.979159,-3.949 v -0.60071 l -1.603163,-0.1085 c -3.523591,-0.23847 -6.255278,-1.35356 -8.275579,-3.37814 -1.419872,-1.42288 -2.002781,-2.47159 -2.380375,-4.28255 -0.415369,-1.99212 0.04212,-4.06673 1.321992,-5.99494 1.675164,-2.52374 5.379677,-4.78621 11.019339,-6.72988 5.085452,-1.75267 7.060808,-2.74931 8.362505,-4.2192 0.431314,-0.48705 0.451619,-0.56525 0.24664,-0.94986 -0.126728,-0.23779 -0.216803,-0.86876 -0.208194,-1.4584 0.01195,-0.81858 -0.04042,-1.05505 -0.24664,-1.11352 -0.439904,-0.12473 -2.856934,-0.57881 -3.468142,-0.65154 -0.316521,-0.0377 -1.012532,-0.22402 -1.54669,-0.41412 -0.534158,-0.19011 -1.247788,-0.34564 -1.585844,-0.34564 -2.631953,0 -7.283887,-3.44456 -10.225155,-7.5713 -2.007177,-2.81616 -3.23258,-5.58801 -4.306109,-9.74037 -1.847681,-7.14674 -0.799604,-15.87478 2.659905,-22.15082 2.022753,-3.66955 5.467478,-7.51966 8.312969,-9.29124 0.717406,-0.44665 0.782208,-0.53777 0.700783,-0.98545 -0.312194,-1.7164 -0.475918,-4.92876 -0.302734,-5.93979 0.221166,-1.291163 1.04223,-2.640593 2.016686,-3.314457 0.355473,-0.245816 0.649123,-0.498962 0.652555,-0.562546 0.0034,-0.06358 -0.246532,-0.235554 -0.555475,-0.382157 -0.848436,-0.40261 -1.94934,-2.212151 -2.109883,-3.467988 -0.04762,-0.372465 -0.03159,-1.630332 0.0356,-2.795258 0.125906,-2.182838 0.350338,-3.120664 1.68735,-7.050859 2.551237,-7.499455 6.789633,-13.235801 13.553354,-18.343433 4.112268,-3.105383 9.766577,-5.642324 15.879288,-7.124621 3.358681,-0.814462 4.506697,-1.021886 6.538963,-1.181467 0.768696,-0.06036 1.455503,-0.143607 1.526237,-0.184993 0.260349,-0.152325 15.734154,-0.05884 18.040574,0.108991 5.56205,0.404735 12.51979,1.633452 16.03163,2.831138 3.99716,1.363199 6.98079,2.933014 10.11243,5.320577 2.72415,2.076901 3.72734,2.986476 5.29183,4.798027 3.92634,4.546382 6.81969,10.315394 8.04281,16.036464 0.1982,0.927061 0.4776,1.864986 0.62089,2.08428 0.20382,0.311932 0.2742,0.994963 0.32334,3.138092 0.0626,2.730262 0.0613,2.74253 -0.40147,3.687568 -0.4857,0.99192 -1.65099,2.16784 -2.31287,2.333962 -0.51701,0.129761 -0.48281,0.39813 0.12429,0.975337 0.70905,0.674131 1.2365,1.646033 1.44885,2.669683 0.26098,1.25811 0.22696,4.09324 -0.0607,5.0593 -0.37841,1.27077 -1.35465,2.16361 -2.67712,2.4484 -0.99512,0.21431 -0.57973,0.80836 1.35652,1.94003 1.58314,0.92529 3.76611,3.16887 5.20306,5.34754 4.1185,6.24434 5.54013,13.70586 4.15786,21.82275 -1.08957,6.39813 -4.63284,12.48648 -9.03985,15.53304 -2.54388,1.75858 -7.07341,3.79406 -10.24226,4.60267 -1.23146,0.31424 -4.34367,0.81325 -7.01479,1.12475 -0.54261,0.0633 -1.81003,0.11506 -2.81648,0.11506 h -1.82992 l -0.0963,1.03198 c -0.13682,1.46606 -0.56739,2.31313 -1.65144,3.24904 -0.69555,0.60049 -1.2603,1.3539 -2.24501,2.99492 -1.90661,3.17739 -2.4715,5.17532 -1.96416,6.94699 0.16168,0.56461 1.84395,2.98789 2.15054,3.09784 0.0858,0.0308 0.23785,-0.17886 0.33789,-0.46584 0.38914,-1.11631 1.61217,-3.41983 2.33063,-4.38967 1.02543,-1.3842 2.55146,-2.60172 4.75752,-3.79569 4.49131,-2.43081 8.00984,-2.91741 20.19802,-2.79328 7.40137,0.0754 8.80691,0.22566 12.06986,1.29051 3.08442,1.00659 4.7593,2.00667 6.83888,4.08355 1.97412,1.97156 2.57492,2.91731 3.18024,5.00612 1.14459,3.94976 -0.0269,7.84263 -3.30362,10.97807 -2.05419,1.96562 -3.36651,2.61471 -8.57712,4.24241 -2.18508,0.68257 -3.04057,0.86792 -4.60396,0.99747 -2.4081,0.19956 -19.83873,0.206 -23.06205,0.009 -2.13138,-0.13059 -2.51423,-0.20067 -3.45296,-0.63208 -0.58069,-0.26687 -1.54688,-0.70891 -2.14709,-0.98231 -0.60021,-0.2734 -1.62921,-0.87486 -2.28665,-1.33657 l -1.19537,-0.83947 -3.71493,-0.007 c -2.04321,-0.004 -5.49074,-0.10768 -7.66118,-0.23111 l -3.94624,-0.22441 -0.38271,0.35442 c -0.34073,0.31556 -0.60464,0.36037 -2.40619,0.40854 l -2.02348,0.0541 -0.29514,0.6545 c -0.36554,0.81062 -1.115973,1.55194 -2.293341,2.26551 -0.83264,0.50462 -1.053816,0.55773 -2.834916,0.68075 -1.062504,0.0734 -10.469155,0.1248 -20.903671,0.11427 l -18.971848,-0.0191 z m 37.581208,-1.56016 c 0.85518,-0.14683 2.093388,-1.38895 2.40782,-2.41541 0.595206,-1.94308 0.735979,-5.75758 0.272969,-7.39669 -0.194168,-0.68737 -1.493,-2.49459 -2.059725,-2.86592 -0.326842,-0.21416 -2.721516,-0.24593 -18.681721,-0.24792 -10.068751,-0.001 -18.433733,0.003 -18.588846,0.01 -0.419945,0.0176 -1.414067,0.95644 -1.824106,1.72272 -0.3397,0.63483 -0.360123,0.87985 -0.357631,4.29067 0.0029,4.00984 0.12494,4.7606 0.93298,5.7409 0.861965,1.04571 1.228586,1.15559 4.161614,1.24725 3.41886,0.10684 33.054094,0.0321 33.736646,-0.0851 z M 55.981171,187.8402 c -0.463425,-0.46342 -0.515803,-1.0073 -0.147629,-1.53294 0.55161,-0.78754 1.71716,-0.20486 1.71716,0.85843 0,0.39867 -0.108117,0.6419 -0.36544,0.82214 -0.50136,0.35117 -0.733793,0.32267 -1.204091,-0.14763 z m 35.441495,0.28694 c -0.89076,-0.32753 -1.08872,-1.27598 -0.408328,-1.95637 0.485761,-0.48577 0.947137,-0.4236 1.518212,0.20457 0.478235,0.52605 0.468199,0.96302 -0.03362,1.46486 -0.402822,0.40282 -0.610513,0.45819 -1.076251,0.28694 z M 59.934893,186.0423 c -1.488881,-0.65042 -2.28985,-1.92232 -2.297094,-3.64767 -0.0042,-0.98917 0.06059,-1.26194 0.433187,-1.82497 0.904093,-1.36618 2.72656,-2.12423 4.110259,-1.70967 0.791476,0.23713 1.860288,1.17092 2.278471,1.99062 0.452115,0.88622 0.574821,2.10629 0.281188,2.79586 -0.347233,0.81544 -1.198254,1.82488 -1.899765,2.2534 -0.698337,0.42658 -2.098709,0.49521 -2.906246,0.14243 z m 2.938044,-1.92846 c 0.713137,-0.83315 0.858369,-1.41605 0.533772,-2.14235 -0.782262,-1.75035 -2.429568,-2.32876 -3.630149,-1.27463 -0.662391,0.58158 -0.899693,1.27347 -0.739203,2.15524 0.23484,1.29027 1.045903,1.92021 2.487887,1.93229 0.69982,0.006 0.819808,-0.0538 1.347693,-0.67055 z m 22.630356,1.89507 c -1.725587,-0.74627 -2.860653,-3.06046 -2.313806,-4.71742 0.222821,-0.67516 1.419074,-1.8445 2.236241,-2.18594 2.475697,-1.03441 5.157253,1.39087 4.646606,4.20254 -0.169968,0.93586 -0.820839,1.74866 -1.944413,2.42819 -0.984933,0.59567 -1.704766,0.67045 -2.624628,0.27263 z m 2.08751,-1.70413 c 0.81961,-0.49975 1.097499,-1.04006 0.979119,-1.90373 -0.127731,-0.9319 -0.471484,-1.45791 -1.16909,-1.78895 -0.913001,-0.43324 -1.380461,-0.33935 -2.105625,0.42296 -0.626214,0.65829 -0.647652,0.7175 -0.575368,1.58915 0.06514,0.78544 0.154352,0.97803 0.673493,1.45378 0.703381,0.6446 1.395148,0.71599 2.197471,0.22679 z m -15.843092,1.18496 -5.452017,-0.0456 -0.11896,-1.5867 c -0.109467,-1.46008 0.0068,-4.46575 0.179475,-4.63839 0.118872,-0.11887 6.900523,-0.32423 11.108364,-0.33639 l 3.882238,-0.0112 0.103688,0.86324 c 0.193225,1.60869 0.09634,3.77937 -0.207331,4.64507 -0.379772,1.08264 -0.712777,1.23747 -2.563596,1.19196 -0.813914,-0.02 -3.933251,-0.0569 -6.931861,-0.082 z m 8.329491,-3.22994 c 0,-1.56106 -0.0436,-1.89005 -0.261588,-1.9737 -0.143873,-0.0552 -1.272254,-0.0524 -2.507512,0.006 -1.235258,0.0587 -3.846144,0.10919 -5.80197,0.11228 l -3.556045,0.006 -0.08127,1.7381 c -0.0447,0.95596 -0.04944,1.79359 -0.01054,1.86142 0.0389,0.0678 2.804079,0.12332 6.144832,0.12332 h 6.074095 z m -23.969757,-3.47989 c -0.480645,-0.33665 -0.495911,-1.21926 -0.02841,-1.64234 0.488159,-0.44178 1.434823,-0.40283 1.821704,0.0749 0.407783,0.50359 0.388836,0.71511 -0.118015,1.31747 -0.47988,0.57031 -1.088296,0.66108 -1.675281,0.24993 z m 34.434882,-0.31167 c -0.520557,-0.48244 -0.523766,-0.51809 -0.108026,-1.19995 0.413188,-0.67768 1.134519,-0.73204 1.73576,-0.13079 1.12299,1.12299 -0.457597,2.41518 -1.627734,1.33074 z m 7.442416,10.02995 c 0.63286,-0.32726 1.012166,-0.81285 1.050087,-1.34432 0.02548,-0.35716 -0.03636,-0.4688 -0.254058,-0.45843 -0.15826,0.008 -0.65215,0.026 -1.097529,0.0411 -0.807433,0.0273 -0.811255,0.0301 -1.315418,0.96095 -0.278096,0.51345 -0.50563,1.00393 -0.50563,1.08996 0,0.20924 1.57313,-0.005 2.122548,-0.28926 z m 58.154657,-0.22083 c 6.32107,-1.12394 9.73352,-3.34387 11.83731,-7.70064 1.01616,-2.10438 1.07091,-3.90518 0.19184,-6.30923 -0.71812,-1.9639 -2.73331,-4.35129 -4.52647,-5.36252 -0.42673,-0.24065 -1.18284,-0.6716 -1.68023,-0.95766 -2.14816,-1.23545 -5.22866,-2.0947 -8.57006,-2.39045 -2.27418,-0.20129 -12.39968,-0.20877 -15.35407,-0.0113 -2.40312,0.16059 -5.87933,0.87714 -7.9871,1.64638 -1.54611,0.56426 -4.70345,2.58512 -5.61455,3.59359 -0.32481,0.35953 -0.94894,1.37586 -1.38695,2.25851 l -0.79639,1.60482 0.004,1.74136 c 0.007,3.19811 0.76488,4.14598 4.94803,6.18785 1.55968,0.76129 3.19234,1.47233 3.62815,1.58007 0.81529,0.20155 8.10559,0.3574 16.82401,0.35966 4.94611,0.001 7.34408,-0.22728 10.17318,-0.96965 1.65319,-0.4338 4.01738,-1.46512 4.89748,-2.1364 0.62925,-0.47996 1.40517,-1.56792 1.6674,-2.33796 0.15952,-0.46844 0.14246,-0.563 -0.13247,-0.7347 -0.22029,-0.13757 -0.28714,-0.31035 -0.2214,-0.57226 0.14128,-0.56292 -0.0505,-0.46555 -1.06932,0.54285 -1.09458,1.0834 -1.38587,1.24846 -3.46169,1.9615 -3.82881,1.31521 -12.17766,2.09431 -16.62156,1.55108 -0.76869,-0.094 -3.39542,-0.23279 -5.83716,-0.30851 -3.95299,-0.12259 -4.61307,-0.18324 -6.02315,-0.5534 -4.32105,-1.13435 -5.9322,-2.38344 -5.95086,-4.61356 -0.0175,-2.0906 2.3958,-4.92428 5.40433,-6.34575 1.52184,-0.71903 5.08569,-1.59824 7.31831,-1.80543 1.04479,-0.097 4.64598,-0.1763 8.00264,-0.1763 5.3285,0 6.40205,0.0436 8.45929,0.34354 4.2771,0.62359 7.53118,1.93767 9.36818,3.78311 1.33893,1.34508 2.01727,2.67906 2.261,4.44628 0.13988,1.01429 0.12558,1.4388 -0.0744,2.20638 -0.9941,3.81661 -4.02513,5.83002 -10.43178,6.92945 -1.34537,0.23088 -3.05603,0.26505 -12.33202,0.24636 -11.49789,-0.0232 -13.48301,-0.0909 -13.48301,-0.46032 0,-0.2695 -0.83548,-0.70424 -3.78183,-1.96786 l -2.21976,-0.952 -4.2751,-0.11966 c -2.35131,-0.0658 -6.20734,-0.12652 -8.56896,-0.1349 l -4.29386,-0.0152 -0.10457,0.76287 c -0.20572,1.50097 -0.16234,1.67973 0.42983,1.77094 0.29392,0.0452 3.97503,0.12113 8.18024,0.16859 4.20522,0.0475 7.85485,0.13445 8.11028,0.1933 0.29781,0.0686 0.52023,0.2615 0.61999,0.53767 0.33445,0.92582 0.56399,1.18219 1.48997,1.66411 1.14118,0.59392 2.44525,0.94852 4.19793,1.14148 0.70653,0.0778 6.57505,0.12478 13.04114,0.10443 11.21269,-0.0353 11.84849,-0.0533 13.74436,-0.39045 z m -55.63466,-3.38015 c 0.1478,-0.23075 0.16501,-2.99351 0.0231,-3.70322 l -0.10276,-0.51384 H 98.883534 97.34203 l -0.0012,0.94546 c -5.4e-4,0.51999 -0.04711,1.53739 -0.103516,2.26087 l -0.102534,1.31541 1.624469,-0.058 c 0.981112,-0.0351 1.672311,-0.13274 1.745271,-0.24664 z m 3.98904,-0.92022 c 0.11614,-1.15642 0.006,-2.3187 -0.27069,-2.84466 -0.10435,-0.1987 -0.34871,-0.28775 -0.78959,-0.28775 -1.17293,0 -1.15865,-0.0276 -1.15865,2.23735 v 2.03775 h 1.05209 1.05209 z m -52.86245,-1.05652 v -1.21265 l -0.513835,-0.10277 c -0.282609,-0.0565 -0.783543,-0.10277 -1.113187,-0.10277 -0.861149,0 -2.906974,-0.60105 -3.962327,-1.16411 -1.808125,-0.96468 -2.471414,-1.89325 -2.59598,-3.63422 -0.06921,-0.9673 -0.02745,-1.18899 0.343054,-1.8212 0.536442,-0.91538 2.410294,-2.67147 3.611221,-3.38429 1.350962,-0.80187 3.410075,-1.65528 7.115958,-2.94926 1.804609,-0.63011 3.762057,-1.34865 4.349884,-1.59676 2.247534,-0.94861 4.640323,-2.81677 5.515663,-4.30632 0.590201,-1.00435 0.540475,-1.13107 -0.528063,-1.34566 -1.415724,-0.28432 -1.658666,-0.24891 -1.933079,0.28175 -0.798161,1.54347 -4.514461,3.52771 -10.080447,5.38223 -2.709345,0.90272 -6.021241,2.47117 -7.307041,3.46049 -1.321147,1.01651 -2.316554,2.21556 -3.087446,3.71909 -0.62045,1.21012 -0.666558,1.39402 -0.666558,2.65862 0,1.18032 0.06467,1.488 0.492915,2.34499 0.586807,1.1743 2.195677,2.78613 3.380132,3.38633 1.49199,0.75606 4.586042,1.51474 6.444748,1.58031 l 0.534388,0.0188 z m 69.55262,-1.9736 c 0,-0.0342 -0.10123,-0.31164 -0.22496,-0.6166 -0.12374,-0.30496 -0.27065,-1.0739 -0.32649,-1.70875 -0.16745,-1.90392 -0.51168,-2.8146 -1.23697,-3.27245 -0.98798,-0.62368 -1.91327,-1.79209 -2.2388,-2.82702 -0.23269,-0.73979 -0.27458,-1.27213 -0.20407,-2.5935 0.0488,-0.91445 0.17446,-1.88462 0.27927,-2.15592 0.1048,-0.27131 0.82487,-1.55004 1.60015,-2.84164 0.77527,-1.29159 1.37258,-2.38535 1.32736,-2.43057 -0.0452,-0.0452 -0.59163,-0.23378 -1.21423,-0.41903 -0.6226,-0.18524 -1.25339,-0.37436 -1.40174,-0.42025 -0.20553,-0.0636 -0.33723,0.11977 -0.55335,0.77045 -0.15599,0.46965 -0.62032,1.34556 -1.03183,1.94648 -1.48399,2.16698 -1.86362,3.4292 -1.85884,6.18042 0.005,2.84986 0.81472,4.84376 2.86246,7.04826 0.40393,0.43484 0.76895,0.97129 0.81115,1.19209 0.0422,0.22081 0.0484,0.40146 0.0138,0.40146 -0.35159,0 -1.5846,-1.13707 -2.39217,-2.20605 -1.19249,-1.57848 -1.66077,-2.54369 -2.12526,-4.38051 -0.47551,-1.88038 -0.37441,-4.62475 0.23379,-6.34623 0.49136,-1.39075 1.3172,-2.72542 2.14884,-3.47279 0.32949,-0.2961 0.59907,-0.64578 0.59907,-0.77705 0,-0.33476 -0.58132,-1.25476 -0.71094,-1.12514 -0.21493,0.21493 -0.60447,-1.11063 -0.60447,-2.05694 v -0.97291 l -0.94379,-0.11791 c -1.45887,-0.18227 -3.60207,-0.85227 -5.1264,-1.60259 -4.56942,-2.24919 -8.0414,-6.59377 -10.021633,-12.54032 -1.304854,-3.91844 -1.903503,-7.80146 -1.875891,-12.1676 0.04269,-6.75215 1.244168,-12.14042 3.794664,-17.01819 1.69872,-3.24876 4.53965,-6.4519 7.42153,-8.36774 4.23056,-2.81244 6.36654,-3.29854 14.51755,-3.3039 l 4.06642,-0.002 -0.0972,-0.7089 c -0.2342,-1.70867 0.85679,-4.083892 2.23042,-4.855914 0.94633,-0.531866 0.90736,-0.637167 -0.33773,-0.912473 -0.60272,-0.133271 -1.70189,-1.284247 -2.18945,-2.292651 -0.33476,-0.692381 -0.47503,-1.44067 -0.76018,-4.055371 -0.22777,-2.088557 -0.46793,-3.521595 -0.68891,-4.110675 -1.52545,-4.066516 -4.32664,-8.230562 -7.10851,-10.56697 -1.53301,-1.287536 -4.33377,-3.139082 -5.80301,-3.836292 -1.34909,-0.640201 -3.10495,-1.095241 -5.72932,-1.48478 -2.31211,-0.343189 -9.223658,-0.335877 -12.212876,0.01292 -3.521166,0.410869 -6.776894,1.433825 -10.019997,3.148301 -2.575627,1.361614 -4.022662,2.414348 -5.865155,4.266968 -2.017739,2.02883 -3.194954,3.656437 -4.576528,6.327475 -1.265064,2.445783 -1.535574,3.198719 -1.265942,3.523607 0.143484,0.172887 0.109915,0.694462 -0.139811,2.172294 -0.180747,1.069629 -0.375429,2.422549 -0.432625,3.006488 -0.123133,1.257111 -0.42763,2.05244 -1.034139,2.70111 -0.616469,0.659321 -1.832457,1.416633 -2.274637,1.416633 -0.603072,0 -0.60438,0.288442 -0.004,0.888792 0.98709,0.987091 1.459254,2.194817 1.552112,3.970078 l 0.08127,1.55378 h 1.950646 c 2.509995,0 4.529843,0.35553 6.769104,1.19148 4.071522,1.51997 7.175751,4.04438 9.837107,7.9997 1.506828,2.23946 2.279508,3.80398 3.186617,6.45227 0.977029,2.85242 1.15223,3.56821 1.543853,6.30756 0.524746,3.67048 0.58499,5.69453 0.271627,9.1257 -0.572026,6.26332 -1.943935,10.35478 -5.001329,14.91548 -3.036813,4.52999 -6.83143,7.19792 -11.860927,8.3392 -1.013315,0.22994 -3.45075,0.48666 -6.893986,0.72609 l -1.550108,0.10779 -0.186935,0.82213 c -0.227837,1.00202 -0.313777,1.16468 -1.859876,3.5201 -1.505316,2.2933 -2.032892,2.88748 -3.637002,4.09622 -1.913145,1.44159 -3.856639,2.35218 -7.905311,3.7039 -5.454066,1.82092 -6.892803,2.46513 -8.269455,3.70269 -2.913137,2.6188 -1.691053,5.23013 2.82463,6.0356 0.688565,0.12283 1.518675,0.2259 1.844689,0.22905 l 0.592753,0.006 0.09316,-1.11119 c 0.217295,-2.59189 1.516903,-4.40441 3.566256,-4.97375 0.754135,-0.20951 40.46423,-0.21473 41.911353,-0.006 2.093252,0.30262 3.318962,1.72116 3.720382,4.30566 l 0.0931,0.59941 1.92779,0.0634 c 2.15631,0.0709 2.51535,0.20726 2.95407,1.122 l 0.276,0.5755 3.2129,-0.006 c 2.68253,-0.004 7.49955,0.0939 10.89986,0.22246 0.42956,0.0162 0.78102,0.002 0.78102,-0.0326 z m 30.00793,-0.75395 c 3.2747,-0.27706 8.98692,-1.52683 10.1834,-2.22801 0.88139,-0.51653 1.08815,-0.90215 0.48373,-0.90215 -0.25102,0 -0.9218,-0.36546 -1.65914,-0.90393 -2.48915,-1.81781 -4.65158,-2.13565 -14.43408,-2.12159 -6.12852,0.009 -7.50843,0.0583 -10.3589,0.37147 -3.36698,0.36993 -5.19234,0.75801 -6.35488,1.35109 -0.36194,0.18466 -0.78198,0.30787 -0.93342,0.27382 -0.39023,-0.0877 0.90214,-1.322 1.9119,-1.82592 0.81886,-0.40865 3.6754,-1.14807 5.45861,-1.41298 3.72019,-0.55265 13.84899,-0.60928 18.45256,-0.10316 2.89472,0.31825 5.40578,1.07067 6.96069,2.08573 1.22003,0.79644 1.55278,1.17694 1.55278,1.77559 0,0.60247 0.92248,0.87932 1.38588,0.41592 0.34415,-0.34415 0.32605,-0.69944 -0.0927,-1.81855 -0.62944,-1.68233 -2.05633,-2.84703 -4.84373,-3.95371 -3.04329,-1.20828 -5.84862,-1.5305 -13.30326,-1.52804 -7.531,0.002 -11.27139,0.40499 -14.26574,1.53516 -2.56736,0.969 -4.6173,3.18532 -4.75408,5.13994 -0.0807,1.15255 1.43053,2.40865 3.23483,2.68881 0.63304,0.0983 2.0019,0.3308 3.0419,0.51669 1.41193,0.25236 3.1196,0.37656 6.7415,0.49032 2.66784,0.0838 4.99858,0.17817 5.17946,0.20972 0.7093,0.12375 4.69895,0.0888 6.41265,-0.0563 z M 99.106192,178.5454 c -0.11418,-0.85129 -0.67676,-2.00116 -1.110947,-2.2707 -0.18832,-0.11691 -0.82013,-0.25718 -1.404025,-0.3117 l -1.061616,-0.0991 0.401648,0.88719 c 0.220903,0.48795 0.45439,1.18316 0.518866,1.54489 0.06447,0.36175 0.199034,0.71208 0.299039,0.77852 0.1,0.0664 0.691003,0.12193 1.313342,0.12332 l 1.131536,0.002 z m 22.470888,-18.17753 c 0.30444,-0.30444 0.59126,-1.2768 0.59252,-2.00869 0.001,-0.63028 0.15693,-0.61076 -2.87656,-0.3602 -2.45182,0.20252 -2.87747,0.27121 -2.87747,0.46434 0,0.40613 1.14662,1.57002 1.81274,1.84005 0.95664,0.3878 2.98637,0.42689 3.34877,0.0645 z m -56.399826,-0.39819 c 0.466841,-0.17748 0.847375,-0.69211 1.01464,-1.37216 l 0.113258,-0.46048 -0.800938,0.0955 c -0.440515,0.0525 -1.339017,0.0332 -1.996668,-0.0429 -0.657652,-0.0761 -1.220785,-0.11335 -1.251408,-0.0827 -0.14082,0.14082 0.215993,1.40583 0.478283,1.69566 0.326411,0.36068 1.688548,0.45383 2.442833,0.16705 z m 1.58136,-3.96312 c -0.135652,-0.0929 -0.809711,-0.45736 -1.497909,-0.80987 -2.277185,-1.16643 -4.658358,-3.32467 -6.419484,-5.81844 -1.692215,-2.39619 -3.501689,-6.6349 -4.151145,-9.7241 -1.641841,-7.80956 -0.67734,-17.37381 2.361566,-23.41789 0.686775,-1.36593 2.430889,-4.19383 3.212105,-5.20809 2.05599,-2.66932 5.236156,-5.19913 7.440322,-5.91873 0.746088,-0.24358 1.356523,-0.51698 1.356523,-0.60753 0,-0.28463 -4.833471,0.0232 -6.412653,0.40849 -3.903258,0.95212 -7.679171,3.57489 -10.490195,7.28655 -2.283387,3.01496 -4.246146,8.21942 -5.115617,13.56458 -1.112015,6.83622 0.122944,15.62787 2.91022,20.7178 1.738997,3.17564 3.518086,5.19632 5.998624,6.81321 1.701011,1.10878 2.407301,1.4344 4.14835,1.91254 2.645116,0.7264 7.382036,1.29652 6.659293,0.80148 z m 61.166846,0.0938 c 0,-0.0441 -0.53645,-0.35029 -1.1921,-0.68046 -3.45231,-1.7385 -6.06836,-4.35469 -8.10897,-8.10942 -3.36798,-6.19705 -4.27912,-15.93855 -2.2315,-23.85806 1.22178,-4.72542 3.85466,-9.44006 7.07814,-12.67468 1.46599,-1.47106 3.72375,-3.2159 4.49307,-3.47234 0.1349,-0.045 0.0571,-0.24052 -0.23273,-0.58495 -0.23944,-0.28457 -0.52145,-0.77825 -0.62667,-1.09707 -0.12134,-0.36768 -0.29587,-0.57967 -0.47721,-0.57967 -1.09193,0 -4.42737,0.95846 -5.83887,1.67784 -1.81015,0.92256 -4.39078,2.96085 -5.89313,4.65467 -1.44101,1.62464 -3.8125,6.01051 -4.71098,8.71256 -1.37733,4.14209 -1.90365,7.95223 -1.78298,12.90732 0.25475,10.46048 3.28474,17.024 9.67887,20.96624 2.03349,1.25373 4.30574,1.87769 7.46087,2.04873 1.17565,0.0637 2.19304,0.12793 2.26087,0.14266 0.0678,0.0147 0.12332,-0.009 0.12332,-0.0534 z m -10.19447,-0.1508 c 0,-0.0366 -0.40698,-0.2962 -0.9044,-0.57693 -3.07786,-1.73703 -5.85512,-4.73335 -7.37503,-7.95673 -1.21501,-2.57674 -2.4049,-7.0963 -2.752,-10.45292 -0.25599,-2.47549 -0.10959,-8.79304 0.25005,-10.79041 0.92358,-5.12941 2.1828,-8.63367 4.66772,-12.98973 1.41149,-2.47435 4.05345,-5.31368 6.29139,-6.76139 0.99326,-0.64255 2.67917,-1.49558 3.90616,-1.97643 0.49451,-0.1938 -2.55354,-0.11701 -4.82381,0.12153 -4.21008,0.44236 -7.41396,2.00093 -10.87867,5.29207 -1.96909,1.87044 -3.96642,5.15783 -5.06668,8.33921 -2.171642,6.27924 -2.659678,11.59991 -1.710975,18.65326 0.419458,3.11859 0.64588,4.17782 1.362565,6.37431 1.13914,3.49124 2.44822,5.60149 5.19128,8.36843 2.1606,2.17942 4.48827,3.41452 7.73172,4.10261 1.22231,0.2593 4.11068,0.43717 4.11068,0.25312 z M 77.315784,154.9749 c 1.815072,-0.47317 3.912026,-1.40592 5.329575,-2.37066 1.579538,-1.07498 3.634662,-3.35096 4.936697,-5.46722 3.089958,-5.02226 4.393464,-9.87534 4.394309,-16.36048 3.42e-4,-2.5928 -0.06446,-3.32933 -0.522763,-5.94143 -0.577582,-3.29201 -0.850654,-4.28975 -1.839032,-6.71946 -1.1819,-2.90543 -2.598676,-5.17159 -4.782873,-7.65029 -2.471155,-2.80434 -5.966934,-4.60997 -9.697863,-5.0091 -1.998831,-0.21383 -6.006258,0.63371 -7.836875,1.65745 -1.534124,0.85793 -3.512741,2.40236 -4.605322,3.59472 -2.457631,2.68207 -4.782921,7.12864 -5.789519,11.07109 -1.04445,4.09071 -1.369893,8.77345 -0.921429,13.25829 0.308851,3.08867 0.700639,4.78047 1.810498,7.81803 1.383609,3.78678 2.604984,5.79252 5.087762,8.35512 1.499517,1.54773 1.779022,1.7577 3.325445,2.49813 3.120169,1.49394 4.596661,1.83523 7.542368,1.74337 1.419758,-0.0443 2.420697,-0.1782 3.569022,-0.47756 z m -2.116248,-10.5285 c -1.786209,-0.45355 -3.619806,-1.67191 -4.982883,-3.31095 -1.815693,-2.18327 -3.121388,-6.40671 -3.126253,-10.11226 -0.0051,-3.88925 1.024877,-7.60766 2.892136,-10.44111 1.400777,-2.12559 3.28533,-3.36608 5.572923,-3.66833 2.511061,-0.33178 4.625279,0.28371 6.274723,1.82669 2.050218,1.91787 3.227219,4.06896 4.111607,7.51437 1.195223,4.65637 0.274836,10.64799 -2.15975,14.05977 -1.054626,1.47792 -2.745706,2.95223 -4.188734,3.65179 -1.410003,0.68356 -2.935737,0.85025 -4.393769,0.48003 z m 3.702226,-1.98288 c 0.582735,-0.30135 0.606418,-0.37485 0.265862,-0.82511 -0.303881,-0.40176 -0.310321,-1.08579 -0.01404,-1.49098 0.326799,-0.44692 1.369013,-0.42241 1.744282,0.041 0.260687,0.32193 0.315102,0.33091 0.637462,0.10511 0.305506,-0.21398 0.843849,-1.03207 0.843849,-1.28235 0,-0.0469 -0.105313,-0.0448 -0.23403,0.004 -0.342054,0.13126 -0.635853,-0.53398 -0.516591,-1.1697 0.138842,-0.74009 0.453993,-0.96495 1.16538,-0.83149 0.567313,0.10643 0.591623,0.0894 0.915318,-0.6424 0.493697,-1.11609 0.858851,-4.25304 0.74706,-6.41781 -0.124895,-2.41851 -0.315222,-3.44146 -0.841298,-4.52174 -0.24222,-0.49739 -0.39627,-0.702 -0.342334,-0.45468 0.200595,0.91981 -1.087941,1.51243 -1.624103,0.74695 -0.295781,-0.42229 -0.329743,-0.99817 -0.08575,-1.45407 0.224168,-0.41886 1.219544,-0.4394 1.468146,-0.0303 0.138725,0.22829 0.152834,0.18582 0.06828,-0.20553 -0.356435,-1.64974 -2.19992,-4.06585 -2.19992,-2.88326 0,0.35165 -0.449147,0.66349 -0.95562,0.66349 -0.546791,0 -0.774393,-0.46378 -0.729356,-1.48623 0.04081,-0.92653 0.03206,-0.9468 -0.522248,-1.20984 -0.712461,-0.33808 -2.038968,-0.59246 -3.089499,-0.59246 h -0.812308 l 0.505897,0.42568 c 0.391546,0.32947 0.505897,0.55883 0.505897,1.01472 0,1.188 -0.966791,1.57001 -1.717006,0.67843 -0.481037,-0.57169 -0.449776,-0.95161 0.132741,-1.61321 l 0.351062,-0.39873 -0.657708,0.38386 c -0.981126,0.57261 -1.768609,1.17559 -2.137551,1.63674 -0.56798,0.70993 -2.823181,4.36339 -3.177992,5.1484 -0.03066,0.0678 0.205204,0.12332 0.524134,0.12332 1.075291,0 1.449545,1.19388 0.666118,2.12494 -0.28898,0.34342 -0.573755,0.50589 -0.886757,0.50589 -0.25359,0 -0.497971,0.0962 -0.543069,0.21368 -0.0451,0.11752 -0.04177,1.20559 0.0074,2.41793 0.05751,1.41801 0.137245,2.07492 0.223533,1.84166 0.10153,-0.27446 0.267306,-0.36259 0.68204,-0.36259 0.727702,0 0.942532,0.25165 0.942532,1.10407 0,0.62397 -0.06439,0.74872 -0.534387,1.03525 -0.293914,0.17917 -0.584357,0.34457 -0.64543,0.36754 -0.276149,0.10385 0.267421,1.80647 0.958222,3.00144 1.445885,2.50114 2.286482,3.34476 4.216554,4.23172 0.948672,0.43596 1.130558,0.4637 2.598778,0.39627 1.010042,-0.0464 1.765206,-0.16895 2.096444,-0.34024 z m -5.072786,-1.64347 c 0,-1.28051 0.08227,-1.41108 0.889055,-1.41108 0.833179,0 1.084069,0.21864 1.084069,0.94471 0,0.75619 -0.615643,1.35727 -1.390156,1.35727 h -0.582968 z m 2.655949,-2.37418 c -0.618788,-0.57803 -0.681958,-1.25102 -0.17761,-1.8922 0.418996,-0.53266 1.159705,-0.57702 1.638609,-0.0981 0.266099,0.2661 0.3138,0.46084 0.231581,0.94545 -0.117856,0.69466 -0.56618,1.40929 -0.928978,1.48079 -0.134862,0.0266 -0.478483,-0.16959 -0.763602,-0.43593 z m -5.422547,-0.56845 c -0.474252,-0.50481 -0.455747,-1.18042 0.04608,-1.68225 0.512691,-0.51269 1.474103,-0.56029 1.728173,-0.0855 0.279378,0.52202 0.206402,1.57136 -0.130482,1.87623 -0.436569,0.39509 -1.219237,0.34346 -1.643768,-0.10843 z m 8.248779,-2.2617 c -0.669687,-0.24773 -0.670002,-1.90781 -4.5e-4,-2.37679 0.505979,-0.35439 1.374969,-0.31299 1.582844,0.0754 0.318117,0.5944 0.203813,1.47522 -0.245476,1.8916 -0.500172,0.46355 -0.878259,0.57943 -1.336918,0.40976 z m -5.476396,-0.7999 c -0.437392,-0.81727 0.107264,-2.14836 0.87907,-2.14836 0.64242,0 0.991931,0.39048 0.972211,1.08618 -0.03056,1.07793 -1.417095,1.87347 -1.851281,1.06218 z m 8.152245,-2.97802 c -0.51856,-0.61628 -0.55013,-1.2752 -0.08917,-1.86121 0.370752,-0.47133 0.869605,-0.54896 1.546328,-0.24063 0.737815,0.33617 0.790014,1.62322 0.08601,2.12066 -0.765135,0.54064 -1.07559,0.53685 -1.543163,-0.0188 z m -10.542222,0.0511 c -0.584771,-0.14039 -0.739922,-0.39594 -0.739922,-1.21875 0,-0.71397 0.04819,-0.82439 0.421772,-0.96643 1.07038,-0.40696 1.71578,0.009 1.71578,1.10677 0,0.86439 -0.543204,1.28353 -1.39763,1.07841 z m 5.119412,-0.21992 c -0.760254,-0.59801 -0.46729,-1.92101 0.486377,-2.19642 0.219619,-0.0634 0.502197,0.025 0.781028,0.24428 0.35112,0.2762 0.436903,0.48161 0.436903,1.04618 0,1.16432 -0.82102,1.60076 -1.704308,0.90596 z m -2.73522,-3.2766 c -0.411612,-0.41162 -0.45464,-1.65943 -0.07047,-2.0436 0.340511,-0.34051 1.290532,-0.33025 1.638481,0.0177 0.407038,0.40704 0.222129,1.50632 -0.333812,1.98453 -0.530398,0.45623 -0.809966,0.46559 -1.2342,0.0414 z m 5.188774,-0.0366 c -0.140781,-0.201 -0.255965,-0.59648 -0.255965,-0.87887 0,-0.71278 0.464775,-1.09267 1.257013,-1.02745 0.505575,0.0416 0.675746,0.14462 0.853046,0.51629 0.420089,0.88063 -0.100041,1.75547 -1.043704,1.75547 -0.386531,0 -0.631939,-0.11067 -0.81039,-0.36544 z m -2.397383,-3.42025 c -0.236587,-0.23658 -0.324987,-0.54747 -0.324987,-1.1429 0,-0.73942 0.04655,-0.84198 0.485116,-1.06877 0.673531,-0.3483 1.096574,-0.31359 1.396472,0.11458 0.353554,0.50476 0.320488,0.97119 -0.113997,1.60802 -0.501741,0.73541 -1.020423,0.91126 -1.442604,0.48907 z m -5.224911,-0.85115 c -0.309922,-0.30992 -0.241865,-1.35567 0.108885,-1.6731 0.368336,-0.33334 1.229295,-0.60161 1.459821,-0.45488 0.322071,0.205 0.402443,1.13086 0.141906,1.63468 -0.33072,0.63954 -1.288244,0.91567 -1.710612,0.4933 z m 62.722514,30.73963 c 0.6441,-0.47521 0.66908,-0.5205 0.43936,-0.79687 -0.16291,-0.19599 0.0479,-0.22272 1.39763,-0.17721 3.4294,0.11561 6.89319,-1.23476 9.93233,-3.87214 3.43613,-2.98189 6.37337,-8.5865 7.09285,-13.53401 0.7167,-4.92842 0.72057,-6.99319 0.0208,-11.09784 -0.48881,-2.8673 -2.4313,-7.49649 -4.06889,-9.69667 -1.67095,-2.24498 -4.43669,-4.78606 -6.12596,-5.62833 -2.16204,-1.07801 -3.86074,-1.33315 -9.20791,-1.38299 -3.87601,-0.0361 -4.1549,-0.0185 -4.88545,0.30927 -2.40743,1.08006 -5.38013,3.73206 -7.05172,6.29098 -0.83938,1.28495 -1.89198,3.30144 -2.50616,4.80109 -0.86779,2.11893 -1.94098,7.23738 -2.16507,10.3262 -0.17317,2.38674 0.34311,6.96025 1.16502,10.32064 1.01572,4.15273 2.58992,7.14455 5.15358,9.79454 1.53173,1.58331 2.96162,2.55178 5.06318,3.42934 3.10796,1.29779 4.85051,1.57496 5.7464,0.914 z m 1.61777,-8.3138 c -4.13207,-1.23277 -7.32958,-4.95628 -8.56903,-9.97871 -1.52015,-6.15981 0.25855,-13.0046 4.44374,-17.1004 3.89719,-3.81396 9.12184,-4.29486 13.209,-1.21583 2.12488,1.60076 4.20393,4.85716 5.08035,7.95733 0.83377,2.94932 0.69946,7.83719 -0.30479,11.09162 -1.28271,4.15685 -4.47397,7.72247 -8.05494,8.99984 -1.60508,0.57256 -4.3238,0.68785 -5.80433,0.24615 z m 4.86186,-1.77304 c 2.76385,-0.81182 4.69172,-2.67161 6.37545,-6.15033 1.31411,-2.71505 1.79635,-7.17304 1.15614,-10.68775 -0.55232,-3.0322 -2.23064,-6.17806 -4.14149,-7.76286 -0.70862,-0.58772 -2.27099,-1.45711 -3.02405,-1.68275 -3.32967,-0.99771 -7.10477,0.56788 -9.51549,3.94621 -1.02689,1.43904 -2.12799,3.84548 -2.5557,5.5854 -0.28736,1.16899 -0.36572,1.98914 -0.37664,3.94246 -0.0121,2.17107 0.0398,2.67769 0.43393,4.23094 1.11849,4.408 3.88316,7.64011 7.36149,8.60611 1.0665,0.29619 3.23177,0.28233 4.28636,-0.0274 z m -2.65474,-3.8357 c -0.42748,-0.42748 -0.48063,-0.59296 -0.48063,-1.49629 0,-0.93582 0.0439,-1.0596 0.55905,-1.5747 0.30747,-0.30748 0.71811,-0.55905 0.91251,-0.55905 0.88981,0 1.81697,0.93423 1.81697,1.83083 0,0.61715 -0.66197,1.78032 -1.15966,2.03768 -0.69307,0.35841 -1.11197,0.2978 -1.64824,-0.23847 z m 4.75075,-6.0275 c -1.41263,-0.43471 -2.4257,-1.87413 -2.43251,-3.45628 -0.004,-1.05404 0.2447,-1.78477 0.88012,-2.5803 0.76277,-0.95497 1.38247,-1.26716 2.51534,-1.26716 2.0131,0 3.27084,1.43205 3.24927,3.69961 -0.0165,1.73122 -0.81203,3.01023 -2.24464,3.60867 -0.73118,0.30543 -0.96197,0.3049 -1.96758,-0.004 z m 1.12946,-1.8886 c 0.25458,-0.0965 0.62936,-0.33133 0.83284,-0.52194 0.51424,-0.48172 0.51158,-1.67412 -0.006,-2.44359 -0.32434,-0.48269 -0.47934,-0.56545 -1.13926,-0.60833 -0.72164,-0.0469 -0.78721,-0.0153 -1.18664,0.57255 -0.62967,0.92664 -0.58389,1.83148 0.13101,2.58949 0.60736,0.64399 0.68948,0.66872 1.36751,0.41182 z m -12.05395,1.44969 c -1.16002,-0.77735 -1.61264,-1.68526 -1.61893,-3.24744 -0.004,-1.06358 0.0592,-1.34238 0.46162,-2.02698 1.84844,-3.14472 6.19271,-1.72276 6.19271,2.02698 0,1.05562 -0.34557,1.88577 -1.11791,2.6855 -0.81816,0.84717 -1.34276,1.09633 -2.30831,1.09633 -0.64259,0 -0.97788,-0.11135 -1.60918,-0.53439 z m 2.85311,-1.8544 c 0.51967,-0.51967 0.57087,-0.64875 0.49165,-1.23936 -0.0991,-0.73867 -0.77431,-1.72941 -1.3608,-1.99664 -0.943,-0.42965 -1.92593,0.59712 -1.95047,2.03747 -0.0109,0.6377 0.0699,0.85666 0.46982,1.27431 0.70601,0.73725 1.56445,0.70957 2.3498,-0.0758 z m 3.33116,-7.39687 c -0.29482,-0.31382 -0.40564,-0.65317 -0.46036,-1.40963 -0.0686,-0.94854 -0.0459,-1.02331 0.4741,-1.5598 0.66429,-0.68537 1.24538,-0.72977 1.9368,-0.14799 0.6077,0.51135 0.76603,1.15813 0.50048,2.04446 -0.43103,1.43865 -1.61894,1.95867 -2.45102,1.07296 z m -84.595577,28.65868 c -0.778094,-0.55926 -1.836281,-1.69707 -2.850678,-3.06519 -4.202445,-5.66783 -6.228299,-13.48953 -5.627437,-21.72718 0.398603,-5.46475 1.27235,-9.04386 3.151035,-12.90752 1.798489,-3.69874 3.266006,-5.84646 5.326108,-7.79482 0.988797,-0.93516 0.840672,-0.9689 -0.750557,-0.17097 -2.656071,1.33191 -5.88239,4.00432 -7.555091,6.25801 -1.174773,1.58282 -2.975642,5.21486 -3.51835,7.09591 -1.01265,3.50988 -1.575889,7.47256 -1.466081,10.31465 0.291512,7.54498 2.872794,14.25286 7.075887,18.38785 0.857644,0.84375 2.086746,1.87526 2.731339,2.29224 1.697454,1.09808 4.823309,2.27977 3.483825,1.31702 z m 0.08418,-48.30648 c 0.170058,-0.091 1.14559,-0.28417 2.167848,-0.42922 2.652035,-0.37633 2.598774,-0.32354 2.597656,-2.57432 -0.0011,-2.25941 -0.166314,-2.903236 -0.913147,-3.558965 -0.522902,-0.459114 -0.681722,-0.50681 -1.68765,-0.50681 -1.549739,0 -2.439033,0.460113 -2.97361,1.538525 -0.386779,0.78025 -0.392061,0.84649 -0.229964,2.88373 0.146569,1.8421 0.368234,2.81253 0.642432,2.81253 0.04798,0 0.226376,-0.0745 0.396435,-0.16547 z m 90.962297,-0.2867 c 0.57921,-0.61406 0.784,-1.47977 0.78509,-3.31884 6.2e-4,-1.22103 -0.0697,-1.69713 -0.33083,-2.236536 -0.55805,-1.152795 -0.81943,-1.214226 -5.38212,-1.265043 -2.19306,-0.02442 -3.98737,-0.02871 -3.98735,-0.0094 1e-5,0.0192 0.15936,0.460816 0.35411,0.981336 0.29969,0.800993 0.35195,1.275603 0.34014,3.089173 -0.008,1.17853 -0.0375,2.32776 -0.0663,2.55385 l -0.0524,0.41106 2.21977,0.0895 c 1.22087,0.0492 3.00134,0.10474 3.95659,0.12332 1.70118,0.0331 1.74559,0.0245 2.16334,-0.41837 z m -10.61316,-0.0264 c 0.41824,-0.38965 0.61951,-2.09439 0.45309,-3.83766 -0.13462,-1.410113 -0.3384,-1.86446 -1.15965,-2.58553 -0.58519,-0.513801 -0.65924,-0.534148 -1.65352,-0.45434 -1.8383,0.147565 -2.8446,1.2736 -2.97662,3.33081 -0.0973,1.51628 0.18089,2.70884 0.75705,3.24529 0.60505,0.56333 0.71027,0.58783 2.58812,0.60257 1.41242,0.0111 1.70367,-0.0329 1.99153,-0.30114 z m -72.375151,-1.98823 c 0.715947,-0.18311 2.487077,-0.41639 3.991466,-0.52574 l 2.704417,-0.19656 -0.06987,-1.32407 c -0.07362,-1.39506 -0.349913,-2.056874 -1.018915,-2.440623 -0.339992,-0.195026 -7.507159,-0.463849 -7.493624,-0.281072 0.0034,0.04524 0.113285,0.526168 0.244303,1.068774 0.131018,0.542611 0.239371,1.670991 0.240783,2.507511 0.0014,0.83653 0.02773,1.52096 0.05848,1.52096 0.03075,0 0.635084,-0.14813 1.342961,-0.32918 z m 0.738679,-6.385142 c 0,-0.07548 -0.610436,-0.108015 -1.356523,-0.0723 -1.979222,0.09474 -2.07501,0.168711 -0.24664,0.190463 0.88174,0.01049 1.603163,-0.04268 1.603163,-0.118161 z m 73.953982,-0.144679 c -0.24707,-0.03752 -0.69102,-0.03828 -0.98656,-0.0017 -0.29553,0.0366 -0.0934,0.06729 0.44923,0.06822 0.54262,9.32e-4 0.78441,-0.02902 0.53733,-0.06654 z M 57.421073,94.673103 c 0.884209,-0.297869 1.137831,-0.318488 2.022512,-0.164428 0.55634,0.09688 2.834197,0.17615 5.061905,0.17615 h 4.050378 l 0.579185,-0.508531 c 0.638822,-0.560893 0.771549,-0.937025 1.155058,-3.27329 0.14103,-0.859131 0.299417,-1.758985 0.351971,-1.999676 0.07061,-0.323386 0.01616,-0.478494 -0.208581,-0.594209 -0.172948,-0.08904 -4.037874,-0.203373 -8.960229,-0.265051 l -8.656095,-0.108462 -0.181857,0.521673 c -0.261752,0.750865 -0.233555,4.141613 0.03987,4.794091 0.398485,0.950919 1.048209,1.572651 1.716889,1.642923 1.415402,0.148744 2.073523,0.100685 3.028995,-0.22119 z m 4.00828,-3.947142 c -0.234126,-0.278243 -0.425684,-0.648203 -0.425684,-0.822135 0,-0.460768 0.587186,-0.973946 1.114403,-0.973946 1.187335,0 1.591022,1.111132 0.681678,1.876294 -0.650972,0.547757 -0.851892,0.535996 -1.370397,-0.08021 z m 5.570126,-0.161156 c -0.150223,-0.243066 0.03875,-0.904495 0.346295,-1.212034 0.194576,-0.194575 0.335674,-0.216142 0.575248,-0.08793 0.402765,0.215554 0.444907,1.225206 0.05735,1.373927 -0.399895,0.153454 -0.859814,0.118702 -0.97889,-0.07397 z m 66.810791,3.973222 c 0.33553,-0.171173 0.65417,-0.337655 0.7081,-0.36996 0.054,-0.0323 0.23175,0.05225 0.39516,0.187904 0.2443,0.202797 1.10491,0.256905 4.84134,0.304383 5.34504,0.06792 5.48683,0.03933 6.10783,-1.231638 0.34545,-0.706994 0.39085,-1.031001 0.39344,-2.807587 0.002,-1.572301 -0.0506,-2.060214 -0.24371,-2.247193 -0.20197,-0.195574 -1.28904,-0.256494 -6.00159,-0.33633 -3.16522,-0.05362 -6.93882,-0.142908 -8.38577,-0.198412 -3.04152,-0.116669 -4.03087,0.04184 -4.02481,0.64485 0.002,0.199992 0.10284,1.300358 0.22408,2.445258 0.35264,3.330371 0.90194,3.876201 3.9306,3.905818 1.11407,0.01089 1.58509,-0.05719 2.05533,-0.297093 z m 0.86968,-0.935679 c 0.008,-0.191549 0.0468,-0.23051 0.0993,-0.09934 0.0475,0.118696 0.0416,0.260514 -0.013,0.315152 -0.0546,0.05464 -0.0935,-0.04248 -0.0864,-0.21581 z m 0.1835,-0.808433 c 0.003,-0.271305 0.0402,-0.362387 0.0819,-0.202405 0.0417,0.159982 0.039,0.381959 -0.006,0.493281 -0.0451,0.111323 -0.0791,-0.01957 -0.0758,-0.290876 z m -0.006,-1.233203 c 0,-0.226087 0.0373,-0.318577 0.0829,-0.205533 0.0456,0.113043 0.0456,0.298023 0,0.411067 -0.0456,0.113044 -0.0829,0.02055 -0.0829,-0.205534 z m 7.85417,-0.539617 c -0.14244,-0.110168 -0.39363,-0.407137 -0.55818,-0.659933 -0.25253,-0.387944 -0.26701,-0.519745 -0.0929,-0.84508 0.11346,-0.211998 0.38654,-0.467579 0.60685,-0.567958 0.34277,-0.156177 0.45877,-0.124293 0.80407,0.221005 0.44021,0.440214 0.50783,0.899586 0.21447,1.456938 -0.31917,0.606369 -0.5697,0.707945 -0.97431,0.395028 z m -5.72997,-0.379348 c -0.27824,-0.234126 -0.50589,-0.554193 -0.50589,-0.71126 0,-0.449413 0.70133,-1.000607 1.27315,-1.000607 1.01256,0 1.36944,0.989745 0.62523,1.733958 -0.51133,0.511332 -0.7633,0.507335 -1.39249,-0.02209 z m -79.609504,-3.833727 2.205544,-0.0979 0.489661,-1.233203 c 0.748926,-1.886156 2.517481,-5.215701 3.374751,-6.353428 1.776409,-2.357561 2.217055,-2.862007 4.077126,-4.667436 2.882228,-2.797558 6.057992,-4.769862 10.173874,-6.318469 0.904349,-0.340262 1.772753,-0.684675 1.929787,-0.765362 0.393908,-0.202397 0.65855,-0.183645 0.583551,0.04135 -0.03448,0.103429 -0.271829,0.210352 -0.527451,0.237605 -0.255621,0.02726 -0.612682,0.208321 -0.793467,0.402372 -0.180786,0.19405 -0.892999,0.613238 -1.582696,0.931528 -0.689696,0.31829 -1.845931,0.988026 -2.56941,1.488301 -1.147004,0.793136 -2.149734,1.384013 -4.91571,2.896671 -1.648426,0.901492 -4.933497,4.388016 -6.193273,6.573068 -1.191916,2.067351 -2.971321,5.871394 -2.918883,6.240038 l 0.05157,0.362537 h 4.68617 4.68617 l 1.562057,-3.143912 c 2.610641,-5.254372 4.739982,-7.737905 9.043485,-10.547766 3.499766,-2.285081 6.638653,-3.592595 10.934393,-4.554758 2.497093,-0.5593 4.277305,-0.737195 7.728072,-0.772261 1.627823,-0.01654 2.645213,-0.0584 2.260873,-0.09302 -0.38435,-0.03462 -0.69882,-0.125752 -0.69882,-0.20252 0,-0.07677 0.14165,-0.102537 0.31478,-0.05726 0.41216,0.107781 0.82772,-0.57091 0.48323,-0.789204 -0.12239,-0.07755 -0.31501,-0.142132 -0.42805,-0.143517 -0.11304,-0.0014 -0.20553,-0.08088 -0.20553,-0.176649 0,-0.09577 0.0823,-0.123288 0.18281,-0.06115 0.10055,0.06214 0.24594,0.01101 0.32308,-0.113616 0.19152,-0.309396 1.93042,-0.294699 2.12365,0.01795 0.0771,0.124693 0.47564,0.311907 0.88572,0.41603 0.41007,0.104124 0.71405,0.138265 0.67548,0.07587 -0.0385,-0.0624 0.11177,-0.07868 0.33406,-0.03619 0.2223,0.04249 0.36697,0.137467 0.32149,0.21105 -0.11314,0.183078 0.53078,0.371593 0.76816,0.224884 0.11894,-0.07351 0.147,-0.04654 0.0742,0.0713 -0.22239,0.359838 0.74038,0.958672 1.86525,1.160172 3.09409,0.554248 6.09924,2.132299 9.87512,5.185566 1.76052,1.423599 3.31072,3.085074 4.6277,4.959888 1.30252,1.854209 3.18012,5.501141 3.72967,7.244234 0.2041,0.647408 0.48509,1.220847 0.6244,1.27431 0.13933,0.05346 1.61147,0.0972 3.27143,0.0972 h 3.01812 l -0.0712,-0.616602 -0.0712,-0.616601 0.16846,0.534388 0.16847,0.534388 h 2.84651 c 1.56558,0 4.0792,0.04862 5.58582,0.108035 l 2.7393,0.108036 v -0.5728 c 0,-1.359766 -1.55798,-5.883179 -3.05843,-8.879812 -1.29994,-2.596147 -3.90946,-6.299162 -5.72911,-8.12982 -1.74861,-1.759201 -5.3189,-4.515861 -7.24409,-5.593249 -2.5486,-1.426268 -6.47781,-2.921997 -9.28009,-3.532643 -3.71703,-0.80998 -4.56439,-0.970728 -7.24482,-1.374374 -1.80317,-0.271538 -3.85265,-0.459552 -5.48942,-0.503586 -1.43657,-0.03865 -3.84131,-0.144757 -5.34388,-0.2358 -14.434179,-0.874591 -25.048034,1.351126 -33.559854,7.037478 -2.623565,1.752682 -3.993383,2.871071 -6.134912,5.008853 -3.981167,3.974201 -6.127081,7.408703 -7.829642,12.53122 -0.92575,2.785319 -1.178798,4.139358 -0.818339,4.378876 0.125929,0.08368 0.561927,0.101621 0.968884,0.03987 0.406957,-0.06175 1.732416,-0.156323 2.945465,-0.210171 z m 74.749284,-5.890291 c -0.48991,-1.31992 -1.234,-3.013563 -2.00628,-4.566515 -0.54854,-1.103038 -0.63828,-1.375175 -0.35245,-1.068776 0.48435,0.519204 1.37875,1.150989 1.62941,1.150989 0.13002,0 0.13921,0.06578 0.0287,0.205534 -0.21119,0.267124 -0.3663,1.126355 -0.18287,1.012989 0.0774,-0.04781 0.14113,0.1579 0.14169,0.457151 5.5e-4,0.29925 0.11814,0.766068 0.26131,1.037372 0.28815,0.54605 0.90524,2.422422 0.82354,2.50412 -0.0285,0.02851 -0.18289,-0.301282 -0.34307,-0.732864 z m -2.96932,-6.303938 c -0.0596,-0.09645 -0.0731,-0.210631 -0.03,-0.253732 0.0431,-0.0431 0.12218,0.03581 0.17573,0.175366 0.11119,0.289738 0.0164,0.340703 -0.14571,0.07837 z M 80.406055,67.21269 c 0,-0.148664 1.171225,-0.51503 1.284467,-0.401788 0.03836,0.03836 -0.130988,0.120137 -0.37634,0.181717 -0.286742,0.07197 -0.375505,0.155588 -0.248488,0.23409 0.117342,0.07252 0.02351,0.122126 -0.231016,0.122126 -0.235742,0 -0.428623,-0.06126 -0.428623,-0.136145 z m 20.471165,-1.631445 c 0.18087,-0.07772 0.47684,-0.141313 0.6577,-0.141313 h 0.32886 l -0.32886,0.141313 c -0.18086,0.07772 -0.47683,0.141313 -0.6577,0.141313 h -0.32886 z m -3.781825,-0.323652 c -0.265735,-0.109987 -0.22516,-0.134493 0.211401,-0.127681 0.297137,0.0047 0.578973,0.07109 0.626304,0.147668 0.1074,0.173772 -0.398746,0.161696 -0.837705,-0.01999 z m 2.589727,0.04588 c 0.15826,-0.04136 0.417228,-0.04136 0.575498,0 0.15826,0.04136 0.0288,0.0752 -0.287751,0.0752 -0.31652,0 -0.446007,-0.03384 -0.287747,-0.0752 z m 4.278228,2.307469 c -0.11132,-0.04504 -0.3333,-0.04778 -0.49328,-0.0061 -0.15998,0.04169 -0.0689,0.07854 0.20241,0.08189 0.2713,0.0034 0.40219,-0.03076 0.29087,-0.0758 z m -2.01736,-1.536415 c 0,-0.09043 -0.0326,-0.164427 -0.0725,-0.164427 -0.0399,0 -0.11824,0.07399 -0.17412,0.164427 -0.0559,0.09043 -0.0232,0.164427 0.0725,0.164427 0.0958,0 0.17413,-0.07399 0.17413,-0.164427 z m 1.31542,-0.164427 c -0.13565,-0.08767 -0.32063,-0.159391 -0.41107,-0.159391 -0.0904,0 -0.0534,0.07173 0.0822,0.159391 0.13565,0.08767 0.32064,0.159391 0.41107,0.159391 0.0904,0 0.0534,-0.07173 -0.0822,-0.159391 z"
       id="path1" /></g></svg>
