<?xml version="1.0" encoding="UTF-8" standalone="no"?>
<!-- Created with Inkscape (http://www.inkscape.org/) -->

<svg
   width="166.91136mm"
   height="166.91136mm"
   viewBox="0 0 166.91136 166.91136"
   version="1.1"
   id="svg1"
   xml:space="preserve"
   sodipodi:docname="walkman.svg"
   inkscape:version="1.3.2 (091e20ef0f, 2023-11-25)"
   xmlns:inkscape="http://www.inkscape.org/namespaces/inkscape"
   xmlns:sodipodi="http://sodipodi.sourceforge.net/DTD/sodipodi-0.dtd"
   xmlns="http://www.w3.org/2000/svg"
   xmlns:svg="http://www.w3.org/2000/svg"><sodipodi:namedview
     id="namedview1"
     pagecolor="#ffffff"
     bordercolor="#000000"
     borderopacity="0.25"
     inkscape:showpageshadow="2"
     inkscape:pageopacity="0.0"
     inkscape:pagecheckerboard="0"
     inkscape:deskcolor="#d1d1d1"
     inkscape:document-units="mm"
     inkscape:zoom="0.53589645"
     inkscape:cx="356.41214"
     inkscape:cy="399.33088"
     inkscape:window-width="1920"
     inkscape:window-height="1008"
     inkscape:window-x="0"
     inkscape:window-y="35"
     inkscape:window-maximized="1"
     inkscape:current-layer="layer1" /><defs
     id="defs1" /><g
     inkscape:label="Layer 1"
     inkscape:groupmode="layer"
     id="layer1"
     transform="translate(-20.298346,-40.600342)"><path
       style="stroke-width:0.660584;fill-opacity:1"
       d="m 68.81175,179.90695 c -4.904433,-1.55206 -12.984097,-4.82707 -19.487902,-7.89922 -2.762544,-1.30492 -4.263118,-2.65812 -5.447258,-4.91228 -0.496647,-0.94544 -1.068417,-2.26953 -1.2706,-2.94243 l -0.367606,-1.22345 0.04991,-32.3342 0.04991,-32.334181 0.37213,-1.084664 c 0.577081,-1.68203 1.94232,-4.039318 2.834579,-4.894316 2.126754,-2.037941 4.120227,-2.890969 11.687702,-5.001286 l 1.966268,-0.548328 V 85.53792 c 0,-1.399271 0.119953,-1.679206 1.195956,-2.791003 1.493142,-1.542816 4.427068,-2.357365 7.800106,-2.165553 2.174168,0.123635 3.275758,0.377955 4.871369,1.124631 0.977267,0.457319 1.140259,0.487795 1.438725,0.269013 0.18513,-0.135704 1.319733,-0.552345 2.521342,-0.925868 2.187196,-0.679896 9.755756,-3.01275 13.370623,-4.121221 2.090066,-0.640902 11.392646,-3.276644 14.069736,-3.986441 0.91323,-0.242129 2.80084,-0.76398 4.19471,-1.159667 1.39386,-0.395687 3.83203,-1.064821 5.41816,-1.486965 1.58612,-0.422144 3.50085,-1.01179 4.25495,-1.310325 0.75409,-0.298534 2.52373,-0.846384 3.93253,-1.217443 1.4088,-0.371059 2.77111,-0.755443 3.02737,-0.854187 0.88829,-0.342287 5.30712,-1.457483 6.39535,-1.614013 0.83786,-0.120519 1.34034,-0.325757 2.14906,-0.877778 1.3101,-0.894272 2.58488,-1.299679 4.88132,-1.552373 1.98692,-0.218636 3.1504,-0.134274 5.03859,0.365341 2.80759,0.742886 4.40281,2.084969 4.40281,3.704152 0,0.35026 0.21225,0.497523 1.44193,1.000436 0.79306,0.324345 2.38574,1.0352 3.53929,1.579679 1.15354,0.544478 2.60858,1.208098 3.23341,1.47471 2.34412,1.000211 3.77163,1.698709 4.30846,2.108173 0.30461,0.232329 1.15724,0.712862 1.89475,1.067853 1.68486,0.810984 2.81993,1.945309 3.76574,3.763287 1.32987,2.556185 1.25216,0.468109 1.22968,33.039572 -0.012,17.33273 -0.0866,29.49052 -0.18416,30.00505 -0.29536,1.55744 -1.3964,3.93348 -2.53846,5.47798 -1.88834,2.55374 -3.51465,3.60584 -7.77689,5.03105 -1.10548,0.36965 -4.52679,1.54865 -7.6029,2.62001 -3.07612,1.07134 -6.57608,2.28868 -7.77769,2.70517 -6.30193,2.18432 -11.76699,4.07119 -14.4193,4.97841 -1.63418,0.55897 -3.5218,1.23003 -4.1947,1.49125 -0.6729,0.26122 -2.44255,0.89218 -3.93254,1.40213 -1.48999,0.50994 -4.04614,1.39624 -5.68034,1.96954 -3.919,1.37484 -16.69301,5.85731 -20.449168,7.17573 -5.378025,1.88769 -15.780873,5.45032 -17.254942,5.90923 -2.15243,0.67012 -5.139881,0.74294 -6.95201,0.16947 z m 6.029889,-2.03919 c 0.672901,-0.167 3.425676,-1.06423 6.117278,-1.99386 2.691603,-0.92962 5.326407,-1.8342 5.855107,-2.01017 0.52871,-0.17598 2.101728,-0.72998 3.495588,-1.23111 2.890911,-1.03936 8.183098,-2.90276 12.409338,-4.36938 1.58612,-0.55043 3.55239,-1.23765 4.36949,-1.52714 1.64982,-0.58453 12.78027,-4.48584 15.38058,-5.39101 0.91322,-0.3179 2.80084,-0.97388 4.19471,-1.45776 4.37478,-1.51869 10.71603,-3.73876 16.51665,-5.7825 3.07611,-1.08382 6.18282,-2.16634 6.90378,-2.40562 0.72097,-0.23927 2.13668,-0.7316 3.14604,-1.09408 1.00935,-0.36247 2.7949,-0.99044 3.96788,-1.39551 1.17299,-0.40507 2.61755,-1.02307 3.21013,-1.37335 3.03327,-1.79293 4.96007,-5.37512 5.23185,-9.72674 0.0721,-1.15429 0.10045,-14.32828 0.0631,-29.27555 -0.0742,-29.633978 -0.0231,-28.18932 -1.06481,-30.103195 -0.6488,-1.192054 -1.9684,-2.3385 -3.06734,-2.664851 -1.35055,-0.401068 -3.1927,-0.338011 -4.7924,0.164045 -0.74996,0.235368 -5.09948,1.493402 -9.66558,2.795631 -9.21906,2.629223 -12.91727,3.691778 -15.90493,4.569734 -1.10548,0.324859 -3.66163,1.055154 -5.68033,1.62288 -2.0187,0.567724 -5.32204,1.516265 -7.34073,2.107868 -2.0187,0.591603 -4.77148,1.395625 -6.11728,1.786715 -1.3458,0.391091 -4.29521,1.259465 -6.55423,1.92972 -4.35976,1.293546 -7.72023,2.259997 -12.409336,3.568839 -1.586119,0.442725 -4.024297,1.144525 -5.418157,1.559557 -1.393869,0.415031 -4.343271,1.267503 -6.55423,1.894383 -7.575554,2.147914 -11.162019,3.267884 -12.148543,3.793694 -1.214825,0.6475 -2.1287,1.51244 -2.975211,2.81588 -1.315649,2.02583 -1.229174,-0.4379 -1.243198,35.41943 -0.01248,31.92249 -0.01059,32.10406 0.34539,33.10058 0.952863,2.66744 3.313241,4.65047 5.954804,5.00283 1.181617,0.15762 2.151763,0.0728 3.7747,-0.32996 z m 9.027499,-19.12287 c -3.902887,-0.74356 -6.801586,-3.10888 -8.764799,-7.15199 -1.403814,-2.89107 -1.656952,-4.0414 -1.659106,-7.53951 -0.0014,-2.28949 0.07303,-3.29208 0.324385,-4.36948 0.467082,-2.00203 1.395878,-4.47612 2.309794,-6.15272 1.019759,-1.87077 3.09048,-4.64856 4.19098,-5.62204 1.956655,-1.73081 5.043399,-3.4814 7.504921,-4.25627 1.317607,-0.41478 4.145448,-0.58018 5.833294,-0.34117 1.544203,0.21865 3.802503,1.24366 5.352593,2.42944 2.6503,2.02744 4.5987,5.42544 5.34337,9.31882 0.30387,1.58872 0.25692,5.00873 -0.0968,7.05331 -1.13975,6.58753 -6.01311,13.03373 -11.751189,15.54382 -0.789828,0.34551 -1.926653,0.75532 -2.526296,0.9107 -1.514347,0.39241 -4.476673,0.47896 -6.061117,0.17709 z m 5.252113,-1.68769 c 0.509404,-0.10562 1.75203,-0.53955 2.761379,-0.96428 2.449795,-1.03086 4.41429,-2.50869 6.04568,-4.54795 2.9351,-3.66894 3.8481,-5.5604 4.44253,-9.2036 0.59343,-3.63711 0.41699,-6.74256 -0.5482,-9.64864 -1.0978,-3.30533 -2.79532,-5.21221 -6.00747,-6.74836 -2.135233,-1.02113 -4.671911,-1.29241 -7.158914,-0.76558 -2.603692,0.55155 -6.631479,2.99385 -8.428485,5.11072 -2.401948,2.8295 -4.079769,6.2425 -4.876041,9.91874 -0.403305,1.86198 -0.412792,5.79118 -0.01836,7.6029 0.537572,2.46917 2.604699,5.84179 4.380667,7.14728 1.011145,0.74328 2.663008,1.51199 4.216127,1.96203 1.221969,0.35408 3.813569,0.42235 5.191083,0.13674 z m -3.502843,-2.97233 c -1.622929,-0.24506 -3.10403,-0.98776 -4.405867,-2.2093 -2.600244,-2.43987 -3.754142,-5.8903 -3.319593,-9.92637 0.65847,-6.11583 3.907762,-10.90788 8.877921,-13.09313 2.056304,-0.9041 3.737521,-1.12188 5.816339,-0.7534 2.758792,0.48899 4.369722,1.57461 5.938642,4.00202 1.24537,1.92682 1.48677,3.04478 1.46675,6.79271 -0.0207,3.86163 -0.27131,5.03265 -1.67837,7.84043 -2.49359,4.9759 -7.854279,8.07813 -12.695822,7.34704 z m 4.429034,-2.12291 c 2.137287,-0.86299 3.143732,-1.46688 4.399975,-2.64008 2.383733,-2.22614 3.718423,-5.01979 4.121493,-8.62673 0.34149,-3.05586 -0.20507,-5.59576 -1.67647,-7.79074 -0.88416,-1.31896 -1.89834,-2.02982 -3.798898,-2.66277 -1.243373,-0.41408 -1.625302,-0.46357 -3.105804,-0.40244 -1.629054,0.0673 -1.745512,0.10004 -3.330138,0.93729 -4.596918,2.42874 -7.359086,7.18341 -7.359086,12.66757 0,4.26359 2.455668,7.98848 5.834748,8.85048 1.336236,0.34088 3.630925,0.18558 4.91418,-0.33258 z m -3.609455,-3.44159 c -1.378563,-0.18854 -2.645151,-1.02108 -3.207313,-2.10819 -1.052413,-2.03513 -1.302178,-5.1066 -0.595403,-7.32191 0.947128,-2.96867 4.024237,-5.66231 6.750842,-5.90955 2.120766,-0.19231 4.005821,0.85529 5.442847,3.02481 1.41744,2.13994 1.10203,6.06277 -0.70244,8.73649 -1.790096,2.65242 -4.667409,3.99156 -7.688533,3.57835 z m 3.95435,-2.72455 c 1.167202,-0.55218 2.068234,-1.53586 2.776978,-3.03171 0.476962,-1.00665 0.547287,-1.34 0.539238,-2.55586 -0.01503,-2.26568 -0.946077,-3.76867 -2.754898,-4.44711 -0.829969,-0.31131 -2.329113,-0.22304 -3.141612,0.18497 -1.750555,0.87908 -2.547783,1.89308 -3.125001,3.97471 -0.56165,2.02548 -0.376407,3.48689 0.604662,4.77026 1.190526,1.55738 3.216352,1.99614 5.100633,1.10474 z m 15.583433,10.29308 c -0.7942,-0.7942 -1.4612,-3.78983 -0.94012,-4.22228 0.38902,-0.32286 0.63738,0.0851 0.84552,1.38891 0.0974,0.61042 0.28219,1.21625 0.41056,1.34628 0.19544,0.198 0.26869,0.12695 0.45044,-0.43694 0.11937,-0.37036 0.28833,-0.76359 0.37547,-0.87382 0.21641,-0.27379 0.82614,-0.0942 1.45642,0.42896 l 0.52434,0.43522 0.0496,-1.86119 c 0.0446,-1.6732 0.0821,-1.8612 0.37141,-1.8612 0.39852,0 0.54171,0.624 0.53642,2.33768 -0.004,1.31185 -0.36646,2.41723 -0.95124,2.90124 -0.28313,0.23435 -0.36197,0.19743 -0.8697,-0.40734 l -0.55835,-0.66506 -0.21134,0.7054 c -0.20481,0.68358 -0.60617,1.24535 -0.88976,1.24535 -0.0761,0 -0.34601,-0.20754 -0.59968,-0.46121 z m 5.92447,-1.27788 c -0.0513,-0.083 -0.17446,-0.94253 -0.27376,-1.91017 -0.16676,-1.62502 -0.15357,-1.8122 0.17267,-2.45168 0.41861,-0.82056 0.95994,-1.23979 1.60087,-1.23979 1.10778,0 1.53143,0.96997 1.54588,3.53929 0.007,1.33034 -2e-4,1.35454 -0.42935,1.35454 -0.39207,0 -0.43694,-0.0706 -0.43694,-0.68802 v -0.68802 l -0.74281,0.21419 c -0.72331,0.20857 -0.7442,0.23542 -0.79546,1.02231 -0.0493,0.75612 -0.40604,1.22767 -0.6411,0.84735 z m 1.78611,-3.02594 c 0.4142,-0.3253 0.12562,-1.52702 -0.3667,-1.52702 -0.59478,0 -1.42945,1.4227 -1.05459,1.79755 0.14067,0.14068 1.13989,-0.0495 1.42129,-0.27053 z m 2.76556,1.45724 c -0.0315,-0.0552 -0.114,-1.15279 -0.18325,-2.43904 -0.12916,-2.39921 -0.0527,-2.7508 0.54787,-2.52031 0.17597,0.0675 0.23433,0.56166 0.23433,1.98411 v 1.89419 l 0.889,-0.36946 c 0.75116,-0.31217 0.91333,-0.33099 1.046,-0.1214 0.37149,0.58693 0.16997,0.80267 -1.15714,1.23876 -0.72571,0.23845 -1.34528,0.38838 -1.37681,0.33315 z m 3.67927,-1.54233 c -0.0585,-0.26436 -0.15743,-1.4253 -0.21975,-2.57989 -0.096,-1.77821 -0.0718,-2.13365 0.15792,-2.32431 0.34698,-0.28797 0.44646,-0.1137 0.51168,0.89639 0.029,0.4498 0.10066,0.81787 0.15915,0.81794 0.1279,1.7e-4 1.2685,-1.70821 1.42938,-2.1409 0.15359,-0.41313 0.8238,-0.40416 0.8238,0.0111 0,0.1743 -0.32482,0.85546 -0.72181,1.51369 l -0.72182,1.19678 0.80921,0.75367 c 0.44506,0.41453 0.8092,0.87628 0.8092,1.02612 0,0.51252 -0.51441,0.48116 -1.14168,-0.0696 -0.81029,-0.71146 -1.12978,-0.70435 -1.13284,0.0252 -0.006,1.26837 -0.53946,1.8806 -0.76244,0.8739 z m 4.5417,-1.23623 c -0.17372,-0.28109 -0.45344,-2.40679 -0.45474,-3.45573 -9.3e-4,-0.8579 0.0694,-1.1293 0.36208,-1.39416 0.35666,-0.32277 0.37639,-0.32139 1.06385,0.0743 0.38525,0.22172 0.72327,0.37718 0.75118,0.34548 0.0278,-0.0317 0.2193,-0.39192 0.42532,-0.80046 0.3962,-0.78567 0.84564,-0.9575 1.24518,-0.47608 0.13854,0.16695 0.25321,1.03986 0.30647,2.33314 0.0809,1.96381 0.0676,2.07101 -0.26845,2.15888 -0.3279,0.0857 -0.36258,-0.0157 -0.47759,-1.39647 l -0.12404,-1.48892 -0.64388,0.7476 -0.64387,0.7476 -0.56184,-0.29054 -0.56184,-0.29053 v 1.6649 c 0,1.47663 -0.13701,1.9754 -0.41783,1.52103 z m 5.24999,-2.84517 c -0.2422,-2.31723 -0.0698,-3.07405 0.86825,-3.81194 0.6321,-0.4972 0.99596,-0.4597 1.72164,0.17745 l 0.6178,0.54245 v 1.7093 c 0,1.56232 -0.03,1.71717 -0.34956,1.80071 -0.29034,0.076 -0.34956,0.006 -0.34956,-0.41655 0,-0.45844 -0.0564,-0.50798 -0.57832,-0.50798 -0.74825,0 -1.13428,0.30818 -1.20229,0.95979 -0.0325,0.31074 -0.16821,0.54437 -0.33471,0.5759 -0.22335,0.0423 -0.30308,-0.16635 -0.39325,-1.02913 z m 2.29925,-1.81035 c 0.30448,-0.2844 -0.0504,-1.09107 -0.54977,-1.24955 -0.44204,-0.1403 -1.16348,0.62588 -1.16348,1.23561 0,0.38094 0.0537,0.40393 0.74281,0.31858 0.40855,-0.0506 0.84525,-0.18769 0.97044,-0.30464 z m 2.40098,1.48976 c -0.0619,-0.10012 -0.18434,-1.06602 -0.27216,-2.14644 -0.13316,-1.63829 -0.11648,-2.03032 0.10051,-2.36149 0.1431,-0.2184 0.35441,-0.39708 0.46956,-0.39708 0.11516,0 0.66267,0.44856 1.2167,0.9968 l 1.00731,0.99681 -0.11056,-1.43375 c -0.0963,-1.24828 -0.0741,-1.43376 0.17136,-1.43376 0.48129,0 0.64379,0.61112 0.64379,2.42113 0,2.57668 -0.26477,2.90481 -1.22165,1.51403 -0.46906,-0.68176 -0.98846,-1.13869 -1.29436,-1.13869 -0.0507,0 -0.1148,0.68185 -0.14258,1.51522 -0.0473,1.41961 -0.25913,1.96685 -0.56792,1.46722 z m -26.8771,-4.21869 c -0.16705,-0.0973 -0.38589,-0.33049 -0.48631,-0.51814 -0.11606,-0.21684 -0.21844,-3.54976 -0.28091,-9.145 -0.11001,-9.84999 -0.14829,-9.49688 1.11951,-10.3266 0.3578,-0.23417 4.18984,-1.60618 8.51562,-3.04893 4.32579,-1.44274 9.15993,-3.0654 10.74254,-3.60588 3.08323,-1.05299 3.6765,-1.10969 4.30818,-0.41172 0.31307,0.34592 0.33196,0.81951 0.37078,9.30358 0.0279,6.11182 -0.0191,9.08845 -0.14877,9.41125 -0.10431,0.25967 -0.36779,0.58883 -0.5855,0.73148 -0.37496,0.24569 -3.91882,1.63455 -5.42392,2.12566 -0.38451,0.12548 -2.50808,0.86462 -4.71904,1.64255 -7.73429,2.72132 -11.89343,4.04327 -12.67151,4.02754 -0.24032,-0.005 -0.57363,-0.0885 -0.74067,-0.18579 z m 3.34046,-2.19267 c 1.95454,-0.60838 5.88179,-1.93114 7.88697,-2.65645 0.52871,-0.19125 2.2197,-0.76169 3.75776,-1.26764 1.53806,-0.50596 3.77961,-1.33217 4.98121,-1.83601 l 2.18474,-0.91609 0.14755,-5.28886 c 0.15793,-5.66104 0.0858,-7.15257 -0.34576,-7.15257 -0.46779,0 -2.88294,0.81964 -6.70557,2.27571 -0.72096,0.27463 -2.64791,0.90505 -4.2821,1.40095 -4.67482,1.41861 -9.41943,2.99908 -9.63521,3.20959 -0.10998,0.1073 -0.24314,1.08086 -0.3012,2.20228 -0.0922,1.77942 -0.078,1.93799 0.12322,1.38247 0.31244,-0.86248 1.11358,-1.87299 1.7429,-2.19843 0.60121,-0.3109 2.31933,-0.50699 2.9829,-0.34045 0.56824,0.14263 1.61909,1.05754 1.9503,1.69801 0.4092,0.7913 0.32521,2.47399 -0.17249,3.45617 -0.47415,0.93569 -1.4358,1.86402 -2.30873,2.22876 -1.53892,0.64301 -3.12288,-0.0749 -3.81378,-1.72835 -0.15007,-0.35917 -0.31112,-0.65304 -0.35789,-0.65304 -0.0468,0 -0.0851,1.5337 -0.0851,3.4082 0,1.87451 0.0491,3.4082 0.10919,3.4082 0.06,0 1.02352,-0.28461 2.14104,-0.63245 z m 13.21775,-8.61233 c -0.94708,-0.42017 -1.66041,-1.78554 -1.66041,-3.17817 0,-1.528 1.18646,-3.32536 2.74128,-4.15273 1.01071,-0.53782 3.22247,0.007 3.83736,0.94565 0.34536,0.52708 0.41685,1.84866 0.17759,3.28292 -0.16538,0.99132 -1.15332,2.19416 -2.27011,2.76391 -0.76822,0.39191 -2.29341,0.57457 -2.82571,0.33842 z m 2.42885,-1.23082 c 1.03406,-0.63909 1.67846,-1.88572 1.67846,-3.24709 0,-0.87825 -0.41898,-1.48513 -1.32072,-1.91304 -0.79969,-0.37948 -1.38209,-0.17174 -2.26817,0.80904 -0.72169,0.79882 -0.95537,1.32969 -0.95537,2.1703 0,1.02822 1.20588,2.48696 2.07671,2.51218 0.13285,0.004 0.48795,-0.14527 0.78909,-0.33139 z m -13.98931,4.99176 c 1.19186,-0.49798 2.18061,-2.31269 1.86317,-3.41954 -0.47594,-1.65953 -1.96432,-2.38758 -3.26261,-1.59593 -0.78388,0.47799 -1.63557,1.78113 -1.62799,2.49095 0.008,0.81511 0.65659,1.83771 1.56201,2.46539 0.52261,0.36231 0.72071,0.3703 1.46542,0.0591 z m -2.26631,-9.64664 c 0.77959,-0.24695 2.08596,-0.68746 2.90305,-0.9789 0.81709,-0.29144 2.11483,-0.72329 2.88386,-0.95968 2.23041,-0.68557 4.23088,-1.34314 9.17592,-3.01619 l 4.63165,-1.56702 0.0523,-0.58809 c 0.0288,-0.32345 -0.0316,-0.80845 -0.13395,-1.07777 -0.17147,-0.45099 -0.23775,-0.48028 -0.83874,-0.37062 -0.3589,0.0656 -1.20311,0.31721 -1.87601,0.55936 -0.6729,0.24217 -3.11108,1.05989 -5.41816,1.81718 -2.30709,0.75728 -5.37446,1.77402 -6.8164,2.2594 -1.44193,0.4854 -3.32955,1.08435 -4.19471,1.33102 -0.86515,0.24665 -1.67132,0.53003 -1.79149,0.62973 -0.22332,0.18528 -0.3217,2.41059 -0.10657,2.41059 0.0616,0 0.74973,-0.20206 1.52932,-0.44901 z m 34.2552,12.34534 c -2.52889,-0.40235 -4.35441,-1.44769 -6.37688,-3.65155 -1.2475,-1.3594 -2.47623,-3.73691 -2.87962,-5.57186 -0.6719,-3.05638 -0.46823,-7.73106 0.4696,-10.77787 0.72307,-2.34913 1.27204,-3.52008 2.63254,-5.61523 2.45552,-3.78141 6.46411,-6.61843 10.63198,-7.52461 5.64717,-1.22782 10.8892,2.45385 12.99258,9.12515 1.56486,4.96327 0.36149,11.4378 -3.07905,16.56647 -2.97609,4.43631 -7.56565,7.26878 -12.18566,7.52044 -0.72096,0.0393 -1.71343,0.007 -2.20549,-0.0709 z m 4.67994,-1.9519 c 1.53873,-0.41519 3.9974,-1.78344 5.47845,-3.04873 1.50086,-1.28222 2.78041,-2.98951 3.99653,-5.33249 1.31477,-2.53303 1.72267,-3.76585 2.1353,-6.45359 0.25897,-1.68693 0.27204,-2.22237 0.0942,-3.8621 -0.38524,-3.55192 -1.41245,-5.95211 -3.54672,-8.28735 -1.13178,-1.23835 -3.16505,-2.27338 -5.00824,-2.54943 -4.94819,-0.74107 -10.39083,2.56957 -13.29448,8.08674 -1.09223,2.07535 -2.08192,4.60676 -2.41285,6.17158 -0.19219,0.90871 -0.2399,2.01079 -0.18541,4.28227 0.0642,2.67501 0.12421,3.18942 0.47871,4.10137 0.98358,2.53019 3.31173,5.35537 5.17933,6.28503 2.0788,1.03479 4.6748,1.2571 7.08519,0.6067 z m -3.65876,-2.59828 c -3.08431,-0.47871 -5.68862,-3.39125 -6.15021,-6.87815 -0.32671,-2.46796 -0.19667,-4.99097 0.37726,-7.31937 0.11137,-0.45181 0.27569,-0.77622 0.36517,-0.72092 0.0917,0.0567 0.11519,-0.0491 0.0537,-0.24275 -0.18362,-0.57851 0.78519,-2.65568 2.11608,-4.53698 2.30776,-3.26216 6.01374,-5.12735 9.20154,-4.63106 3.40862,0.53068 5.41636,2.56895 6.69369,6.79548 0.39203,1.2972 0.46392,1.86212 0.46243,3.63338 -0.002,2.0001 -0.0349,2.19321 -0.71796,4.16495 -1.2549,3.62286 -2.59282,5.5518 -5.22236,7.52935 -2.44357,1.83768 -4.82943,2.5708 -7.17939,2.20607 z m 4.67991,-2.48782 c 1.17067,-0.5779 1.805,-1.05019 2.99217,-2.22781 1.31486,-1.30432 1.61875,-1.72793 2.38855,-3.32963 1.46231,-3.04263 1.87498,-5.54136 1.36346,-8.25594 -0.41379,-2.19596 -0.81136,-2.98808 -2.16918,-4.32187 -1.59824,-1.56997 -2.71304,-2.00217 -4.89516,-1.89784 -2.1504,0.10281 -3.1362,0.60892 -5.19656,2.66792 -1.77794,1.77676 -2.64287,2.99192 -2.79308,3.92407 -0.0559,0.34668 -0.24718,0.94491 -0.42514,1.32943 -0.6604,1.42684 -0.87793,2.55851 -0.87793,4.56738 0,3.22974 0.55507,4.97142 2.10754,6.61292 2.03439,2.15107 4.43181,2.44858 7.50533,0.93137 z m -4.80605,-2.86154 c -0.84347,-0.4398 -1.07408,-0.72481 -1.91382,-2.36536 -0.71839,-1.40346 -0.79565,-1.67208 -0.79565,-2.76622 0,-2.8349 0.94544,-5.37604 2.60396,-6.9989 2.52089,-2.46669 5.60474,-2.774 7.35572,-0.73302 1.23353,1.43782 1.7505,2.92994 1.77093,5.11136 0.0282,3.01465 -2.04674,6.22931 -4.6416,7.19103 -0.43372,0.16075 -0.82633,0.2312 -0.87246,0.15656 -0.13388,-0.21662 -1.14795,-0.003 -1.14795,0.2424 0,0.47609 -1.55239,0.58279 -2.35913,0.16215 z m 4.29826,-2.53446 c 0.78986,-0.39681 1.59654,-1.3082 2.19835,-2.48373 0.35574,-0.69487 0.48465,-1.24302 0.5431,-2.30937 0.0927,-1.69121 -0.12575,-2.58251 -0.84684,-3.45554 -0.70465,-0.85309 -1.42846,-1.21645 -2.42316,-1.21645 -1.05281,0 -1.91376,0.37686 -2.86585,1.25448 -1.12266,1.03483 -1.56323,2.16119 -1.65516,4.23159 -0.0696,1.56803 -0.0422,1.74812 0.38594,2.53431 0.97261,1.78592 2.83561,2.36306 4.66362,1.44471 z m -74.819865,-2.65126 c -1.458349,-0.78071 -1.479684,-0.87541 -1.54588,-6.86088 -0.03857,-3.48788 0.0067,-5.45963 0.135244,-5.88928 0.277311,-0.92693 1.749713,-2.46576 2.785777,-2.91146 0.473056,-0.2035 2.342592,-0.81018 4.154526,-1.34816 1.811934,-0.53799 4.356209,-1.29604 5.653943,-1.68457 1.297739,-0.38852 3.146037,-0.92401 4.107317,-1.18996 1.581924,-0.43766 3.473231,-0.98659 7.515518,-2.1813 0.76903,-0.22729 3.75775,-1.09579 6.64161,-1.930001 2.88386,-0.834211 6.10855,-1.78088 7.16596,-2.103708 2.42542,-0.740481 9.46818,-2.8282 13.02107,-3.859903 2.84643,-0.826562 4.38616,-1.291734 9.96242,-3.009777 1.87451,-0.577536 5.64974,-1.679392 8.38941,-2.448569 2.73966,-0.769178 6.95257,-1.953443 9.36201,-2.631701 5.23813,-1.474537 5.86286,-1.530867 6.87155,-0.619579 0.37355,0.337488 0.77148,0.836404 0.88427,1.108702 0.14547,0.351197 0.1895,1.988861 0.15151,5.634748 -0.0509,4.878265 -0.0727,5.175219 -0.43082,5.838775 -0.87494,1.621463 -0.68247,1.538751 -9.75996,4.194403 -2.40321,0.70307 -5.70654,1.6882 -7.34073,2.18916 -1.63418,0.50097 -3.79708,1.13079 -4.80643,1.39961 -1.00935,0.26882 -2.07114,0.5804 -2.35952,0.69239 -0.28839,0.11201 -1.82208,0.59401 -3.40821,1.07113 -3.25328,0.97861 -7.3742,2.24431 -13.02106,3.99928 -6.26005,1.94553 -11.82959,3.6373 -12.6715,3.84901 -0.95133,0.23923 -6.54907,1.99552 -7.79776,2.44656 -0.4917,0.1776 -3.16582,0.96475 -5.942509,1.74923 -6.175745,1.74481 -9.887365,2.85869 -13.049076,3.91617 -3.148475,1.05305 -3.664726,1.11714 -4.66868,0.57968 z m 6.07,-2.90994 c 4.367326,-1.39265 6.417765,-2.00427 9.133537,-2.7244 0.817099,-0.21666 3.167878,-0.92022 5.223968,-1.56345 2.05609,-0.64323 4.61224,-1.44218 5.68033,-1.77543 1.06809,-0.33325 3.53872,-1.07476 5.49029,-1.64779 1.95155,-0.57305 5.09758,-1.54923 6.99116,-2.16929 1.89359,-0.62007 4.26872,-1.37414 5.27807,-1.67571 1.81938,-0.54359 4.4614,-1.3718 11.71022,-3.67083 2.06677,-0.6555 4.19034,-1.28434 4.71905,-1.39743 1.60531,-0.34337 2.54169,-0.60626 6.8164,-1.91367 2.25901,-0.69092 5.16909,-1.56853 6.46683,-1.95025 1.29773,-0.381701 3.36176,-1.00512 4.58672,-1.385359 1.22496,-0.380238 2.33147,-0.69134 2.45889,-0.69134 0.12742,0 0.63868,-0.120867 1.13613,-0.2686 1.35915,-0.403623 1.37049,-0.447539 1.52016,-5.890408 0.115,-4.181456 0.0983,-4.719581 -0.15906,-5.112297 -0.48745,-0.743945 -0.81313,-0.679828 -10.59152,2.085199 -2.1629,0.611601 -5.82015,1.635602 -8.12723,2.275559 -2.30709,0.639959 -5.57111,1.602552 -7.25336,2.139098 -1.68225,0.536546 -4.86759,1.505598 -7.07855,2.153449 -2.21096,0.647851 -6.96934,2.053122 -10.57416,3.122824 -3.60483,1.069703 -8.04859,2.381335 -9.87504,2.914735 -4.47921,1.30812 -7.62106,2.25333 -10.137201,3.04975 -1.966149,0.62232 -3.562373,1.09055 -9.481781,2.7813 -7.570428,2.16234 -8.160428,2.35751 -8.748208,2.894 -0.354855,0.32389 -0.639445,0.79626 -0.738642,1.22602 -0.08876,0.38451 -0.163249,2.71377 -0.165542,5.17611 -0.004,4.26796 0.01274,4.4985 0.358075,4.93751 0.199234,0.2533 0.513245,0.46053 0.697802,0.46053 0.184555,0 2.282754,-0.62092 4.662662,-1.37983 z m -2.278706,-4.5253 c -0.613727,-0.6406 -0.760119,-1.41003 -0.400561,-2.10534 0.526576,-1.01828 1.561263,-1.15745 2.131779,-0.28674 0.356636,0.5443 0.227203,1.31068 -0.375065,2.22076 -0.520472,0.7865 -0.74019,0.81425 -1.356153,0.17132 z m 3.607088,-1.70936 c -0.361798,-0.3618 -0.427757,-0.55614 -0.341088,-1.00498 0.119267,-0.61767 0.619589,-1.11485 1.291612,-1.28352 0.507957,-0.12749 0.844171,0.0452 1.314447,0.67507 0.280964,0.37631 0.299245,0.5096 0.118016,0.86038 -0.649344,1.25683 -1.58388,1.55215 -2.382987,0.75305 z m 4.920458,-0.84726 c -0.232041,-0.23204 -0.470822,-0.61682 -0.530609,-0.85507 -0.142531,-0.56788 0.332504,-1.47617 0.909532,-1.73908 0.405585,-0.18479 0.497078,-0.15024 0.952881,0.35988 0.277317,0.31038 0.504223,0.7243 0.504223,0.91981 0,0.71536 -0.768707,1.73635 -1.307299,1.73635 -0.05873,0 -0.296678,-0.18984 -0.528728,-0.42189 z m 8.242555,-2.86898 c -0.44864,-0.49575 -0.34557,-0.99295 0.32855,-1.58485 0.68555,-0.60192 1.14173,-0.6805 1.55445,-0.26778 0.42603,0.42602 0.32639,1.04496 -0.26312,1.63447 -0.60895,0.60894 -1.19481,0.68784 -1.61988,0.21816 z m 5.40356,-1.70283 c -0.44661,-0.4466 -0.34987,-1.3886 0.18587,-1.81001 0.25328,-0.19923 0.6015,-0.36224 0.77382,-0.36224 0.30686,0 1.08122,0.80746 0.98347,1.02552 -0.31546,0.70369 -0.56382,1.07043 -0.78148,1.15395 -0.20483,0.0786 -0.21893,0.0483 -0.0643,-0.13789 0.10889,-0.13121 0.13968,-0.29687 0.0684,-0.36813 -0.0713,-0.0713 -0.0214,-0.10336 0.11075,-0.0714 0.13218,0.0321 0.27337,-0.0311 0.31376,-0.14017 0.0434,-0.11731 -0.17989,-0.228 -0.54619,-0.27077 -0.50684,-0.0592 -0.61961,-0.0151 -0.61961,0.24213 0,0.17295 -0.0786,0.31446 -0.17478,0.31446 -0.32767,0 -0.17595,0.36036 0.21848,0.51889 0.28134,0.11309 0.30976,0.16123 0.0999,0.16915 -0.16137,0.006 -0.41698,-0.11251 -0.56804,-0.26357 z m 4.26713,-1.26522 c -0.77101,-0.62433 -0.28951,-1.95571 0.70729,-1.95571 0.86283,0 1.04061,0.65202 0.25648,0.94069 -0.28046,0.10326 -0.30638,0.0852 -0.13109,-0.0914 0.26298,-0.26493 0.28351,-0.49973 0.0437,-0.49973 -0.0961,0 -0.16249,0.059 -0.14748,0.13109 0.015,0.0721 -0.0986,0.40635 -0.25254,0.7428 -0.25759,0.56311 -0.25711,0.62909 0.006,0.8302 0.15727,0.12017 0.20097,0.21848 0.0971,0.21848 -0.10385,0 -0.36467,-0.1424 -0.57959,-0.31642 z m 1.18224,-0.32367 c 0.12016,-0.0485 0.21848,-0.23426 0.21848,-0.41283 0,-0.17858 0.0786,-0.37329 0.17478,-0.4327 0.248,-0.15327 0.21767,0.49893 -0.0349,0.75155 -0.11535,0.11535 -0.29232,0.20352 -0.39326,0.19594 -0.10093,-0.007 -0.0852,-0.0535 0.0349,-0.10196 z m 6.78191,-2.55186 c 0.0649,-0.17053 0.0111,-0.43684 -0.12074,-0.59645 -0.20342,-0.24645 -0.19991,-0.27578 0.0241,-0.20177 0.33553,0.11084 0.44246,0.64686 0.18081,0.9064 -0.15176,0.15055 -0.17256,0.12385 -0.0843,-0.10818 z m 3.57377,-1.87665 c -0.15753,-0.1018 -0.17908,-0.17049 -0.054,-0.17209 0.11448,-9.3e-4 0.25676,0.076 0.31617,0.17209 0.13411,0.217 0.0736,0.217 -0.26217,0 z m 13.33113,-2.97125 c 0.0904,-0.339045 -0.92227,-0.806361 -1.10536,-0.510122 -0.0856,0.138504 -0.15699,0.141754 -0.23791,0.01083 -0.19864,-0.321414 0.56436,-0.932064 0.99845,-0.799096 0.84119,0.257675 1.01397,0.642669 0.54811,1.221298 -0.17793,0.22101 -0.2488,0.24788 -0.20329,0.0771 z m -65.415386,76.43447 c 0,-0.0654 -0.313664,-0.60033 -0.69703,-1.18874 -1.3103,-2.01112 -1.211239,0.80854 -1.234087,-35.12703 -0.01131,-17.78756 0.0326,-32.57697 0.09758,-32.86535 0.222972,-0.98958 0.971058,-2.83343 1.461077,-3.6012 0.937548,-1.46897 2.28626,-2.63821 4.04799,-3.50931 1.885883,-0.932475 3.101499,-1.31087 16.948437,-5.27566 5.527399,-1.58266 12.252039,-3.523148 14.943639,-4.312197 2.6916,-0.789051 5.83763,-1.695145 6.99117,-2.013545 1.15355,-0.318398 3.11982,-0.892394 4.36949,-1.275545 2.8465,-0.872739 11.51589,-3.37732 14.4193,-4.165724 1.20161,-0.32629 3.36449,-0.952543 4.80643,-1.391672 1.44193,-0.439129 3.48685,-1.027602 4.54426,-1.307718 1.05742,-0.280117 3.51382,-0.981118 5.45869,-1.557781 1.94486,-0.576664 4.57965,-1.318834 5.8551,-1.649266 1.27546,-0.330432 2.86956,-0.769575 3.54246,-0.975871 0.6729,-0.206297 2.08861,-0.605712 3.14603,-0.887589 1.05742,-0.281878 2.67848,-0.745307 3.60235,-1.029842 0.92388,-0.284535 1.8087,-0.517337 1.96627,-0.517337 0.15757,0 0.28648,-0.07636 0.28648,-0.1697 0,-0.09334 -1.15143,-0.535683 -2.55874,-0.982996 -1.40731,-0.447313 -3.30429,-1.116648 -4.21552,-1.487412 -1.53899,-0.626194 -3.92168,-1.379817 -4.36249,-1.379817 -0.12616,0 -0.16019,0.340283 -0.1005,1.004981 0.1405,1.564503 -0.15909,2.372528 -1.17834,3.178205 -1.19703,0.9462 -2.40416,1.474819 -4.45061,1.948993 -3.61563,0.837758 -7.42959,0.23623 -9.4889,-1.496564 -0.80184,-0.674707 -0.91296,-1.251781 -0.8506,-4.417141 0.0308,-1.562091 0.0165,-2.840166 -0.0317,-2.840166 -0.46269,0 -5.07125,1.140033 -4.96948,1.229312 0.0742,0.06508 0.68404,0.306676 1.35524,0.536879 0.83738,0.287199 1.45445,0.642263 1.96628,1.131404 l 0.7459,0.712852 v 2.101675 c 0,1.155921 0.0486,2.566819 0.10804,3.135329 0.10263,0.981927 0.0782,1.072864 -0.48779,1.817127 -0.78547,1.032821 -2.00232,1.739427 -4.32311,2.51037 -1.72297,0.572352 -2.08656,0.632624 -3.8162,0.632624 -3.8332,0 -6.79158,-1.259544 -7.17314,-3.054 -0.14345,-0.674645 -0.13592,-0.782964 0.0925,-1.330324 0.10369,-0.248484 0.21508,-1.413754 0.24753,-2.589491 l 0.059,-2.137702 -0.61172,0.109408 c -0.65348,0.116876 -3.14565,0.787852 -6.55422,1.764622 -5.29599,1.517625 -8.99074,2.534124 -11.97239,3.293831 -1.77838,0.453121 -3.980603,1.091582 -4.893832,1.418804 -0.91322,0.327221 -2.525559,0.827948 -3.582978,1.112725 -1.05741,0.284779 -2.237196,0.629937 -2.621734,0.767019 -0.384534,0.137082 -1.281769,0.34751 -1.99385,0.467619 -0.712082,0.120108 -1.577221,0.345419 -1.922531,0.500692 l -0.627836,0.282314 2.009962,0.097 c 1.86274,0.08989 2.091775,0.140871 3.1269,0.695972 1.49719,0.802895 1.575609,1.02142 1.601543,4.462945 0.01862,2.466464 -0.01447,2.801282 -0.316656,3.20892 -0.495953,0.668979 -1.567109,1.36865 -2.703321,1.765787 -2.102635,0.734928 -5.514777,0.287876 -6.867415,-0.899754 l -0.608771,-0.534509 v -3.178921 -3.178924 l 0.742813,-0.715685 c 0.408547,-0.393628 0.978764,-0.846249 1.26715,-1.005826 0.596882,-0.330283 0.649052,-0.344472 -1.922573,0.522894 l -1.922573,0.648451 0.05764,4.071727 c 0.06627,4.680887 0.0038,4.959757 -1.315684,5.867541 -0.94914,0.653025 -2.66853,1.433357 -3.723171,1.689732 -2.614089,0.635464 -6.05756,0.299855 -8.620505,-0.840177 -2.413123,-1.073386 -2.451946,-1.097938 -2.82304,-1.785275 -0.307137,-0.568876 -0.321543,-0.727014 -0.131085,-1.439112 0.117682,-0.440005 0.21397,-1.113483 0.21397,-1.496618 0,-0.596012 -0.05419,-0.69661 -0.375293,-0.69661 -0.452412,0 -5.367044,1.34221 -7.621568,2.081487 -3.403413,1.116007 -5.592742,3.229504 -6.534253,6.307925 l -0.400912,1.310842 -0.0058,32.421573 -0.0058,32.42159 0.38936,1.02101 c 0.495858,1.3003 1.713792,3.0097 2.856773,4.00956 0.882985,0.77241 5.84014,3.41935 6.03632,3.22316 0.0549,-0.0549 -0.09801,-0.55805 -0.339797,-1.11813 -0.612456,-1.41869 -0.689579,-3.31311 -0.537777,-13.20979 l 0.125697,-8.19473 0.453756,0.11195 c 0.249566,0.0616 0.526474,0.18305 0.615352,0.26993 0.09347,0.0914 0.186988,4.12034 0.221825,9.5568 0.06784,10.58851 0.0512,10.44411 1.454477,12.61525 0.777452,1.20288 0.926578,1.29169 5.939784,3.53731 3.083366,1.38117 3.320809,1.47089 3.320809,1.25461 z m -9.612866,-27.41093 c -0.720965,-0.21987 -2.247293,-0.76498 -3.391841,-1.21138 -3.723511,-1.45224 -3.765243,-1.52396 -3.7693,-6.47683 -0.0016,-1.92257 0.07627,-3.78047 0.172983,-4.12866 0.221989,-0.79918 1.245396,-1.55277 2.103729,-1.54909 1.349768,0.006 4.83314,1.10085 6.382321,2.0064 0.391261,0.2287 0.941816,0.7481 1.223456,1.15422 l 0.51207,0.7384 0.05571,4.01387 c 0.06018,4.33537 -0.0076,4.77631 -0.821611,5.34937 -0.729471,0.5135 -1.075893,0.52806 -2.467523,0.1037 z m 1.509494,-2.0465 c 0.07254,-0.11737 0.114871,-1.58363 0.09407,-3.25836 -0.05358,-4.31408 0.02598,-4.19438 -3.624484,-5.45311 -2.253712,-0.77712 -2.947303,-0.85258 -3.216312,-0.34993 -0.249719,0.46661 -0.237842,6.33696 0.01394,6.88957 0.2131,0.4677 0.566209,0.64716 3.30072,1.67748 1.853251,0.69827 3.187277,0.89043 3.432068,0.49435 z m -3.048912,-12.4581 c -0.026,-0.23333 -0.08318,-0.27999 -0.17197,-0.14032 -0.28723,0.45183 -0.54031,-0.0813 -0.557468,-1.17435 -0.0098,-0.62273 0.0052,-1.27788 0.03317,-1.45587 0.04144,-0.2632 -0.242638,-0.42649 -1.522071,-0.87487 -2.947315,-1.03289 -3.927376,-1.85097 -4.248629,-3.54648 -0.285896,-1.50889 -0.332179,-10.49521 -0.05747,-11.15995 0.119172,-0.28839 0.586244,-1.13423 1.037936,-1.87966 0.584711,-0.96494 0.991879,-1.4363 1.413629,-1.63646 0.573792,-0.27232 0.780147,-0.26909 2.398774,0.0375 l 0.544233,0.10309 0.118653,-3.38086 c 0.06525,-1.85946 0.105834,-4.28532 0.09016,-5.39081 -0.02485,-1.75323 0.02851,-2.17143 0.417795,-3.27412 0.245454,-0.69528 0.640468,-1.589798 0.87781,-1.987799 1.481254,-2.48396 5.495859,-4.845987 7.361103,-4.330968 1.031237,0.284739 0.794778,0.593922 -0.959046,1.254009 -2.950731,1.110566 -4.281332,2.178049 -5.434904,4.360178 l -0.763574,1.4444 -0.05396,6.06374 -0.05396,6.06374 0.665692,0.1206 c 1.331276,0.24117 2.67885,1.1497 3.189268,2.1502 0.308576,0.60486 0.344788,1.23397 0.449619,7.81125 0.110202,6.91431 0.102541,7.17141 -0.229195,7.69174 -0.188766,0.29608 -0.615714,0.66763 -0.948775,0.82569 -0.63208,0.29994 -0.793194,0.27925 -2.319563,-0.29784 -1.127492,-0.42628 -1.117307,-0.43782 -1.180623,1.33704 -0.03172,0.88919 -0.0752,1.45941 -0.09663,1.26715 z m 2.991421,-9.61434 c 0.114115,-5.35808 0.02231,-7.95423 -0.288444,-8.15671 -0.284832,-0.18557 -1.07116,0.30437 -1.737079,1.08235 -0.937265,1.09498 -1.082029,1.87609 -1.084613,5.85237 -0.0026,4.00899 0.01506,4.07258 1.534431,5.52174 1.51084,1.44105 1.449898,1.60734 1.575705,-4.29975 z m -4.081766,3.74324 -0.537444,-1.06468 0.02013,-3.96023 c 0.02269,-4.46133 0.09917,-5.07351 0.778725,-6.23309 0.371352,-0.63366 0.680435,-0.90914 1.353144,-1.20603 0.675895,-0.29828 0.819219,-0.42658 0.637665,-0.5708 -0.467186,-0.37112 -1.053004,-0.60455 -2.349226,-0.93605 -1.585909,-0.40562 -2.068454,-0.27397 -3.071902,0.83809 -0.861487,0.95471 -0.920549,1.47217 -0.77926,6.82723 0.125193,4.74506 0.162059,4.94042 1.100464,5.83146 0.618372,0.58717 2.459629,1.53358 2.98937,1.53654 0.395536,0.002 0.395454,9.2e-4 -0.141674,-1.06244 z M 92.107407,88.656928 c -0.967476,-0.302357 -2.272323,-1.074595 -2.48398,-1.470064 -0.222702,-0.41613 -0.234217,-5.472028 -0.01374,-6.051825 0.22981,-0.604442 0.935365,-1.209715 2.07278,-1.778159 0.853663,-0.426635 1.122323,-0.46897 3.058638,-0.481961 1.983285,-0.0133 2.181575,0.01678 3.017605,0.457807 0.924,0.487445 1.81425,1.37732 1.81425,1.813492 0,0.136817 0.0806,0.248759 0.17915,0.248759 0.1869,0 2.74961,-0.750409 8.18353,-2.396295 3.8808,-1.175458 4.53165,-1.276028 4.98882,-0.770868 0.4109,0.454035 0.17294,0.816994 -0.64837,0.988981 -0.30578,0.06403 -1.49977,0.414824 -2.65332,0.779538 -3.04296,0.962093 -6.33882,1.869249 -7.99478,2.20049 -0.79382,0.158788 -1.54161,0.367565 -1.66178,0.463948 -0.14537,0.11661 -0.21847,0.697284 -0.21847,1.735536 0,0.999565 -0.0882,1.729904 -0.24556,2.032257 -0.96918,1.862726 -4.836102,3.028001 -7.39474,2.228364 z m 4.843823,-2.058799 1.13607,-0.574611 0.0513,-1.370102 c 0.0282,-0.753557 -0.0111,-1.342287 -0.0874,-1.308288 -0.0763,0.034 -0.57132,0.294695 -1.10003,0.579326 -0.89597,0.482349 -1.09191,0.517907 -2.88386,0.523336 -1.05741,0.0031 -2.187634,-0.05309 -2.511601,-0.125088 l -0.589022,-0.130914 0.07624,1.0538 c 0.09164,1.266921 0.314499,1.529704 1.566436,1.847017 1.44216,0.365528 2.990037,0.189246 4.341827,-0.494476 z m -0.17566,-4.06664 c 0.99962,-0.506544 1.11936,-0.659853 0.97246,-1.245142 -0.17111,-0.681732 -1.29775,-1.106345 -2.94784,-1.110987 -2.410221,-0.0068 -3.616679,0.521915 -3.616679,1.584903 0,0.443122 0.103736,0.569804 0.65542,0.800374 1.623642,0.678579 3.562599,0.66713 4.936639,-0.02914 z m 8.17003,2.439391 c -0.55943,-0.518725 -0.64085,-1.128992 -0.15064,-1.128992 0.18051,0 0.59858,0.112967 0.92903,0.251038 0.46019,0.192281 0.76177,0.209368 1.28849,0.07301 0.37822,-0.09792 0.92364,-0.215149 1.21202,-0.260513 0.28839,-0.04536 0.69913,-0.118492 0.91276,-0.162509 0.43688,-0.09002 1.12961,-0.755862 1.00169,-0.962831 -0.0459,-0.07423 0.36976,-0.304281 0.92364,-0.511209 0.55388,-0.206928 1.13815,-0.494475 1.29839,-0.638992 0.22735,-0.205069 0.37126,-0.219977 0.65542,-0.0679 0.20025,0.107172 0.36409,0.310068 0.36409,0.450879 0,0.520672 -0.7055,0.925634 -2.82386,1.620911 -1.1945,0.392047 -2.67978,0.953123 -3.30064,1.246837 -1.37253,0.649305 -1.69396,0.661866 -2.31039,0.09028 z m -34.376155,8.249096 c 0.822537,-0.255682 1.86372,-0.69838 2.313738,-0.983772 l 0.818214,-0.518896 -0.02536,-2.27709 -0.02536,-2.277089 -0.540584,0.3609 c -0.866095,0.578216 -1.640043,0.87103 -3.058014,1.156966 -2.568666,0.517974 -6.567343,0.204589 -8.233168,-0.645251 -0.402229,-0.205202 -0.759053,-0.345367 -0.792943,-0.311478 -0.03389,0.03389 -0.07473,0.944456 -0.09076,2.023481 -0.02132,1.435782 0.0349,2.039717 0.209639,2.252192 0.338763,0.411905 2.162896,1.204507 3.297414,1.432756 0.528708,0.106369 1.118589,0.228778 1.310845,0.272019 0.921101,0.20717 3.389729,-0.04128 4.816334,-0.484738 z m 13.062226,-2.836765 c 2.263196,-0.462114 2.658014,-0.851913 2.658014,-2.624215 v -1.301305 l -0.837663,0.424478 c -1.994593,1.010737 -3.958948,1.193652 -5.808994,0.540917 l -0.654038,-0.230758 0.03673,1.250163 c 0.03487,1.186644 0.06323,1.265643 0.55842,1.554845 0.427315,0.249565 1.168609,0.4349 2.561904,0.640516 0.07615,0.01124 0.744681,-0.103351 1.485625,-0.254641 z M 70.909103,86.667457 c 0.528707,-0.204358 1.256227,-0.614835 1.616709,-0.912171 1.092744,-0.901327 0.802881,-1.744023 -0.894646,-2.600932 -1.751398,-0.884103 -3.935349,-1.094992 -6.536772,-0.631211 -1.99646,0.355929 -3.973929,1.433445 -3.972284,2.164484 0.0013,0.585165 0.670411,1.374711 1.492439,1.761109 1.27081,0.597351 2.043591,0.700942 4.798966,0.643299 2.079379,-0.0435 2.706858,-0.119715 3.495588,-0.424578 z M 84.30196,85.855009 c 0.479703,-0.142456 1.062225,-0.461298 1.294494,-0.708537 0.395991,-0.421509 0.405846,-0.478892 0.158169,-0.920749 -0.401922,-0.717028 -1.114953,-0.961049 -3.061346,-1.047687 -1.506036,-0.06703 -1.878628,-0.02646 -2.571476,0.280017 -1.17844,0.521281 -1.350993,1.428246 -0.391355,2.057025 0.941207,0.616703 3.099183,0.777166 4.571514,0.339931 z m 39.70726,-6.564273 c 1.83664,-0.298039 3.64086,-0.956659 4.57761,-1.671036 l 0.87336,-0.666038 v -1.44971 c 0,-0.79734 -0.0477,-1.449709 -0.10593,-1.449709 -0.0583,0 -0.41505,0.24483 -0.79288,0.544066 -2.08457,1.651018 -6.09833,1.973242 -9.66372,0.775805 -0.67929,-0.228139 -1.27164,-0.378688 -1.31634,-0.334553 -0.0447,0.04413 -0.084,0.720985 -0.0874,1.504112 -0.006,1.420039 -0.005,1.424926 0.575,1.818143 1.32852,0.901363 3.76356,1.282145 5.94029,0.92892 z m 19.40953,-5.387452 c 0.80401,-0.296045 1.80141,-0.737272 2.21645,-0.980503 l 0.75462,-0.44224 0.0557,-1.648331 c 0.049,-1.453763 0.0247,-1.621121 -0.20649,-1.417817 -0.14419,0.126783 -0.65542,0.427151 -1.13607,0.667485 -3.26241,1.631292 -7.53883,1.767895 -10.44306,0.333586 l -1.00498,-0.496327 v 1.35571 c 0,1.343677 0.006,1.360309 0.62842,1.873705 0.59051,0.486759 2.30292,1.13591 3.4789,1.318806 0.28838,0.04485 1.35017,0.05739 2.35952,0.02787 1.5324,-0.04483 2.07635,-0.142484 3.29701,-0.591943 z M 126.71924,73.71781 c 1.50369,-0.638212 2.39139,-1.283213 2.39139,-1.737567 0,-1.087267 -2.16067,-2.163964 -4.80642,-2.395116 -2.18897,-0.191242 -5.03377,0.652216 -6.03117,1.788187 -0.76645,0.87294 -0.69579,1.341513 0.28936,1.91885 1.41501,0.829249 2.71385,1.110795 4.86791,1.055197 1.72514,-0.04453 2.06288,-0.109176 3.28893,-0.629551 z m 15.85359,-4.567756 c 1.55489,-0.365045 2.97014,-1.090025 3.28827,-1.684454 0.30516,-0.570183 -0.19469,-1.381215 -1.14943,-1.86502 -1.06358,-0.538956 -3.17919,-0.98635 -4.62626,-0.978326 -2.60693,0.01446 -5.15641,0.854074 -5.97632,1.96818 -0.33034,0.448865 -0.33829,0.526652 -0.0977,0.955339 0.37432,0.666885 1.49797,1.391895 2.61474,1.687098 1.4453,0.382046 4.12562,0.344719 5.94668,-0.08282 z"
       id="path1" /></g></svg>
